<svg width="213" height="20" viewBox="0 0 213 20" fill="none" xmlns="http://www.w3.org/2000/svg">
<g clip-path="url(#clip0_0_1728)">
<path d="M13.468 5.43008C13.0595 4.93097 12.5391 4.53523 11.949 4.27505C11.2908 3.99577 10.5808 3.85946 9.866 3.87509C9.12399 3.86706 8.3888 4.01758 7.70966 4.31662C7.03052 4.61566 6.42309 5.05634 5.928 5.6091C5.42143 6.17876 5.02898 6.84038 4.77199 7.55807C4.21596 9.14614 4.21596 10.876 4.77199 12.4641C5.02996 13.174 5.41715 13.8301 5.91399 14.3991C6.38822 14.9386 6.96955 15.3734 7.62099 15.6761C8.28226 15.9825 9.00322 16.1386 9.732 16.1331C10.5267 16.1491 11.3126 15.9644 12.017 15.5961C12.6795 15.2374 13.2427 14.7199 13.656 14.0901L17.151 16.6981C16.3799 17.7982 15.3195 18.6635 14.087 19.1981C12.884 19.7286 11.5838 20.003 10.269 20.0041C8.86751 20.0185 7.47478 19.7815 6.157 19.3041C4.94725 18.867 3.84007 18.1863 2.904 17.3041C1.9757 16.4146 1.24726 15.3377 0.767005 14.145C-0.255657 11.4801 -0.255657 8.53098 0.767005 5.86606C1.24726 4.67343 1.9757 3.5966 2.904 2.70706C3.84062 1.82557 4.94765 1.14496 6.157 0.707061C7.47492 0.230214 8.86755 -0.00687072 10.269 0.00704891C10.8321 0.0095621 11.3941 0.0590775 11.949 0.155059C12.5368 0.254858 13.1133 0.412636 13.67 0.626067C14.2446 0.846337 14.7905 1.13507 15.296 1.48605C15.8255 1.85312 16.2973 2.297 16.696 2.80307L13.468 5.43008Z" fill="#C44601"/>
<path d="M16.625 10C16.6053 8.58339 16.8656 7.17677 17.391 5.861C17.872 4.66851 18.6007 3.59176 19.529 2.702C20.4653 1.82054 21.5719 1.13992 22.781 0.702004C25.4438 -0.229932 28.3442 -0.229932 31.007 0.702004C32.2162 1.14013 33.3232 1.82072 34.26 2.702C35.188 3.5918 35.9164 4.66856 36.397 5.861C37.4183 8.52617 37.4183 11.4749 36.397 14.1401C35.9164 15.3325 35.188 16.4093 34.26 17.299C33.3238 18.1811 32.2166 18.8618 31.007 19.299C28.3442 20.2311 25.4438 20.2311 22.781 19.299C21.5715 18.862 20.4647 18.1813 19.529 17.299C18.6007 16.4093 17.872 15.3325 17.391 14.1401C16.8655 12.824 16.6052 11.417 16.625 10ZM20.98 10C20.9699 10.8384 21.1112 11.6718 21.397 12.46C21.6608 13.1801 22.0692 13.8386 22.597 14.395C23.1235 14.9466 23.7599 15.3816 24.465 15.672C26.0298 16.2814 27.7662 16.2814 29.331 15.672C30.0362 15.3819 30.6726 14.9468 31.199 14.395C31.7268 13.8386 32.1352 13.1801 32.399 12.46C32.955 10.8719 32.955 9.14212 32.399 7.55405C32.1372 6.8288 31.7287 6.16528 31.199 5.60502C30.6721 5.05388 30.0358 4.61894 29.331 4.32804C27.7663 3.71822 26.0297 3.71822 24.465 4.32804C23.7603 4.61917 23.1241 5.05408 22.597 5.60502C22.0673 6.16528 21.6588 6.8288 21.397 7.55405C21.1136 8.33809 20.9724 9.16639 20.98 10Z" fill="#C44601"/>
<path d="M38.312 0.484131H44.012L52.101 13.7111H52.155V0.484131H56.348V19.5171H50.864L42.558 5.96808H42.501V19.5171H38.308L38.312 0.484131Z" fill="#C44601"/>
<path d="M63.011 4.19409H57.581V0.484131H72.635V4.19409H67.201V19.5171H63.011V4.19409Z" fill="#C44601"/>
<path d="M73.867 0.484131H86.801V4.3551H78.061V7.90411H86.313V11.7741H78.061V15.6461H87.281V19.5171H73.867V0.484131Z" fill="#C44601"/>
<path d="M88.447 0.484131H94.147L102.238 13.7101H102.292V0.484131H106.486V19.5171H101.001L92.694 5.96808H92.64V19.5171H88.447V0.484131Z" fill="#C44601"/>
<path d="M113.147 4.19409H107.717V0.484131H122.771V4.19409H117.34V19.5171H113.147V4.19409Z" fill="#C44601"/>
<path d="M123.667 0.484131H128.237L131.274 12.6841H131.328L135.306 0.484131H139.206L143.156 13.0111H143.21L146.41 0.484131H150.658L145.093 19.5171H141.356L137.163 6.34412H137.109L132.916 19.5171H129.316L123.667 0.484131Z" fill="#C44601"/>
<path d="M151.553 0.484131H155.746V19.5171H151.553V0.484131Z" fill="#C44601"/>
<path d="M167.722 5.1351C167.361 4.69146 166.881 4.36037 166.338 4.18106C165.808 3.9845 165.249 3.87966 164.684 3.87106C164.367 3.8729 164.052 3.90914 163.743 3.97909C163.425 4.04965 163.117 4.16266 162.829 4.31509C162.552 4.45763 162.312 4.6631 162.129 4.91507C161.902 5.26683 161.815 5.69071 161.884 6.10348C161.954 6.51625 162.175 6.88812 162.505 7.14608C163.006 7.48467 163.554 7.74747 164.132 7.92605C164.786 8.14005 165.489 8.35507 166.242 8.57107C166.983 8.78118 167.693 9.08852 168.353 9.48507C169.009 9.882 169.566 10.4247 169.979 11.0711C170.446 11.8774 170.67 12.8015 170.624 13.7321C170.646 14.6887 170.443 15.6371 170.032 16.5011C169.655 17.2686 169.108 17.9398 168.432 18.4631C167.734 18.9958 166.94 19.3883 166.093 19.619C164.037 20.178 161.862 20.1126 159.843 19.4311C158.744 19.0284 157.738 18.4064 156.886 17.6031L159.87 14.3231C160.296 14.8957 160.856 15.3546 161.501 15.6591C162.133 15.9677 162.827 16.1284 163.53 16.1291C163.878 16.1282 164.226 16.0877 164.565 16.0081C164.895 15.9355 165.212 15.8134 165.506 15.6461C165.774 15.4932 166.004 15.2815 166.178 15.0271C166.352 14.7645 166.441 14.455 166.434 14.1401C166.443 13.8773 166.388 13.6163 166.273 13.3797C166.158 13.1432 165.987 12.9383 165.775 12.783C165.27 12.4174 164.713 12.1318 164.121 11.9361C163.458 11.7034 162.741 11.4701 161.971 11.2361C161.218 11.011 160.496 10.695 159.82 10.2951C159.16 9.90412 158.596 9.37163 158.167 8.73605C157.695 7.97049 157.466 7.08029 157.509 6.1821C157.487 5.25061 157.693 4.32783 158.109 3.49405C158.499 2.73915 159.05 2.07872 159.722 1.55905C160.417 1.02702 161.206 0.63017 162.048 0.389065C162.929 0.128415 163.844 -0.00296863 164.763 -0.000949169C165.819 -0.00333932 166.87 0.150695 167.881 0.456082C168.887 0.762345 169.814 1.28567 170.596 1.9891L167.722 5.1351Z" fill="#C44601"/>
<path d="M171.74 0.484131H184.44V4.2981H175.935V8.1051H184.44V11.9111H175.935V15.7181H184.44V19.5181H171.74V0.484131Z" fill="#C44601"/>
<path d="M211.084 15.7181H197.76C196.709 15.7181 195.857 16.5701 195.857 17.6211V17.6221C195.857 18.6731 196.709 19.5251 197.76 19.5251H211.084C212.135 19.5251 212.987 18.6731 212.987 17.6221V17.6211C212.987 16.5701 212.135 15.7181 211.084 15.7181Z" fill="#C44601"/>
<path d="M186.34 15.718L192.058 15.723C192.562 15.723 193.045 15.9232 193.402 16.2795C193.758 16.6359 193.958 17.1191 193.958 17.623C193.958 18.127 193.758 18.6102 193.402 18.9666C193.045 19.3229 192.562 19.5231 192.058 19.5231L186.344 19.517L186.34 15.718Z" fill="#C44601"/>
<path d="M186.34 0.491089H195.857C196.361 0.491089 196.844 0.691288 197.2 1.04761C197.557 1.40393 197.757 1.8872 197.757 2.39111C197.757 2.89502 197.557 3.3783 197.2 3.73462C196.844 4.09094 196.361 4.29114 195.857 4.29114H186.34V0.491089Z" fill="#C44601"/>
<path d="M201.567 0.492065H211.083C211.587 0.492065 212.07 0.692204 212.426 1.04852C212.783 1.40484 212.983 1.88812 212.983 2.39203C212.983 2.89594 212.783 3.37922 212.426 3.73553C212.07 4.09185 211.587 4.29205 211.083 4.29205H201.567C201.063 4.29205 200.58 4.09185 200.223 3.73553C199.867 3.37922 199.667 2.89594 199.667 2.39203C199.667 1.88812 199.867 1.40484 200.223 1.04852C200.58 0.692204 201.063 0.492065 201.567 0.492065Z" fill="#C44601"/>
<path d="M207.277 8.1051H211.083C211.587 8.1051 212.07 8.3053 212.426 8.66162C212.783 9.01794 212.983 9.50122 212.983 10.0051C212.983 10.509 212.783 10.9923 212.426 11.3486C212.07 11.705 211.587 11.9051 211.083 11.9051H207.277C206.773 11.9051 206.29 11.705 205.933 11.3486C205.577 10.9923 205.377 10.509 205.377 10.0051C205.377 9.50122 205.577 9.01794 205.933 8.66162C206.29 8.3053 206.773 8.1051 207.277 8.1051Z" fill="#C44601"/>
<path d="M186.34 8.1051H201.567C202.071 8.1051 202.554 8.3053 202.911 8.66162C203.267 9.01794 203.467 9.50122 203.467 10.0051C203.467 10.509 203.267 10.9923 202.911 11.3486C202.554 11.705 202.071 11.9051 201.567 11.9051H186.34V8.1051Z" fill="#C44601"/>
</g>
<defs>
<clipPath id="clip0_0_1728">
<rect width="212.987" height="20" fill="white"/>
</clipPath>
</defs>
</svg>
