<svg width="99" height="52" viewBox="0 0 99 52" fill="none" xmlns="http://www.w3.org/2000/svg">
<g clip-path="url(#clip0_0_1751)">
<path d="M66.9667 19.9531C66.2178 19.4405 65.3295 19.188 64.4264 19.2177C63.4572 19.2177 62.5101 19.5297 61.7245 20.1165V13.5497H58.516V34.9514H61.7245V23.8457C61.7979 22.8874 62.5909 22.152 63.538 22.1594C64.1768 22.1297 64.7935 22.4194 65.19 22.932C65.5277 23.6377 65.6525 24.4325 65.5497 25.2051V35.0183H68.883V25.0194C68.883 22.0108 68.4131 21.06 66.9667 19.9531Z" fill="#0066CC"/>
<path d="M38.8321 19.2251C35.8439 19.2251 34.0304 21.06 33.7 24.7297C33.6266 25.5691 33.5972 26.416 33.6119 27.2628V29.796C33.8321 33.1685 35.7484 35.3005 38.7587 35.3005C41.7689 35.3005 43.6925 33.176 43.8907 29.796C43.8907 29.5731 43.9788 28.5331 43.9788 27.2851C43.9935 26.4382 43.9642 25.5988 43.8907 24.752C43.509 20.176 40.9319 19.2251 38.8321 19.2251ZM40.7777 30.2268C40.6676 31.3857 40.183 32.6337 38.8394 32.6337C37.4958 32.6337 37.0259 31.3114 36.9011 30.1748V24.3805C36.9011 23.2068 37.5325 22.0182 38.8394 22.0182C40.1463 22.0182 40.763 23.2068 40.7777 24.3805C40.7777 24.3805 40.8658 25.2645 40.8658 27.3742C40.8878 28.3102 40.8585 29.2462 40.7777 30.1822V30.2268Z" fill="#0066CC"/>
<path d="M81.291 26.3566C81.291 25.8292 81.2617 25.3018 81.2029 24.7818C81.1222 23.3926 80.6449 22.0555 79.8226 20.9338C78.9343 19.8343 77.598 19.2029 76.1957 19.2252C73.3103 19.2252 71.4968 21.06 71.159 24.7298C71.1077 25.5692 71.1077 26.416 71.159 27.2629C71.159 28.5109 71.159 29.5583 71.159 29.796C71.3573 33.1166 73.3176 35.3006 76.2177 35.3006C79.1178 35.3006 81.0781 33.2132 81.2764 29.6698H78.1927C78.2074 29.848 78.2074 30.0263 78.1927 30.2046C78.1927 30.9549 77.8109 32.5743 76.2324 32.5743C74.6539 32.5743 74.4189 31.3486 74.3088 30.1378C74.2721 29.4543 74.2721 28.7709 74.3088 28.0875H81.4526C81.4526 28.0578 81.3057 27.0029 81.291 26.3566ZM74.1693 25.3835V24.3212C74.1693 23.036 74.8227 21.9738 76.1296 21.9589C77.4365 21.944 78.0312 23.4818 78.0899 24.3212V25.3835H74.1693Z" fill="#0066CC"/>
<path d="M76.8858 0H22.1876L0 26.0817L22.1876 52H76.8784L98.9927 26.156L76.8858 0ZM75.6376 49.5263H23.4578L3.51683 26.1411L23.4578 2.60743H75.6303L95.5713 26.2303L75.6376 49.5263Z" fill="#0066CC"/>
<path d="M31.3799 28.392C31.233 26.0297 30.6163 24.7223 29.4195 23.9349C30.8512 22.8875 31.6075 21.1417 31.3945 19.3663C31.6882 16.5435 29.6618 14.0177 26.8792 13.7206C26.5341 13.6835 26.1817 13.6835 25.8293 13.7206H20.9175V34.9589H24.0892V25.2423H25.9027C26.9159 25.2423 28.0613 26.1635 28.2448 28.6892L28.5679 33.6589C28.5825 34.1046 28.6339 34.5429 28.7294 34.9812H31.9011C31.8057 34.5429 31.747 34.0972 31.7396 33.644L31.3799 28.392ZM28.2081 19.9235C28.2668 21.2903 27.2243 22.4492 25.8733 22.5086C25.844 22.5086 25.8146 22.5086 25.7779 22.5086H24.0892V16.5137H25.609C26.8719 16.3503 28.0246 17.2492 28.1861 18.5269C28.2081 18.6829 28.2081 18.8389 28.2008 18.9949V19.4926C28.2081 19.7155 28.2081 19.812 28.2081 19.9235Z" fill="#0066CC"/>
<path d="M51.3576 22.0108C52.7158 22.0108 53.2812 23.1994 53.2959 24.3731V25.2943H56.4676V24.7966C56.1226 20.3543 53.4427 19.292 51.3355 19.292C48.3473 19.292 46.5339 21.1269 46.2035 24.7966C46.13 25.636 46.1007 26.4828 46.1154 27.3297C46.1154 28.5777 46.1154 29.588 46.1154 29.8628C46.3356 33.2354 48.2519 35.3674 51.2621 35.3674C54.2724 35.3674 56.1005 33.5326 56.3942 29.8628C56.4089 29.7663 56.4089 29.6623 56.3942 29.5657H53.3326V30.1526C53.3326 31.3411 52.826 32.6114 51.3943 32.6114C49.9626 32.6114 49.5808 31.2371 49.434 30.2268V24.3583C49.5441 22.9988 50.0507 22.0108 51.3576 22.0108Z" fill="#0066CC"/>
</g>
<defs>
<clipPath id="clip0_0_1751">
<rect width="99" height="52" fill="white"/>
</clipPath>
</defs>
</svg>
