<svg width="80" height="81" viewBox="0 0 80 81" fill="none" xmlns="http://www.w3.org/2000/svg">
<g id="Desk research">
<rect id="Rectangle 18376" x="1.00067" y="1.20898" width="76" height="71" rx="4" stroke="#C44601" stroke-width="2"/>
<rect id="Rectangle 18386" x="41.0007" y="19.209" width="30" height="22" rx="1" fill="#C44601"/>
<g id="Group 81279">
<rect id="Rectangle 18386_2" x="1.00067" y="12.209" width="76" height="2" rx="1" fill="#C44601"/>
</g>
<g id="Group 81280">
<rect id="Rectangle 18386_3" x="5.00067" y="19.209" width="30" height="6" rx="1" fill="#C44601"/>
</g>
<g id="Group 81283">
<circle id="Ellipse 1428" cx="58.8408" cy="56.3494" r="10.5" stroke="#C44601" stroke-width="6"/>
<rect id="Rectangle 18377" x="64.2998" y="66.1869" width="3.49077" height="17.2177" rx="1.74538" transform="rotate(-42.9484 64.2998 66.1869)" fill="#C44601" stroke="#C44601" stroke-width="2"/>
</g>
<g id="Group 81281">
<rect id="Rectangle 18386_4" x="5.00067" y="27.209" width="23" height="6" rx="1" fill="#C44601"/>
</g>
<g id="Group 81282">
<rect id="Rectangle 18386_5" x="5.00067" y="35.209" width="30" height="6" rx="1" fill="#C44601"/>
</g>
<g id="Group 81269">
<g id="Group 81275">
<circle id="Ellipse 1423" cx="8.50067" cy="7.70898" r="2.5" fill="#C44601"/>
</g>
<g id="Group 81276">
<circle id="Ellipse 1423_2" cx="15.1672" cy="7.70898" r="2.5" fill="#C44601"/>
</g>
<g id="Group 81277">
<circle id="Ellipse 1423_3" cx="21.8341" cy="7.70898" r="2.5" fill="#C44601"/>
</g>
</g>
<path id="Ellipse 1427" d="M8.3013 50.157C7.20323 52.3721 6.78665 54.863 7.10424 57.3148C7.42183 59.7665 8.45933 62.0691 10.0855 63.9312C11.7117 65.7934 13.8536 67.1315 16.2403 67.7763C18.627 68.4211 21.1513 68.3438 23.494 67.5539C25.8367 66.7641 27.8926 65.2974 29.4017 63.3391C30.9108 61.3809 31.8053 59.0191 31.9722 56.5525C32.139 54.0859 31.5707 51.6251 30.339 49.4815C29.1073 47.3379 27.2676 45.6077 25.0526 44.5096L19.5007 55.709L8.3013 50.157Z" fill="#C44601"/>
</g>
</svg>
