<svg width="108" height="126" viewBox="0 0 108 126" fill="none" xmlns="http://www.w3.org/2000/svg">
<path d="M50.2423 106.728H15C9.47715 106.728 5 102.25 5 96.7276V51.5877C5 48.176 6.73929 44.9998 9.61375 43.1622L43.7356 21.3487C46.9431 19.2982 51.0366 19.2467 54.2946 21.2159L90.6573 43.194C93.6536 45.005 95.4846 48.2512 95.4846 51.7523V57.9713" stroke="#2E2819" stroke-width="7" stroke-linecap="round"/>
<path d="M55.0746 85.2025C51.1208 62.8032 75.2793 63.6812 78.3547 73.3429C86.7003 62.8018 109.541 68.5127 101.195 86.9595C92.8498 105.406 78.3547 107.604 78.3547 107.604C78.3547 107.604 58.1495 100.136 55.0746 85.2025Z" stroke="#2E2819" stroke-width="7" stroke-linecap="round" stroke-linejoin="round"/>
</svg>
