<svg width="78" height="74" viewBox="0 0 78 74" fill="none" xmlns="http://www.w3.org/2000/svg">
<g id="Group 81291">
<rect id="Rectangle 18376" x="1" y="1.703" width="76" height="71" rx="4" stroke="#C44601" stroke-width="2"/>
<rect id="Rectangle 18386" x="11" y="13.703" width="8" height="8" rx="1" fill="#C44601"/>
<rect id="Rectangle 18389" x="41" y="7.703" width="8" height="8" rx="1" fill="#C44601"/>
<rect id="Rectangle 18391" x="50" y="24.703" width="8" height="8" rx="1" fill="#C44601"/>
<rect id="Rectangle 18388" x="11" y="22.703" width="8" height="8" rx="1" fill="#C44601"/>
<rect id="Rectangle 18390" x="50" y="7.703" width="8" height="8" rx="1" fill="#C44601"/>
<rect id="Rectangle 18392" x="60" y="24.703" width="8" height="8" rx="1" fill="#C44601"/>
<rect id="Rectangle 18393" x="50" y="33.703" width="13" height="5" rx="1" fill="#C44601"/>
<rect id="Rectangle 18394" x="64" y="33.703" width="4" height="5" rx="1" fill="#C44601"/>
<rect id="Rectangle 18387" x="20" y="13.703" width="7" height="17" rx="1" fill="#C44601"/>
<rect id="Rectangle 18395" x="9.25" y="10.953" width="19.5" height="22.5" rx="0.75" stroke="#C44601" stroke-width="0.5"/>
<rect id="Rectangle 18396" x="39.25" y="5.953" width="20.5" height="11.5" rx="0.75" stroke="#C44601" stroke-width="0.5"/>
<rect id="Rectangle 18397" x="48.25" y="22.953" width="21.5" height="17.5" rx="0.75" stroke="#C44601" stroke-width="0.5"/>
<g id="Group 81280">
<rect id="Rectangle 18386_2" x="9" y="67.7225" width="27.002" height="6" rx="1" transform="rotate(-90 9 67.7225)" fill="#C44601"/>
</g>
<g id="Group 81281">
<rect id="Rectangle 18386_3" x="17.0049" y="67.7141" width="20.7015" height="6" rx="1" transform="rotate(-90 17.0049 67.7141)" fill="#C44601"/>
</g>
<g id="Group 81282">
<rect id="Rectangle 18386_4" x="25.0002" y="67.705" width="27.002" height="6" rx="1" transform="rotate(-90 25.0002 67.705)" fill="#C44601"/>
</g>
<path id="Ellipse 1427" d="M45.3006 49.6511C44.2026 51.8661 43.786 54.357 44.1036 56.8088C44.4212 59.2606 45.4587 61.5631 47.0849 63.4252C48.7111 65.2874 50.8529 66.6255 53.2396 67.2703C55.6263 67.9152 58.1506 67.8378 60.4933 67.048C62.8361 66.2582 64.892 64.7914 66.4011 62.8331C67.9102 60.8749 68.8047 58.5131 68.9715 56.0465C69.1383 53.5799 68.57 51.1192 67.3383 48.9756C66.1066 46.8319 64.267 45.1017 62.0519 44.0036L56.5 55.203L45.3006 49.6511Z" fill="#C44601"/>
<path id="Vector 212" d="M29 24.703H38.5V32.703H48" stroke="#C44601" stroke-width="2" stroke-linecap="round" stroke-linejoin="round"/>
</g>
</svg>
