<svg width="80" height="81" viewBox="0 0 80 81" fill="none" xmlns="http://www.w3.org/2000/svg">
<g id="Online survey">
<rect id="Rectangle 18376" x="1" y="1.203" width="78" height="78" rx="4" stroke="#C44601" stroke-width="2"/>
<g id="Rectangle 18386">
<mask id="path-2-inside-1_1_997" fill="white">
<rect x="14" y="34.203" width="11" height="11" rx="1"/>
</mask>
<rect x="14" y="34.203" width="11" height="11" rx="1" stroke="#C44601" stroke-width="3" mask="url(#path-2-inside-1_1_997)"/>
</g>
<g id="Rectangle 18388">
<mask id="path-3-inside-2_1_997" fill="white">
<rect x="14" y="60.203" width="11" height="11" rx="1"/>
</mask>
<rect x="14" y="60.203" width="11" height="11" rx="1" stroke="#C44601" stroke-width="3" mask="url(#path-3-inside-2_1_997)"/>
</g>
<g id="Group 81279">
<rect id="Rectangle 18386_2" x="1" y="12.203" width="78" height="2" rx="1" fill="#C44601"/>
</g>
<g id="Group 81280">
<rect id="Rectangle 18386_3" x="5" y="18.203" width="71" height="13" rx="1" fill="#C44601"/>
</g>
<g id="Group 81281">
<rect id="Rectangle 18386_4" x="30.8" y="34.203" width="37.2" height="10.8" rx="1" fill="#C44601"/>
</g>
<g id="Group 81282">
<rect id="Rectangle 18386_5" x="30.8" y="47.4032" width="37.2" height="10.8" rx="1" fill="#C44601"/>
</g>
<g id="Group 81283">
<rect id="Rectangle 18386_6" x="30.8" y="60.6034" width="37.2" height="10.8" rx="1" fill="#C44601"/>
</g>
<g id="Group 81269">
<g id="Group 81275">
<circle id="Ellipse 1423" cx="8.5" cy="7.703" r="2.5" fill="#C44601"/>
</g>
<g id="Group 81276">
<circle id="Ellipse 1423_2" cx="15.1665" cy="7.703" r="2.5" fill="#C44601"/>
</g>
<g id="Group 81277">
<circle id="Ellipse 1423_3" cx="21.8335" cy="7.703" r="2.5" fill="#C44601"/>
</g>
</g>
<path id="Subtract" fill-rule="evenodd" clip-rule="evenodd" d="M15 47.4032C14.4477 47.4032 14 47.8509 14 48.4032V57.2032C14 57.7555 14.4477 58.2032 15 58.2032H23.8C24.3523 58.2032 24.8 57.7555 24.8 57.2032V48.4032C24.8 47.8509 24.3523 47.4032 23.8 47.4032H15ZM23.0025 51.8013C23.4433 51.4686 23.5309 50.8415 23.1981 50.4007C22.8654 49.9599 22.2383 49.8723 21.7975 50.2051L17.8501 53.1848L17.2154 52.2909C16.8956 51.8406 16.2714 51.7348 15.821 52.0545C15.3707 52.3743 15.2649 52.9985 15.5846 53.4488L16.8154 55.1822C16.9719 55.4025 17.2109 55.5502 17.478 55.5915C17.7451 55.6327 18.0175 55.5642 18.2332 55.4013L23.0025 51.8013Z" fill="#C44601"/>
</g>
</svg>
