<svg width="80" height="81" viewBox="0 0 80 81" fill="none" xmlns="http://www.w3.org/2000/svg">
<g id="presentation">
<g id="Rectangle 18397">
<mask id="path-1-inside-1_1_1126" fill="white">
<rect x="25.641" y="0.203003" width="54.359" height="43.7729" rx="1"/>
</mask>
<rect x="25.641" y="0.203003" width="54.359" height="43.7729" rx="1" stroke="#C44601" stroke-width="6" mask="url(#path-1-inside-1_1_1126)"/>
</g>
<path id="Ellipse 1427" d="M54.4539 15.3448C53.5079 17.3809 53.149 19.6706 53.4226 21.9244C53.6962 24.1781 54.59 26.2947 55.9911 28.0064C57.3921 29.7182 59.2374 30.9482 61.2936 31.5409C63.3499 32.1337 65.5247 32.0626 67.543 31.3366C69.5613 30.6105 71.3326 29.2622 72.6327 27.4622C73.9329 25.6621 74.7035 23.4911 74.8473 21.2237C74.991 18.9563 74.5013 16.6943 73.4402 14.7238C72.3791 12.7533 70.7941 11.1628 68.8858 10.1535L64.1026 20.4483L54.4539 15.3448Z" fill="#C44601"/>
<rect id="Rectangle 18398" width="20.5895" height="6.37166" rx="1" transform="matrix(0.999943 0.0107113 -0.00634032 0.99998 31.3712 10.3983)" fill="#C44601"/>
<rect id="Rectangle 18399" width="15.6872" height="6.37166" rx="1" transform="matrix(0.999943 0.0107113 -0.00634032 0.99998 31.3226 18.0428)" fill="#C44601"/>
<rect id="Rectangle 18386" width="20.5895" height="6.37166" rx="1" transform="matrix(0.999943 0.0107113 -0.00634032 0.99998 31.274 25.6884)" fill="#C44601"/>
<g id="Union">
<mask id="path-6-inside-2_1_1126" fill="white">
<path fill-rule="evenodd" clip-rule="evenodd" d="M45.8889 60.165C47.6834 59.2694 48.8889 57.6073 48.8889 55.7048C48.8889 52.8534 46.1809 50.5419 42.8403 50.5419C39.4997 50.5419 36.7916 52.8534 36.7916 55.7048C36.7916 57.6073 37.9972 59.2695 39.7917 60.1651C37.306 61.1755 35.5819 63.3832 35.5819 65.9442C35.5819 69.2772 38.5022 69.2695 42.221 69.2596C42.4251 69.2591 42.6317 69.2586 42.8403 69.2586C43.0489 69.2586 43.2555 69.2591 43.4597 69.2596C47.1785 69.2695 50.0987 69.2772 50.0987 65.9442C50.0987 63.3832 48.3746 61.1754 45.8889 60.165Z"/>
</mask>
<path fill-rule="evenodd" clip-rule="evenodd" d="M45.8889 60.165C47.6834 59.2694 48.8889 57.6073 48.8889 55.7048C48.8889 52.8534 46.1809 50.5419 42.8403 50.5419C39.4997 50.5419 36.7916 52.8534 36.7916 55.7048C36.7916 57.6073 37.9972 59.2695 39.7917 60.1651C37.306 61.1755 35.5819 63.3832 35.5819 65.9442C35.5819 69.2772 38.5022 69.2695 42.221 69.2596C42.4251 69.2591 42.6317 69.2586 42.8403 69.2586C43.0489 69.2586 43.2555 69.2591 43.4597 69.2596C47.1785 69.2695 50.0987 69.2772 50.0987 65.9442C50.0987 63.3832 48.3746 61.1754 45.8889 60.165Z" fill="#C44601"/>
<path d="M45.8889 60.165L45.7549 59.8966L45.161 60.193L45.7759 60.443L45.8889 60.165ZM39.7917 60.1651L39.9047 60.443L40.5196 60.193L39.9257 59.8966L39.7917 60.1651ZM42.221 69.2596L42.2218 69.5596L42.221 69.2596ZM43.4597 69.2596L43.4589 69.5596L43.4597 69.2596ZM48.5889 55.7048C48.5889 57.4719 47.4687 59.0413 45.7549 59.8966L46.0228 60.4335C47.8982 59.4975 49.1889 57.7427 49.1889 55.7048H48.5889ZM42.8403 50.8419C46.0615 50.8419 48.5889 53.0619 48.5889 55.7048H49.1889C49.1889 52.6449 46.3002 50.2419 42.8403 50.2419V50.8419ZM37.0916 55.7048C37.0916 53.0619 39.6191 50.8419 42.8403 50.8419V50.2419C39.3803 50.2419 36.4916 52.6449 36.4916 55.7048H37.0916ZM39.9257 59.8966C38.2119 59.0414 37.0916 57.4719 37.0916 55.7048H36.4916C36.4916 57.7427 37.7824 59.4976 39.6578 60.4335L39.9257 59.8966ZM35.8819 65.9442C35.8819 63.527 37.5105 61.4162 39.9047 60.443L39.6788 59.8871C37.1015 60.9348 35.2819 63.2395 35.2819 65.9442H35.8819ZM42.2202 68.9596C40.3403 68.9646 38.7407 68.965 37.605 68.572C37.0487 68.3795 36.6271 68.0994 36.341 67.6962C36.0546 67.2924 35.8819 66.7339 35.8819 65.9442H35.2819C35.2819 66.821 35.4743 67.5114 35.8517 68.0433C36.2294 68.5758 36.7702 68.918 37.4088 69.139C38.6629 69.5729 40.3829 69.5645 42.2218 69.5596L42.2202 68.9596ZM42.8403 68.9586C42.6312 68.9586 42.4243 68.9591 42.2202 68.9596L42.2218 69.5596C42.426 69.5591 42.6322 69.5586 42.8403 69.5586V68.9586ZM43.4605 68.9596C43.2564 68.9591 43.0494 68.9586 42.8403 68.9586V69.5586C43.0485 69.5586 43.2547 69.5591 43.4589 69.5596L43.4605 68.9596ZM49.7987 65.9442C49.7987 66.7339 49.6261 67.2924 49.3396 67.6962C49.0536 68.0994 48.6319 68.3795 48.0756 68.572C46.9399 68.965 45.3403 68.9646 43.4605 68.9596L43.4589 69.5596C45.2978 69.5645 47.0177 69.5729 48.2718 69.139C48.9104 68.918 49.4513 68.5758 49.829 68.0433C50.2063 67.5114 50.3987 66.821 50.3987 65.9442H49.7987ZM45.7759 60.443C48.1701 61.4161 49.7987 63.527 49.7987 65.9442H50.3987C50.3987 63.2395 48.5791 60.9347 46.0018 59.8871L45.7759 60.443Z" fill="white" mask="url(#path-6-inside-2_1_1126)"/>
</g>
<g id="Union_2">
<mask id="path-8-inside-3_1_1126" fill="white">
<path fill-rule="evenodd" clip-rule="evenodd" d="M57.9862 60.165C59.7808 59.2694 60.9863 57.6073 60.9863 55.7048C60.9863 52.8534 58.2782 50.5419 54.9376 50.5419C51.597 50.5419 48.889 52.8534 48.889 55.7048C48.889 57.6073 50.0945 59.2695 51.8891 60.1651C49.4034 61.1755 47.6793 63.3832 47.6793 65.9442C47.6793 69.2772 50.5995 69.2695 54.3183 69.2596C54.5225 69.2591 54.729 69.2586 54.9377 69.2586C55.1463 69.2586 55.3529 69.2591 55.557 69.2596C59.2758 69.2695 62.1961 69.2772 62.1961 65.9442C62.1961 63.3832 60.4719 61.1754 57.9862 60.165Z"/>
</mask>
<path fill-rule="evenodd" clip-rule="evenodd" d="M57.9862 60.165C59.7808 59.2694 60.9863 57.6073 60.9863 55.7048C60.9863 52.8534 58.2782 50.5419 54.9376 50.5419C51.597 50.5419 48.889 52.8534 48.889 55.7048C48.889 57.6073 50.0945 59.2695 51.8891 60.1651C49.4034 61.1755 47.6793 63.3832 47.6793 65.9442C47.6793 69.2772 50.5995 69.2695 54.3183 69.2596C54.5225 69.2591 54.729 69.2586 54.9377 69.2586C55.1463 69.2586 55.3529 69.2591 55.557 69.2596C59.2758 69.2695 62.1961 69.2772 62.1961 65.9442C62.1961 63.3832 60.4719 61.1754 57.9862 60.165Z" fill="#C44601"/>
<path d="M57.9862 60.165L57.8522 59.8966L57.2583 60.193L57.8732 60.443L57.9862 60.165ZM51.8891 60.1651L52.0021 60.443L52.617 60.193L52.0231 59.8966L51.8891 60.1651ZM54.3183 69.2596L54.3191 69.5596H54.3191L54.3183 69.2596ZM55.557 69.2596L55.5562 69.5596L55.557 69.2596ZM60.6863 55.7048C60.6863 57.4719 59.566 59.0413 57.8522 59.8966L58.1202 60.4335C59.9955 59.4975 61.2863 57.7427 61.2863 55.7048H60.6863ZM54.9376 50.8419C58.1588 50.8419 60.6863 53.0619 60.6863 55.7048H61.2863C61.2863 52.6449 58.3976 50.2419 54.9376 50.2419V50.8419ZM49.189 55.7048C49.189 53.0619 51.7164 50.8419 54.9376 50.8419V50.2419C51.4777 50.2419 48.589 52.6449 48.589 55.7048H49.189ZM52.0231 59.8966C50.3093 59.0414 49.189 57.4719 49.189 55.7048H48.589C48.589 57.7427 49.8797 59.4976 51.7551 60.4335L52.0231 59.8966ZM47.9793 65.9442C47.9793 63.527 49.6079 61.4162 52.0021 60.443L51.7761 59.8871C49.1989 60.9348 47.3793 63.2395 47.3793 65.9442H47.9793ZM54.3175 68.9596C52.4376 68.9646 50.8381 68.965 49.7024 68.572C49.1461 68.3795 48.7244 68.0994 48.4384 67.6962C48.1519 67.2924 47.9793 66.7339 47.9793 65.9442H47.3793C47.3793 66.821 47.5717 67.5114 47.949 68.0433C48.3267 68.5758 48.8676 68.918 49.5062 69.139C50.7602 69.5729 52.4802 69.5645 54.3191 69.5596L54.3175 68.9596ZM54.9377 68.9586C54.7286 68.9586 54.5216 68.9591 54.3175 68.9596L54.3191 69.5596C54.5233 69.5591 54.7295 69.5586 54.9377 69.5586V68.9586ZM55.5578 68.9596C55.3537 68.9591 55.1468 68.9586 54.9377 68.9586V69.5586C55.1458 69.5586 55.352 69.5591 55.5562 69.5596L55.5578 68.9596ZM61.8961 65.9442C61.8961 66.7339 61.7234 67.2924 61.437 67.6962C61.1509 68.0994 60.7293 68.3795 60.173 68.572C59.0373 68.965 57.4377 68.9646 55.5578 68.9596L55.5562 69.5596C57.3951 69.5645 59.1151 69.5729 60.3692 69.139C61.0078 68.918 61.5486 68.5758 61.9263 68.0433C62.3037 67.5114 62.4961 66.821 62.4961 65.9442H61.8961ZM57.8732 60.443C60.2674 61.4161 61.8961 63.527 61.8961 65.9442H62.4961C62.4961 63.2395 60.6764 60.9347 58.0992 59.8871L57.8732 60.443Z" fill="white" mask="url(#path-8-inside-3_1_1126)"/>
</g>
<g id="Union_3">
<mask id="path-10-inside-4_1_1126" fill="white">
<path fill-rule="evenodd" clip-rule="evenodd" d="M25.7734 41.5617C27.5812 40.6773 28.7955 39.0366 28.7955 37.1588C28.7955 34.3436 26.0663 32.0614 22.6997 32.0614C19.3331 32.0614 16.6039 34.3436 16.6039 37.1588C16.6039 39.0366 17.8182 40.6772 19.6259 41.5617C17.1215 42.5595 15.3846 44.7389 15.3846 47.2669C15.3846 50.5575 18.3276 50.5499 22.0754 50.5402C22.2811 50.5397 22.4893 50.5391 22.6996 50.5391C22.9098 50.5391 23.118 50.5397 23.3237 50.5402C27.0715 50.5499 30.0145 50.5575 30.0145 47.2669C30.0145 44.7389 28.2777 42.5595 25.7734 41.5617Z"/>
</mask>
<path fill-rule="evenodd" clip-rule="evenodd" d="M25.7734 41.5617C27.5812 40.6773 28.7955 39.0366 28.7955 37.1588C28.7955 34.3436 26.0663 32.0614 22.6997 32.0614C19.3331 32.0614 16.6039 34.3436 16.6039 37.1588C16.6039 39.0366 17.8182 40.6772 19.6259 41.5617C17.1215 42.5595 15.3846 44.7389 15.3846 47.2669C15.3846 50.5575 18.3276 50.5499 22.0754 50.5402C22.2811 50.5397 22.4893 50.5391 22.6996 50.5391C22.9098 50.5391 23.118 50.5397 23.3237 50.5402C27.0715 50.5499 30.0145 50.5575 30.0145 47.2669C30.0145 44.7389 28.2777 42.5595 25.7734 41.5617Z" fill="#C44601"/>
<path d="M25.7734 41.5617L25.6415 41.2922L25.0333 41.5898L25.6623 41.8404L25.7734 41.5617ZM19.6259 41.5617L19.7369 41.8403L20.366 41.5897L19.7577 41.2922L19.6259 41.5617ZM22.0754 50.5402L22.0746 50.2402H22.0746L22.0754 50.5402ZM23.3237 50.5402L23.3245 50.2402H23.3245L23.3237 50.5402ZM28.4955 37.1588C28.4955 38.898 27.37 40.4466 25.6415 41.2922L25.9052 41.8312C27.7923 40.908 29.0955 39.1753 29.0955 37.1588H28.4955ZM22.6997 32.3614C25.9531 32.3614 28.4955 34.5573 28.4955 37.1588H29.0955C29.0955 34.1299 26.1795 31.7614 22.6997 31.7614V32.3614ZM16.9039 37.1588C16.9039 34.5573 19.4463 32.3614 22.6997 32.3614V31.7614C19.2199 31.7614 16.3039 34.1299 16.3039 37.1588H16.9039ZM19.7577 41.2922C18.0293 40.4466 16.9039 38.8979 16.9039 37.1588H16.3039C16.3039 39.1753 17.607 40.9079 19.4941 41.8311L19.7577 41.2922ZM15.6846 47.2669C15.6846 44.8863 17.322 42.8025 19.7369 41.8403L19.5149 41.283C16.9211 42.3164 15.0846 44.5915 15.0846 47.2669H15.6846ZM22.0746 50.2402C20.1806 50.2451 18.5669 50.2456 17.4209 49.8571C16.859 49.6666 16.4339 49.3896 16.146 48.992C15.8581 48.5945 15.6846 48.0448 15.6846 47.2669H15.0846C15.0846 48.1343 15.279 48.8177 15.66 49.3439C16.0411 49.8701 16.5859 50.2076 17.2283 50.4253C18.4907 50.8532 20.2224 50.845 22.0762 50.8402L22.0746 50.2402ZM22.6996 50.2391C22.4889 50.2391 22.2803 50.2397 22.0746 50.2402L22.0762 50.8402C22.282 50.8397 22.4898 50.8391 22.6996 50.8391V50.2391ZM23.3245 50.2402C23.1188 50.2397 22.9103 50.2391 22.6996 50.2391V50.8391C22.9094 50.8391 23.1172 50.8397 23.323 50.8402L23.3245 50.2402ZM29.7145 47.2669C29.7145 48.0448 29.541 48.5945 29.2531 48.992C28.9652 49.3896 28.5401 49.6666 27.9782 49.8571C26.8322 50.2456 25.2185 50.2451 23.3245 50.2402L23.323 50.8402C25.1767 50.845 26.9085 50.8532 28.1709 50.4253C28.8132 50.2076 29.358 49.8701 29.7391 49.3439C30.1202 48.8177 30.3145 48.1343 30.3145 47.2669H29.7145ZM25.6623 41.8404C28.0772 42.8026 29.7145 44.8863 29.7145 47.2669H30.3145C30.3145 44.5916 28.4781 42.3165 25.8844 41.283L25.6623 41.8404Z" fill="white" mask="url(#path-10-inside-4_1_1126)"/>
</g>
<g id="Union_4">
<mask id="path-12-inside-5_1_1126" fill="white">
<path fill-rule="evenodd" clip-rule="evenodd" d="M21.589 61.4131C23.3835 60.5175 24.589 58.8553 24.589 56.9529C24.589 54.1015 21.881 51.7899 18.5404 51.7899C15.1998 51.7899 12.4917 54.1015 12.4917 56.9529C12.4917 58.8554 13.6973 60.5175 15.4918 61.4131C13.0061 62.4235 11.282 64.6313 11.282 67.1923C11.282 70.5252 14.2023 70.5175 17.9211 70.5077C18.1252 70.5072 18.3318 70.5066 18.5404 70.5066C18.7491 70.5066 18.9556 70.5072 19.1598 70.5077C22.8786 70.5175 25.7988 70.5252 25.7988 67.1923C25.7988 64.6313 24.0747 62.4235 21.589 61.4131Z"/>
</mask>
<path fill-rule="evenodd" clip-rule="evenodd" d="M21.589 61.4131C23.3835 60.5175 24.589 58.8553 24.589 56.9529C24.589 54.1015 21.881 51.7899 18.5404 51.7899C15.1998 51.7899 12.4917 54.1015 12.4917 56.9529C12.4917 58.8554 13.6973 60.5175 15.4918 61.4131C13.0061 62.4235 11.282 64.6313 11.282 67.1923C11.282 70.5252 14.2023 70.5175 17.9211 70.5077C18.1252 70.5072 18.3318 70.5066 18.5404 70.5066C18.7491 70.5066 18.9556 70.5072 19.1598 70.5077C22.8786 70.5175 25.7988 70.5252 25.7988 67.1923C25.7988 64.6313 24.0747 62.4235 21.589 61.4131Z" fill="#C44601"/>
<path d="M21.589 61.4131L21.455 61.1447L20.8611 61.4411L21.476 61.691L21.589 61.4131ZM15.4918 61.4131L15.6048 61.691L16.2197 61.4411L15.6258 61.1447L15.4918 61.4131ZM17.9211 70.5077L17.9219 70.8077L17.9211 70.5077ZM19.1598 70.5077L19.159 70.8077L19.1598 70.5077ZM24.289 56.9529C24.289 58.72 23.1688 60.2894 21.455 61.1447L21.7229 61.6815C23.5983 60.7456 24.889 58.9907 24.889 56.9529H24.289ZM18.5404 52.0899C21.7616 52.0899 24.289 54.3099 24.289 56.9529H24.889C24.889 53.893 22.0003 51.4899 18.5404 51.4899V52.0899ZM12.7917 56.9529C12.7917 54.3099 15.3192 52.0899 18.5404 52.0899V51.4899C15.0804 51.4899 12.1917 53.893 12.1917 56.9529H12.7917ZM15.6258 61.1447C13.912 60.2894 12.7917 58.72 12.7917 56.9529H12.1917C12.1917 58.9907 13.4825 60.7456 15.3579 61.6815L15.6258 61.1447ZM11.582 67.1923C11.582 64.775 13.2107 62.6642 15.6048 61.691L15.3789 61.1352C12.8016 62.1828 10.982 64.4875 10.982 67.1923H11.582ZM17.9203 70.2077C16.0404 70.2127 14.4408 70.213 13.3051 69.82C12.7488 69.6275 12.3272 69.3474 12.0411 68.9442C11.7547 68.5405 11.582 67.982 11.582 67.1923H10.982C10.982 68.069 11.1744 68.7595 11.5518 69.2914C11.9295 69.8238 12.4703 70.1661 13.1089 70.387C14.363 70.821 16.083 70.8125 17.9219 70.8077L17.9203 70.2077ZM18.5404 70.2066C18.3313 70.2066 18.1244 70.2072 17.9203 70.2077L17.9219 70.8077C18.1261 70.8071 18.3323 70.8066 18.5404 70.8066V70.2066ZM19.1606 70.2077C18.9565 70.2072 18.7495 70.2066 18.5404 70.2066V70.8066C18.7486 70.8066 18.9548 70.8071 19.159 70.8077L19.1606 70.2077ZM25.4988 67.1923C25.4988 67.982 25.3262 68.5405 25.0397 68.9442C24.7537 69.3474 24.332 69.6275 23.7757 69.82C22.64 70.213 21.0405 70.2127 19.1606 70.2077L19.159 70.8077C20.9979 70.8125 22.7179 70.821 23.9719 70.387C24.6105 70.1661 25.1514 69.8238 25.5291 69.2914C25.9064 68.7595 26.0988 68.069 26.0988 67.1923H25.4988ZM21.476 61.691C23.8702 62.6642 25.4988 64.775 25.4988 67.1923H26.0988C26.0988 64.4875 24.2792 62.1828 21.7019 61.1352L21.476 61.691Z" fill="white" mask="url(#path-12-inside-5_1_1126)"/>
</g>
<g id="Union_5">
<mask id="path-14-inside-6_1_1126" fill="white">
<path fill-rule="evenodd" clip-rule="evenodd" d="M33.8967 60.3184C35.6912 59.4228 36.8967 57.7606 36.8967 55.8582C36.8967 53.0067 34.1887 50.6952 30.8481 50.6952C27.5075 50.6952 24.7994 53.0067 24.7994 55.8582C24.7994 57.7606 26.005 59.4228 27.7996 60.3184C25.3139 61.3288 23.5898 63.5366 23.5898 66.0975C23.5898 69.4305 26.51 69.4228 30.2288 69.413C30.4329 69.4124 30.6395 69.4119 30.8481 69.4119C31.0568 69.4119 31.2633 69.4124 31.4675 69.413C35.1863 69.4228 38.1065 69.4305 38.1065 66.0975C38.1065 63.5365 36.3824 61.3288 33.8967 60.3184Z"/>
</mask>
<path fill-rule="evenodd" clip-rule="evenodd" d="M33.8967 60.3184C35.6912 59.4228 36.8967 57.7606 36.8967 55.8582C36.8967 53.0067 34.1887 50.6952 30.8481 50.6952C27.5075 50.6952 24.7994 53.0067 24.7994 55.8582C24.7994 57.7606 26.005 59.4228 27.7996 60.3184C25.3139 61.3288 23.5898 63.5366 23.5898 66.0975C23.5898 69.4305 26.51 69.4228 30.2288 69.413C30.4329 69.4124 30.6395 69.4119 30.8481 69.4119C31.0568 69.4119 31.2633 69.4124 31.4675 69.413C35.1863 69.4228 38.1065 69.4305 38.1065 66.0975C38.1065 63.5365 36.3824 61.3288 33.8967 60.3184Z" fill="#C44601"/>
<path d="M33.8967 60.3184L33.7627 60.0499L33.1688 60.3463L33.7837 60.5963L33.8967 60.3184ZM27.7996 60.3184L27.9125 60.5963L28.5274 60.3464L27.9335 60.05L27.7996 60.3184ZM30.2288 69.413L30.2296 69.713L30.2288 69.413ZM31.4675 69.413L31.4667 69.713L31.4675 69.413ZM36.5967 55.8582C36.5967 57.6252 35.4765 59.1946 33.7627 60.0499L34.0306 60.5868C35.906 59.6509 37.1967 57.896 37.1967 55.8582H36.5967ZM30.8481 50.9952C34.0693 50.9952 36.5967 53.2152 36.5967 55.8582H37.1967C37.1967 52.7983 34.308 50.3952 30.8481 50.3952V50.9952ZM25.0994 55.8582C25.0994 53.2152 27.6269 50.9952 30.8481 50.9952V50.3952C27.3881 50.3952 24.4994 52.7983 24.4994 55.8582H25.0994ZM27.9335 60.05C26.2197 59.1947 25.0994 57.6253 25.0994 55.8582H24.4994C24.4994 57.896 25.7902 59.6509 27.6656 60.5868L27.9335 60.05ZM23.8898 66.0975C23.8898 63.6803 25.5184 61.5695 27.9125 60.5963L27.6866 60.0405C25.1093 61.0881 23.2898 63.3928 23.2898 66.0975H23.8898ZM30.228 69.113C28.3481 69.1179 26.7486 69.1183 25.6128 68.7253C25.0565 68.5328 24.6349 68.2527 24.3488 67.8495C24.0624 67.4457 23.8898 66.8872 23.8898 66.0975H23.2898C23.2898 66.9743 23.4821 67.6647 23.8595 68.1966C24.2372 68.7291 24.778 69.0713 25.4166 69.2923C26.6707 69.7263 28.3907 69.7178 30.2296 69.713L30.228 69.113ZM30.8481 69.1119C30.639 69.1119 30.4321 69.1124 30.228 69.113L30.2296 69.713C30.4338 69.7124 30.64 69.7119 30.8481 69.7119V69.1119ZM31.4683 69.113C31.2642 69.1124 31.0572 69.1119 30.8481 69.1119V69.7119C31.0563 69.7119 31.2625 69.7124 31.4667 69.713L31.4683 69.113ZM37.8065 66.0975C37.8065 66.8872 37.6339 67.4457 37.3474 67.8495C37.0614 68.2527 36.6398 68.5328 36.0834 68.7253C34.9477 69.1183 33.3482 69.1179 31.4683 69.113L31.4667 69.713C33.3056 69.7178 35.0256 69.7263 36.2796 69.2923C36.9183 69.0713 37.4591 68.7291 37.8368 68.1966C38.2141 67.6647 38.4065 66.9743 38.4065 66.0975H37.8065ZM33.7837 60.5963C36.1779 61.5695 37.8065 63.6803 37.8065 66.0975H38.4065C38.4065 63.3928 36.5869 61.088 34.0096 60.0404L33.7837 60.5963Z" fill="white" mask="url(#path-14-inside-6_1_1126)"/>
</g>
<g id="Union_6">
<mask id="path-16-inside-7_1_1126" fill="white">
<path fill-rule="evenodd" clip-rule="evenodd" d="M10.3069 62.7042C12.1015 61.8086 13.307 60.1465 13.307 58.244C13.307 55.3926 10.5989 53.0811 7.25834 53.0811C3.91776 53.0811 1.20969 55.3926 1.20969 58.244C1.20969 60.1465 2.41521 61.8086 4.2098 62.7042C1.7241 63.7147 0 65.9224 0 68.4834C0 71.8164 2.92024 71.8087 6.63903 71.7988C6.84319 71.7983 7.04976 71.7977 7.25838 71.7977C7.46701 71.7977 7.67358 71.7983 7.87774 71.7988C11.5965 71.8087 14.5168 71.8164 14.5168 68.4834C14.5168 65.9224 12.7926 63.7146 10.3069 62.7042Z"/>
</mask>
<path fill-rule="evenodd" clip-rule="evenodd" d="M10.3069 62.7042C12.1015 61.8086 13.307 60.1465 13.307 58.244C13.307 55.3926 10.5989 53.0811 7.25834 53.0811C3.91776 53.0811 1.20969 55.3926 1.20969 58.244C1.20969 60.1465 2.41521 61.8086 4.2098 62.7042C1.7241 63.7147 0 65.9224 0 68.4834C0 71.8164 2.92024 71.8087 6.63903 71.7988C6.84319 71.7983 7.04976 71.7977 7.25838 71.7977C7.46701 71.7977 7.67358 71.7983 7.87774 71.7988C11.5965 71.8087 14.5168 71.8164 14.5168 68.4834C14.5168 65.9224 12.7926 63.7146 10.3069 62.7042Z" fill="#C44601"/>
<path d="M10.3069 62.7042L10.173 62.4358L9.57904 62.7322L10.1939 62.9821L10.3069 62.7042ZM4.2098 62.7042L4.32277 62.9822L4.93767 62.7322L4.34376 62.4358L4.2098 62.7042ZM6.63903 71.7988L6.63982 72.0988L6.63903 71.7988ZM7.87774 71.7988L7.87695 72.0988L7.87774 71.7988ZM13.007 58.244C13.007 60.0111 11.8867 61.5805 10.173 62.4358L10.4409 62.9727C12.3162 62.0367 13.607 60.2819 13.607 58.244H13.007ZM7.25834 53.3811C10.4795 53.3811 13.007 55.6011 13.007 58.244H13.607C13.607 55.1841 10.7183 52.7811 7.25834 52.7811V53.3811ZM1.50969 58.244C1.50969 55.6011 4.03714 53.3811 7.25834 53.3811V52.7811C3.79838 52.7811 0.909685 55.1841 0.909685 58.244H1.50969ZM4.34376 62.4358C2.62997 61.5805 1.50969 60.0111 1.50969 58.244H0.909685C0.909685 60.2819 2.20046 62.0368 4.07584 62.9727L4.34376 62.4358ZM0.3 68.4834C0.3 66.0662 1.92861 63.9554 4.32277 62.9822L4.09683 62.4263C1.51959 63.4739 -0.3 65.7787 -0.3 68.4834H0.3ZM6.63823 71.4988C4.75835 71.5038 3.1588 71.5041 2.02307 71.1112C1.46676 70.9187 1.04511 70.6385 0.759077 70.2353C0.472653 69.8316 0.3 69.2731 0.3 68.4834H-0.3C-0.3 69.3602 -0.107623 70.0506 0.269711 70.5825C0.647432 71.1149 1.18827 71.4572 1.82687 71.6782C3.08096 72.1121 4.80091 72.1037 6.63982 72.0988L6.63823 71.4988ZM7.25838 71.4977C7.0493 71.4977 6.84233 71.4983 6.63823 71.4988L6.63982 72.0988C6.84404 72.0983 7.05022 72.0977 7.25838 72.0977V71.4977ZM7.87853 71.4988C7.67443 71.4983 7.46747 71.4977 7.25838 71.4977V72.0977C7.46655 72.0977 7.67272 72.0983 7.87695 72.0988L7.87853 71.4988ZM14.2168 68.4834C14.2168 69.2731 14.0441 69.8316 13.7577 70.2353C13.4717 70.6385 13.05 70.9187 12.4937 71.1112C11.358 71.5041 9.75841 71.5038 7.87853 71.4988L7.87695 72.0988C9.71585 72.1037 11.4358 72.1121 12.6899 71.6782C13.3285 71.4572 13.8693 71.1149 14.2471 70.5825C14.6244 70.0506 14.8168 69.3602 14.8168 68.4834H14.2168ZM10.1939 62.9821C12.5881 63.9553 14.2168 66.0662 14.2168 68.4834H14.8168C14.8168 65.7787 12.9972 63.4739 10.4199 62.4263L10.1939 62.9821Z" fill="white" mask="url(#path-16-inside-7_1_1126)"/>
</g>
<g id="Union_7">
<mask id="path-18-inside-8_1_1126" fill="white">
<path fill-rule="evenodd" clip-rule="evenodd" d="M18.775 70.4482C20.5695 69.5526 21.775 67.8905 21.775 65.988C21.775 63.1366 19.067 60.8251 15.7264 60.8251C12.3858 60.8251 9.67773 63.1366 9.67773 65.988C9.67773 67.8905 10.8833 69.5527 12.6778 70.4483C10.1921 71.4587 8.46805 73.6664 8.46805 76.2274C8.46805 79.5604 11.3883 79.5527 15.1071 79.5428C15.3112 79.5423 15.5178 79.5418 15.7264 79.5418C15.9351 79.5418 16.1416 79.5423 16.3458 79.5428C20.0646 79.5527 22.9848 79.5604 22.9848 76.2274C22.9848 73.6664 21.2607 71.4586 18.775 70.4482Z"/>
</mask>
<path fill-rule="evenodd" clip-rule="evenodd" d="M18.775 70.4482C20.5695 69.5526 21.775 67.8905 21.775 65.988C21.775 63.1366 19.067 60.8251 15.7264 60.8251C12.3858 60.8251 9.67773 63.1366 9.67773 65.988C9.67773 67.8905 10.8833 69.5527 12.6778 70.4483C10.1921 71.4587 8.46805 73.6664 8.46805 76.2274C8.46805 79.5604 11.3883 79.5527 15.1071 79.5428C15.3112 79.5423 15.5178 79.5418 15.7264 79.5418C15.9351 79.5418 16.1416 79.5423 16.3458 79.5428C20.0646 79.5527 22.9848 79.5604 22.9848 76.2274C22.9848 73.6664 21.2607 71.4586 18.775 70.4482Z" fill="#C44601"/>
<path d="M18.775 70.4482L18.641 70.1798L18.0471 70.4762L18.662 70.7262L18.775 70.4482ZM12.6778 70.4483L12.7908 70.7262L13.4057 70.4762L12.8118 70.1798L12.6778 70.4483ZM15.1071 79.5428L15.1079 79.8428H15.1079L15.1071 79.5428ZM16.3458 79.5428L16.345 79.8428L16.3458 79.5428ZM21.475 65.988C21.475 67.7551 20.3548 69.3245 18.641 70.1798L18.9089 70.7167C20.7843 69.7807 22.075 68.0259 22.075 65.988H21.475ZM15.7264 61.1251C18.9476 61.1251 21.475 63.3451 21.475 65.988H22.075C22.075 62.9281 19.1863 60.5251 15.7264 60.5251V61.1251ZM9.97773 65.988C9.97773 63.3451 12.5052 61.1251 15.7264 61.1251V60.5251C12.2664 60.5251 9.37773 62.9281 9.37773 65.988H9.97773ZM12.8118 70.1798C11.098 69.3246 9.97773 67.7551 9.97773 65.988H9.37773C9.37773 68.0259 10.6685 69.7808 12.5439 70.7167L12.8118 70.1798ZM8.76805 76.2274C8.76805 73.8102 10.3967 71.6994 12.7908 70.7262L12.5649 70.1704C9.98764 71.218 8.16805 73.5227 8.16805 76.2274H8.76805ZM15.1063 79.2428C13.2264 79.2478 11.6268 79.2482 10.4911 78.8552C9.93481 78.6627 9.51316 78.3826 9.22712 77.9794C8.9407 77.5756 8.76805 77.0171 8.76805 76.2274H8.16805C8.16805 77.1042 8.36043 77.7946 8.73776 78.3265C9.11548 78.859 9.65631 79.2012 10.2949 79.4222C11.549 79.8561 13.269 79.8477 15.1079 79.8428L15.1063 79.2428ZM15.7264 79.2418C15.5173 79.2418 15.3104 79.2423 15.1063 79.2428L15.1079 79.8428C15.3121 79.8423 15.5183 79.8418 15.7264 79.8418V79.2418ZM16.3466 79.2428C16.1425 79.2423 15.9355 79.2418 15.7264 79.2418V79.8418C15.9346 79.8418 16.1408 79.8423 16.345 79.8428L16.3466 79.2428ZM22.6848 76.2274C22.6848 77.0171 22.5122 77.5756 22.2257 77.9794C21.9397 78.3826 21.518 78.6627 20.9617 78.8552C19.826 79.2482 18.2265 79.2478 16.3466 79.2428L16.345 79.8428C18.1839 79.8477 19.9039 79.8561 21.1579 79.4222C21.7965 79.2012 22.3374 78.859 22.7151 78.3265C23.0924 77.7946 23.2848 77.1042 23.2848 76.2274H22.6848ZM18.662 70.7262C21.0562 71.6993 22.6848 73.8102 22.6848 76.2274H23.2848C23.2848 73.5227 21.4652 71.2179 18.8879 70.1703L18.662 70.7262Z" fill="white" mask="url(#path-18-inside-8_1_1126)"/>
</g>
<g id="Union_8">
<mask id="path-20-inside-9_1_1126" fill="white">
<path fill-rule="evenodd" clip-rule="evenodd" d="M30.8723 70.4482C32.6669 69.5526 33.8724 67.8905 33.8724 65.988C33.8724 63.1366 31.1643 60.8251 27.8237 60.8251C24.4832 60.8251 21.7751 63.1366 21.7751 65.988C21.7751 67.8905 22.9806 69.5527 24.7752 70.4483C22.2895 71.4587 20.5654 73.6664 20.5654 76.2274C20.5654 79.5604 23.4856 79.5527 27.2044 79.5428C27.4086 79.5423 27.6152 79.5418 27.8238 79.5418C28.0324 79.5418 28.239 79.5423 28.4431 79.5428C32.1619 79.5527 35.0822 79.5604 35.0822 76.2274C35.0822 73.6664 33.358 71.4586 30.8723 70.4482Z"/>
</mask>
<path fill-rule="evenodd" clip-rule="evenodd" d="M30.8723 70.4482C32.6669 69.5526 33.8724 67.8905 33.8724 65.988C33.8724 63.1366 31.1643 60.8251 27.8237 60.8251C24.4832 60.8251 21.7751 63.1366 21.7751 65.988C21.7751 67.8905 22.9806 69.5527 24.7752 70.4483C22.2895 71.4587 20.5654 73.6664 20.5654 76.2274C20.5654 79.5604 23.4856 79.5527 27.2044 79.5428C27.4086 79.5423 27.6152 79.5418 27.8238 79.5418C28.0324 79.5418 28.239 79.5423 28.4431 79.5428C32.1619 79.5527 35.0822 79.5604 35.0822 76.2274C35.0822 73.6664 33.358 71.4586 30.8723 70.4482Z" fill="#C44601"/>
<path d="M30.8723 70.4482L30.7384 70.1798L30.1444 70.4762L30.7593 70.7262L30.8723 70.4482ZM24.7752 70.4483L24.8882 70.7262L25.5031 70.4762L24.9092 70.1798L24.7752 70.4483ZM27.2044 79.5428L27.2052 79.8428L27.2044 79.5428ZM28.4431 79.5428L28.4423 79.8428L28.4431 79.5428ZM33.5724 65.988C33.5724 67.7551 32.4521 69.3245 30.7384 70.1798L31.0063 70.7167C32.8816 69.7807 34.1724 68.0259 34.1724 65.988H33.5724ZM27.8237 61.1251C31.0449 61.1251 33.5724 63.3451 33.5724 65.988H34.1724C34.1724 62.9281 31.2837 60.5251 27.8237 60.5251V61.1251ZM22.0751 65.988C22.0751 63.3451 24.6025 61.1251 27.8237 61.1251V60.5251C24.3638 60.5251 21.4751 62.9281 21.4751 65.988H22.0751ZM24.9092 70.1798C23.1954 69.3246 22.0751 67.7551 22.0751 65.988H21.4751C21.4751 68.0259 22.7659 69.7808 24.6412 70.7167L24.9092 70.1798ZM20.8654 76.2274C20.8654 73.8102 22.494 71.6994 24.8882 70.7262L24.6622 70.1704C22.085 71.218 20.2654 73.5227 20.2654 76.2274H20.8654ZM27.2036 79.2428C25.3238 79.2478 23.7242 79.2482 22.5885 78.8552C22.0322 78.6627 21.6105 78.3826 21.3245 77.9794C21.0381 77.5756 20.8654 77.0171 20.8654 76.2274H20.2654C20.2654 77.1042 20.4578 77.7946 20.8351 78.3265C21.2128 78.859 21.7537 79.2012 22.3923 79.4222C23.6464 79.8561 25.3663 79.8477 27.2052 79.8428L27.2036 79.2428ZM27.8238 79.2418C27.6147 79.2418 27.4077 79.2423 27.2036 79.2428L27.2052 79.8428C27.4094 79.8423 27.6156 79.8418 27.8238 79.8418V79.2418ZM28.4439 79.2428C28.2398 79.2423 28.0329 79.2418 27.8238 79.2418V79.8418C28.0319 79.8418 28.2381 79.8423 28.4423 79.8428L28.4439 79.2428ZM34.7822 76.2274C34.7822 77.0171 34.6095 77.5756 34.3231 77.9794C34.0371 78.3826 33.6154 78.6627 33.0591 78.8552C31.9234 79.2482 30.3238 79.2478 28.4439 79.2428L28.4423 79.8428C30.2813 79.8477 32.0012 79.8561 33.2553 79.4222C33.8939 79.2012 34.4347 78.859 34.8125 78.3265C35.1898 77.7946 35.3822 77.1042 35.3822 76.2274H34.7822ZM30.7593 70.7262C33.1535 71.6993 34.7822 73.8102 34.7822 76.2274H35.3822C35.3822 73.5227 33.5626 71.2179 30.9853 70.1703L30.7593 70.7262Z" fill="white" mask="url(#path-20-inside-9_1_1126)"/>
</g>
<g id="Union_9">
<mask id="path-22-inside-10_1_1126" fill="white">
<path fill-rule="evenodd" clip-rule="evenodd" d="M42.9697 70.4482C44.7642 69.5526 45.9697 67.8905 45.9697 65.988C45.9697 63.1366 43.2617 60.8251 39.9211 60.8251C36.5805 60.8251 33.8724 63.1366 33.8724 65.988C33.8724 67.8905 35.078 69.5527 36.8725 70.4483C34.3868 71.4587 32.6628 73.6664 32.6628 76.2274C32.6628 79.5604 35.583 79.5527 39.3018 79.5428C39.5059 79.5423 39.7125 79.5418 39.9211 79.5418C40.1298 79.5418 40.3363 79.5423 40.5405 79.5428C44.2593 79.5527 47.1795 79.5604 47.1795 76.2274C47.1795 73.6664 45.4554 71.4586 42.9697 70.4482Z"/>
</mask>
<path fill-rule="evenodd" clip-rule="evenodd" d="M42.9697 70.4482C44.7642 69.5526 45.9697 67.8905 45.9697 65.988C45.9697 63.1366 43.2617 60.8251 39.9211 60.8251C36.5805 60.8251 33.8724 63.1366 33.8724 65.988C33.8724 67.8905 35.078 69.5527 36.8725 70.4483C34.3868 71.4587 32.6628 73.6664 32.6628 76.2274C32.6628 79.5604 35.583 79.5527 39.3018 79.5428C39.5059 79.5423 39.7125 79.5418 39.9211 79.5418C40.1298 79.5418 40.3363 79.5423 40.5405 79.5428C44.2593 79.5527 47.1795 79.5604 47.1795 76.2274C47.1795 73.6664 45.4554 71.4586 42.9697 70.4482Z" fill="#C44601"/>
<path d="M42.9697 70.4482L42.8357 70.1798L42.2418 70.4762L42.8567 70.7262L42.9697 70.4482ZM36.8725 70.4483L36.9855 70.7262L37.6004 70.4762L37.0065 70.1798L36.8725 70.4483ZM39.3018 79.5428L39.3026 79.8428L39.3018 79.5428ZM40.5405 79.5428L40.5397 79.8428H40.5397L40.5405 79.5428ZM45.6697 65.988C45.6697 67.7551 44.5495 69.3245 42.8357 70.1798L43.1036 70.7167C44.979 69.7807 46.2697 68.0259 46.2697 65.988H45.6697ZM39.9211 61.1251C43.1423 61.1251 45.6697 63.3451 45.6697 65.988H46.2697C46.2697 62.9281 43.381 60.5251 39.9211 60.5251V61.1251ZM34.1724 65.988C34.1724 63.3451 36.6999 61.1251 39.9211 61.1251V60.5251C36.4611 60.5251 33.5724 62.9281 33.5724 65.988H34.1724ZM37.0065 70.1798C35.2927 69.3246 34.1724 67.7551 34.1724 65.988H33.5724C33.5724 68.0259 34.8632 69.7808 36.7386 70.7167L37.0065 70.1798ZM32.9628 76.2274C32.9628 73.8102 34.5914 71.6994 36.9855 70.7262L36.7596 70.1704C34.1823 71.218 32.3628 73.5227 32.3628 76.2274H32.9628ZM39.301 79.2428C37.4211 79.2478 35.8215 79.2482 34.6858 78.8552C34.1295 78.6627 33.7079 78.3826 33.4218 77.9794C33.1354 77.5756 32.9628 77.0171 32.9628 76.2274H32.3628C32.3628 77.1042 32.5551 77.7946 32.9325 78.3265C33.3102 78.859 33.851 79.2012 34.4896 79.4222C35.7437 79.8561 37.4637 79.8477 39.3026 79.8428L39.301 79.2428ZM39.9211 79.2418C39.712 79.2418 39.5051 79.2423 39.301 79.2428L39.3026 79.8428C39.5068 79.8423 39.713 79.8418 39.9211 79.8418V79.2418ZM40.5413 79.2428C40.3372 79.2423 40.1302 79.2418 39.9211 79.2418V79.8418C40.1293 79.8418 40.3355 79.8423 40.5397 79.8428L40.5413 79.2428ZM46.8795 76.2274C46.8795 77.0171 46.7069 77.5756 46.4204 77.9794C46.1344 78.3826 45.7128 78.6627 45.1564 78.8552C44.0207 79.2482 42.4212 79.2478 40.5413 79.2428L40.5397 79.8428C42.3786 79.8477 44.0986 79.8561 45.3526 79.4222C45.9913 79.2012 46.5321 78.859 46.9098 78.3265C47.2871 77.7946 47.4795 77.1042 47.4795 76.2274H46.8795ZM42.8567 70.7262C45.2509 71.6993 46.8795 73.8102 46.8795 76.2274H47.4795C47.4795 73.5227 45.6599 71.2179 43.0826 70.1703L42.8567 70.7262Z" fill="white" mask="url(#path-22-inside-10_1_1126)"/>
</g>
<g id="Union_10">
<mask id="path-24-inside-11_1_1126" fill="white">
<path fill-rule="evenodd" clip-rule="evenodd" d="M54.4106 71.1079C56.2045 70.2121 57.4096 68.5503 57.4096 66.6482C57.4096 63.7968 54.7015 61.4852 51.3609 61.4852C48.0203 61.4852 45.3123 63.7968 45.3123 66.6482C45.3123 68.5503 46.5173 70.2122 48.3113 71.1079C45.8262 72.1185 44.1026 74.326 44.1026 76.8866C44.1026 80.2196 47.0228 80.2119 50.7416 80.202C50.9458 80.2015 51.1523 80.2009 51.361 80.2009C51.5696 80.2009 51.7761 80.2015 51.9803 80.202C55.6991 80.2119 58.6193 80.2196 58.6193 76.8866C58.6193 74.326 56.8957 72.1185 54.4106 71.1079Z"/>
</mask>
<path fill-rule="evenodd" clip-rule="evenodd" d="M54.4106 71.1079C56.2045 70.2121 57.4096 68.5503 57.4096 66.6482C57.4096 63.7968 54.7015 61.4852 51.3609 61.4852C48.0203 61.4852 45.3123 63.7968 45.3123 66.6482C45.3123 68.5503 46.5173 70.2122 48.3113 71.1079C45.8262 72.1185 44.1026 74.326 44.1026 76.8866C44.1026 80.2196 47.0228 80.2119 50.7416 80.202C50.9458 80.2015 51.1523 80.2009 51.361 80.2009C51.5696 80.2009 51.7761 80.2015 51.9803 80.202C55.6991 80.2119 58.6193 80.2196 58.6193 76.8866C58.6193 74.326 56.8957 72.1185 54.4106 71.1079Z" fill="#C44601"/>
<path d="M54.4106 71.1079L54.2765 70.8395L53.683 71.1358L54.2976 71.3858L54.4106 71.1079ZM48.3113 71.1079L48.4243 71.3858L49.0389 71.1359L48.4453 70.8395L48.3113 71.1079ZM50.7416 80.202L50.7424 80.502L50.7416 80.202ZM51.9803 80.202L51.9795 80.502L51.9803 80.202ZM57.1096 66.6482C57.1096 68.4149 55.9897 69.9841 54.2765 70.8395L54.5446 71.3763C56.4193 70.4402 57.7096 68.6856 57.7096 66.6482H57.1096ZM51.3609 61.7852C54.5821 61.7852 57.1096 64.0052 57.1096 66.6482H57.7096C57.7096 63.5883 54.8209 61.1852 51.3609 61.1852V61.7852ZM45.6123 66.6482C45.6123 64.0052 48.1397 61.7852 51.3609 61.7852V61.1852C47.9009 61.1852 45.0123 63.5883 45.0123 66.6482H45.6123ZM48.4453 70.8395C46.7321 69.9841 45.6123 68.4149 45.6123 66.6482H45.0123C45.0123 68.6856 46.3025 70.4402 48.1773 71.3763L48.4453 70.8395ZM44.4026 76.8866C44.4026 74.4697 46.0307 72.3592 48.4243 71.3858L48.1983 70.83C45.6216 71.8778 43.8026 74.1823 43.8026 76.8866H44.4026ZM50.7408 79.902C48.8609 79.907 47.2614 79.9073 46.1256 79.5144C45.5693 79.3219 45.1477 79.0417 44.8616 78.6385C44.5752 78.2348 44.4026 77.6763 44.4026 76.8866H43.8026C43.8026 77.7634 43.9949 78.4538 44.3723 78.9857C44.75 79.5181 45.2908 79.8604 45.9294 80.0814C47.1835 80.5153 48.9035 80.5069 50.7424 80.502L50.7408 79.902ZM51.361 79.9009C51.1519 79.9009 50.9449 79.9015 50.7408 79.902L50.7424 80.502C50.9466 80.5015 51.1528 80.5009 51.361 80.5009V79.9009ZM51.9811 79.902C51.777 79.9015 51.57 79.9009 51.361 79.9009V80.5009C51.5691 80.5009 51.7753 80.5015 51.9795 80.502L51.9811 79.902ZM58.3193 76.8866C58.3193 77.6763 58.1467 78.2348 57.8603 78.6385C57.5742 79.0417 57.1526 79.3219 56.5963 79.5144C55.4605 79.9073 53.861 79.907 51.9811 79.902L51.9795 80.502C53.8184 80.5069 55.5384 80.5153 56.7925 80.0814C57.4311 79.8604 57.9719 79.5181 58.3496 78.9857C58.727 78.4538 58.9193 77.7634 58.9193 76.8866H58.3193ZM54.2976 71.3858C56.6912 72.3591 58.3193 74.4697 58.3193 76.8866H58.9193C58.9193 74.1823 57.1002 71.8778 54.5236 70.83L54.2976 71.3858Z" fill="white" mask="url(#path-24-inside-11_1_1126)"/>
</g>
<g id="Union_11">
<mask id="path-26-inside-12_1_1126" fill="white">
<path fill-rule="evenodd" clip-rule="evenodd" d="M66.7182 71.1079C68.5122 70.2121 69.7172 68.5503 69.7172 66.6482C69.7172 63.7968 67.0092 61.4852 63.6686 61.4852C60.328 61.4852 57.6199 63.7968 57.6199 66.6482C57.6199 68.5503 58.825 70.2122 60.619 71.1079C58.1338 72.1185 56.4102 74.326 56.4102 76.8866C56.4102 80.2196 59.3305 80.2119 63.0493 80.202C63.2534 80.2015 63.46 80.2009 63.6686 80.2009C63.8773 80.2009 64.0838 80.2015 64.288 80.202C68.0068 80.2119 70.927 80.2196 70.927 76.8866C70.927 74.326 69.2034 72.1185 66.7182 71.1079Z"/>
</mask>
<path fill-rule="evenodd" clip-rule="evenodd" d="M66.7182 71.1079C68.5122 70.2121 69.7172 68.5503 69.7172 66.6482C69.7172 63.7968 67.0092 61.4852 63.6686 61.4852C60.328 61.4852 57.6199 63.7968 57.6199 66.6482C57.6199 68.5503 58.825 70.2122 60.619 71.1079C58.1338 72.1185 56.4102 74.326 56.4102 76.8866C56.4102 80.2196 59.3305 80.2119 63.0493 80.202C63.2534 80.2015 63.46 80.2009 63.6686 80.2009C63.8773 80.2009 64.0838 80.2015 64.288 80.202C68.0068 80.2119 70.927 80.2196 70.927 76.8866C70.927 74.326 69.2034 72.1185 66.7182 71.1079Z" fill="#C44601"/>
<path d="M66.7182 71.1079L66.5842 70.8395L65.9906 71.1358L66.6052 71.3858L66.7182 71.1079ZM60.619 71.1079L60.732 71.3858L61.3466 71.1359L60.753 70.8395L60.619 71.1079ZM63.0493 80.202L63.0501 80.502L63.0493 80.202ZM64.288 80.202L64.2872 80.502L64.288 80.202ZM69.4172 66.6482C69.4172 68.4149 68.2974 69.9841 66.5842 70.8395L66.8523 71.3763C68.727 70.4402 70.0172 68.6856 70.0172 66.6482H69.4172ZM63.6686 61.7852C66.8898 61.7852 69.4172 64.0052 69.4172 66.6482H70.0172C70.0172 63.5883 67.1285 61.1852 63.6686 61.1852V61.7852ZM57.9199 66.6482C57.9199 64.0052 60.4474 61.7852 63.6686 61.7852V61.1852C60.2086 61.1852 57.3199 63.5883 57.3199 66.6482H57.9199ZM60.753 70.8395C59.0398 69.9841 57.9199 68.4149 57.9199 66.6482H57.3199C57.3199 68.6856 58.6102 70.4402 60.485 71.3763L60.753 70.8395ZM56.7102 76.8866C56.7102 74.4697 58.3384 72.3592 60.732 71.3858L60.506 70.83C57.9293 71.8778 56.1102 74.1823 56.1102 76.8866H56.7102ZM63.0485 79.902C61.1686 79.907 59.569 79.9073 58.4333 79.5144C57.877 79.3219 57.4554 79.0417 57.1693 78.6385C56.8829 78.2348 56.7102 77.6763 56.7102 76.8866H56.1102C56.1102 77.7634 56.3026 78.4538 56.68 78.9857C57.0577 79.5181 57.5985 79.8604 58.2371 80.0814C59.4912 80.5153 61.2112 80.5069 63.0501 80.502L63.0485 79.902ZM63.6686 79.9009C63.4595 79.9009 63.2526 79.9015 63.0485 79.902L63.0501 80.502C63.2543 80.5015 63.4605 80.5009 63.6686 80.5009V79.9009ZM64.2888 79.902C64.0847 79.9015 63.8777 79.9009 63.6686 79.9009V80.5009C63.8768 80.5009 64.083 80.5015 64.2872 80.502L64.2888 79.902ZM70.627 76.8866C70.627 77.6763 70.4544 78.2348 70.1679 78.6385C69.8819 79.0417 69.4602 79.3219 68.9039 79.5144C67.7682 79.9073 66.1687 79.907 64.2888 79.902L64.2872 80.502C66.1261 80.5069 67.8461 80.5153 69.1001 80.0814C69.7387 79.8604 70.2796 79.5181 70.6573 78.9857C71.0346 78.4538 71.227 77.7634 71.227 76.8866H70.627ZM66.6052 71.3858C68.9989 72.3591 70.627 74.4697 70.627 76.8866H71.227C71.227 74.1823 69.4079 71.8778 66.8313 70.83L66.6052 71.3858Z" fill="white" mask="url(#path-26-inside-12_1_1126)"/>
</g>
</g>
</svg>
