<svg width="80" height="81" viewBox="0 0 80 81" fill="none" xmlns="http://www.w3.org/2000/svg">
<g id="storyboard">
<ellipse id="Ellipse 1423" cx="12.5" cy="23.203" rx="6.5" ry="6" fill="#C44601"/>
<ellipse id="Ellipse 1425" cx="66.5" cy="22.203" rx="5.5" ry="5" fill="#C44601"/>
<path id="Ellipse 1426" d="M68.6154 32.8277C69.0385 34.0778 71 37.203 66.5 37.203C62 37.203 64.8078 32.8277 64.8078 32.8277L61 22.203H72C72 22.203 69.4616 30.9526 68.6154 32.8277Z" fill="#C44601"/>
<path id="Ellipse 1424" d="M20 34.5444C20 38.0467 16.6421 37.081 12.5 37.081C8.35786 37.081 5 38.0467 5 34.5444C5 31.0422 8.35786 28.203 12.5 28.203C16.6421 28.203 20 31.0422 20 34.5444Z" fill="#C44601"/>
<g id="Rectangle 18388">
<mask id="path-5-inside-1_1_1029" fill="white">
<rect y="0.203003" width="26" height="52" rx="1"/>
</mask>
<rect y="0.203003" width="26" height="52" rx="1" stroke="#C44601" stroke-width="3" mask="url(#path-5-inside-1_1_1029)"/>
</g>
<g id="Rectangle 18389">
<mask id="path-6-inside-2_1_1029" fill="white">
<rect x="27" y="0.203003" width="26" height="52" rx="1"/>
</mask>
<rect x="27" y="0.203003" width="26" height="52" rx="1" stroke="#C44601" stroke-width="3" mask="url(#path-6-inside-2_1_1029)"/>
</g>
<g id="Rectangle 18390">
<mask id="path-7-inside-3_1_1029" fill="white">
<rect x="54" y="0.203003" width="26" height="52" rx="1"/>
</mask>
<rect x="54" y="0.203003" width="26" height="52" rx="1" stroke="#C44601" stroke-width="3" mask="url(#path-7-inside-3_1_1029)"/>
</g>
<g id="Group 81287">
<rect id="Rectangle 18386" x="1" y="55.203" width="24" height="7" rx="1" fill="#C44601"/>
<rect id="Rectangle 18391" x="28" y="55.203" width="24" height="7" rx="1" fill="#C44601"/>
<rect id="Rectangle 18392" x="54" y="55.203" width="24" height="7" rx="1" fill="#C44601"/>
</g>
<g id="Group 81285">
<rect id="Rectangle 18393" x="1" y="64.203" width="24" height="7" rx="1" fill="#C44601"/>
<rect id="Rectangle 18394" x="28" y="64.203" width="24" height="7" rx="1" fill="#C44601"/>
<rect id="Rectangle 18395" x="54" y="64.203" width="24" height="7" rx="1" fill="#C44601"/>
</g>
<g id="Group 81286">
<rect id="Rectangle 18396" x="1" y="73.203" width="24" height="7" rx="1" fill="#C44601"/>
<rect id="Rectangle 18397" x="28" y="73.203" width="24" height="7" rx="1" fill="#C44601"/>
<rect id="Rectangle 18398" x="54" y="73.203" width="24" height="7" rx="1" fill="#C44601"/>
</g>
<path id="Subtract" fill-rule="evenodd" clip-rule="evenodd" d="M31 18.203C31 17.6507 31.4477 17.203 32 17.203H48C48.5523 17.203 49 17.6507 49 18.203V36.203C49 36.7553 48.5523 37.203 48 37.203H32C31.4477 37.203 31 36.7553 31 36.203V18.203ZM35 21.203C35 20.6507 35.4477 20.203 36 20.203H38C38.5523 20.203 39 20.6507 39 21.203V23.203C39 23.7553 38.5523 24.203 38 24.203H36C35.4477 24.203 35 23.7553 35 23.203V21.203ZM36 25.203C35.4477 25.203 35 25.6507 35 26.203V28.203C35 28.7553 35.4477 29.203 36 29.203H38C38.5523 29.203 39 28.7553 39 28.203V26.203C39 25.6507 38.5523 25.203 38 25.203H36ZM35 31.203C35 30.6507 35.4477 30.203 36 30.203H38C38.5523 30.203 39 30.6507 39 31.203V33.203C39 33.7553 38.5523 34.203 38 34.203H36C35.4477 34.203 35 33.7553 35 33.203V31.203ZM42 20.203C41.4477 20.203 41 20.6507 41 21.203V23.203C41 23.7553 41.4477 24.203 42 24.203H44C44.5523 24.203 45 23.7553 45 23.203V21.203C45 20.6507 44.5523 20.203 44 20.203H42ZM41 26.203C41 25.6507 41.4477 25.203 42 25.203H44C44.5523 25.203 45 25.6507 45 26.203V28.203C45 28.7553 44.5523 29.203 44 29.203H42C41.4477 29.203 41 28.7553 41 28.203V26.203ZM42 30.203C41.4477 30.203 41 30.6507 41 31.203V33.203C41 33.7553 41.4477 34.203 42 34.203H44C44.5523 34.203 45 33.7553 45 33.203V31.203C45 30.6507 44.5523 30.203 44 30.203H42Z" fill="#C44601"/>
</g>
</svg>
