<svg width="44" height="31" viewBox="0 0 44 31" fill="none" xmlns="http://www.w3.org/2000/svg">
<path fill-rule="evenodd" clip-rule="evenodd" d="M1 0C0.447715 0 0 0.447716 0 1V30C0 30.5523 0.447714 31 0.999999 31H43C43.5523 31 44 30.5523 44 30V1C44 0.447715 43.5523 0 43 0H1ZM5.00015 27.0197C5.30343 27.4813 5.92346 27.6096 6.38502 27.3063L21.8811 17.1241L38.6478 28.1413C39.1094 28.4446 39.7294 28.3163 40.0327 27.8547C40.336 27.3931 40.2077 26.7731 39.7461 26.4698L23.7021 15.9276L39.7463 5.38525C40.2078 5.08197 40.3361 4.46194 40.0329 4.00038C39.7296 3.53882 39.1095 3.41051 38.648 3.7138L21.8811 14.731L6.38487 4.54875C5.92331 4.24547 5.30329 4.37378 5 4.83534C4.69672 5.2969 4.82503 5.91692 5.28659 6.22021L20.0601 15.9276L5.28674 25.6349C4.82518 25.9382 4.69687 26.5582 5.00015 27.0197Z" fill="#C44601"/>
</svg>
