<svg width="24" height="24" viewBox="0 0 24 24" fill="none" xmlns="http://www.w3.org/2000/svg">
<mask id="path-1-inside-1_0_1516" fill="white">
<path fill-rule="evenodd" clip-rule="evenodd" d="M1 0C0.447715 0 0 0.447716 0 1V23C0 23.5523 0.447716 24 1 24H23C23.5523 24 24 23.5523 24 23V1C24 0.447715 23.5523 0 23 0H1ZM18 14.569C18 18.0024 17.0706 17.1999 15.6308 15.9568C14.6228 15.0864 13.3646 14 12 14C10.6354 14 9.37718 15.0864 8.36916 15.9568C6.92938 17.1999 6 18.0024 6 14.569C6 8.73192 8.68629 4 12 4C15.3137 4 18 8.73192 18 14.569ZM15 11.0577C15 12.3758 14.5353 12.0677 13.8154 11.5904C13.3114 11.2563 12.6823 10.8392 12 10.8392C11.3177 10.8392 10.6886 11.2563 10.1846 11.5904C9.46469 12.0677 9 12.3758 9 11.0577C9 8.81667 10.3431 7 12 7C13.6569 7 15 8.81667 15 11.0577Z"/>
</mask>
<path fill-rule="evenodd" clip-rule="evenodd" d="M1 0C0.447715 0 0 0.447716 0 1V23C0 23.5523 0.447716 24 1 24H23C23.5523 24 24 23.5523 24 23V1C24 0.447715 23.5523 0 23 0H1ZM18 14.569C18 18.0024 17.0706 17.1999 15.6308 15.9568C14.6228 15.0864 13.3646 14 12 14C10.6354 14 9.37718 15.0864 8.36916 15.9568C6.92938 17.1999 6 18.0024 6 14.569C6 8.73192 8.68629 4 12 4C15.3137 4 18 8.73192 18 14.569ZM15 11.0577C15 12.3758 14.5353 12.0677 13.8154 11.5904C13.3114 11.2563 12.6823 10.8392 12 10.8392C11.3177 10.8392 10.6886 11.2563 10.1846 11.5904C9.46469 12.0677 9 12.3758 9 11.0577C9 8.81667 10.3431 7 12 7C13.6569 7 15 8.81667 15 11.0577Z" fill="#C44601"/>
<path d="M15.6308 15.9568L14.6505 17.0921L14.6505 17.0921L15.6308 15.9568ZM8.36916 15.9568L9.34946 17.0921H9.34946L8.36916 15.9568ZM13.8154 11.5904L14.6443 10.3402H14.6443L13.8154 11.5904ZM10.1846 11.5904L9.35572 10.3402H9.35572L10.1846 11.5904ZM1.5 1C1.5 1.27614 1.27614 1.5 1 1.5V-1.5C-0.380713 -1.5 -1.5 -0.38071 -1.5 1H1.5ZM1.5 23V1H-1.5V23H1.5ZM1 22.5C1.27614 22.5 1.5 22.7239 1.5 23H-1.5C-1.5 24.3807 -0.380711 25.5 1 25.5V22.5ZM23 22.5H1V25.5H23V22.5ZM22.5 23C22.5 22.7239 22.7239 22.5 23 22.5V25.5C24.3807 25.5 25.5 24.3807 25.5 23H22.5ZM22.5 1V23H25.5V1H22.5ZM23 1.5C22.7239 1.5 22.5 1.27614 22.5 1H25.5C25.5 -0.380712 24.3807 -1.5 23 -1.5V1.5ZM1 1.5H23V-1.5H1V1.5ZM14.6505 17.0921C14.9876 17.3831 15.3888 17.7325 15.7665 17.9886C15.9603 18.1201 16.2038 18.2665 16.4807 18.3716C16.7552 18.4758 17.1564 18.5753 17.6174 18.4935C18.7057 18.3004 19.1219 17.3618 19.2758 16.8168C19.4436 16.2226 19.5 15.4593 19.5 14.569H16.5C16.5 14.9671 16.4864 15.2816 16.4637 15.5268C16.4405 15.7765 16.4104 15.9247 16.3888 16.0014C16.3786 16.0376 16.3742 16.0434 16.3813 16.0281C16.3883 16.0131 16.4123 15.9651 16.463 15.9023C16.5154 15.8375 16.5964 15.7568 16.7123 15.6852C16.8306 15.612 16.9612 15.5631 17.0933 15.5397C17.3481 15.4944 17.5206 15.5575 17.5456 15.5669C17.5638 15.5738 17.5641 15.5756 17.5442 15.5646C17.5248 15.5539 17.4941 15.5354 17.4504 15.5058C17.3602 15.4446 17.246 15.3574 17.0988 15.2363C16.9521 15.1157 16.7943 14.9795 16.6111 14.8214L14.6505 17.0921ZM12 15.5C12.2866 15.5 12.6612 15.6171 13.1565 15.9255C13.6518 16.2338 14.1314 16.6439 14.6505 17.0921L16.6111 14.8214C16.1222 14.3993 15.4687 13.831 14.7418 13.3785C14.0148 12.926 13.078 12.5 12 12.5V15.5ZM9.34946 17.0921C9.86857 16.6439 10.3482 16.2338 10.8435 15.9255C11.3388 15.6171 11.7134 15.5 12 15.5V12.5C10.922 12.5 9.98516 12.926 9.25821 13.3785C8.53128 13.831 7.87777 14.3993 7.38886 14.8214L9.34946 17.0921ZM4.5 14.569C4.5 15.4593 4.55637 16.2226 4.72418 16.8168C4.87808 17.3618 5.29432 18.3004 6.38261 18.4935C6.84362 18.5753 7.24479 18.4758 7.51927 18.3716C7.79616 18.2665 8.03967 18.1201 8.23351 17.9886C8.61123 17.7325 9.0124 17.3831 9.34946 17.0921L7.38886 14.8214C7.20572 14.9795 7.04792 15.1157 6.90124 15.2363C6.75401 15.3574 6.63978 15.4446 6.54964 15.5058C6.50593 15.5354 6.47515 15.5539 6.45583 15.5646C6.43594 15.5756 6.43624 15.5738 6.45438 15.5669C6.47935 15.5575 6.65186 15.4944 6.90671 15.5397C7.03883 15.5631 7.1694 15.612 7.28768 15.6852C7.40356 15.7568 7.48462 15.8375 7.53697 15.9023C7.58767 15.9651 7.61166 16.0131 7.61867 16.0281C7.62579 16.0434 7.62144 16.0376 7.61125 16.0014C7.58959 15.9247 7.5595 15.7765 7.53633 15.5268C7.51358 15.2816 7.5 14.9671 7.5 14.569H4.5ZM12 2.5C9.56757 2.5 7.66371 4.22223 6.4529 6.35506C5.21694 8.53221 4.5 11.4394 4.5 14.569H7.5C7.5 11.8615 8.1262 9.48422 9.06182 7.83613C10.0226 6.14373 11.1187 5.5 12 5.5V2.5ZM19.5 14.569C19.5 11.4394 18.7831 8.53221 17.5471 6.35506C16.3363 4.22223 14.4324 2.5 12 2.5V5.5C12.8813 5.5 13.9774 6.14373 14.9382 7.83613C15.8738 9.48422 16.5 11.8615 16.5 14.569H19.5ZM12.9866 12.8406C13.145 12.9457 13.3814 13.1046 13.6114 13.2243C13.7883 13.3164 14.2792 13.5655 14.8802 13.4836C15.7124 13.3702 16.1492 12.757 16.3239 12.2819C16.4728 11.8772 16.5 11.4323 16.5 11.0577H13.5C13.5 11.342 13.4691 11.353 13.5084 11.2463C13.5335 11.1779 13.6061 11.011 13.7814 10.8443C13.9764 10.6589 14.2238 10.5453 14.4752 10.511C14.6983 10.4807 14.8629 10.5206 14.9264 10.5391C14.9925 10.5584 15.0207 10.5758 14.997 10.5635C14.9374 10.5324 14.8458 10.4738 14.6443 10.3402L12.9866 12.8406ZM12 12.3392C12.0377 12.3392 12.1373 12.3519 12.3277 12.4429C12.5237 12.5365 12.722 12.6652 12.9866 12.8406L14.6443 10.3402C14.2277 10.064 13.2146 9.33919 12 9.33919V12.3392ZM11.0134 12.8406C11.278 12.6652 11.4763 12.5365 11.6723 12.4429C11.8627 12.3519 11.9623 12.3392 12 12.3392V9.33919C10.7854 9.33919 9.77235 10.064 9.35572 10.3402L11.0134 12.8406ZM7.5 11.0577C7.5 11.4323 7.52719 11.8772 7.67607 12.2819C7.8508 12.757 8.28764 13.3702 9.11985 13.4836C9.72081 13.5655 10.2117 13.3164 10.3886 13.2243C10.6186 13.1046 10.855 12.9457 11.0134 12.8406L9.35572 10.3402C9.1542 10.4738 9.0626 10.5324 9.00298 10.5635C8.97931 10.5758 9.00751 10.5584 9.07358 10.5391C9.13713 10.5206 9.30171 10.4807 9.52482 10.511C9.77617 10.5453 10.0236 10.6589 10.2186 10.8443C10.3939 11.011 10.4665 11.1779 10.4916 11.2463C10.5309 11.353 10.5 11.342 10.5 11.0577H7.5ZM12 5.5C10.5843 5.5 9.42466 6.27942 8.67254 7.29671C7.92015 8.31435 7.5 9.64896 7.5 11.0577H10.5C10.5 10.2254 10.7514 9.53115 11.0848 9.08021C11.4185 8.62891 11.7589 8.5 12 8.5V5.5ZM16.5 11.0577C16.5 9.64896 16.0799 8.31435 15.3275 7.29671C14.5753 6.27942 13.4157 5.5 12 5.5V8.5C12.2411 8.5 12.5815 8.62891 12.9152 9.08021C13.2486 9.53115 13.5 10.2254 13.5 11.0577H16.5Z" fill="#C44601" mask="url(#path-1-inside-1_0_1516)"/>
</svg>
