<svg width="24" height="31" viewBox="0 0 24 31" fill="none" xmlns="http://www.w3.org/2000/svg">
<path fill-rule="evenodd" clip-rule="evenodd" d="M1 0C0.447715 0 0 0.447716 0 1V30C0 30.5523 0.447716 31 1 31H23C23.5523 31 24 30.5523 24 30V1C24 0.447715 23.5523 0 23 0H1ZM1.96222 25.9176C2.15356 26.4356 2.59971 26.5154 2.95871 26.0957L11.363 16.271L20.6569 27.1358C21.0159 27.5554 21.462 27.4757 21.6534 26.9576C21.8447 26.4395 21.7088 25.6793 21.3498 25.2596L12.5119 14.9279L21.3498 4.59618C21.7088 4.1765 21.8447 3.41629 21.6534 2.89821C21.462 2.38013 21.0159 2.30037 20.6569 2.72005L11.363 13.5848L2.95871 3.76007C2.59971 3.34039 2.15356 3.42016 1.96222 3.93823C1.77088 4.45631 1.90679 5.21652 2.2658 5.6362L10.2141 14.9279L2.2658 24.2196C1.90679 24.6393 1.77088 25.3995 1.96222 25.9176Z" fill="#C44601"/>
</svg>
