<svg width="27" height="38" viewBox="0 0 27 38" fill="none" xmlns="http://www.w3.org/2000/svg">
<mask id="path-1-inside-1_0_1522" fill="white">
<path fill-rule="evenodd" clip-rule="evenodd" d="M1 0C0.447715 0 0 0.447716 0 1V37C0 37.5523 0.447715 38 0.999999 38H26C26.5523 38 27 37.5523 27 37V1C27 0.447715 26.5523 0 26 0H1ZM9.06857 16.7576C8.99216 18.0091 8.92651 19.0842 9.18038 19.839C9.07522 20.493 9.10543 21.2895 9.13898 22.174V22.174C9.16046 22.7404 9.1833 23.3427 9.17285 23.9668C9.16241 24.5909 9.11941 25.1922 9.07899 25.7574L9.07898 25.7575C8.90479 28.1933 8.77838 29.9611 11.5097 30.0068C14.8749 30.0631 17.6479 27.4229 17.7033 24.1096C17.7399 21.9275 16.5886 19.9977 14.8369 18.9183C15.5739 17.8877 16.0298 16.5502 16.0544 15.0823C16.1099 11.769 13.9469 9.04617 11.2233 9.00057C9.01273 8.96356 9.06145 10.7342 9.12857 13.1741L9.12857 13.1742C9.14415 13.7404 9.16072 14.3426 9.15027 14.9667C9.13982 15.5908 9.1031 16.1922 9.06857 16.7576ZM11.0021 25.1926C10.9405 26.2015 10.8958 26.9336 11.8112 26.9489C12.939 26.9678 13.872 25.8709 13.8949 24.4989C13.9179 23.1269 13.0222 21.9993 11.8944 21.9805C10.979 21.9651 10.9992 22.6984 11.027 23.7087V23.7087C11.0334 23.9432 11.0403 24.1926 11.0359 24.451C11.0316 24.7094 11.0164 24.9585 11.0021 25.1926L11.0021 25.1926ZM11.8112 16.9489C10.8958 16.9336 10.9405 16.2015 11.0021 15.1926L11.0021 15.1926C11.0164 14.9584 11.0316 14.7094 11.0359 14.451C11.0403 14.1926 11.0334 13.9432 11.027 13.7087C10.9992 12.6984 10.979 11.9651 11.8944 11.9805C13.0222 11.9993 13.9179 13.1269 13.8949 14.4989C13.872 15.8709 12.939 16.9678 11.8112 16.9489Z"/>
</mask>
<path fill-rule="evenodd" clip-rule="evenodd" d="M1 0C0.447715 0 0 0.447716 0 1V37C0 37.5523 0.447715 38 0.999999 38H26C26.5523 38 27 37.5523 27 37V1C27 0.447715 26.5523 0 26 0H1ZM9.06857 16.7576C8.99216 18.0091 8.92651 19.0842 9.18038 19.839C9.07522 20.493 9.10543 21.2895 9.13898 22.174V22.174C9.16046 22.7404 9.1833 23.3427 9.17285 23.9668C9.16241 24.5909 9.11941 25.1922 9.07899 25.7574L9.07898 25.7575C8.90479 28.1933 8.77838 29.9611 11.5097 30.0068C14.8749 30.0631 17.6479 27.4229 17.7033 24.1096C17.7399 21.9275 16.5886 19.9977 14.8369 18.9183C15.5739 17.8877 16.0298 16.5502 16.0544 15.0823C16.1099 11.769 13.9469 9.04617 11.2233 9.00057C9.01273 8.96356 9.06145 10.7342 9.12857 13.1741L9.12857 13.1742C9.14415 13.7404 9.16072 14.3426 9.15027 14.9667C9.13982 15.5908 9.1031 16.1922 9.06857 16.7576ZM11.0021 25.1926C10.9405 26.2015 10.8958 26.9336 11.8112 26.9489C12.939 26.9678 13.872 25.8709 13.8949 24.4989C13.9179 23.1269 13.0222 21.9993 11.8944 21.9805C10.979 21.9651 10.9992 22.6984 11.027 23.7087V23.7087C11.0334 23.9432 11.0403 24.1926 11.0359 24.451C11.0316 24.7094 11.0164 24.9585 11.0021 25.1926L11.0021 25.1926ZM11.8112 16.9489C10.8958 16.9336 10.9405 16.2015 11.0021 15.1926L11.0021 15.1926C11.0164 14.9584 11.0316 14.7094 11.0359 14.451C11.0403 14.1926 11.0334 13.9432 11.027 13.7087C10.9992 12.6984 10.979 11.9651 11.8944 11.9805C13.0222 11.9993 13.9179 13.1269 13.8949 14.4989C13.872 15.8709 12.939 16.9678 11.8112 16.9489Z" fill="#C44601"/>
<path d="M9.18038 19.839L10.6614 20.0771L10.7201 19.7116L10.6021 19.3608L9.18038 19.839ZM9.06857 16.7576L7.57136 16.6661V16.6661L9.06857 16.7576ZM9.13898 22.174H10.639V22.1456L10.6379 22.1172L9.13898 22.174ZM9.13898 22.174H7.63898V22.2025L7.64005 22.2309L9.13898 22.174ZM9.17285 23.9668L10.6726 23.9919L9.17285 23.9668ZM9.07899 25.7574L7.58275 25.6504L7.58191 25.6639L9.07899 25.7574ZM9.07898 25.7575L10.5752 25.8645L10.5761 25.851L9.07898 25.7575ZM11.5097 30.0068L11.4846 31.5066H11.4846L11.5097 30.0068ZM17.7033 24.1096L19.2031 24.1347V24.1347L17.7033 24.1096ZM14.8369 18.9183L13.6168 18.0457L12.6822 19.3525L14.0499 20.1953L14.8369 18.9183ZM16.0544 15.0823L17.5542 15.1074V15.1074L16.0544 15.0823ZM11.2233 9.00057L11.2484 7.50078L11.2233 9.00057ZM9.12857 13.1741L7.62914 13.2154L7.62933 13.2225L7.6296 13.2296L9.12857 13.1741ZM9.12857 13.1742L10.628 13.1329L10.6278 13.1258L10.6275 13.1187L9.12857 13.1742ZM9.15027 14.9667L10.6501 14.9918V14.9918L9.15027 14.9667ZM11.8112 26.9489L11.8363 25.4491H11.8363L11.8112 26.9489ZM11.0021 25.1926L9.50504 25.099L9.50491 25.1012L11.0021 25.1926ZM13.8949 24.4989L15.3947 24.524L13.8949 24.4989ZM11.8944 21.9805L11.9195 20.4807H11.9195L11.8944 21.9805ZM11.027 23.7087H12.527V23.6881L12.5264 23.6675L11.027 23.7087ZM11.027 23.7087H9.52696V23.7294L9.52753 23.75L11.027 23.7087ZM11.0359 24.451L12.5357 24.4761V24.4761L11.0359 24.451ZM11.0021 25.1926L12.4992 25.2861L12.4993 25.284L11.0021 25.1926ZM11.0021 15.1926L12.4993 15.284L12.4995 15.2807L11.0021 15.1926ZM11.8112 16.9489L11.8363 15.4491H11.8363L11.8112 16.9489ZM11.0021 15.1926L9.50491 15.1011L9.50471 15.1045L11.0021 15.1926ZM11.0359 14.451L12.5357 14.4761V14.4761L11.0359 14.451ZM11.027 13.7087L12.5264 13.6675V13.6675L11.027 13.7087ZM11.8944 11.9805L11.8693 13.4802L11.8944 11.9805ZM13.8949 14.4989L12.3951 14.4738L13.8949 14.4989ZM1.5 1C1.5 1.27614 1.27614 1.5 1 1.5V-1.5C-0.380713 -1.5 -1.5 -0.38071 -1.5 1H1.5ZM1.5 37V1H-1.5V37H1.5ZM0.999999 36.5C1.27614 36.5 1.5 36.7239 1.5 37H-1.5C-1.5 38.3807 -0.380714 39.5 0.999999 39.5V36.5ZM26 36.5H0.999999V39.5H26V36.5ZM25.5 37C25.5 36.7239 25.7239 36.5 26 36.5V39.5C27.3807 39.5 28.5 38.3807 28.5 37H25.5ZM25.5 1V37H28.5V1H25.5ZM26 1.5C25.7239 1.5 25.5 1.27614 25.5 1H28.5C28.5 -0.38071 27.3807 -1.5 26 -1.5V1.5ZM1 1.5H26V-1.5H1V1.5ZM10.6021 19.3608C10.5493 19.2038 10.5057 18.93 10.5005 18.4679C10.4955 18.0132 10.5267 17.4893 10.5658 16.849L7.57136 16.6661C7.53404 17.2773 7.49422 17.9168 7.50071 18.5012C7.50712 19.0782 7.55757 19.7194 7.75866 20.3172L10.6021 19.3608ZM10.6379 22.1172C10.6025 21.1834 10.5848 20.553 10.6614 20.0771L7.69941 19.6009C7.5656 20.433 7.60838 21.3957 7.64005 22.2309L10.6379 22.1172ZM10.639 22.174V22.174H7.63898V22.174H10.639ZM10.6726 23.9919C10.6839 23.3206 10.6592 22.6784 10.6379 22.1172L7.64005 22.2309C7.66173 22.8024 7.68272 23.3649 7.67306 23.9417L10.6726 23.9919ZM10.5752 25.8644C10.6152 25.3043 10.6614 24.6632 10.6726 23.9919L7.67306 23.9417C7.66341 24.5185 7.6236 25.08 7.58281 25.6504L10.5752 25.8644ZM10.5761 25.851L10.5761 25.851L7.58191 25.6639L7.5819 25.6639L10.5761 25.851ZM11.5348 28.507C10.9964 28.498 10.7685 28.4042 10.6948 28.3623C10.6609 28.343 10.64 28.3318 10.6056 28.242C10.5542 28.1078 10.5065 27.8621 10.5011 27.424C10.4957 26.9903 10.5304 26.4902 10.5752 25.8645L7.5828 25.6505C7.54045 26.2427 7.49405 26.877 7.50132 27.4613C7.50853 28.0411 7.56734 28.6969 7.80398 29.3149C8.05761 29.9772 8.50629 30.5687 9.21141 30.9699C9.87683 31.3484 10.6573 31.4927 11.4846 31.5066L11.5348 28.507ZM16.2035 24.0845C16.1623 26.5476 14.0937 28.5498 11.5348 28.507L11.4846 31.5066C15.656 31.5764 19.1334 28.2982 19.2031 24.1347L16.2035 24.0845ZM14.0499 20.1953C15.3762 21.0126 16.2307 22.461 16.2035 24.0845L19.2031 24.1347C19.249 21.3941 17.8009 18.9829 15.6238 17.6413L14.0499 20.1953ZM14.5546 15.0572C14.5349 16.2334 14.1696 17.2728 13.6168 18.0457L16.0569 19.7909C16.9782 18.5027 17.5247 16.8671 17.5542 15.1074L14.5546 15.0572ZM11.1982 10.5004C12.832 10.5277 14.601 12.2839 14.5546 15.0572L17.5542 15.1074C17.6187 11.2542 15.0619 7.56462 11.2484 7.50078L11.1982 10.5004ZM10.628 13.1329C10.6108 12.5093 10.5974 11.9956 10.6155 11.548C10.6338 11.0941 10.6823 10.8147 10.7401 10.6467C10.7885 10.5062 10.8143 10.5237 10.7729 10.5507C10.7493 10.5661 10.8357 10.4943 11.1982 10.5004L11.2484 7.50078C10.5056 7.48834 9.76913 7.62403 9.13503 8.03726C8.4832 8.46203 8.11086 9.0678 7.90347 9.67031C7.70554 10.2453 7.64065 10.8638 7.61791 11.4269C7.59492 11.9964 7.61273 12.619 7.62914 13.2154L10.628 13.1329ZM10.6275 13.1187L10.6275 13.1186L7.6296 13.2296L7.6296 13.2297L10.6275 13.1187ZM10.6501 14.9918C10.6611 14.3295 10.6435 13.695 10.628 13.1329L7.62914 13.2154C7.64483 13.7858 7.66029 14.3558 7.65048 14.9416L10.6501 14.9918ZM10.5658 16.849C10.6001 16.2877 10.639 15.6541 10.6501 14.9918L7.65048 14.9416C7.64067 15.5274 7.60614 16.0966 7.57136 16.6661L10.5658 16.849ZM11.8363 25.4491C11.7976 25.4485 11.9526 25.4427 12.1505 25.5813C12.3658 25.7321 12.4502 25.9249 12.4742 26.0029C12.4896 26.0531 12.4749 26.0362 12.4738 25.8802C12.4728 25.7304 12.4831 25.5498 12.4993 25.284L9.50491 25.1012C9.49033 25.3399 9.47199 25.6291 9.47386 25.9008C9.47568 26.1662 9.49544 26.5225 9.60641 26.8838C9.72592 27.2728 9.96698 27.7146 10.4294 28.0385C10.8744 28.3502 11.3671 28.4417 11.7861 28.4487L11.8363 25.4491ZM12.3951 24.4738C12.3891 24.8326 12.264 25.11 12.1248 25.2737C11.9882 25.4343 11.8795 25.4499 11.8363 25.4491L11.7861 28.4487C14.0038 28.4859 15.3627 26.436 15.3947 24.524L12.3951 24.4738ZM11.8693 23.4802C11.9125 23.481 12.0206 23.5002 12.1517 23.6653C12.2853 23.8335 12.4012 24.1149 12.3951 24.4738L15.3947 24.524C15.4267 22.612 14.1372 20.5178 11.9195 20.4807L11.8693 23.4802ZM12.5264 23.6675C12.5191 23.4013 12.5148 23.2204 12.5208 23.0708C12.5271 22.9149 12.5424 22.8985 12.5253 22.9482C12.4988 23.0253 12.4079 23.2152 12.1877 23.3587C11.9853 23.4906 11.8306 23.4796 11.8693 23.4802L11.9195 20.4807C11.5005 20.4737 11.0051 20.5486 10.5498 20.8452C10.0768 21.1535 9.82111 21.5869 9.68865 21.9718C9.56565 22.3291 9.53397 22.6845 9.52326 22.9498C9.5123 23.2213 9.52095 23.5109 9.52753 23.75L12.5264 23.6675ZM12.527 23.7087V23.7087H9.52696V23.7087H12.527ZM12.5357 24.4761C12.5407 24.1795 12.5327 23.8978 12.5264 23.6675L9.52753 23.75C9.53409 23.9886 9.53984 24.2057 9.53616 24.4259L12.5357 24.4761ZM12.4993 25.284C12.5134 25.054 12.5308 24.7728 12.5357 24.4761L9.53616 24.4259C9.53247 24.6461 9.51946 24.8629 9.50491 25.1011L12.4993 25.284ZM12.4992 25.2862L12.4992 25.2861L9.50504 25.099L9.50504 25.099L12.4992 25.2862ZM9.50491 15.1012C9.49033 15.3399 9.47199 15.6291 9.47386 15.9008C9.47568 16.1662 9.49544 16.5225 9.60641 16.8838C9.72592 17.2728 9.96698 17.7146 10.4294 18.0385C10.8744 18.3502 11.3671 18.4417 11.7861 18.4487L11.8363 15.4491C11.7976 15.4485 11.9526 15.4427 12.1505 15.5813C12.3658 15.7321 12.4502 15.9249 12.4742 16.0029C12.4896 16.0531 12.4749 16.0362 12.4738 15.8802C12.4728 15.7304 12.4831 15.5498 12.4993 15.284L9.50491 15.1012ZM9.50471 15.1045L9.50471 15.1045L12.4995 15.2807L12.4995 15.2806L9.50471 15.1045ZM9.53616 14.4259C9.53247 14.6461 9.51946 14.8629 9.50491 15.1011L12.4993 15.284C12.5134 15.054 12.5308 14.7728 12.5357 14.4761L9.53616 14.4259ZM9.52753 13.75C9.53409 13.9886 9.53984 14.2057 9.53616 14.4259L12.5357 14.4761C12.5407 14.1795 12.5327 13.8978 12.5264 13.6675L9.52753 13.75ZM11.9195 10.4807C11.5005 10.4737 11.0051 10.5486 10.5498 10.8452C10.0768 11.1535 9.82111 11.5869 9.68865 11.9718C9.56565 12.3291 9.53397 12.6845 9.52326 12.9498C9.5123 13.2213 9.52095 13.5109 9.52753 13.75L12.5264 13.6675C12.5191 13.4013 12.5148 13.2204 12.5208 13.0708C12.5271 12.9149 12.5424 12.8985 12.5253 12.9482C12.4988 13.0253 12.4079 13.2152 12.1877 13.3587C11.9853 13.4906 11.8306 13.4796 11.8693 13.4802L11.9195 10.4807ZM15.3947 14.524C15.4267 12.612 14.1372 10.5178 11.9195 10.4807L11.8693 13.4802C11.9125 13.481 12.0206 13.5002 12.1517 13.6652C12.2853 13.8335 12.4012 14.1149 12.3951 14.4738L15.3947 14.524ZM11.7861 18.4487C14.0038 18.4859 15.3627 16.436 15.3947 14.524L12.3951 14.4738C12.3891 14.8326 12.264 15.11 12.1248 15.2737C11.9882 15.4343 11.8795 15.4499 11.8363 15.4491L11.7861 18.4487Z" fill="#C44601" mask="url(#path-1-inside-1_0_1522)"/>
</svg>
