<svg width="15" height="19" viewBox="0 0 15 19" fill="none" xmlns="http://www.w3.org/2000/svg">
<mask id="path-1-inside-1_5_889" fill="white">
<path fill-rule="evenodd" clip-rule="evenodd" d="M10.7182 9.85237C12.5121 8.95664 13.7171 7.29479 13.7171 5.3927C13.7171 2.54127 11.0091 0.229736 7.66849 0.229736C4.32792 0.229736 1.61984 2.54127 1.61984 5.3927C1.61984 7.2948 2.82489 8.95666 4.61888 9.85239C2.13376 10.863 0.410156 13.0705 0.410156 15.6311C0.410156 18.9641 3.3304 18.9564 7.04918 18.9465C7.25334 18.946 7.45991 18.9454 7.66854 18.9454C7.87716 18.9454 8.08373 18.946 8.2879 18.9465C12.0067 18.9564 14.9269 18.9641 14.9269 15.6311C14.9269 13.0705 13.2033 10.863 10.7182 9.85237Z"/>
</mask>
<path fill-rule="evenodd" clip-rule="evenodd" d="M10.7182 9.85237C12.5121 8.95664 13.7171 7.29479 13.7171 5.3927C13.7171 2.54127 11.0091 0.229736 7.66849 0.229736C4.32792 0.229736 1.61984 2.54127 1.61984 5.3927C1.61984 7.2948 2.82489 8.95666 4.61888 9.85239C2.13376 10.863 0.410156 13.0705 0.410156 15.6311C0.410156 18.9641 3.3304 18.9564 7.04918 18.9465C7.25334 18.946 7.45991 18.9454 7.66854 18.9454C7.87716 18.9454 8.08373 18.946 8.2879 18.9465C12.0067 18.9564 14.9269 18.9641 14.9269 15.6311C14.9269 13.0705 13.2033 10.863 10.7182 9.85237Z" fill="#C44601"/>
<path d="M10.7182 9.85237L10.5841 9.58397L9.99055 9.88035L10.6051 10.1303L10.7182 9.85237ZM4.61888 9.85239L4.73189 10.1303L5.34648 9.88036L4.75289 9.58399L4.61888 9.85239ZM7.04918 18.9465L7.04997 19.2465L7.04998 19.2465L7.04918 18.9465ZM8.2879 18.9465L8.2871 19.2465L8.2871 19.2465L8.2879 18.9465ZM13.4171 5.3927C13.4171 7.15943 12.2973 8.72856 10.5841 9.58397L10.8522 10.1208C12.7269 9.18471 14.0171 7.43014 14.0171 5.3927H13.4171ZM7.66849 0.529736C10.8897 0.529736 13.4171 2.74975 13.4171 5.3927H14.0171C14.0171 2.3328 11.1285 -0.0702637 7.66849 -0.0702637V0.529736ZM1.91984 5.3927C1.91984 2.74975 4.4473 0.529736 7.66849 0.529736V-0.0702637C4.20854 -0.0702637 1.31984 2.3328 1.31984 5.3927H1.91984ZM4.75289 9.58399C3.03968 8.72859 1.91984 7.15945 1.91984 5.3927H1.31984C1.31984 7.43015 2.6101 9.18473 4.48487 10.1208L4.75289 9.58399ZM0.710156 15.6311C0.710156 13.2142 2.33829 11.1037 4.73189 10.1303L4.50587 9.57449C1.92922 10.6223 0.110156 12.9268 0.110156 15.6311H0.710156ZM7.04839 18.6465C5.16851 18.6515 3.56896 18.6519 2.43322 18.2589C1.87692 18.0664 1.45527 17.7862 1.16923 17.383C0.882809 16.9793 0.710156 16.4208 0.710156 15.6311H0.110156C0.110156 16.5079 0.302534 17.1983 0.679867 17.7302C1.05759 18.2626 1.59842 18.6049 2.23703 18.8259C3.49111 19.2598 5.21107 19.2514 7.04997 19.2465L7.04839 18.6465ZM7.66854 18.6454C7.45945 18.6454 7.25249 18.646 7.04839 18.6465L7.04998 19.2465C7.2542 19.246 7.46037 19.2454 7.66854 19.2454V18.6454ZM8.28869 18.6465C8.08459 18.646 7.87762 18.6454 7.66854 18.6454V19.2454C7.8767 19.2454 8.08288 19.246 8.2871 19.2465L8.28869 18.6465ZM14.6269 15.6311C14.6269 16.4208 14.4543 16.9793 14.1678 17.383C13.8818 17.7862 13.4602 18.0664 12.9039 18.2589C11.7681 18.6519 10.1686 18.6515 8.28869 18.6465L8.2871 19.2465C10.126 19.2514 11.846 19.2598 13.1001 18.8259C13.7387 18.6049 14.2795 18.2626 14.6572 17.7302C15.0345 17.1983 15.2269 16.5079 15.2269 15.6311H14.6269ZM10.6051 10.1303C12.9988 11.1036 14.6269 13.2142 14.6269 15.6311H15.2269C15.2269 12.9268 13.4078 10.6223 10.8312 9.57447L10.6051 10.1303Z" fill="white" mask="url(#path-1-inside-1_5_889)"/>
</svg>
