<svg width="40" height="6" viewBox="0 0 40 6" fill="none" xmlns="http://www.w3.org/2000/svg">
<path fill-rule="evenodd" clip-rule="evenodd" d="M14.7304 3.92507L2.43814 5.96082C1.89327 6.05106 1.32585 5.69451 1.17076 5.16444L0.875145 4.15411C0.720054 3.62405 1.03603 3.1212 1.58089 3.03097L13.4201 1.07025C13.6464 0.886943 13.9422 0.78975 14.2408 0.826176L26.394 2.30863L38.7714 1.51457C39.3225 1.47921 39.8198 1.89541 39.882 2.44418L39.9955 3.44606C40.0577 3.99483 39.6613 4.46836 39.1102 4.50372L27.2281 5.26601C27.0421 5.35892 26.8303 5.40102 26.6171 5.37502L26.2421 5.32927L25.9653 5.34702C25.7699 5.35956 25.5813 5.31533 25.4164 5.22856L14.7304 3.92507Z" fill="#C44601"/>
</svg>
