<svg width="15" height="20" viewBox="0 0 15 20" fill="none" xmlns="http://www.w3.org/2000/svg">
<mask id="path-1-inside-1_5_874" fill="white">
<path fill-rule="evenodd" clip-rule="evenodd" d="M10.3069 10.4489C12.1015 9.55325 13.307 7.89111 13.307 5.98865C13.307 3.13722 10.5989 0.825684 7.25834 0.825684C3.91776 0.825684 1.20969 3.13722 1.20969 5.98865C1.20969 7.89113 2.41521 9.55327 4.2098 10.4489C1.7241 11.4593 0 13.6671 0 16.228C0 19.561 2.92024 19.5533 6.63903 19.5435C6.84319 19.5429 7.04976 19.5424 7.25838 19.5424C7.46701 19.5424 7.67358 19.5429 7.87774 19.5435C11.5965 19.5533 14.5168 19.561 14.5168 16.228C14.5168 13.667 12.7926 11.4593 10.3069 10.4489Z"/>
</mask>
<path fill-rule="evenodd" clip-rule="evenodd" d="M10.3069 10.4489C12.1015 9.55325 13.307 7.89111 13.307 5.98865C13.307 3.13722 10.5989 0.825684 7.25834 0.825684C3.91776 0.825684 1.20969 3.13722 1.20969 5.98865C1.20969 7.89113 2.41521 9.55327 4.2098 10.4489C1.7241 11.4593 0 13.6671 0 16.228C0 19.561 2.92024 19.5533 6.63903 19.5435C6.84319 19.5429 7.04976 19.5424 7.25838 19.5424C7.46701 19.5424 7.67358 19.5429 7.87774 19.5435C11.5965 19.5533 14.5168 19.561 14.5168 16.228C14.5168 13.667 12.7926 11.4593 10.3069 10.4489Z" fill="#C44601"/>
<path d="M10.3069 10.4489L10.173 10.1804L9.57904 10.4768L10.1939 10.7268L10.3069 10.4489ZM4.2098 10.4489L4.32277 10.7268L4.93767 10.4768L4.34376 10.1804L4.2098 10.4489ZM6.63903 19.5435L6.63982 19.8435L6.63982 19.8435L6.63903 19.5435ZM7.87774 19.5435L7.87695 19.8435L7.87695 19.8435L7.87774 19.5435ZM13.007 5.98865C13.007 7.75573 11.8867 9.32514 10.173 10.1804L10.4409 10.7173C12.3162 9.78135 13.607 8.0265 13.607 5.98865H13.007ZM7.25834 1.12568C10.4795 1.12568 13.007 3.3457 13.007 5.98865H13.607C13.607 2.92874 10.7183 0.525684 7.25834 0.525684V1.12568ZM1.50969 5.98865C1.50969 3.3457 4.03714 1.12568 7.25834 1.12568V0.525684C3.79838 0.525684 0.909685 2.92874 0.909685 5.98865H1.50969ZM4.34376 10.1804C2.62997 9.32516 1.50969 7.75575 1.50969 5.98865H0.909685C0.909685 8.02651 2.20046 9.78138 4.07584 10.7173L4.34376 10.1804ZM0.3 16.228C0.3 13.8108 1.92861 11.7 4.32277 10.7268L4.09683 10.171C1.51959 11.2186 -0.3 13.5233 -0.3 16.228H0.3ZM6.63823 19.2435C4.75835 19.2484 3.1588 19.2488 2.02307 18.8558C1.46676 18.6633 1.04511 18.3832 0.759077 17.98C0.472653 17.5762 0.3 17.0177 0.3 16.228H-0.3C-0.3 17.1048 -0.107623 17.7952 0.269711 18.3271C0.647432 18.8596 1.18827 19.2018 1.82687 19.4228C3.08096 19.8567 4.80091 19.8483 6.63982 19.8435L6.63823 19.2435ZM7.25838 19.2424C7.0493 19.2424 6.84233 19.2429 6.63823 19.2435L6.63982 19.8435C6.84404 19.8429 7.05022 19.8424 7.25838 19.8424V19.2424ZM7.87853 19.2435C7.67443 19.2429 7.46747 19.2424 7.25838 19.2424V19.8424C7.46655 19.8424 7.67272 19.8429 7.87695 19.8435L7.87853 19.2435ZM14.2168 16.228C14.2168 17.0177 14.0441 17.5762 13.7577 17.98C13.4717 18.3832 13.05 18.6633 12.4937 18.8558C11.358 19.2488 9.75841 19.2484 7.87853 19.2435L7.87695 19.8435C9.71585 19.8483 11.4358 19.8567 12.6899 19.4228C13.3285 19.2018 13.8693 18.8596 14.2471 18.3271C14.6244 17.7952 14.8168 17.1048 14.8168 16.228H14.2168ZM10.1939 10.7268C12.5881 11.7 14.2168 13.8108 14.2168 16.228H14.8168C14.8168 13.5233 12.9972 11.2185 10.4199 10.1709L10.1939 10.7268Z" fill="white" mask="url(#path-1-inside-1_5_874)"/>
</svg>
