<svg width="16" height="20" viewBox="0 0 16 20" fill="none" xmlns="http://www.w3.org/2000/svg">
<mask id="path-1-inside-1_5_883" fill="white">
<path fill-rule="evenodd" clip-rule="evenodd" d="M10.9698 10.1928C12.7643 9.29714 13.9698 7.63501 13.9698 5.73254C13.9698 2.88112 11.2618 0.56958 7.92118 0.56958C4.5806 0.56958 1.87253 2.88112 1.87253 5.73254C1.87253 7.63503 3.07806 9.29717 4.87264 10.1928C2.38694 11.2032 0.662842 13.411 0.662842 15.9719C0.662842 19.3049 3.58308 19.2972 7.30187 19.2874C7.50603 19.2868 7.7126 19.2863 7.92122 19.2863C8.12985 19.2863 8.33642 19.2868 8.54058 19.2874C12.2594 19.2972 15.1796 19.3049 15.1796 15.9719C15.1796 13.4109 13.4555 11.2031 10.9698 10.1928Z"/>
</mask>
<path fill-rule="evenodd" clip-rule="evenodd" d="M10.9698 10.1928C12.7643 9.29714 13.9698 7.63501 13.9698 5.73254C13.9698 2.88112 11.2618 0.56958 7.92118 0.56958C4.5806 0.56958 1.87253 2.88112 1.87253 5.73254C1.87253 7.63503 3.07806 9.29717 4.87264 10.1928C2.38694 11.2032 0.662842 13.411 0.662842 15.9719C0.662842 19.3049 3.58308 19.2972 7.30187 19.2874C7.50603 19.2868 7.7126 19.2863 7.92122 19.2863C8.12985 19.2863 8.33642 19.2868 8.54058 19.2874C12.2594 19.2972 15.1796 19.3049 15.1796 15.9719C15.1796 13.4109 13.4555 11.2031 10.9698 10.1928Z" fill="#C44601"/>
<path d="M10.9698 10.1928L10.8358 9.92433L10.2419 10.2207L10.8568 10.4707L10.9698 10.1928ZM4.87264 10.1928L4.98561 10.4707L5.60051 10.2207L5.0066 9.92434L4.87264 10.1928ZM7.30187 19.2874L7.30266 19.5874L7.30266 19.5874L7.30187 19.2874ZM8.54058 19.2874L8.53979 19.5874L8.53979 19.5874L8.54058 19.2874ZM13.6698 5.73254C13.6698 7.49963 12.5496 9.06904 10.8358 9.92433L11.1037 10.4612C12.9791 9.52525 14.2698 7.77039 14.2698 5.73254H13.6698ZM7.92118 0.86958C11.1424 0.86958 13.6698 3.08959 13.6698 5.73254H14.2698C14.2698 2.67264 11.3811 0.26958 7.92118 0.26958V0.86958ZM2.17253 5.73254C2.17253 3.08959 4.69998 0.86958 7.92118 0.86958V0.26958C4.46122 0.26958 1.57253 2.67264 1.57253 5.73254H2.17253ZM5.0066 9.92434C3.29281 9.06906 2.17253 7.49964 2.17253 5.73254H1.57253C1.57253 7.77041 2.8633 9.52528 4.73868 10.4612L5.0066 9.92434ZM0.962842 15.9719C0.962842 13.5547 2.59145 11.4439 4.98561 10.4707L4.75967 9.91486C2.18243 10.9625 0.362842 13.2672 0.362842 15.9719H0.962842ZM7.30107 18.9874C5.4212 18.9923 3.82164 18.9927 2.68591 18.5997C2.12961 18.4072 1.70796 18.1271 1.42192 17.7239C1.13549 17.3201 0.962842 16.7616 0.962842 15.9719H0.362842C0.362842 16.8487 0.555219 17.5391 0.932553 18.071C1.31027 18.6035 1.85111 18.9457 2.48971 19.1667C3.7438 19.6006 5.46375 19.5922 7.30266 19.5874L7.30107 18.9874ZM7.92122 18.9863C7.71214 18.9863 7.50518 18.9868 7.30107 18.9874L7.30266 19.5874C7.50688 19.5868 7.71306 19.5863 7.92122 19.5863V18.9863ZM8.54137 18.9874C8.33727 18.9868 8.13031 18.9863 7.92122 18.9863V19.5863C8.12939 19.5863 8.33556 19.5868 8.53979 19.5874L8.54137 18.9874ZM14.8796 15.9719C14.8796 16.7616 14.707 17.3201 14.4205 17.7239C14.1345 18.1271 13.7128 18.4072 13.1565 18.5997C12.0208 18.9927 10.4213 18.9923 8.54137 18.9874L8.53979 19.5874C10.3787 19.5922 12.0987 19.6006 13.3527 19.1667C13.9913 18.9457 14.5322 18.6035 14.9099 18.071C15.2872 17.5391 15.4796 16.8487 15.4796 15.9719H14.8796ZM10.8568 10.4707C13.251 11.4439 14.8796 13.5547 14.8796 15.9719H15.4796C15.4796 13.2672 13.66 10.9624 11.0827 9.91484L10.8568 10.4707Z" fill="white" mask="url(#path-1-inside-1_5_883)"/>
</svg>
