<svg width="16" height="20" viewBox="0 0 16 20" fill="none" xmlns="http://www.w3.org/2000/svg">
<mask id="path-1-inside-1_5_871" fill="white">
<path fill-rule="evenodd" clip-rule="evenodd" d="M10.8968 10.0629C12.6913 9.16726 13.8968 7.50513 13.8968 5.60266C13.8968 2.75123 11.1888 0.439697 7.84818 0.439697C4.5076 0.439697 1.79953 2.75123 1.79953 5.60266C1.79953 7.50514 3.00506 9.16729 4.79964 10.0629C2.31394 11.0733 0.589844 13.2811 0.589844 15.842C0.589844 19.175 3.51009 19.1673 7.22887 19.1575C7.43303 19.1569 7.6396 19.1564 7.84823 19.1564C8.05685 19.1564 8.26342 19.1569 8.46758 19.1575C12.1864 19.1673 15.1066 19.175 15.1066 15.842C15.1066 13.2811 13.3825 11.0733 10.8968 10.0629Z"/>
</mask>
<path fill-rule="evenodd" clip-rule="evenodd" d="M10.8968 10.0629C12.6913 9.16726 13.8968 7.50513 13.8968 5.60266C13.8968 2.75123 11.1888 0.439697 7.84818 0.439697C4.5076 0.439697 1.79953 2.75123 1.79953 5.60266C1.79953 7.50514 3.00506 9.16729 4.79964 10.0629C2.31394 11.0733 0.589844 13.2811 0.589844 15.842C0.589844 19.175 3.51009 19.1673 7.22887 19.1575C7.43303 19.1569 7.6396 19.1564 7.84823 19.1564C8.05685 19.1564 8.26342 19.1569 8.46758 19.1575C12.1864 19.1673 15.1066 19.175 15.1066 15.842C15.1066 13.2811 13.3825 11.0733 10.8968 10.0629Z" fill="#C44601"/>
<path d="M10.8968 10.0629L10.7628 9.79444L10.1689 10.0908L10.7838 10.3408L10.8968 10.0629ZM4.79964 10.0629L4.91261 10.3408L5.52752 10.0909L4.93361 9.79446L4.79964 10.0629ZM7.22887 19.1575L7.22966 19.4575L7.22966 19.4575L7.22887 19.1575ZM8.46758 19.1575L8.46679 19.4575L8.46679 19.4575L8.46758 19.1575ZM13.5968 5.60266C13.5968 7.36975 12.4766 8.93915 10.7628 9.79444L11.0307 10.3313C12.9061 9.39537 14.1968 7.64051 14.1968 5.60266H13.5968ZM7.84818 0.739697C11.0694 0.739697 13.5968 2.95971 13.5968 5.60266H14.1968C14.1968 2.54276 11.3081 0.139697 7.84818 0.139697V0.739697ZM2.09953 5.60266C2.09953 2.95971 4.62698 0.739697 7.84818 0.739697V0.139697C4.38822 0.139697 1.49953 2.54276 1.49953 5.60266H2.09953ZM4.93361 9.79446C3.21981 8.93918 2.09953 7.36976 2.09953 5.60266H1.49953C1.49953 7.64053 2.7903 9.39539 4.66568 10.3313L4.93361 9.79446ZM0.889844 15.842C0.889844 13.4248 2.51845 11.314 4.91261 10.3408L4.68667 9.78497C2.10943 10.8326 0.289844 13.1373 0.289844 15.842H0.889844ZM7.22808 18.8575C5.3482 18.8624 3.74864 18.8628 2.61291 18.4698C2.05661 18.2773 1.63496 17.9972 1.34892 17.594C1.0625 17.1902 0.889844 16.6317 0.889844 15.842H0.289844C0.289844 16.7188 0.482221 17.4092 0.859555 17.9411C1.23728 18.4736 1.77811 18.8158 2.41671 19.0368C3.6708 19.4708 5.39076 19.4623 7.22966 19.4575L7.22808 18.8575ZM7.84823 18.8564C7.63914 18.8564 7.43218 18.8569 7.22808 18.8575L7.22966 19.4575C7.43389 19.4569 7.64006 19.4564 7.84823 19.4564V18.8564ZM8.46838 18.8575C8.26427 18.8569 8.05731 18.8564 7.84823 18.8564V19.4564C8.05639 19.4564 8.26257 19.4569 8.46679 19.4575L8.46838 18.8575ZM14.8066 15.842C14.8066 16.6317 14.634 17.1902 14.3475 17.594C14.0615 17.9972 13.6398 18.2773 13.0835 18.4698C11.9478 18.8628 10.3483 18.8624 8.46838 18.8575L8.46679 19.4575C10.3057 19.4623 12.0257 19.4708 13.2797 19.0368C13.9183 18.8158 14.4592 18.4736 14.8369 17.9411C15.2142 17.4092 15.4066 16.7188 15.4066 15.842H14.8066ZM10.7838 10.3408C13.178 11.314 14.8066 13.4248 14.8066 15.842H15.4066C15.4066 13.1373 13.587 10.8326 11.0097 9.78495L10.7838 10.3408Z" fill="white" mask="url(#path-1-inside-1_5_871)"/>
</svg>
