<svg width="15" height="20" viewBox="0 0 15 20" fill="none" xmlns="http://www.w3.org/2000/svg">
<mask id="path-1-inside-1_5_877" fill="white">
<path fill-rule="evenodd" clip-rule="evenodd" d="M10.7749 10.1928C12.5695 9.29714 13.775 7.63501 13.775 5.73254C13.775 2.88112 11.0669 0.56958 7.72636 0.56958C4.38578 0.56958 1.6777 2.88112 1.6777 5.73254C1.6777 7.63503 2.88323 9.29717 4.67782 10.1928C2.19212 11.2032 0.468018 13.411 0.468018 15.9719C0.468018 19.3049 3.38826 19.2972 7.10704 19.2874C7.31121 19.2868 7.51778 19.2863 7.7264 19.2863C7.93503 19.2863 8.14159 19.2868 8.34576 19.2874C12.0645 19.2972 14.9848 19.3049 14.9848 15.9719C14.9848 13.4109 13.2607 11.2031 10.7749 10.1928Z"/>
</mask>
<path fill-rule="evenodd" clip-rule="evenodd" d="M10.7749 10.1928C12.5695 9.29714 13.775 7.63501 13.775 5.73254C13.775 2.88112 11.0669 0.56958 7.72636 0.56958C4.38578 0.56958 1.6777 2.88112 1.6777 5.73254C1.6777 7.63503 2.88323 9.29717 4.67782 10.1928C2.19212 11.2032 0.468018 13.411 0.468018 15.9719C0.468018 19.3049 3.38826 19.2972 7.10704 19.2874C7.31121 19.2868 7.51778 19.2863 7.7264 19.2863C7.93503 19.2863 8.14159 19.2868 8.34576 19.2874C12.0645 19.2972 14.9848 19.3049 14.9848 15.9719C14.9848 13.4109 13.2607 11.2031 10.7749 10.1928Z" fill="#C44601"/>
<path d="M10.7749 10.1928L10.641 9.92433L10.0471 10.2207L10.662 10.4707L10.7749 10.1928ZM4.67782 10.1928L4.79079 10.4707L5.40569 10.2207L4.81178 9.92434L4.67782 10.1928ZM7.10704 19.2874L7.10784 19.5874L7.10784 19.5874L7.10704 19.2874ZM8.34576 19.2874L8.34496 19.5874L8.34496 19.5874L8.34576 19.2874ZM13.475 5.73254C13.475 7.49963 12.3547 9.06904 10.641 9.92433L10.9089 10.4612C12.7843 9.52525 14.075 7.77039 14.075 5.73254H13.475ZM7.72636 0.86958C10.9476 0.86958 13.475 3.08959 13.475 5.73254H14.075C14.075 2.67264 11.1863 0.26958 7.72636 0.26958V0.86958ZM1.9777 5.73254C1.9777 3.08959 4.50516 0.86958 7.72636 0.86958V0.26958C4.2664 0.26958 1.3777 2.67264 1.3777 5.73254H1.9777ZM4.81178 9.92434C3.09799 9.06906 1.9777 7.49964 1.9777 5.73254H1.3777C1.3777 7.77041 2.66848 9.52528 4.54385 10.4612L4.81178 9.92434ZM0.768018 15.9719C0.768018 13.5547 2.39663 11.4439 4.79079 10.4707L4.56485 9.91486C1.98761 10.9625 0.168018 13.2672 0.168018 15.9719H0.768018ZM7.10625 18.9874C5.22637 18.9923 3.62682 18.9927 2.49109 18.5997C1.93478 18.4072 1.51313 18.1271 1.22709 17.7239C0.94067 17.3201 0.768018 16.7616 0.768018 15.9719H0.168018C0.168018 16.8487 0.360395 17.5391 0.737728 18.071C1.11545 18.6035 1.65628 18.9457 2.29489 19.1667C3.54897 19.6006 5.26893 19.5922 7.10784 19.5874L7.10625 18.9874ZM7.7264 18.9863C7.51731 18.9863 7.31035 18.9868 7.10625 18.9874L7.10784 19.5874C7.31206 19.5868 7.51824 19.5863 7.7264 19.5863V18.9863ZM8.34655 18.9874C8.14245 18.9868 7.93549 18.9863 7.7264 18.9863V19.5863C7.93456 19.5863 8.14074 19.5868 8.34496 19.5874L8.34655 18.9874ZM14.6848 15.9719C14.6848 16.7616 14.5121 17.3201 14.2257 17.7239C13.9397 18.1271 13.518 18.4072 12.9617 18.5997C11.826 18.9927 10.2264 18.9923 8.34655 18.9874L8.34496 19.5874C10.1839 19.5922 11.9038 19.6006 13.1579 19.1667C13.7965 18.9457 14.3374 18.6035 14.7151 18.071C15.0924 17.5391 15.2848 16.8487 15.2848 15.9719H14.6848ZM10.662 10.4707C13.0562 11.4439 14.6848 13.5547 14.6848 15.9719H15.2848C15.2848 13.2672 13.4652 10.9624 10.8879 9.91484L10.662 10.4707Z" fill="white" mask="url(#path-1-inside-1_5_877)"/>
</svg>
