<svg width="16" height="20" viewBox="0 0 16 20" fill="none" xmlns="http://www.w3.org/2000/svg">
<mask id="path-1-inside-1_5_880" fill="white">
<path fill-rule="evenodd" clip-rule="evenodd" d="M10.8723 10.1928C12.6669 9.29714 13.8724 7.63501 13.8724 5.73254C13.8724 2.88112 11.1643 0.56958 7.82377 0.56958C4.48319 0.56958 1.77512 2.88112 1.77512 5.73254C1.77512 7.63503 2.98064 9.29717 4.77523 10.1928C2.28953 11.2032 0.56543 13.411 0.56543 15.9719C0.56543 19.3049 3.48567 19.2972 7.20446 19.2874C7.40862 19.2868 7.61519 19.2863 7.82381 19.2863C8.03244 19.2863 8.23901 19.2868 8.44317 19.2874C12.162 19.2972 15.0822 19.3049 15.0822 15.9719C15.0822 13.4109 13.3581 11.2031 10.8723 10.1928Z"/>
</mask>
<path fill-rule="evenodd" clip-rule="evenodd" d="M10.8723 10.1928C12.6669 9.29714 13.8724 7.63501 13.8724 5.73254C13.8724 2.88112 11.1643 0.56958 7.82377 0.56958C4.48319 0.56958 1.77512 2.88112 1.77512 5.73254C1.77512 7.63503 2.98064 9.29717 4.77523 10.1928C2.28953 11.2032 0.56543 13.411 0.56543 15.9719C0.56543 19.3049 3.48567 19.2972 7.20446 19.2874C7.40862 19.2868 7.61519 19.2863 7.82381 19.2863C8.03244 19.2863 8.23901 19.2868 8.44317 19.2874C12.162 19.2972 15.0822 19.3049 15.0822 15.9719C15.0822 13.4109 13.3581 11.2031 10.8723 10.1928Z" fill="#C44601"/>
<path d="M10.8723 10.1928L10.7384 9.92433L10.1445 10.2207L10.7594 10.4707L10.8723 10.1928ZM4.77523 10.1928L4.8882 10.4707L5.5031 10.2207L4.90919 9.92434L4.77523 10.1928ZM7.20446 19.2874L7.20525 19.5874L7.20525 19.5874L7.20446 19.2874ZM8.44317 19.2874L8.44237 19.5874L8.44237 19.5874L8.44317 19.2874ZM13.5724 5.73254C13.5724 7.49963 12.4522 9.06904 10.7384 9.92433L11.0063 10.4612C12.8817 9.52525 14.1724 7.77039 14.1724 5.73254H13.5724ZM7.82377 0.86958C11.045 0.86958 13.5724 3.08959 13.5724 5.73254H14.1724C14.1724 2.67264 11.2837 0.26958 7.82377 0.26958V0.86958ZM2.07512 5.73254C2.07512 3.08959 4.60257 0.86958 7.82377 0.86958V0.26958C4.36381 0.26958 1.47512 2.67264 1.47512 5.73254H2.07512ZM4.90919 9.92434C3.1954 9.06906 2.07512 7.49964 2.07512 5.73254H1.47512C1.47512 7.77041 2.76589 9.52528 4.64127 10.4612L4.90919 9.92434ZM0.86543 15.9719C0.86543 13.5547 2.49404 11.4439 4.8882 10.4707L4.66226 9.91486C2.08502 10.9625 0.26543 13.2672 0.26543 15.9719H0.86543ZM7.20366 18.9874C5.32378 18.9923 3.72423 18.9927 2.5885 18.5997C2.03219 18.4072 1.61054 18.1271 1.32451 17.7239C1.03808 17.3201 0.86543 16.7616 0.86543 15.9719H0.26543C0.26543 16.8487 0.457807 17.5391 0.835141 18.071C1.21286 18.6035 1.7537 18.9457 2.3923 19.1667C3.64639 19.6006 5.36634 19.5922 7.20525 19.5874L7.20366 18.9874ZM7.82381 18.9863C7.61473 18.9863 7.40776 18.9868 7.20366 18.9874L7.20525 19.5874C7.40947 19.5868 7.61565 19.5863 7.82381 19.5863V18.9863ZM8.44396 18.9874C8.23986 18.9868 8.0329 18.9863 7.82381 18.9863V19.5863C8.03198 19.5863 8.23815 19.5868 8.44237 19.5874L8.44396 18.9874ZM14.7822 15.9719C14.7822 16.7616 14.6095 17.3201 14.3231 17.7239C14.0371 18.1271 13.6154 18.4072 13.0591 18.5997C11.9234 18.9927 10.3238 18.9923 8.44396 18.9874L8.44237 19.5874C10.2813 19.5922 12.0012 19.6006 13.2553 19.1667C13.8939 18.9457 14.4348 18.6035 14.8125 18.071C15.1898 17.5391 15.3822 16.8487 15.3822 15.9719H14.7822ZM10.7594 10.4707C13.1536 11.4439 14.7822 13.5547 14.7822 15.9719H15.3822C15.3822 13.2672 13.5626 10.9624 10.9853 9.91484L10.7594 10.4707Z" fill="white" mask="url(#path-1-inside-1_5_880)"/>
</svg>
