<svg width="33" height="7" viewBox="0 0 33 7" fill="none" xmlns="http://www.w3.org/2000/svg">
<path fill-rule="evenodd" clip-rule="evenodd" d="M11.7007 4.07261L1.48947 6.07894C0.947549 6.18542 0.40103 5.83705 0.268788 5.30083L0.0251207 4.31279C-0.107121 3.77657 0.224992 3.25557 0.766915 3.14909L10.6583 1.2056C10.8742 1.03815 11.1544 0.954369 11.441 0.995851L21.5318 2.45616L31.8085 1.67397C32.3592 1.63206 32.8482 2.04376 32.9007 2.59354L32.9961 3.59176C33.0486 4.14154 32.6447 4.62121 32.0941 4.66312L22.131 5.42144C21.9586 5.49812 21.7643 5.52898 21.5668 5.50041L21.4037 5.4768L21.3264 5.48268C21.1499 5.49612 20.9796 5.46293 20.8281 5.3935L11.7007 4.07261Z" fill="#C44601"/>
</svg>
