<svg width="25" height="32" viewBox="0 0 25 32" fill="none" xmlns="http://www.w3.org/2000/svg">
<mask id="path-1-inside-1_0_1588" fill="white">
<path fill-rule="evenodd" clip-rule="evenodd" d="M17.1653 16.1661C20.1323 14.6854 22.1254 11.9374 22.1254 8.79207C22.1254 4.07792 17.6482 0.256348 12.1254 0.256348C6.60253 0.256348 2.12538 4.07792 2.12538 8.79207C2.12538 11.9373 4.11834 14.6852 7.08515 16.1659C2.9755 17.8363 0.125 21.4864 0.125 25.7204C0.125 31.2307 4.95292 31.218 11.101 31.2017C11.4386 31.2008 11.7801 31.1999 12.125 31.1999C12.4699 31.1999 12.8114 31.2008 13.149 31.2017C19.2971 31.218 24.125 31.2307 24.125 25.7204C24.125 21.4865 21.2747 17.8366 17.1653 16.1661Z"/>
</mask>
<path fill-rule="evenodd" clip-rule="evenodd" d="M17.1653 16.1661C20.1323 14.6854 22.1254 11.9374 22.1254 8.79207C22.1254 4.07792 17.6482 0.256348 12.1254 0.256348C6.60253 0.256348 2.12538 4.07792 2.12538 8.79207C2.12538 11.9373 4.11834 14.6852 7.08515 16.1659C2.9755 17.8363 0.125 21.4864 0.125 25.7204C0.125 31.2307 4.95292 31.218 11.101 31.2017C11.4386 31.2008 11.7801 31.1999 12.125 31.1999C12.4699 31.1999 12.8114 31.2008 13.149 31.2017C19.2971 31.218 24.125 31.2307 24.125 25.7204C24.125 21.4865 21.2747 17.8366 17.1653 16.1661Z" fill="#C44601"/>
<path d="M17.1653 16.1661L17.0313 15.8976L16.4374 16.194L17.0523 16.444L17.1653 16.1661ZM7.08515 16.1659L7.19811 16.4438L7.81302 16.1939L7.21912 15.8975L7.08515 16.1659ZM11.101 31.2017L11.1018 31.5017L11.101 31.2017ZM13.149 31.2017L13.1482 31.5017L13.149 31.2017ZM21.8254 8.79207C21.8254 11.802 19.9175 14.4573 17.0313 15.8976L17.2992 16.4345C20.347 14.9135 22.4254 12.0728 22.4254 8.79207H21.8254ZM12.1254 0.556348C17.5289 0.556348 21.8254 4.2864 21.8254 8.79207H22.4254C22.4254 3.86944 17.7676 -0.0436524 12.1254 -0.0436524V0.556348ZM2.42538 8.79207C2.42538 4.2864 6.72191 0.556348 12.1254 0.556348V-0.0436524C6.48315 -0.0436524 1.82538 3.86944 1.82538 8.79207H2.42538ZM7.21912 15.8975C4.3331 14.4571 2.42538 11.8019 2.42538 8.79207H1.82538C1.82538 12.0727 3.90358 14.9133 6.95118 16.4343L7.21912 15.8975ZM0.425 25.7204C0.425 21.6302 3.18001 18.077 7.19811 16.4438L6.97218 15.888C2.77099 17.5956 -0.175 21.3426 -0.175 25.7204H0.425ZM11.1003 30.9017C8.0057 30.9099 5.32189 30.9131 3.40558 30.25C2.45898 29.9225 1.72295 29.4391 1.22011 28.7302C0.716883 28.0209 0.425 27.0545 0.425 25.7204H-0.175C-0.175 27.1416 0.136608 28.2399 0.730744 29.0774C1.32527 29.9155 2.18048 30.461 3.20938 30.817C5.24405 31.5211 8.04826 31.5098 11.1018 31.5017L11.1003 30.9017ZM12.125 30.8999C11.7796 30.8999 11.4377 30.9008 11.1003 30.9017L11.1018 31.5017C11.4394 31.5008 11.7806 31.4999 12.125 31.4999V30.8999ZM13.1497 30.9017C12.8123 30.9008 12.4704 30.8999 12.125 30.8999V31.4999C12.4694 31.4999 12.8106 31.5008 13.1482 31.5017L13.1497 30.9017ZM23.825 25.7204C23.825 27.0545 23.5331 28.0209 23.0299 28.7302C22.5271 29.4391 21.791 29.9225 20.8444 30.25C18.9281 30.9131 16.2443 30.9099 13.1497 30.9017L13.1482 31.5017C16.2017 31.5098 19.0059 31.5211 21.0406 30.817C22.0695 30.461 22.9247 29.9155 23.5193 29.0774C24.1134 28.2399 24.425 27.1416 24.425 25.7204H23.825ZM17.0523 16.444C21.0702 18.0773 23.825 21.6303 23.825 25.7204H24.425C24.425 21.3428 21.4792 17.5958 17.2782 15.8882L17.0523 16.444Z" fill="white" mask="url(#path-1-inside-1_0_1588)"/>
</svg>
