<svg width="30" height="6" viewBox="0 0 30 6" fill="none" xmlns="http://www.w3.org/2000/svg">
<path fill-rule="evenodd" clip-rule="evenodd" d="M10.5952 3.21995L1.58154 5.2041C1.04217 5.32283 0.508673 4.98184 0.389942 4.44246L0.174961 3.46585C0.0562306 2.92647 0.397227 2.39298 0.936599 2.27425L9.71375 0.342151C9.9226 0.188244 10.1908 0.115214 10.4671 0.160013L19.3702 1.60351L28.4367 0.830385C28.987 0.78346 29.4711 1.19152 29.518 1.7418L29.603 2.73819C29.6499 3.28848 29.2418 3.77261 28.6916 3.81954L19.8202 4.57602C19.6595 4.63868 19.4804 4.66054 19.2978 4.63093L19.2526 4.62361C19.1111 4.62997 18.9746 4.60639 18.8497 4.55828L10.5952 3.21995Z" fill="#C44601"/>
</svg>
