<svg width="15" height="19" viewBox="0 0 15 19" fill="none" xmlns="http://www.w3.org/2000/svg">
<mask id="path-1-inside-1_5_886" fill="white">
<path fill-rule="evenodd" clip-rule="evenodd" d="M10.4105 9.85237C12.2045 8.95664 13.4095 7.29479 13.4095 5.3927C13.4095 2.54127 10.7015 0.229736 7.36088 0.229736C4.0203 0.229736 1.31222 2.54127 1.31222 5.3927C1.31222 7.2948 2.51727 8.95666 4.31126 9.85239C1.82614 10.863 0.102539 13.0705 0.102539 15.6311C0.102539 18.9641 3.02278 18.9564 6.74156 18.9465C6.94573 18.946 7.1523 18.9454 7.36092 18.9454C7.56955 18.9454 7.77612 18.946 7.98028 18.9465C11.6991 18.9564 14.6193 18.9641 14.6193 15.6311C14.6193 13.0705 12.8957 10.863 10.4105 9.85237Z"/>
</mask>
<path fill-rule="evenodd" clip-rule="evenodd" d="M10.4105 9.85237C12.2045 8.95664 13.4095 7.29479 13.4095 5.3927C13.4095 2.54127 10.7015 0.229736 7.36088 0.229736C4.0203 0.229736 1.31222 2.54127 1.31222 5.3927C1.31222 7.2948 2.51727 8.95666 4.31126 9.85239C1.82614 10.863 0.102539 13.0705 0.102539 15.6311C0.102539 18.9641 3.02278 18.9564 6.74156 18.9465C6.94573 18.946 7.1523 18.9454 7.36092 18.9454C7.56955 18.9454 7.77612 18.946 7.98028 18.9465C11.6991 18.9564 14.6193 18.9641 14.6193 15.6311C14.6193 13.0705 12.8957 10.863 10.4105 9.85237Z" fill="#C44601"/>
<path d="M10.4105 9.85237L10.2765 9.58397L9.68293 9.88035L10.2975 10.1303L10.4105 9.85237ZM4.31126 9.85239L4.42427 10.1303L5.03886 9.88036L4.44527 9.58399L4.31126 9.85239ZM6.74156 18.9465L6.74236 19.2465L6.74236 19.2465L6.74156 18.9465ZM7.98028 18.9465L7.97948 19.2465L7.97948 19.2465L7.98028 18.9465ZM13.1095 5.3927C13.1095 7.15943 11.9897 8.72856 10.2765 9.58397L10.5445 10.1208C12.4193 9.18471 13.7095 7.43014 13.7095 5.3927H13.1095ZM7.36088 0.529736C10.5821 0.529736 13.1095 2.74975 13.1095 5.3927H13.7095C13.7095 2.3328 10.8208 -0.0702637 7.36088 -0.0702637V0.529736ZM1.61222 5.3927C1.61222 2.74975 4.13968 0.529736 7.36088 0.529736V-0.0702637C3.90092 -0.0702637 1.01222 2.3328 1.01222 5.3927H1.61222ZM4.44527 9.58399C2.73206 8.72859 1.61222 7.15945 1.61222 5.3927H1.01222C1.01222 7.43015 2.30248 9.18473 4.17725 10.1208L4.44527 9.58399ZM0.402539 15.6311C0.402539 13.2142 2.03068 11.1037 4.42427 10.1303L4.19825 9.57449C1.6216 10.6223 -0.197461 12.9268 -0.197461 15.6311H0.402539ZM6.74077 18.6465C4.86089 18.6515 3.26134 18.6519 2.12561 18.2589C1.5693 18.0664 1.14765 17.7862 0.861616 17.383C0.575192 16.9793 0.402539 16.4208 0.402539 15.6311H-0.197461C-0.197461 16.5079 -0.00508345 17.1983 0.37225 17.7302C0.749971 18.2626 1.2908 18.6049 1.92941 18.8259C3.18349 19.2598 4.90345 19.2514 6.74236 19.2465L6.74077 18.6465ZM7.36092 18.6454C7.15184 18.6454 6.94487 18.646 6.74077 18.6465L6.74236 19.2465C6.94658 19.246 7.15276 19.2454 7.36092 19.2454V18.6454ZM7.98107 18.6465C7.77697 18.646 7.57001 18.6454 7.36092 18.6454V19.2454C7.56909 19.2454 7.77526 19.246 7.97948 19.2465L7.98107 18.6465ZM14.3193 15.6311C14.3193 16.4208 14.1467 16.9793 13.8602 17.383C13.5742 17.7862 13.1525 18.0664 12.5962 18.2589C11.4605 18.6519 9.86095 18.6515 7.98107 18.6465L7.97948 19.2465C9.81839 19.2514 11.5383 19.2598 12.7924 18.8259C13.431 18.6049 13.9719 18.2626 14.3496 17.7302C14.7269 17.1983 14.9193 16.5079 14.9193 15.6311H14.3193ZM10.2975 10.1303C12.6911 11.1036 14.3193 13.2142 14.3193 15.6311H14.9193C14.9193 12.9268 13.1002 10.6223 10.5235 9.57447L10.2975 10.1303Z" fill="white" mask="url(#path-1-inside-1_5_886)"/>
</svg>
