<svg width="271" height="284" viewBox="0 0 271 284" fill="none" xmlns="http://www.w3.org/2000/svg">
<path d="M270.428 37.0487C270.682 37.8374 270.248 38.6823 269.459 38.9359L256.607 43.0681C255.818 43.3217 254.974 42.8879 254.72 42.0992C254.466 41.3105 254.9 40.4656 255.689 40.2121L267.113 36.539L263.44 25.115C263.186 24.3263 263.62 23.4814 264.409 23.2278C265.197 22.9743 266.042 23.408 266.296 24.1967L270.428 37.0487ZM15.1085 282.76C14.6889 283.474 13.7696 283.713 13.0554 283.293L1.41576 276.454C0.701494 276.035 0.462672 275.116 0.882335 274.401C1.302 273.687 2.22123 273.448 2.93549 273.868L13.2818 279.947L19.3608 269.601C19.7804 268.886 20.6997 268.647 21.4139 269.067C22.1282 269.487 22.367 270.406 21.9473 271.12L15.1085 282.76ZM13.8152 93.2178L12.362 92.8461L12.362 92.8461L13.8152 93.2178ZM269 37.5079C268.315 38.8423 268.315 38.8421 268.313 38.8415C268.312 38.8407 268.31 38.8397 268.307 38.8382C268.301 38.8352 268.292 38.8306 268.28 38.8243C268.255 38.8118 268.218 38.7927 268.168 38.7674C268.068 38.7168 267.917 38.6409 267.718 38.5413C267.319 38.342 266.724 38.0478 265.944 37.6702C264.385 36.9151 262.089 35.827 259.149 34.4992C253.27 31.8436 244.818 28.2308 234.542 24.4089C213.981 16.7611 186.166 8.29377 157.071 4.96091C127.959 1.62624 97.7112 3.44841 72.1719 16.2259C46.7008 28.9692 25.7289 52.7008 15.2684 93.5896L12.362 92.8461C23.0131 51.212 44.4951 26.7183 70.8296 13.543C97.0958 0.401795 128.005 -1.38815 157.412 1.98041C186.835 5.35079 214.9 13.902 235.588 21.5971C245.937 25.4465 254.453 29.0862 260.384 31.7652C263.35 33.1047 265.671 34.2044 267.252 34.9703C268.043 35.3533 268.648 35.6528 269.058 35.8572C269.263 35.9595 269.418 36.0379 269.523 36.0911C269.576 36.1177 269.616 36.138 269.643 36.1518C269.656 36.1586 269.666 36.1639 269.674 36.1675C269.677 36.1694 269.68 36.1708 269.682 36.1717C269.684 36.1728 269.685 36.1735 269 37.5079ZM15.2684 93.5896C3.15719 140.931 3.15122 187.944 6.18438 223.15C7.70044 240.747 9.9744 255.378 11.8682 265.606C12.815 270.719 13.6666 274.731 14.2806 277.46C14.5876 278.825 14.8352 279.87 15.0055 280.571C15.0907 280.921 15.1565 281.186 15.2009 281.363C15.223 281.451 15.2398 281.517 15.251 281.56C15.2565 281.582 15.2607 281.598 15.2633 281.609C15.2647 281.614 15.2657 281.618 15.2663 281.62C15.2666 281.621 15.2668 281.622 15.2669 281.622C15.267 281.623 15.267 281.623 13.8152 282C12.3634 282.377 12.3633 282.376 12.363 282.375C12.3628 282.375 12.3624 282.373 12.362 282.372C12.3611 282.368 12.3599 282.363 12.3583 282.357C12.3551 282.345 12.3505 282.327 12.3445 282.303C12.3324 282.256 12.3146 282.186 12.2915 282.094C12.2452 281.91 12.1774 281.638 12.0903 281.279C11.9161 280.562 11.6646 279.501 11.3537 278.119C10.732 275.355 9.87261 271.306 8.91832 266.152C7.00988 255.845 4.72117 241.116 3.19545 223.407C0.14505 188.002 0.139045 140.624 12.362 92.8461L15.2684 93.5896Z" fill="#C44601"/>
</svg>
