<svg width="320" height="227" viewBox="0 0 320 227" fill="none" xmlns="http://www.w3.org/2000/svg">
<path d="M38.4656 226.422C39.28 226.574 40.0634 226.037 40.2154 225.223L42.6931 211.952C42.8452 211.138 42.3083 210.354 41.4939 210.202C40.6796 210.05 39.8962 210.587 39.7441 211.402L37.5417 223.198L25.7455 220.995C24.9312 220.843 24.1477 221.38 23.9957 222.194C23.8437 223.009 24.3806 223.792 25.1949 223.944L38.4656 226.422ZM317.723 17.0939C318.537 17.2469 319.321 16.7108 319.474 15.8966C319.627 15.0824 319.091 14.2984 318.277 14.1455L317.723 17.0939ZM13.6018 55.3664L14.9642 55.994L14.9642 55.994L13.6018 55.3664ZM38.7409 224.948C39.9782 224.1 39.9783 224.1 39.9781 224.099C39.9777 224.099 39.9773 224.098 39.9765 224.097C39.975 224.095 39.9726 224.091 39.9693 224.086C39.9626 224.077 39.9522 224.061 39.9382 224.041C39.9102 223.999 39.8677 223.936 39.8114 223.852C39.6989 223.684 39.5309 223.431 39.3125 223.096C38.8756 222.427 38.2368 221.431 37.4352 220.132C35.8319 217.536 33.5777 213.731 30.9846 208.915C25.797 199.281 19.2604 185.614 13.8631 169.483C3.05675 137.187 -3.11399 95.2325 14.9642 55.994L12.2395 54.7387C-6.29761 94.9732 0.101192 137.809 11.0182 170.435C16.4826 186.766 23.0961 200.593 28.3432 210.338C30.9674 215.211 33.2517 219.067 34.8826 221.708C35.698 223.029 36.3503 224.047 36.8001 224.736C37.0251 225.081 37.1994 225.343 37.3183 225.521C37.3777 225.61 37.4233 225.677 37.4544 225.723C37.4699 225.746 37.4818 225.764 37.4901 225.776C37.4942 225.782 37.4974 225.786 37.4996 225.79C37.5008 225.791 37.5017 225.793 37.5023 225.794C37.5031 225.795 37.5036 225.795 38.7409 224.948ZM14.9642 55.994C24.9509 34.3179 48.5522 20.8484 78.8786 12.9766C109.151 5.11867 145.761 2.93711 181.187 3.54282C216.595 4.14824 250.733 7.53598 276.027 10.7742C288.671 12.3931 299.1 13.9739 306.366 15.1497C309.999 15.7376 312.841 16.2241 314.774 16.5635C315.74 16.7332 316.478 16.866 316.975 16.9564C317.223 17.0015 317.411 17.036 317.536 17.0592C317.599 17.0708 317.646 17.0795 317.677 17.0854C317.693 17.0883 317.704 17.0904 317.712 17.0919C317.716 17.0926 317.719 17.0931 317.721 17.0935C317.722 17.0938 317.723 17.0939 318 15.6197C318.277 14.1455 318.276 14.1453 318.273 14.1448C318.271 14.1444 318.268 14.1438 318.264 14.143C318.255 14.1415 318.243 14.1392 318.227 14.1361C318.194 14.1301 318.146 14.1211 318.082 14.1092C317.954 14.0855 317.763 14.0505 317.512 14.0048C317.01 13.9134 316.265 13.7795 315.292 13.6087C313.348 13.2672 310.493 12.7784 306.846 12.1882C299.552 11.008 289.09 9.42216 276.407 7.79852C251.048 4.55177 216.792 1.15118 181.238 0.543261C145.701 -0.0643641 108.78 2.11574 78.1248 10.0728C47.5237 18.016 22.801 31.8149 12.2395 54.7387L14.9642 55.994Z" fill="#C44601"/>
</svg>
