<svg width="590" height="235" viewBox="0 0 590 235" fill="none" xmlns="http://www.w3.org/2000/svg">
<path d="M580.249 234.746C580.966 235.161 581.884 234.915 582.299 234.198L589.055 222.511C589.47 221.793 589.224 220.876 588.507 220.461C587.79 220.047 586.872 220.292 586.458 221.009L580.452 231.398L570.063 225.392C569.346 224.978 568.428 225.223 568.014 225.94C567.599 226.658 567.844 227.575 568.562 227.99L580.249 234.746ZM255 17.1825L255.583 15.8004L255.583 15.8004L255 17.1825ZM1 17.1825C1.29182 18.6538 1.29228 18.6537 1.2934 18.6535C1.29464 18.6533 1.29642 18.6529 1.29891 18.6524C1.30389 18.6514 1.3115 18.6499 1.32171 18.6479C1.34213 18.6439 1.37296 18.6378 1.41409 18.6298C1.49633 18.6137 1.61973 18.5896 1.78328 18.5579C2.11038 18.4945 2.59806 18.4009 3.23827 18.28C4.51869 18.0383 6.40916 17.6879 8.84517 17.2538C13.7173 16.3857 20.7711 15.183 29.4906 13.8466C46.9314 11.1734 71.0282 7.96608 97.6558 5.82811C124.287 3.68982 153.425 2.62335 180.953 4.22419C208.502 5.82622 234.336 10.0945 254.417 18.5646L255.583 15.8004C235.045 7.13771 208.82 2.83962 181.127 1.22925C153.415 -0.382303 124.129 0.692834 97.4156 2.83773C70.6979 4.98295 46.527 8.20039 29.0361 10.8812C20.2899 12.2218 13.212 13.4284 8.31889 14.3003C5.87228 14.7363 3.97173 15.0886 2.68179 15.3321C2.03682 15.4538 1.54449 15.5484 1.21286 15.6126C1.04705 15.6447 0.921418 15.6693 0.836968 15.6858C0.794742 15.6941 0.762813 15.7004 0.741305 15.7046C0.730552 15.7067 0.722404 15.7083 0.716877 15.7094C0.714113 15.71 0.711937 15.7104 0.710554 15.7107C0.709036 15.711 0.708175 15.7112 1 17.1825ZM254.417 18.5646C270.68 25.4242 276.313 39.3398 277.984 56.1479C278.821 64.5635 278.651 73.6125 278.348 82.7426C278.045 91.8369 277.608 101.032 277.939 109.593C278.598 126.647 282.323 141.919 297.007 149.291C304.272 152.938 314.054 154.554 327.133 153.66C340.216 152.766 356.699 149.353 377.449 142.838L376.551 139.976C355.926 146.451 339.69 149.795 326.928 150.667C314.161 151.54 304.971 149.933 298.353 146.61C285.271 140.043 281.59 126.389 280.936 109.477C280.611 101.055 281.041 92.0076 281.346 82.8423C281.65 73.7127 281.828 64.4853 280.969 55.8511C279.25 38.5595 273.32 23.2817 255.583 15.8004L254.417 18.5646ZM377.449 142.838C418.616 129.914 451.779 129.206 478.359 135.33C504.936 141.452 525.027 154.427 540.016 169.017C555.015 183.617 564.907 199.836 571.051 212.418C574.121 218.705 576.25 224.076 577.611 227.868C578.291 229.764 578.778 231.264 579.094 232.286C579.252 232.797 579.368 233.189 579.443 233.451C579.481 233.581 579.508 233.68 579.526 233.744C579.535 233.776 579.541 233.8 579.546 233.815C579.548 233.823 579.549 233.828 579.55 233.832C579.55 233.833 579.551 233.834 579.551 233.835C579.551 233.835 579.551 233.835 581 233.448C582.449 233.06 582.449 233.059 582.448 233.057C582.448 233.055 582.447 233.053 582.446 233.05C582.445 233.045 582.443 233.037 582.44 233.027C582.435 233.008 582.427 232.979 582.417 232.943C582.397 232.869 582.366 232.762 582.326 232.621C582.246 232.341 582.124 231.931 581.96 231.4C581.632 230.338 581.13 228.795 580.434 226.855C579.043 222.975 576.871 217.501 573.746 211.101C567.499 198.307 557.423 181.773 542.109 166.868C526.786 151.953 506.22 138.67 479.032 132.406C451.846 126.143 418.134 126.92 376.551 139.976L377.449 142.838Z" fill="#C44601"/>
</svg>
