<svg width="603" height="288" viewBox="0 0 603 288" fill="none" xmlns="http://www.w3.org/2000/svg">
<path d="M13.6938 287.356C13.1922 288.015 12.2511 288.143 11.5918 287.642L0.847532 279.468C0.18821 278.966 0.0603377 278.025 0.561921 277.366C1.06351 276.706 2.0046 276.579 2.66393 277.08L12.2144 284.346L19.48 274.795C19.9816 274.136 20.9227 274.008 21.582 274.51C22.2413 275.011 22.3692 275.952 21.8676 276.612L13.6938 287.356ZM398.085 28.9587L396.948 27.98L396.948 27.98L398.085 28.9587ZM58 103.948L58.7401 105.252L58.7401 105.252L58 103.948ZM602 28.9587C601.446 30.3528 601.446 30.3527 601.445 30.3524C601.444 30.352 601.443 30.3514 601.441 30.3506C601.436 30.3489 601.43 30.3463 601.421 30.3429C601.404 30.3359 601.377 30.3254 601.341 30.3113C601.27 30.2832 601.162 30.2411 601.019 30.1856C600.734 30.0747 600.308 29.9103 599.748 29.6981C598.63 29.2737 596.981 28.6579 594.861 27.8949C590.622 26.3688 584.503 24.2541 576.997 21.904C561.98 17.2023 541.431 11.5645 519.276 7.80758C497.11 4.04863 473.408 2.18555 452.062 4.98718C430.711 7.78946 411.881 15.2343 399.221 29.9375L396.948 27.98C410.268 12.5098 429.917 4.86792 451.672 2.01269C473.431 -0.843199 497.461 1.0654 519.778 4.8498C542.107 8.63627 562.794 14.3135 577.893 19.041C585.445 21.4054 591.604 23.5339 595.877 25.0722C598.014 25.8415 599.68 26.4633 600.813 26.8934C601.38 27.1084 601.813 27.2756 602.106 27.3893C602.252 27.4462 602.363 27.4897 602.438 27.5191C602.476 27.5339 602.504 27.5451 602.523 27.5527C602.533 27.5565 602.54 27.5594 602.545 27.5614C602.548 27.5624 602.55 27.5632 602.551 27.5637C602.553 27.5643 602.554 27.5647 602 28.9587ZM399.221 29.9375C358.21 77.5686 320.771 103.653 286.499 116.538C252.21 129.429 221.217 129.059 193.198 123.992C179.2 121.461 165.943 117.758 153.404 113.959C140.835 110.15 129.054 106.266 117.864 103.318C95.4812 97.4201 76.0395 95.4396 58.7401 105.252L57.2599 102.643C75.6493 92.2119 96.1146 94.4846 118.629 100.417C129.888 103.383 141.803 107.308 154.274 111.088C166.776 114.876 179.904 118.54 193.732 121.04C221.363 126.036 251.784 126.384 285.444 113.73C319.122 101.068 356.167 75.3434 396.948 27.98L399.221 29.9375ZM58.7401 105.252C42.8309 114.276 32.0075 129.965 24.7542 148.625C17.5024 167.282 13.8725 188.777 12.2703 209.198C10.6689 229.608 11.0979 248.878 11.9286 263.05C12.3439 270.135 12.8592 275.94 13.2704 279.972C13.4759 281.988 13.6554 283.56 13.7833 284.626C13.8472 285.159 13.8982 285.566 13.9331 285.839C13.9506 285.975 13.964 286.078 13.973 286.146C13.9775 286.18 13.9809 286.205 13.9831 286.222C13.9843 286.23 13.9851 286.237 13.9856 286.24C13.9859 286.242 13.9861 286.244 13.9862 286.245C13.9863 286.246 13.9863 286.246 12.5 286.448C11.0137 286.65 11.0135 286.649 11.0133 286.647C11.0132 286.646 11.0129 286.644 11.0126 286.642C11.0119 286.637 11.011 286.63 11.0097 286.62C11.0072 286.602 11.0036 286.574 10.9988 286.538C10.9893 286.467 10.9754 286.36 10.9574 286.22C10.9215 285.94 10.8695 285.525 10.8046 284.983C10.6748 283.901 10.4933 282.311 10.2859 280.277C9.87094 276.208 9.35188 270.359 8.93378 263.226C8.09782 248.964 7.66422 229.551 9.27949 208.963C10.8939 188.387 14.5599 166.571 21.958 147.538C29.3548 128.509 40.5356 112.129 57.2599 102.643L58.7401 105.252Z" fill="#C44601"/>
</svg>
