<svg width="268" height="264" viewBox="0 0 268 264" fill="none" xmlns="http://www.w3.org/2000/svg">
<path d="M0.805984 11.9507C0.30461 12.6102 0.432781 13.5512 1.09226 14.0526L11.8391 22.223C12.4986 22.7243 13.4397 22.5962 13.941 21.9367C14.4424 21.2772 14.3142 20.3361 13.6548 19.8348L4.102 12.5722L11.3645 3.01945C11.8659 2.35997 11.7377 1.41891 11.0783 0.917534C10.4188 0.41616 9.47772 0.544331 8.97635 1.20381L0.805984 11.9507ZM0.967236 250.83C0.366432 251.4 0.341763 252.35 0.912136 252.951L10.2069 262.741C10.7773 263.342 11.7267 263.367 12.3275 262.796C12.9283 262.226 12.953 261.277 12.3826 260.676L4.12059 251.973L12.8234 243.711C13.4242 243.141 13.4489 242.191 12.8785 241.59C12.3081 240.99 11.3587 240.965 10.7579 241.535L0.967236 250.83ZM260.066 165.852L258.617 165.464L260.066 165.852ZM2.00008 12.8585C2.20251 14.3448 2.20326 14.3447 2.20519 14.3444C2.20741 14.3441 2.21052 14.3437 2.21494 14.3431C2.22379 14.3419 2.23733 14.3401 2.25553 14.3376C2.29192 14.3328 2.34692 14.3255 2.42021 14.3158C2.56679 14.2966 2.78652 14.2681 3.07685 14.2314C3.6575 14.158 4.52048 14.0518 5.64528 13.9215C7.8949 13.6608 11.1915 13.3033 15.371 12.9173C23.7304 12.1451 35.6187 11.259 49.7227 10.8042C77.9435 9.89439 114.979 10.714 150.35 17.6044C185.759 24.5019 219.275 37.4403 240.697 60.5894C262.021 83.6329 271.582 117.039 258.617 165.464L261.515 166.24C274.689 117.034 265.061 82.5004 242.899 58.5518C220.834 34.7089 186.566 21.6027 150.924 14.6597C115.244 7.7094 77.9609 6.89227 49.626 7.80581C35.4522 8.26278 23.5033 9.15335 15.0951 9.93001C10.8907 10.3184 7.57085 10.6783 5.29996 10.9414C4.16449 11.073 3.29121 11.1804 2.70066 11.255C2.40538 11.2924 2.18078 11.3215 2.02942 11.3414C1.95375 11.3513 1.89638 11.359 1.85764 11.3641C1.83827 11.3667 1.82356 11.3687 1.81355 11.3701C1.80855 11.3707 1.80457 11.3713 1.80206 11.3716C1.79927 11.372 1.79765 11.3722 2.00008 12.8585ZM258.617 165.464C252.614 187.886 233.862 204.514 208.679 216.82C183.519 229.114 152.196 236.964 121.542 241.953C90.9057 246.94 61.0249 249.058 38.7956 249.927C27.6832 250.362 18.4883 250.484 12.0738 250.499C8.86665 250.506 6.35488 250.485 4.64638 250.464C3.79213 250.453 3.13873 250.441 2.69965 250.433C2.48012 250.428 2.31417 250.425 2.20349 250.422C2.14815 250.421 2.10663 250.42 2.07913 250.419C2.06539 250.419 2.05515 250.419 2.04844 250.419C2.04509 250.419 2.04271 250.419 2.04103 250.418C2.03955 250.418 2.03895 250.418 1.99999 251.918C1.96103 253.417 1.96221 253.417 1.96428 253.418C1.96615 253.418 1.96911 253.418 1.97285 253.418C1.98034 253.418 1.99136 253.418 2.0059 253.419C2.03496 253.419 2.07807 253.42 2.13501 253.422C2.24889 253.424 2.41809 253.428 2.64092 253.432C3.08658 253.441 3.74678 253.452 4.60804 253.463C6.33053 253.485 8.85731 253.506 12.0804 253.499C18.5263 253.484 27.7585 253.361 38.9128 252.925C61.2169 252.052 91.2278 249.927 122.024 244.914C152.805 239.904 184.456 231.995 209.996 219.515C235.513 207.046 255.185 189.883 261.515 166.24L258.617 165.464Z" fill="#C44601"/>
</svg>
