<svg width="594" height="228" viewBox="0 0 594 228" fill="none" xmlns="http://www.w3.org/2000/svg">
<path d="M13.9334 227.374C14.6923 227.706 15.5768 227.36 15.909 226.602L21.3225 214.234C21.6547 213.476 21.3088 212.591 20.5499 212.259C19.791 211.927 18.9065 212.273 18.5743 213.031L13.7623 224.024L2.76934 219.212C2.01043 218.88 1.12592 219.226 0.793716 219.985C0.461514 220.744 0.807424 221.628 1.56633 221.961L13.9334 227.374ZM591.882 5.83454C592.708 5.89955 593.43 5.28274 593.495 4.45687C593.56 3.63099 592.944 2.90879 592.118 2.84379L591.882 5.83454ZM274.174 78.6862L275.618 79.0929L274.174 78.6862ZM34.5823 124.283L34.0135 122.895L34.5823 124.283ZM275.618 79.0929C282.261 55.5092 304.949 38.9484 335.908 27.4666C366.801 16.0092 405.517 9.76818 443.482 6.55469C481.427 3.34277 518.531 3.16222 546.156 3.78577C559.967 4.09749 571.403 4.61005 579.385 5.04454C583.376 5.26178 586.503 5.45949 588.631 5.60278C589.695 5.67443 590.509 5.73247 591.056 5.77255C591.33 5.7926 591.537 5.80814 591.676 5.81866C591.745 5.82391 591.797 5.82791 591.831 5.83058C591.849 5.83192 591.862 5.83292 591.87 5.83358C591.874 5.83392 591.877 5.83416 591.88 5.83432C591.881 5.83448 591.882 5.83454 592 4.33917C592.118 2.84379 592.116 2.84369 592.114 2.84349C592.112 2.84331 592.108 2.84303 592.103 2.84268C592.094 2.84196 592.081 2.84091 592.063 2.83952C592.027 2.83674 591.974 2.83264 591.903 2.82728C591.762 2.81656 591.552 2.80081 591.276 2.78056C590.722 2.74007 589.902 2.68161 588.832 2.60956C586.692 2.46546 583.553 2.26696 579.548 2.04898C571.539 1.61302 560.071 1.09907 546.224 0.78653C518.535 0.161539 481.317 0.341416 443.229 3.56538C405.159 6.78775 366.131 13.058 334.865 24.6538C303.664 36.2253 279.778 53.2596 272.73 78.2795L275.618 79.0929ZM14.5349 226C15.9318 225.454 15.9319 225.454 15.9318 225.454C15.9316 225.453 15.9315 225.453 15.9311 225.452C15.9304 225.45 15.9292 225.447 15.9275 225.443C15.9242 225.434 15.919 225.421 15.912 225.402C15.8979 225.366 15.8767 225.31 15.8486 225.236C15.7924 225.088 15.709 224.866 15.6019 224.574C15.3876 223.989 15.0783 223.124 14.702 222.014C13.9492 219.794 12.9288 216.593 11.8634 212.684C9.73082 204.858 7.42772 194.23 6.71942 182.971C5.29663 160.354 10.3077 135.851 35.151 125.671L34.0135 122.895C7.29368 133.844 2.28104 160.2 3.72534 183.159C4.45058 194.688 6.80373 205.527 8.96898 213.472C10.0526 217.449 11.0915 220.708 11.8608 222.978C12.2455 224.112 12.563 225 12.7851 225.606C12.8962 225.909 12.9835 226.142 13.0435 226.3C13.0734 226.379 13.0966 226.439 13.1125 226.481C13.1204 226.501 13.1265 226.517 13.1308 226.528C13.1329 226.534 13.1346 226.538 13.1358 226.541C13.1364 226.542 13.1369 226.544 13.1372 226.545C13.1376 226.546 13.1379 226.546 14.5349 226ZM35.151 125.671C39.6573 123.825 46.3286 123.11 54.7909 123.192C63.2118 123.273 73.2217 124.138 84.3027 125.331C106.415 127.71 132.758 131.392 158.701 132.597C184.64 133.802 210.396 132.549 231.392 124.962C252.469 117.345 268.793 103.32 275.618 79.0929L272.73 78.2795C266.217 101.403 250.722 114.787 230.373 122.14C209.943 129.523 184.667 130.8 158.841 129.6C133.019 128.401 106.866 124.742 84.6237 122.348C73.5275 121.154 63.3957 120.275 54.8199 120.192C46.2854 120.109 39.1049 120.809 34.0135 122.895L35.151 125.671Z" fill="#C44601"/>
</svg>
