<svg width="309" height="578" viewBox="0 0 309 578" fill="none" xmlns="http://www.w3.org/2000/svg">
<path d="M308.004 564.695C308.619 565.249 308.669 566.198 308.115 566.813L299.079 576.844C298.525 577.46 297.576 577.509 296.961 576.955C296.345 576.4 296.296 575.452 296.85 574.836L304.882 565.92L295.966 557.889C295.35 557.334 295.3 556.386 295.855 555.77C296.409 555.155 297.358 555.105 297.973 555.66L308.004 564.695ZM8.85524 366.051L10.3421 365.853L8.85524 366.051ZM307 10.9555C306.604 12.4023 306.603 12.4022 306.602 12.4017C306.599 12.401 306.596 12.4001 306.591 12.3988C306.581 12.3961 306.566 12.392 306.545 12.3864C306.504 12.3754 306.441 12.3586 306.357 12.3365C306.19 12.2922 305.938 12.2265 305.604 12.1418C304.937 11.9723 303.944 11.7269 302.648 11.4253C300.057 10.8221 296.257 9.9943 291.438 9.10007C281.799 7.31143 268.09 5.25832 251.825 4.20482C219.277 2.09667 176.589 3.99754 135.826 19.9502C95.1043 35.8864 56.264 65.8566 31.3233 120.001C6.36261 174.189 -4.73459 252.72 10.3421 365.853L7.36838 366.25C-7.75279 252.782 3.31916 173.626 28.5985 118.746C53.8978 63.8229 93.3684 33.3442 134.733 17.1565C176.055 0.985203 219.227 -0.912837 252.019 1.21109C268.423 2.27363 282.253 4.3443 291.986 6.15043C296.853 7.05359 300.697 7.89089 303.328 8.50347C304.644 8.80977 305.657 9.05991 306.342 9.23406C306.685 9.32113 306.947 9.38921 307.123 9.43581C307.211 9.45911 307.278 9.47704 307.324 9.48929C307.347 9.49542 307.364 9.50013 307.376 9.50337C307.382 9.505 307.387 9.50633 307.39 9.50715C307.394 9.50811 307.396 9.5087 307 10.9555ZM10.3421 365.853C24.4853 471.982 98.4091 521.581 169.08 544.692C204.42 556.25 238.892 561.157 264.54 563.172C277.36 564.18 287.967 564.464 295.365 564.497C299.063 564.513 301.958 564.466 303.926 564.416C304.91 564.391 305.662 564.364 306.167 564.345C306.419 564.335 306.609 564.326 306.736 564.32C306.799 564.318 306.846 564.315 306.877 564.314C306.893 564.313 306.904 564.312 306.912 564.312C306.916 564.312 306.918 564.312 306.92 564.312C306.921 564.312 306.922 564.312 307 565.81C307.078 567.307 307.077 567.308 307.074 567.308C307.072 567.308 307.068 567.308 307.064 567.308C307.055 567.309 307.042 567.309 307.024 567.31C306.99 567.312 306.94 567.314 306.873 567.317C306.74 567.323 306.543 567.332 306.285 567.342C305.767 567.363 305.001 567.389 304.003 567.415C302.007 567.466 299.082 567.513 295.351 567.497C287.891 567.464 277.209 567.177 264.305 566.163C238.503 564.135 203.781 559.197 168.148 547.544C96.8703 524.234 21.7217 473.955 7.36838 366.25L10.3421 365.853Z" fill="#C44601"/>
</svg>
