<svg width="358" height="215" viewBox="0 0 358 215" fill="none" xmlns="http://www.w3.org/2000/svg">
<path d="M343.689 214.431C342.899 214.679 342.057 214.239 341.809 213.449L337.767 200.568C337.519 199.778 337.959 198.936 338.749 198.688C339.54 198.44 340.382 198.88 340.63 199.67L344.222 211.12L355.672 207.527C356.462 207.279 357.304 207.719 357.552 208.509C357.8 209.3 357.36 210.142 356.57 210.39L343.689 214.431ZM0.948648 13.079C0.357769 12.4983 0.349476 11.5486 0.930125 10.9577L10.3924 1.32881C10.973 0.737933 11.9227 0.729641 12.5136 1.31029C13.1045 1.89094 13.1128 2.84065 12.5321 3.43153L4.12125 11.9906L12.6803 20.4014C13.2712 20.9821 13.2795 21.9318 12.6988 22.5227C12.1182 23.1136 11.1685 23.1219 10.5776 22.5412L0.948648 13.079ZM332.233 86.3484L330.949 87.1249L332.233 86.3484ZM343.24 213C341.91 212.306 341.91 212.306 341.91 212.306C341.91 212.306 341.91 212.306 341.91 212.306C341.911 212.305 341.912 212.303 341.913 212.3C341.916 212.295 341.92 212.286 341.927 212.274C341.939 212.249 341.959 212.211 341.985 212.159C342.038 212.054 342.117 211.894 342.219 211.681C342.424 211.254 342.723 210.612 343.09 209.767C343.825 208.077 344.836 205.575 345.923 202.355C348.097 195.915 350.575 186.609 351.774 175.183C354.171 152.346 351.46 121.021 330.949 87.1249L333.516 85.5718C354.418 120.116 357.211 152.117 354.758 175.496C353.532 187.178 350.997 196.702 348.765 203.315C347.649 206.622 346.607 209.203 345.841 210.963C345.458 211.844 345.144 212.519 344.924 212.978C344.814 213.208 344.727 213.383 344.667 213.503C344.637 213.563 344.613 213.609 344.597 213.641C344.589 213.657 344.583 213.669 344.578 213.678C344.576 213.683 344.574 213.686 344.572 213.689C344.572 213.69 344.571 213.692 344.571 213.692C344.57 213.694 344.57 213.694 343.24 213ZM330.949 87.1249C319.635 68.4266 293.67 54.3131 260.568 43.7548C227.562 33.2268 187.844 26.3487 149.511 21.8622C111.19 17.3771 74.3118 15.2884 47.0093 14.3213C33.3594 13.8378 22.1064 13.6348 14.2675 13.5526C10.3481 13.5115 7.28241 13.5006 5.19757 13.5C4.15516 13.4997 3.35799 13.502 2.82194 13.5043C2.55391 13.5055 2.35117 13.5067 2.21571 13.5076C2.14797 13.508 2.09706 13.5084 2.06321 13.5086C2.04628 13.5088 2.03362 13.5089 2.02526 13.5089C2.02108 13.509 2.01804 13.509 2.01595 13.509C2.01399 13.509 2.0131 13.509 2.00001 12.0091C1.98691 10.5092 1.98819 10.5091 1.99055 10.5091C1.99278 10.5091 1.99622 10.5091 2.00067 10.509C2.00956 10.509 2.02276 10.5089 2.04022 10.5087C2.07515 10.5085 2.12715 10.5081 2.19598 10.5076C2.33364 10.5067 2.5386 10.5055 2.80888 10.5043C3.34943 10.502 4.15125 10.4997 5.19845 10.5C7.29282 10.5006 10.3687 10.5116 14.2989 10.5528C22.1592 10.6351 33.4374 10.8387 47.1155 11.3232C74.4688 12.2921 111.433 14.385 149.86 18.8826C188.276 23.3788 228.21 30.2845 261.48 40.8967C294.655 51.4785 321.589 65.8617 333.516 85.5718L330.949 87.1249Z" fill="#C44601"/>
</svg>
