<svg width="261" height="694" viewBox="0 0 261 694" fill="none" xmlns="http://www.w3.org/2000/svg">
<path d="M235.063 681.887C235.649 682.473 235.649 683.422 235.063 684.008L225.517 693.554C224.932 694.14 223.982 694.14 223.396 693.554C222.81 692.968 222.81 692.019 223.396 691.433L231.881 682.947L223.396 674.462C222.81 673.876 222.81 672.927 223.396 672.341C223.982 671.755 224.932 671.755 225.517 672.341L235.063 681.887ZM34.5226 24.8032L33.5952 23.6243L34.5226 24.8032ZM34.5226 524.191L33.3656 523.236L33.3656 523.236L34.5226 524.191ZM256.718 28.9271C255.934 28.6588 255.516 27.8059 255.785 27.0221C256.053 26.2384 256.906 25.8204 257.69 26.0887L256.718 28.9271ZM251.831 24.141C252.619 24.3962 253.051 25.2421 252.796 26.0302C252.54 26.8183 251.695 27.2503 250.907 26.995L251.831 24.141ZM245.014 25.1301C244.223 24.8852 243.78 24.0451 244.025 23.2537C244.269 22.4623 245.11 22.0193 245.901 22.2642L245.014 25.1301ZM240.003 20.4773C240.798 20.7129 241.251 21.5478 241.015 22.342C240.779 23.1362 239.944 23.589 239.15 23.3534L240.003 20.4773ZM233.279 21.6474C232.482 21.4207 232.02 20.5909 232.247 19.7941C232.474 18.9974 233.303 18.5352 234.1 18.762L233.279 21.6474ZM228.161 17.1069C228.96 17.3249 229.431 18.1495 229.213 18.9488C228.995 19.748 228.17 20.2192 227.371 20.0011L228.161 17.1069ZM221.46 18.423C220.658 18.2136 220.178 17.3942 220.387 16.5926C220.597 15.7911 221.416 15.311 222.218 15.5203L221.46 18.423ZM216.28 14.004C217.084 14.2046 217.573 15.0188 217.372 15.8226C217.172 16.6264 216.357 17.1153 215.554 16.9147L216.28 14.004ZM209.617 15.4675C208.811 15.2758 208.313 14.4671 208.505 13.6611C208.696 12.8552 209.505 12.3573 210.311 12.549L209.617 15.4675ZM204.307 11.1564C205.115 11.339 205.622 12.1421 205.44 12.9502C205.257 13.7582 204.454 14.2653 203.646 14.0826L204.307 11.1564ZM197.644 12.7626C196.833 12.5894 196.317 11.7923 196.49 10.9822C196.663 10.172 197.461 9.65572 198.271 9.82891L197.644 12.7626ZM192.257 8.58053C193.069 8.74406 193.595 9.53498 193.432 10.3471C193.268 11.1592 192.477 11.685 191.665 11.5215L192.257 8.58053ZM185.668 10.3521C184.854 10.1986 184.318 9.41428 184.471 8.60019C184.625 7.78611 185.409 7.25058 186.223 7.40407L185.668 10.3521ZM180.153 6.29978C180.969 6.44276 181.515 7.22016 181.372 8.03616C181.229 8.85215 180.451 9.39774 179.635 9.25476L180.153 6.29978ZM173.598 8.23835C172.78 8.10633 172.225 7.33632 172.357 6.51848C172.489 5.70064 173.259 5.14467 174.076 5.27668L173.598 8.23835ZM167.999 4.33903C168.819 4.45957 169.386 5.22172 169.265 6.04133C169.145 6.86094 168.382 7.42764 167.563 7.3071L167.999 4.33903ZM161.498 6.46045C160.677 6.35202 160.099 5.59831 160.208 4.77702C160.316 3.95572 161.07 3.37783 161.891 3.48627L161.498 6.46045ZM155.775 2.72652C156.598 2.82219 157.187 3.56683 157.091 4.38971C156.996 5.2126 156.251 5.80212 155.428 5.70644L155.775 2.72652ZM149.354 5.05014C148.53 4.96796 147.928 4.23308 148.01 3.40874C148.093 2.58439 148.827 1.98276 149.652 2.06494L149.354 5.05014ZM143.509 1.50589C144.335 1.57373 144.949 2.29804 144.881 3.12369C144.813 3.94933 144.089 4.56365 143.263 4.49581L143.509 1.50589ZM137.17 4.05114C136.343 3.99855 135.716 3.2857 135.768 2.45894C135.821 1.63219 136.534 1.0046 137.361 1.05719L137.17 4.05114ZM131.2 0.725531C132.028 0.761835 132.669 1.46219 132.633 2.28982C132.597 3.11745 131.897 3.75895 131.069 3.72265L131.2 0.725531ZM124.967 3.51855C124.138 3.49967 123.482 2.81297 123.501 1.98476C123.52 1.15655 124.207 0.500451 125.035 0.51933L124.967 3.51855ZM118.864 0.447516C119.692 0.447692 120.363 1.11941 120.363 1.94784C120.363 2.77626 119.691 3.44769 118.863 3.44752L118.864 0.447516ZM112.758 3.51951C111.929 3.53948 111.242 2.88428 111.222 2.0561C111.202 1.22791 111.857 0.540348 112.685 0.520384L112.758 3.51951ZM106.519 0.748845C107.346 0.707192 108.051 1.34415 108.092 2.17153C108.134 2.99891 107.497 3.7034 106.67 3.74505L106.519 0.748845ZM100.584 4.13699C99.758 4.20213 99.0357 3.58544 98.9705 2.75958C98.9054 1.93372 99.5221 1.21142 100.348 1.14628L100.584 4.13699ZM94.1855 1.72686C95.0089 1.63626 95.7499 2.23035 95.8405 3.05381C95.9311 3.87727 95.337 4.61826 94.5136 4.70887L94.1855 1.72686ZM88.4841 5.47334C87.6641 5.59151 86.9036 5.0226 86.7855 4.20265C86.6673 3.38269 87.2362 2.62219 88.0562 2.50402L88.4841 5.47334ZM81.9415 3.49843C82.7565 3.35025 83.5374 3.89087 83.6856 4.70593C83.8338 5.521 83.2931 6.30187 82.4781 6.45005L81.9415 3.49843ZM76.5139 7.65679C75.7054 7.83762 74.9035 7.32883 74.7226 6.52038C74.5418 5.71193 75.0506 4.90996 75.8591 4.72913L76.5139 7.65679ZM69.8432 6.21218C70.643 5.99598 71.4665 6.46902 71.6827 7.26874C71.8989 8.06846 71.4259 8.89202 70.6262 9.10822L69.8432 6.21218ZM64.8187 10.8271C64.0304 11.0816 63.185 10.6489 62.9305 9.86049C62.676 9.07213 63.1087 8.22671 63.8971 7.97221L64.8187 10.8271ZM58.022 10.0399C58.7958 9.74391 59.663 10.1312 59.9589 10.905C60.2549 11.6787 59.8676 12.5459 59.0938 12.8419L58.022 10.0399ZM53.5088 15.163C52.7535 15.5033 51.8653 15.1669 51.525 14.4116C51.1848 13.6563 51.5212 12.7681 52.2765 12.4278L53.5088 15.163ZM46.6866 15.1586C47.419 14.7713 48.3266 15.0511 48.7138 15.7834C49.1011 16.5158 48.8213 17.4234 48.089 17.8106L46.6866 15.1586ZM42.8528 20.8099C42.1486 21.2463 41.224 21.0293 40.7876 20.3251C40.3512 19.621 40.5682 18.6964 41.2724 18.2599L42.8528 20.8099ZM36.0855 21.7415C36.7558 21.2546 37.6938 21.4033 38.1807 22.0735C38.6676 22.7438 38.519 23.6818 37.8487 24.1687L36.0855 21.7415ZM33.1741 27.8583C32.547 28.3997 31.5998 28.3303 31.0584 27.7032C30.517 27.0762 30.5864 26.129 31.2135 25.5876L33.1741 27.8583ZM26.756 29.8027C27.3317 29.207 28.2813 29.1908 28.877 29.7665C29.4727 30.3423 29.4888 31.2919 28.9131 31.8875L26.756 29.8027ZM25.0384 36.2663C24.5169 36.91 23.5723 37.0089 22.9287 36.4873C22.285 35.9657 22.1861 35.0212 22.7077 34.3775L25.0384 36.2663ZM19.0537 39.2956C19.5199 38.6108 20.453 38.4337 21.1378 38.9C21.8225 39.3662 21.9996 40.2993 21.5334 40.9841L19.0537 39.2956ZM18.4243 45.9578C18.0122 46.6765 17.0956 46.9251 16.3769 46.513C15.6582 46.1009 15.4096 45.1843 15.8217 44.4656L18.4243 45.9578ZM12.9763 49.8712C13.3363 49.1251 14.233 48.8121 14.9791 49.1721C15.7252 49.5321 16.0382 50.4288 15.6782 51.1749L12.9763 49.8712ZM13.2906 56.5668C12.9793 57.3345 12.1046 57.7044 11.3369 57.3931C10.5692 57.0818 10.1992 56.207 10.5105 55.4393L13.2906 56.5668ZM8.39399 61.1342C8.66042 60.3498 9.5123 59.9299 10.2967 60.1963C11.0811 60.4627 11.501 61.3146 11.2346 62.099L8.39399 61.1342ZM9.47208 67.7793C9.24689 68.5765 8.41806 69.0403 7.62082 68.8151C6.82359 68.5899 6.35985 67.7611 6.58504 66.9638L9.47208 67.7793ZM5.08356 72.8002C5.27174 71.9935 6.07831 71.492 6.88508 71.6802C7.69185 71.8684 8.19331 72.6749 8.00513 73.4817L5.08356 72.8002ZM6.76364 79.373C6.6096 80.187 5.82486 80.722 5.01088 80.568C4.1969 80.4139 3.66191 79.6292 3.81595 78.8152L6.76364 79.373ZM2.81602 84.6978C2.94012 83.8787 3.70472 83.3153 4.5238 83.4394C5.34288 83.5635 5.90627 84.3281 5.78216 85.1472L2.81602 84.6978ZM4.98466 91.0983C4.88823 91.9211 4.14304 92.5099 3.32025 92.4134C2.49745 92.317 1.90862 91.5718 2.00506 90.749L4.98466 91.0983ZM1.3958 96.732C1.46763 95.9067 2.1949 95.2958 3.0202 95.3677C3.84551 95.4395 4.45633 96.1668 4.38451 96.9921L1.3958 96.732ZM3.95031 102.924C3.90082 103.751 3.19032 104.382 2.36337 104.332C1.53643 104.283 0.906176 103.572 0.95567 102.745L3.95031 102.924ZM0.667351 108.851C0.696348 108.023 1.39102 107.375 2.21894 107.404C3.04685 107.433 3.69451 108.128 3.66551 108.956L0.667351 108.851ZM3.52483 114.843C3.51395 115.671 2.83362 116.334 2.00527 116.323C1.17691 116.312 0.514212 115.632 0.525084 114.804L3.52483 114.843ZM0.507918 120.868C0.502 120.04 1.16876 119.363 1.99716 119.357C2.82557 119.351 3.50192 120.018 3.50784 120.847L0.507918 120.868ZM3.6065 126.832C3.62765 127.66 2.97344 128.349 2.14529 128.37C1.31713 128.391 0.62863 127.737 0.607479 126.909L3.6065 126.832ZM0.81074 132.889C0.775815 132.061 1.41848 131.362 2.24617 131.327C3.07386 131.292 3.77315 131.935 3.80807 132.762L0.81074 132.889ZM4.10953 138.785C4.15725 139.612 3.52547 140.321 2.69841 140.369C1.87136 140.416 1.16223 139.785 1.11451 138.957L4.10953 138.785ZM1.50275 144.948C1.44347 144.121 2.06527 143.403 2.89157 143.344C3.71787 143.285 4.43578 143.907 4.49506 144.733L1.50275 144.948ZM4.95995 150.672C5.02983 151.497 4.41729 152.223 3.59181 152.293C2.76634 152.363 2.04051 151.75 1.97064 150.925L4.95995 150.672ZM2.51945 156.973C2.43973 156.148 3.04356 155.415 3.86814 155.336C4.69273 155.256 5.42581 155.86 5.50553 156.684L2.51945 156.973ZM6.11137 162.611C6.20001 163.435 5.60416 164.174 4.78049 164.263C3.95681 164.352 3.21724 163.756 3.1286 162.932L6.11137 162.611ZM3.80047 168.892C3.70362 168.069 4.29206 167.323 5.11481 167.226C5.93755 167.13 6.68304 167.718 6.7799 168.541L3.80047 168.892ZM7.51341 174.529C7.6179 175.35 7.0364 176.101 6.21459 176.206C5.39278 176.31 4.64186 175.729 4.53737 174.907L7.51341 174.529ZM5.31905 180.851C5.20761 180.03 5.78274 179.274 6.60363 179.163C7.42453 179.051 8.18034 179.626 8.29178 180.447L5.31905 180.851ZM9.11828 186.36C9.23611 187.18 8.66689 187.94 7.84688 188.058C7.02688 188.176 6.26661 187.607 6.14878 186.787L9.11828 186.36ZM7.03037 192.766C6.90662 191.947 7.47034 191.183 8.28947 191.059C9.10861 190.935 9.87296 191.499 9.99671 192.318L7.03037 192.766ZM10.9111 198.237C11.0403 199.055 10.4816 199.823 9.66333 199.952C8.84503 200.082 8.07697 199.523 7.94782 198.705L10.9111 198.237ZM8.89964 204.617C8.76555 203.8 9.31956 203.029 10.1371 202.894C10.9546 202.76 11.726 203.314 11.8601 204.132L8.89964 204.617ZM12.8499 210.061C12.9885 210.878 12.4388 211.652 11.6221 211.791C10.8053 211.93 10.0308 211.38 9.89219 210.563L12.8499 210.061ZM10.9155 216.498C10.7727 215.682 11.3184 214.905 12.1345 214.762C12.9505 214.62 13.7278 215.165 13.8706 215.981L10.9155 216.498ZM14.9137 221.861C15.0602 222.677 14.518 223.457 13.7027 223.603C12.8873 223.75 12.1075 223.208 11.961 222.392L14.9137 221.861ZM13.0375 228.31C12.8876 227.495 13.4265 226.713 14.2412 226.563C15.056 226.413 15.838 226.952 15.988 227.766L13.0375 228.31ZM17.0891 233.685C17.2421 234.499 16.7062 235.283 15.892 235.436C15.0778 235.589 14.2938 235.053 14.1407 234.239L17.0891 233.685ZM15.2567 240.12C15.1009 239.306 15.6342 238.521 16.4478 238.365C17.2615 238.209 18.0474 238.742 18.2032 239.556L15.2567 240.12ZM19.3398 245.443C19.498 246.257 18.9671 247.044 18.1539 247.202C17.3407 247.361 16.5532 246.83 16.395 246.016L19.3398 245.443ZM17.5531 251.925C17.3927 251.113 17.9215 250.324 18.7343 250.163C19.547 250.003 20.3359 250.532 20.4963 251.345L17.5531 251.925ZM21.6632 257.222C21.8254 258.035 21.2984 258.825 20.486 258.987C19.6736 259.149 18.8835 258.622 18.7213 257.81L21.6632 257.222ZM19.9023 263.693C19.7385 262.881 20.264 262.09 21.0761 261.926C21.8882 261.763 22.6793 262.288 22.8431 263.1L19.9023 263.693ZM24.0349 268.984C24.2 269.796 23.6757 270.588 22.8639 270.753C22.0521 270.918 21.2602 270.394 21.0951 269.582L24.0349 268.984ZM22.2961 275.468C22.13 274.657 22.6532 273.864 23.4648 273.698C24.2764 273.532 25.069 274.055 25.2351 274.867L22.2961 275.468ZM26.4412 280.745C26.608 281.556 26.0855 282.349 25.274 282.516C24.4626 282.683 23.6695 282.16 23.5026 281.349L26.4412 280.745ZM24.7133 287.227C24.546 286.416 25.068 285.622 25.8794 285.455C26.6907 285.288 27.4841 285.81 27.6515 286.621L24.7133 287.227ZM28.8643 292.497C29.0319 293.308 28.51 294.102 27.6987 294.269C26.8874 294.437 26.0939 293.915 25.9263 293.104L28.8643 292.497ZM27.1422 298.991C26.9747 298.179 27.4966 297.386 28.3079 297.218C29.1192 297.051 29.9127 297.573 30.0802 298.384L27.1422 298.991ZM31.2927 304.262C31.4599 305.073 30.9377 305.867 30.1263 306.034C29.3149 306.201 28.5217 305.679 28.3545 304.868L31.2927 304.262ZM29.5607 310.732C29.3941 309.92 29.9169 309.127 30.7284 308.961C31.5399 308.794 32.3328 309.317 32.4994 310.128L29.5607 310.732ZM33.707 316.027C33.8728 316.838 33.3491 317.631 32.5374 317.796C31.7257 317.962 30.9334 317.438 30.7677 316.627L33.707 316.027ZM31.9649 322.512C31.8003 321.7 32.3252 320.908 33.1371 320.744C33.949 320.579 34.7406 321.104 34.9051 321.916L31.9649 322.512ZM36.0893 327.785C36.2524 328.597 35.7262 329.388 34.9139 329.551C34.1017 329.714 33.3111 329.188 33.148 328.376L36.0893 327.785ZM34.3243 334.266C34.1629 333.453 34.6909 332.664 35.5034 332.502C36.316 332.341 37.1055 332.869 37.2668 333.682L34.3243 334.266ZM38.4323 339.591C38.5915 340.404 38.0615 341.192 37.2486 341.351C36.4356 341.51 35.6474 340.98 35.4882 340.167L38.4323 339.591ZM36.6294 346.039C36.4726 345.226 37.0049 344.439 37.8184 344.282C38.6318 344.126 39.4184 344.658 39.5752 345.471L36.6294 346.039ZM40.7004 351.361C40.8545 352.175 40.3195 352.96 39.5055 353.114C38.6915 353.268 37.9068 352.733 37.7528 351.919L40.7004 351.361ZM38.8626 357.844C38.7117 357.03 39.2497 356.247 40.0642 356.096C40.8788 355.945 41.6615 356.484 41.8124 357.298L38.8626 357.844ZM42.8921 363.197C43.0394 364.012 42.498 364.792 41.6828 364.94C40.8676 365.087 40.0873 364.546 39.9399 363.73L42.8921 363.197ZM40.9864 369.599C40.8429 368.783 41.3881 368.005 42.204 367.862C43.0199 367.718 43.7976 368.264 43.9411 369.08L40.9864 369.599ZM44.9742 375.051C45.1132 375.867 44.5638 376.642 43.7471 376.781C42.9304 376.92 42.1557 376.371 42.0167 375.554L44.9742 375.051ZM43.0034 381.458C42.8694 380.64 43.4234 379.869 44.2409 379.735C45.0584 379.6 45.8298 380.154 45.9639 380.972L43.0034 381.458ZM46.9092 386.855C47.0379 387.673 46.4788 388.441 45.6605 388.57C44.8421 388.699 44.0744 388.139 43.9457 387.321L46.9092 386.855ZM44.8647 393.307C44.7421 392.488 45.3068 391.724 46.1261 391.602C46.9454 391.479 47.709 392.044 47.8316 392.863L44.8647 393.307ZM48.6972 398.808C48.8132 399.628 48.2423 400.387 47.422 400.503C46.6018 400.619 45.8428 400.048 45.7268 399.228L48.6972 398.808ZM46.5313 405.101C46.4225 404.28 47.0001 403.526 47.8214 403.417C48.6427 403.308 49.3966 403.886 49.5053 404.707L46.5313 405.101ZM50.2752 410.75C50.3757 411.572 49.7906 412.32 48.9683 412.421C48.146 412.521 47.3979 411.936 47.2974 411.114L50.2752 410.75ZM47.9903 417.045C47.8987 416.221 48.4919 415.479 49.3152 415.388C50.1386 415.296 50.8803 415.889 50.9719 416.713L47.9903 417.045ZM51.5975 422.654C51.6792 423.479 51.0772 424.213 50.2528 424.295C49.4285 424.377 48.6939 423.775 48.6121 422.95L51.5975 422.654ZM49.1694 428.976C49.0988 428.151 49.7106 427.425 50.5361 427.354C51.3615 427.283 52.0878 427.895 52.1585 428.721L49.1694 428.976ZM52.6255 434.686C52.684 435.513 52.0615 436.23 51.2352 436.288C50.4088 436.347 49.6915 435.724 49.633 434.898L52.6255 434.686ZM50.007 440.866C49.9621 440.039 50.5963 439.332 51.4235 439.287C52.2507 439.242 52.9577 439.877 53.0026 440.704L50.007 440.866ZM53.2764 446.768C53.306 447.596 52.6589 448.291 51.831 448.32C51.0031 448.35 50.3079 447.703 50.2784 446.875L53.2764 446.768ZM50.43 452.751C50.4172 451.923 51.0783 451.241 51.9066 451.228C52.7349 451.215 53.4168 451.876 53.4297 452.705L50.43 452.751ZM53.4544 458.832C53.4478 459.661 52.771 460.327 51.9426 460.32C51.1142 460.314 50.4479 459.637 50.4545 458.808L53.4544 458.832ZM50.3322 464.742C50.3602 463.914 51.0541 463.265 51.8821 463.293C52.71 463.321 53.3585 464.015 53.3305 464.843L50.3322 464.742ZM53.0391 470.876C52.9866 471.703 52.2739 472.331 51.4471 472.279C50.6204 472.226 49.9926 471.513 50.0451 470.687L53.0391 470.876ZM49.5677 476.652C49.648 475.827 50.3816 475.224 51.2061 475.305C52.0306 475.385 52.6339 476.118 52.5535 476.943L49.5677 476.652ZM51.8625 482.887C51.7509 483.708 50.9949 484.283 50.1741 484.171C49.3532 484.059 48.7783 483.303 48.8899 482.482L51.8625 482.887ZM47.9491 488.422C48.0975 487.607 48.8785 487.067 49.6935 487.215C50.5085 487.364 51.0489 488.145 50.9005 488.96L47.9491 488.422ZM49.6863 494.809C49.4971 495.616 48.6899 496.116 47.8833 495.927C47.0768 495.738 46.5764 494.931 46.7656 494.124L49.6863 494.809ZM45.2224 499.928C45.4599 499.135 46.2959 498.684 47.0895 498.921C47.8831 499.159 48.3339 499.995 48.0964 500.789L45.2224 499.928ZM46.1811 506.491C45.8902 507.267 45.0255 507.659 44.2498 507.369C43.4742 507.078 43.0813 506.213 43.3722 505.437L46.1811 506.491ZM41.0649 510.92C41.4176 510.171 42.3111 509.849 43.0608 510.202C43.8104 510.554 44.1321 511.448 43.7795 512.198L41.0649 510.92ZM40.9457 517.584C40.5263 518.298 39.6072 518.538 38.8927 518.118C38.1783 517.699 37.9391 516.78 38.3585 516.065L40.9457 517.584ZM35.1371 520.963C35.6283 520.296 36.5673 520.154 37.2344 520.645C37.9014 521.136 38.044 522.075 37.5528 522.742L35.1371 520.963ZM33.6603 527.626C33.1416 528.272 32.1975 528.375 31.5515 527.856C30.9056 527.337 30.8024 526.393 31.3211 525.747L33.6603 527.626ZM27.4594 530.693C27.9599 530.033 28.9008 529.904 29.5609 530.404C30.2211 530.905 30.3505 531.846 29.8499 532.506L27.4594 530.693ZM26.3393 537.279C25.8586 537.954 24.922 538.111 24.2473 537.63C23.5726 537.15 23.4153 536.213 23.896 535.538L26.3393 537.279ZM20.396 540.629C20.8534 539.938 21.7841 539.749 22.4748 540.207C23.1655 540.664 23.3547 541.595 22.8973 542.285L20.396 540.629ZM19.6115 547.459C19.1813 548.167 18.2586 548.392 17.5507 547.962C16.8427 547.532 16.6175 546.609 17.0476 545.901L19.6115 547.459ZM14.0631 551.048C14.4633 550.323 15.3757 550.059 16.1011 550.459C16.8265 550.859 17.0901 551.772 16.69 552.497L14.0631 551.048ZM13.8222 558.017C13.4596 558.762 12.5618 559.072 11.8169 558.709C11.0721 558.347 10.7622 557.449 11.1248 556.704L13.8222 558.017ZM8.60806 562.254C8.92848 561.491 9.80753 561.131 10.5715 561.451C11.3354 561.772 11.695 562.651 11.3746 563.415L8.60806 562.254ZM9.21336 569.069C8.94379 569.853 8.09023 570.269 7.30689 570C6.52355 569.73 6.10706 568.877 6.37664 568.093L9.21336 569.069ZM4.58124 574C4.79185 573.199 5.61209 572.72 6.4133 572.931C7.21451 573.141 7.69328 573.962 7.48267 574.763L4.58124 574ZM6.20356 580.62C6.06256 581.436 5.28648 581.984 4.47014 581.843C3.6538 581.702 3.10633 580.926 3.24733 580.109L6.20356 580.62ZM2.48294 586.247C2.54497 585.421 3.26495 584.802 4.09105 584.864C4.91715 584.926 5.53655 585.646 5.47452 586.472L2.48294 586.247ZM5.34599 592.454C5.37394 593.282 4.7254 593.976 3.89745 594.004C3.06949 594.032 2.37565 593.383 2.3477 592.555L5.34599 592.454ZM2.91129 598.74C2.7882 597.921 3.35254 597.157 4.17178 597.034C4.99101 596.911 5.75491 597.475 5.87799 598.294L2.91129 598.74ZM7.11722 604.111C7.33908 604.909 6.8719 605.736 6.07373 605.958C5.27557 606.18 4.44867 605.712 4.22681 604.914L7.11722 604.111ZM6.26656 610.835C5.95012 610.07 6.31424 609.192 7.07985 608.876C7.84546 608.56 8.72263 608.924 9.03908 609.689L6.26656 610.835ZM11.6245 615.033C12.0276 615.756 11.7676 616.67 11.0438 617.073C10.3201 617.476 9.40659 617.216 9.00354 616.492L11.6245 615.033ZM12.3295 621.771C11.8516 621.094 12.0129 620.158 12.6897 619.68C13.3664 619.202 14.3024 619.364 14.7802 620.04L12.3295 621.771ZM18.4536 624.736C18.9942 625.364 18.9236 626.311 18.2959 626.851C17.6682 627.392 16.7211 627.321 16.1805 626.694L18.4536 624.736ZM20.4557 631.242C19.8637 630.663 19.8536 629.713 20.4331 629.121C21.0127 628.529 21.9624 628.519 22.5543 629.099L20.4557 631.242ZM26.9725 633.108C27.6056 633.643 27.6858 634.589 27.1515 635.222C26.6172 635.855 25.6709 635.935 25.0377 635.401L26.9725 633.108ZM29.9605 639.282C29.2939 638.79 29.1522 637.851 29.644 637.184C30.1358 636.517 31.075 636.376 31.7416 636.868L29.9605 639.282ZM36.6351 640.267C37.3281 640.721 37.5219 641.65 37.068 642.343C36.614 643.036 35.6843 643.23 34.9913 642.776L36.6351 640.267ZM40.2838 646.054C39.5691 645.635 39.3293 644.716 39.7483 644.002C40.1672 643.287 41.0862 643.047 41.8009 643.466L40.2838 646.054ZM47.0478 646.389C47.7799 646.776 48.059 647.684 47.6712 648.416C47.2835 649.148 46.3757 649.427 45.6436 649.04L47.0478 646.389ZM51.1747 651.831C50.4283 651.472 50.1143 650.576 50.4736 649.829C50.8328 649.083 51.7292 648.769 52.4757 649.128L51.1747 651.831ZM57.9569 651.65C58.7152 651.984 59.0594 652.869 58.7258 653.627C58.3921 654.385 57.507 654.73 56.7487 654.396L57.9569 651.65ZM62.4429 656.796C61.6747 656.486 61.3035 655.611 61.6137 654.843C61.9239 654.075 62.7981 653.704 63.5663 654.014L62.4429 656.796ZM69.2049 656.2C69.9813 656.489 70.3763 657.353 70.0873 658.129C69.7983 658.906 68.9347 659.301 68.1583 659.012L69.2049 656.2ZM73.9686 661.091C73.1852 660.821 72.7686 659.968 73.0381 659.184C73.3076 658.401 74.1611 657.984 74.9444 658.254L73.9686 661.091ZM80.6927 660.158C81.482 660.409 81.9178 661.253 81.6661 662.042C81.4145 662.832 80.5706 663.268 79.7813 663.016L80.6927 660.158ZM85.6743 664.826C84.8799 664.591 84.4266 663.757 84.6617 662.962C84.8968 662.168 85.7314 661.715 86.5258 661.95L85.6743 664.826ZM92.3556 663.614C93.1543 663.834 93.6235 664.66 93.4035 665.459C93.1836 666.257 92.3578 666.726 91.5591 666.507L92.3556 663.614ZM97.5073 668.087C96.7048 667.881 96.2211 667.064 96.4268 666.262C96.6326 665.459 97.4499 664.976 98.2524 665.181L97.5073 668.087ZM104.149 666.641C104.954 666.834 105.451 667.643 105.259 668.449C105.066 669.254 104.257 669.752 103.451 669.559L104.149 666.641ZM109.43 670.939C108.621 670.759 108.112 669.957 108.292 669.149C108.473 668.34 109.274 667.831 110.083 668.011L109.43 670.939ZM116.039 669.294C116.85 669.463 117.371 670.257 117.202 671.068C117.033 671.879 116.239 672.4 115.428 672.231L116.039 669.294ZM121.432 673.438C120.619 673.28 120.088 672.493 120.245 671.679C120.403 670.866 121.19 670.335 122.004 670.493L121.432 673.438ZM128.002 671.617C128.817 671.764 129.358 672.545 129.211 673.36C129.063 674.175 128.283 674.716 127.468 674.569L128.002 671.617ZM133.497 675.622C132.68 675.485 132.13 674.711 132.267 673.894C132.405 673.077 133.179 672.526 133.996 672.664L133.497 675.622ZM140.02 673.645C140.838 673.773 141.398 674.541 141.269 675.359C141.141 676.178 140.373 676.737 139.555 676.609L140.02 673.645ZM145.609 677.526C144.789 677.406 144.222 676.644 144.341 675.825C144.461 675.005 145.223 674.437 146.042 674.557L145.609 677.526ZM152.081 675.407C152.902 675.518 153.477 676.274 153.366 677.095C153.255 677.916 152.499 678.491 151.678 678.38L152.081 675.407ZM157.756 679.172C156.934 679.069 156.351 678.319 156.454 677.497C156.557 676.675 157.307 676.093 158.129 676.196L157.756 679.172ZM164.18 676.925C165.003 677.021 165.593 677.765 165.498 678.588C165.402 679.411 164.658 680.001 163.835 679.906L164.18 676.925ZM169.927 680.583C169.103 680.495 168.506 679.756 168.594 678.932C168.682 678.108 169.421 677.512 170.245 677.6L169.927 680.583ZM176.316 678.219C177.14 678.299 177.744 679.033 177.663 679.857C177.583 680.682 176.849 681.285 176.025 681.205L176.316 678.219ZM182.108 681.771C181.283 681.698 180.673 680.97 180.746 680.145C180.82 679.319 181.548 678.71 182.373 678.783L182.108 681.771ZM188.486 679.3C189.312 679.366 189.927 680.089 189.861 680.915C189.795 681.74 189.072 682.356 188.246 682.29L188.486 679.3ZM194.268 682.748C193.441 682.688 192.82 681.97 192.879 681.144C192.938 680.318 193.656 679.696 194.483 679.755L194.268 682.748ZM200.664 680.173C201.491 680.226 202.119 680.938 202.066 681.765C202.014 682.592 201.301 683.22 200.474 683.167L200.664 680.173ZM206.569 683.528C205.742 683.482 205.108 682.775 205.153 681.948C205.199 681.121 205.906 680.487 206.733 680.532L206.569 683.528ZM212.723 680.836C213.55 680.874 214.19 681.576 214.152 682.404C214.113 683.231 213.411 683.871 212.584 683.833L212.723 680.836ZM218.783 684.092C217.955 684.061 217.309 683.365 217.34 682.537C217.371 681.71 218.067 681.063 218.895 681.094L218.783 684.092ZM224.995 681.291C225.823 681.314 226.476 682.003 226.454 682.831C226.431 683.66 225.742 684.313 224.914 684.29L224.995 681.291ZM231.079 684.42C230.251 684.409 229.589 683.728 229.6 682.899C229.612 682.071 230.293 681.409 231.122 681.421L231.079 684.42ZM260 28.4851C259.488 29.8951 259.488 29.8951 259.488 29.8951C259.488 29.8951 259.488 29.8951 259.488 29.8951C259.488 29.8951 259.488 29.8951 259.488 29.8951C259.488 29.895 259.488 29.895 259.488 29.8949C259.487 29.8948 259.487 29.8946 259.486 29.8943C259.484 29.8937 259.482 29.8928 259.478 29.8915C259.471 29.8889 259.46 29.885 259.446 29.8798C259.417 29.8693 259.373 29.8534 259.314 29.8324C259.196 29.7903 259.02 29.7275 258.787 29.6451C258.32 29.4804 257.626 29.2376 256.718 28.9271L257.69 26.0887C258.606 26.4025 259.31 26.6484 259.785 26.8162C260.023 26.9001 260.204 26.9644 260.325 27.008C260.386 27.0298 260.432 27.0464 260.463 27.0577C260.479 27.0633 260.491 27.0676 260.499 27.0705C260.503 27.0719 260.506 27.0731 260.508 27.0738C260.509 27.0742 260.51 27.0745 260.511 27.0747C260.511 27.0749 260.511 27.0749 260.512 27.075C260.512 27.075 260.512 27.0751 260.512 27.0751C260.512 27.0751 260.512 27.0751 260.512 27.0751C260.512 27.0751 260.512 27.0751 260 28.4851ZM250.907 26.995C249.174 26.434 247.203 25.8076 245.014 25.1301L245.901 22.2642C248.103 22.9457 250.087 23.5761 251.831 24.141L250.907 26.995ZM239.15 23.3534C237.297 22.8037 235.338 22.2332 233.279 21.6474L234.1 18.762C236.17 19.3509 238.14 19.9246 240.003 20.4773L239.15 23.3534ZM227.371 20.0011C225.465 19.4812 223.493 18.954 221.46 18.423L222.218 15.5203C224.262 16.0542 226.245 16.5842 228.161 17.1069L227.371 20.0011ZM215.554 16.9147C213.619 16.4319 211.639 15.9486 209.617 15.4675L210.311 12.549C212.344 13.0327 214.335 13.5186 216.28 14.004L215.554 16.9147ZM203.646 14.0826C201.678 13.6378 199.676 13.1971 197.644 12.7626L198.271 9.82891C200.315 10.2659 202.328 10.7091 204.307 11.1564L203.646 14.0826ZM191.665 11.5215C189.69 11.1237 187.69 10.7333 185.668 10.3521L186.223 7.40407C188.258 7.78764 190.27 8.18039 192.257 8.58053L191.665 11.5215ZM179.635 9.25476C177.64 8.90518 175.627 8.56584 173.598 8.23835L174.076 5.27668C176.119 5.60637 178.145 5.94795 180.153 6.29978L179.635 9.25476ZM167.563 7.3071C165.553 7.01155 163.531 6.72883 161.498 6.46045L161.891 3.48627C163.939 3.75663 165.976 4.04139 167.999 4.33903L167.563 7.3071ZM155.428 5.70644C153.411 5.47188 151.385 5.25263 149.354 5.05014L149.652 2.06494C151.7 2.26911 153.741 2.49012 155.775 2.72652L155.428 5.70644ZM143.263 4.49581C141.235 4.32916 139.203 4.18047 137.17 4.05114L137.361 1.05719C139.413 1.18773 141.463 1.33778 143.509 1.50589L143.263 4.49581ZM131.069 3.72265C129.033 3.63337 126.999 3.56487 124.967 3.51855L125.035 0.51933C127.089 0.566146 129.145 0.63536 131.2 0.725531L131.069 3.72265ZM118.863 3.44752C116.822 3.44708 114.786 3.47061 112.758 3.51951L112.685 0.520384C114.739 0.470872 116.799 0.447077 118.864 0.447516L118.863 3.44752ZM106.67 3.74505C104.631 3.84769 102.601 3.97785 100.584 4.13699L100.348 1.14628C102.395 0.984825 104.453 0.852865 106.519 0.748845L106.67 3.74505ZM94.5136 4.70887C92.4884 4.9317 90.4778 5.18601 88.4841 5.47334L88.0562 2.50402C90.0843 2.21172 92.1282 1.95322 94.1855 1.72686L94.5136 4.70887ZM82.4781 6.45005C80.4688 6.81535 78.4799 7.21705 76.5139 7.65679L75.8591 4.72913C77.8658 4.28027 79.8942 3.87064 81.9415 3.49843L82.4781 6.45005ZM70.6262 9.10822C68.6627 9.63903 66.726 10.2114 64.8187 10.8271L63.8971 7.97221C65.8521 7.3411 67.8351 6.75507 69.8432 6.21218L70.6262 9.10822ZM59.0938 12.8419C57.1971 13.5674 55.3345 14.3405 53.5088 15.163L52.2765 12.4278C54.1571 11.5806 56.0733 10.7853 58.022 10.0399L59.0938 12.8419ZM48.089 17.8106C46.301 18.756 44.5547 19.7551 42.8528 20.8099L41.2724 18.2599C43.0344 17.1679 44.8402 16.1349 46.6866 15.1586L48.089 17.8106ZM37.8487 24.1687C37.037 24.7584 36.2373 25.3627 35.4501 25.9821L33.5952 23.6243C34.4129 22.9809 35.2432 22.3534 36.0855 21.7415L37.8487 24.1687ZM35.4501 25.9821C34.6749 26.5919 33.9164 27.2174 33.1741 27.8583L31.2135 25.5876C31.9903 24.9169 32.7841 24.2624 33.5952 23.6243L35.4501 25.9821ZM28.9131 31.8875C27.5599 33.2877 26.269 34.7478 25.0384 36.2663L22.7077 34.3775C23.9922 32.7925 25.3409 31.2668 26.756 29.8027L28.9131 31.8875ZM21.5334 40.9841C20.4415 42.5876 19.4057 44.2461 18.4243 45.9578L15.8217 44.4656C16.8403 42.6891 17.9169 40.965 19.0537 39.2956L21.5334 40.9841ZM15.6782 51.1749C14.8339 52.9246 14.0386 54.7224 13.2906 56.5668L10.5105 55.4393C11.2817 53.5378 12.1029 51.6811 12.9763 49.8712L15.6782 51.1749ZM11.2346 62.099C10.6053 63.9516 10.0183 65.8455 9.47208 67.7793L6.58504 66.9638C7.14481 64.982 7.74725 63.0383 8.39399 61.1342L11.2346 62.099ZM8.00513 73.4817C7.55523 75.4105 7.1418 77.3747 6.76364 79.373L3.81595 78.8152C4.20161 76.7773 4.62367 74.7719 5.08356 72.8002L8.00513 73.4817ZM5.78216 85.1472C5.48601 87.1018 5.22053 89.0858 4.98466 91.0983L2.00506 90.749C2.24469 88.7046 2.51461 86.6871 2.81602 84.6978L5.78216 85.1472ZM4.38451 96.9921C4.21451 98.9455 4.07008 100.923 3.95031 102.924L0.95567 102.745C1.07699 100.718 1.22337 98.7134 1.3958 96.732L4.38451 96.9921ZM3.66551 108.956C3.59748 110.898 3.55084 112.861 3.52483 114.843L0.525084 114.804C0.551377 112.801 0.598519 110.816 0.667351 108.851L3.66551 108.956ZM3.50784 120.847C3.52197 122.824 3.5551 124.82 3.6065 126.832L0.607479 126.909C0.55563 124.879 0.522182 122.865 0.507918 120.868L3.50784 120.847ZM3.80807 132.762C3.89214 134.755 3.99286 136.762 4.10953 138.785L1.11451 138.957C0.996983 136.92 0.895486 134.897 0.81074 132.889L3.80807 132.762ZM4.49506 144.733C4.63617 146.7 4.79134 148.68 4.95995 150.672L1.97064 150.925C1.80098 148.921 1.64481 146.928 1.50275 144.948L4.49506 144.733ZM5.50553 156.684C5.69548 158.649 5.89762 160.625 6.11137 162.611L3.1286 162.932C2.91372 160.935 2.71048 158.949 2.51945 156.973L5.50553 156.684ZM6.7799 168.541C7.01376 170.527 7.25845 172.523 7.51341 174.529L4.53737 174.907C4.28128 172.893 4.03546 170.888 3.80047 168.892L6.7799 168.541ZM8.29178 180.447C8.55829 182.41 8.83396 184.382 9.11828 186.36L6.14878 186.787C5.86339 184.801 5.58664 182.822 5.31905 180.851L8.29178 180.447ZM9.99671 192.318C10.2938 194.284 10.5987 196.257 10.9111 198.237L7.94782 198.705C7.63442 196.719 7.32844 194.739 7.03037 192.766L9.99671 192.318ZM11.8601 204.132C12.1834 206.103 12.5135 208.079 12.8499 210.061L9.89219 210.563C9.55487 208.576 9.22386 206.594 8.89964 204.617L11.8601 204.132ZM13.8706 215.981C14.2128 217.937 14.5606 219.897 14.9137 221.861L11.961 222.392C11.6071 220.423 11.2585 218.459 10.9155 216.498L13.8706 215.981ZM15.988 227.766C16.3504 229.736 16.7176 231.709 17.0891 233.685L14.1407 234.239C13.7686 232.259 13.4007 230.283 13.0375 228.31L15.988 227.766ZM18.2032 239.556C18.5784 241.516 18.9574 243.478 19.3398 245.443L16.395 246.016C16.0121 244.049 15.6325 242.083 15.2567 240.12L18.2032 239.556ZM20.4963 251.345C20.8826 253.302 21.2717 255.261 21.6632 257.222L18.7213 257.81C18.3293 255.847 17.9398 253.885 17.5531 251.925L20.4963 251.345ZM22.8431 263.1C23.2385 265.061 23.6359 267.022 24.0349 268.984L21.0951 269.582C20.6958 267.619 20.2981 265.656 19.9023 263.693L22.8431 263.1ZM25.2351 274.867C25.6361 276.826 26.0383 278.786 26.4412 280.745L23.5026 281.349C23.0996 279.389 22.6973 277.429 22.2961 275.468L25.2351 274.867ZM27.6515 286.621C28.0556 288.58 28.46 290.539 28.8643 292.497L25.9263 293.104C25.522 291.146 25.1175 289.187 24.7133 287.227L27.6515 286.621ZM30.0802 298.384C30.4851 300.345 30.8894 302.305 31.2927 304.262L28.3545 304.868C27.9512 302.911 27.547 300.952 27.1422 298.991L30.0802 298.384ZM32.4994 310.128C32.9035 312.097 33.3062 314.063 33.707 316.027L30.7677 316.627C30.3671 314.664 29.9646 312.699 29.5607 310.732L32.4994 310.128ZM34.9051 321.916C35.3023 323.876 35.6972 325.832 36.0893 327.785L33.148 328.376C32.7563 326.425 32.3618 324.47 31.9649 322.512L34.9051 321.916ZM37.2668 333.682C37.6588 335.656 38.0474 337.626 38.4323 339.591L35.4882 340.167C35.1039 338.205 34.7157 336.238 34.3243 334.266L37.2668 333.682ZM39.5752 345.471C39.9547 347.44 40.3299 349.403 40.7004 351.361L37.7528 351.919C37.3829 349.965 37.0083 348.005 36.6294 346.039L39.5752 345.471ZM41.8124 357.298C42.1778 359.271 42.5379 361.237 42.8921 363.197L39.9399 363.73C39.5865 361.775 39.2272 359.813 38.8626 357.844L41.8124 357.298ZM43.9411 369.08C44.2923 371.078 44.6369 373.068 44.9742 375.051L42.0167 375.554C41.6804 373.577 41.3367 371.592 40.9864 369.599L43.9411 369.08ZM45.9639 380.972C46.287 382.942 46.6023 384.903 46.9092 386.855L43.9457 387.321C43.6398 385.376 43.3255 383.421 43.0034 381.458L45.9639 380.972ZM47.8316 392.863C48.1298 394.855 48.4186 396.837 48.6972 398.808L45.7268 399.228C45.4493 397.266 45.1617 395.292 44.8647 393.307L47.8316 392.863ZM49.5053 404.707C49.7737 406.734 50.0306 408.749 50.2752 410.75L47.2974 411.114C47.054 409.123 46.7984 407.119 46.5313 405.101L49.5053 404.707ZM50.9719 416.713C51.1938 418.708 51.4026 420.689 51.5975 422.654L48.6121 422.95C48.4184 420.997 48.2109 419.028 47.9903 417.045L50.9719 416.713ZM52.1585 428.721C52.3301 430.726 52.486 432.715 52.6255 434.686L49.633 434.898C49.4946 432.942 49.3398 430.968 49.1694 428.976L52.1585 428.721ZM53.0026 440.704C53.1134 442.746 53.2049 444.767 53.2764 446.768L50.2784 446.875C50.2076 444.894 50.1168 442.891 50.007 440.866L53.0026 440.704ZM53.4297 452.705C53.4617 454.772 53.4703 456.815 53.4544 458.832L50.4545 458.808C50.4702 456.816 50.4618 454.796 50.43 452.751L53.4297 452.705ZM53.3305 464.843C53.2614 466.883 53.1647 468.895 53.0391 470.876L50.0451 470.687C50.1688 468.736 50.2641 466.754 50.3322 464.742L53.3305 464.843ZM52.5535 476.943C52.3571 478.959 52.1272 480.941 51.8625 482.887L48.8899 482.482C49.1492 480.576 49.3747 478.632 49.5677 476.652L52.5535 476.943ZM50.9005 488.96C50.5379 490.952 50.1337 492.902 49.6863 494.809L46.7656 494.124C47.2009 492.269 47.5949 490.368 47.9491 488.422L50.9005 488.96ZM48.0964 500.789C47.5115 502.743 46.8739 504.644 46.1811 506.491L43.3722 505.437C44.0398 503.658 44.6559 501.821 45.2224 499.928L48.0964 500.789ZM43.7795 512.198C42.9031 514.06 41.9595 515.857 40.9457 517.584L38.3585 516.065C39.3239 514.421 40.2253 512.705 41.0649 510.92L43.7795 512.198ZM37.5528 522.742C36.9483 523.563 36.324 524.364 35.6796 525.145L33.3656 523.236C33.9743 522.498 34.5647 521.741 35.1371 520.963L37.5528 522.742ZM35.6796 525.145C34.9937 525.977 34.3206 526.803 33.6603 527.626L31.3211 525.747C31.9899 524.914 32.6714 524.077 33.3656 523.236L35.6796 525.145ZM29.8499 532.506C28.6301 534.115 27.4602 535.706 26.3393 537.279L23.896 535.538C25.0347 533.94 26.2222 532.325 27.4594 530.693L29.8499 532.506ZM22.8973 542.285C21.7404 544.033 20.6456 545.757 19.6115 547.459L17.0476 545.901C18.1027 544.165 19.2184 542.407 20.396 540.629L22.8973 542.285ZM16.69 552.497C15.6593 554.365 14.7041 556.205 13.8222 558.017L11.1248 556.704C12.03 554.844 13.0089 552.959 14.0631 551.048L16.69 552.497ZM11.3746 563.415C10.5702 565.333 9.85071 567.217 9.21336 569.069L6.37664 568.093C7.03624 566.177 7.7793 564.23 8.60806 562.254L11.3746 563.415ZM7.48267 574.763C6.959 576.755 6.53396 578.707 6.20356 580.62L3.24733 580.109C3.59292 578.109 4.03652 576.072 4.58124 574L7.48267 574.763ZM5.47452 586.472C5.3213 588.512 5.28024 590.506 5.34599 592.454L2.3477 592.555C2.27819 590.496 2.32178 588.393 2.48294 586.247L5.47452 586.472ZM5.87799 598.294C6.17657 600.282 6.59161 602.22 7.11722 604.111L4.22681 604.914C3.66857 602.906 3.22802 600.848 2.91129 598.74L5.87799 598.294ZM9.03908 609.689C9.79396 611.516 10.6576 613.296 11.6245 615.033L9.00354 616.492C7.98182 614.658 7.06716 612.772 6.26656 610.835L9.03908 609.689ZM14.7802 620.04C15.9135 621.645 17.1397 623.21 18.4536 624.736L16.1805 626.694C14.8068 625.099 13.521 623.458 12.3295 621.771L14.7802 620.04ZM22.5543 629.099C23.9547 630.47 25.4289 631.806 26.9725 633.108L25.0377 635.401C23.4408 634.054 21.9117 632.668 20.4557 631.242L22.5543 629.099ZM31.7416 636.868C33.317 638.03 34.9494 639.163 36.6351 640.267L34.9913 642.776C33.2616 641.643 31.5832 640.479 29.9605 639.282L31.7416 636.868ZM41.8009 643.466C43.5064 644.466 45.2565 645.44 47.0478 646.389L45.6436 649.04C43.8162 648.072 42.0283 647.077 40.2838 646.054L41.8009 643.466ZM52.4757 649.128C54.2692 649.991 56.0973 650.832 57.9569 651.65L56.7487 654.396C54.8594 653.565 53.0004 652.71 51.1747 651.831L52.4757 649.128ZM63.5663 654.014C65.4203 654.763 67.3008 655.491 69.2049 656.2L68.1583 659.012C66.2296 658.294 64.3235 657.555 62.4429 656.796L63.5663 654.014ZM74.9444 658.254C76.8417 658.907 78.7587 659.541 80.6927 660.158L79.7813 663.016C77.8266 662.393 75.8882 661.751 73.9686 661.091L74.9444 658.254ZM86.5258 661.95C88.456 662.521 90.4001 663.076 92.3556 663.614L91.5591 666.507C89.5859 665.963 87.6235 665.403 85.6743 664.826L86.5258 661.95ZM98.2524 665.181C100.21 665.683 102.176 666.17 104.149 666.641L103.451 669.559C101.463 669.084 99.4811 668.593 97.5073 668.087L98.2524 665.181ZM110.083 668.011C112.065 668.453 114.051 668.881 116.039 669.294L115.428 672.231C113.427 671.815 111.427 671.384 109.43 670.939L110.083 668.011ZM122.004 670.493C124.005 670.881 126.005 671.255 128.002 671.617L127.468 674.569C125.459 674.205 123.446 673.828 121.432 673.438L122.004 670.493ZM133.996 672.664C136.011 673.004 138.02 673.331 140.02 673.645L139.555 676.609C137.543 676.293 135.523 675.964 133.497 675.622L133.996 672.664ZM146.042 674.557C148.068 674.853 150.082 675.136 152.081 675.407L151.678 678.38C149.669 678.107 147.645 677.823 145.609 677.526L146.042 674.557ZM158.129 676.196C160.166 676.451 162.184 676.694 164.18 676.925L163.835 679.906C161.829 679.673 159.802 679.429 157.756 679.172L158.129 676.196ZM170.245 677.6C172.297 677.818 174.322 678.024 176.316 678.219L176.025 681.205C174.022 681.009 171.988 680.802 169.927 680.583L170.245 677.6ZM182.373 678.783C184.452 678.968 186.491 679.14 188.486 679.3L188.246 682.29C186.243 682.129 184.196 681.957 182.108 681.771L182.373 678.783ZM194.483 679.755C196.607 679.908 198.669 680.047 200.664 680.173L200.474 683.167C198.471 683.04 196.4 682.901 194.268 682.748L194.483 679.755ZM206.733 680.532C208.828 680.647 210.828 680.748 212.723 680.836L212.584 683.833C210.681 683.744 208.673 683.643 206.569 683.528L206.733 680.532ZM218.895 681.094C221.156 681.178 223.197 681.242 224.995 681.291L224.914 684.29C223.106 684.241 221.054 684.177 218.783 684.092L218.895 681.094ZM231.122 681.421C232.063 681.434 232.785 681.441 233.271 681.444C233.513 681.446 233.697 681.447 233.82 681.447C233.881 681.447 233.927 681.447 233.958 681.447C233.973 681.447 233.985 681.447 233.992 681.447C233.996 681.447 233.999 681.447 234 681.447C234.001 681.447 234.002 681.447 234.002 681.447C234.002 681.447 234.003 681.447 234.003 681.447C234.003 681.447 234.003 681.447 234.003 681.447C234.003 681.447 234.003 681.447 234.003 681.447C234.003 681.447 234.003 681.447 234.003 682.947C234.003 684.447 234.003 684.447 234.003 684.447C234.003 684.447 234.003 684.447 234.002 684.447C234.002 684.447 234.002 684.447 234.002 684.447C234.002 684.447 234.002 684.447 234.002 684.447C234.001 684.447 234 684.447 233.999 684.447C233.997 684.447 233.994 684.447 233.99 684.447C233.981 684.447 233.969 684.447 233.953 684.447C233.921 684.447 233.873 684.447 233.81 684.447C233.684 684.447 233.496 684.446 233.25 684.444C232.757 684.441 232.028 684.434 231.079 684.42L231.122 681.421Z" fill="#C44601"/>
</svg>
