<svg width="568" height="563" viewBox="0 0 568 563" fill="none" xmlns="http://www.w3.org/2000/svg">
<path d="M554.314 562.238C553.63 562.706 552.697 562.53 552.229 561.847L544.61 550.702C544.143 550.018 544.318 549.085 545.002 548.617C545.686 548.15 546.619 548.325 547.087 549.009L553.859 558.915L563.766 552.143C564.449 551.675 565.383 551.851 565.85 552.534C566.318 553.218 566.143 554.152 565.459 554.619L554.314 562.238ZM2.18107 14.2009C1.3587 14.301 0.610968 13.7154 0.510956 12.893C0.410945 12.0706 0.996531 11.3229 1.8189 11.2229L2.18107 14.2009ZM450.926 158.612L452.228 159.357L452.228 159.357L450.926 158.612ZM540.796 320.413L539.689 321.426L540.796 320.413ZM449.624 157.868C464.914 131.119 469.285 109.017 465.529 90.7812C461.777 72.5674 449.854 57.9113 431.919 46.1671C395.954 22.6167 336.335 11.1243 272.537 6.3551C208.82 1.59185 141.233 3.55117 89.5559 6.705C63.7218 8.28163 41.8734 10.1562 26.485 11.6364C18.791 12.3765 12.7124 13.0179 8.55853 13.4742C6.48162 13.7023 4.88592 13.8842 3.81011 14.0089C3.2722 14.0713 2.86428 14.1194 2.59116 14.1518C2.4546 14.1681 2.35174 14.1804 2.28319 14.1886C2.24892 14.1927 2.22322 14.1958 2.20618 14.1979C2.19765 14.1989 2.19138 14.1997 2.18711 14.2002C2.183 14.2007 2.18107 14.2009 1.99999 12.7119C1.8189 11.2229 1.82133 11.2226 1.82594 11.222C1.83038 11.2215 1.83716 11.2207 1.84602 11.2196C1.86374 11.2175 1.89012 11.2143 1.92507 11.2101C1.99499 11.2017 2.09922 11.1892 2.23717 11.1728C2.51306 11.14 2.92382 11.0916 3.4646 11.0289C4.54616 10.9035 6.14784 10.721 8.23096 10.4921C12.3972 10.0345 18.4893 9.39163 26.1978 8.65015C41.6145 7.16723 63.4983 5.28969 89.3731 3.71057C141.114 0.552862 208.852 -1.41414 272.761 3.36344C336.591 8.13506 396.901 19.6507 433.563 43.6573C451.941 55.6916 464.507 70.9514 468.467 90.1759C472.422 109.378 467.73 132.238 452.228 159.357L449.624 157.868ZM553.468 561C551.993 560.723 551.993 560.722 551.994 560.721C551.994 560.72 551.994 560.718 551.995 560.715C551.996 560.71 551.997 560.702 551.999 560.69C552.004 560.668 552.01 560.635 552.018 560.59C552.035 560.501 552.059 560.366 552.092 560.189C552.157 559.834 552.253 559.305 552.376 558.612C552.622 557.227 552.977 555.186 553.413 552.569C554.283 547.335 555.474 539.797 556.754 530.585C559.313 512.159 562.225 487.052 563.639 460.315C565.053 433.569 564.966 405.242 561.545 380.358C558.117 355.414 551.372 334.201 539.689 321.426L541.903 319.401C554.226 332.876 561.069 354.861 564.517 379.949C567.974 405.098 568.054 433.636 566.634 460.474C565.215 487.321 562.292 512.517 559.725 530.998C558.442 540.239 557.246 547.805 556.372 553.062C555.935 555.69 555.578 557.742 555.33 559.137C555.206 559.835 555.109 560.369 555.043 560.729C555.01 560.909 554.985 561.045 554.968 561.137C554.959 561.183 554.953 561.218 554.948 561.241C554.946 561.253 554.945 561.262 554.944 561.268C554.943 561.271 554.943 561.273 554.942 561.274C554.942 561.276 554.942 561.277 553.468 561ZM539.689 321.426C535.535 316.884 529.198 314.196 521.265 312.675C513.343 311.157 504.027 310.839 494.111 310.875C484.27 310.912 473.73 311.302 463.693 311.167C453.617 311.032 443.823 310.371 435.252 308.269C426.678 306.166 419.204 302.59 413.909 296.532C408.593 290.45 405.625 282.041 405.74 270.584C405.967 247.803 418.387 212.518 449.624 157.868L452.228 159.357C421.004 213.984 408.958 248.676 408.739 270.614C408.631 281.517 411.445 289.154 416.168 294.557C420.912 299.985 427.734 303.336 435.967 305.355C444.203 307.375 453.727 308.033 463.733 308.167C473.776 308.302 484.081 307.912 494.1 307.875C504.045 307.839 513.605 308.153 521.829 309.729C530.042 311.303 537.12 314.171 541.903 319.401L539.689 321.426Z" fill="#C44601"/>
</svg>
