<svg width="801" height="630" viewBox="0 0 801 630" fill="none" xmlns="http://www.w3.org/2000/svg">
<path d="M787.891 629.013C788.451 629.624 789.4 629.666 790.01 629.106L799.964 619.986C800.575 619.427 800.617 618.478 800.057 617.867C799.497 617.256 798.548 617.215 797.938 617.774L789.09 625.881L780.983 617.033C780.424 616.422 779.475 616.38 778.864 616.94C778.253 617.5 778.212 618.449 778.771 619.059L787.891 629.013ZM344.994 3.50054C345.822 3.50399 346.497 2.83522 346.5 2.0068C346.503 1.17838 345.835 0.504014 345.006 0.500565L344.994 3.50054ZM19.5909 101.294L20.9167 101.996L20.9167 101.996L19.5909 101.294ZM419.851 462.185L421.035 463.106C421.064 463.068 421.092 463.03 421.117 462.99L419.851 462.185ZM698.293 571.772L698.086 573.258L698.293 571.772ZM20.9167 101.996C33.9655 77.3408 60.5663 58.7581 93.446 44.7924C126.29 30.8418 165.174 21.5928 202.471 15.4673C239.756 9.34368 275.392 6.3513 301.712 4.89031C314.871 4.15991 325.697 3.81247 333.23 3.64764C336.997 3.56522 339.941 3.52846 341.942 3.51229C342.942 3.50421 343.706 3.50128 344.22 3.50036C344.477 3.49991 344.671 3.49995 344.801 3.50011C344.865 3.50019 344.914 3.5003 344.946 3.50039C344.962 3.50043 344.974 3.50047 344.982 3.5005C344.986 3.50051 344.989 3.50052 344.991 3.50053C344.993 3.50054 344.994 3.50054 345 2.00055C345.006 0.500565 345.005 0.50056 345.003 0.500551C345 0.500543 344.997 0.50053 344.993 0.500515C344.984 0.500486 344.971 0.500445 344.954 0.500399C344.921 0.500308 344.871 0.500197 344.804 0.500115C344.672 0.499952 344.475 0.499905 344.215 0.500368C343.695 0.501294 342.924 0.504256 341.917 0.51239C339.904 0.528659 336.946 0.565617 333.165 0.648353C325.602 0.813822 314.742 1.16242 301.546 1.89492C275.157 3.35974 239.407 6.36067 201.984 12.507C164.572 18.6515 125.426 27.9492 92.2731 42.0311C59.1555 56.0979 31.7923 75.0337 18.2651 100.592L20.9167 101.996ZM421.117 462.99C426.756 454.116 429.651 445.779 430.046 437.891C430.442 429.989 428.322 422.648 424.111 415.794C415.736 402.164 399.073 390.433 377.331 379.681C333.825 358.168 268.81 340.05 205.365 318.83C141.757 297.556 79.704 273.161 41.5269 239.104C22.4726 222.106 9.45774 202.779 5.10383 180.313C0.751119 157.854 5.01346 132.044 20.9167 101.996L18.2651 100.592C2.13165 131.075 -2.3568 157.585 2.15862 180.884C6.67285 204.177 20.145 224.05 39.5298 241.343C78.2307 275.867 140.864 300.421 204.413 321.676C268.126 342.985 332.74 360.978 376.001 382.371C397.642 393.072 413.646 404.493 421.555 417.365C425.486 423.763 427.412 430.511 427.05 437.741C426.687 444.987 424.02 452.827 418.585 461.381L421.117 462.99ZM788.997 628C790.496 628.066 790.496 628.064 790.496 628.062C790.496 628.061 790.496 628.059 790.496 628.057C790.496 628.054 790.496 628.05 790.496 628.045C790.497 628.035 790.497 628.023 790.498 628.009C790.498 627.979 790.499 627.939 790.5 627.889C790.501 627.789 790.5 627.648 790.495 627.469C790.485 627.112 790.458 626.6 790.389 625.954C790.251 624.661 789.947 622.828 789.284 620.601C787.956 616.14 785.196 610.123 779.489 603.726C768.071 590.927 745.011 576.767 698.5 570.286L698.086 573.258C744.173 579.679 766.465 593.633 777.25 605.723C782.644 611.77 785.198 617.39 786.409 621.457C787.015 623.493 787.286 625.145 787.406 626.272C787.466 626.836 787.489 627.268 787.496 627.551C787.5 627.693 787.5 627.797 787.5 627.861C787.499 627.894 787.499 627.916 787.499 627.929C787.498 627.935 787.498 627.938 787.498 627.939C787.498 627.94 787.498 627.94 787.498 627.939C787.498 627.938 787.498 627.937 787.498 627.937C787.498 627.936 787.499 627.934 788.997 628ZM698.5 570.286C667.279 565.936 626.687 566.605 585.385 567.614C544.014 568.624 501.91 569.976 467.454 567.045C450.229 565.579 434.997 563.049 422.769 558.906C410.525 554.757 401.468 549.05 396.354 541.355C391.281 533.722 389.923 523.879 393.605 511.046C397.299 498.17 406.044 482.39 421.035 463.106L418.667 461.265C403.57 480.684 394.566 496.815 390.721 510.219C386.864 523.666 388.176 534.471 393.855 543.015C399.493 551.498 409.267 557.498 421.807 561.747C434.363 566.002 449.866 568.559 467.2 570.034C501.86 572.983 544.163 571.621 585.458 570.613C626.822 569.603 667.155 568.948 698.086 573.258L698.5 570.286Z" fill="#C44601"/>
</svg>
