<svg width="689" height="825" viewBox="0 0 689 825" fill="none" xmlns="http://www.w3.org/2000/svg">
<path d="M574.887 824.391C574.119 824.701 573.245 824.329 572.935 823.561L567.883 811.042C567.573 810.274 567.944 809.4 568.712 809.09C569.48 808.78 570.355 809.151 570.665 809.919L575.155 821.047L586.283 816.557C587.052 816.247 587.926 816.618 588.236 817.386C588.546 818.155 588.174 819.029 587.406 819.339L574.887 824.391ZM2.61516 40.2908C1.85961 40.6306 0.971692 40.2935 0.631946 39.5379C0.2922 38.7824 0.62928 37.8945 1.38484 37.5547L2.61516 40.2908ZM512.628 253.963L514.069 254.38L512.628 253.963ZM675.383 379.295L674.158 380.16L674.158 380.16L675.383 379.295ZM574.326 823C572.945 822.413 572.946 822.412 572.947 822.409C572.948 822.407 572.95 822.402 572.952 822.397C572.957 822.386 572.964 822.37 572.973 822.348C572.992 822.303 573.02 822.237 573.057 822.15C573.131 821.974 573.242 821.711 573.388 821.364C573.68 820.671 574.113 819.639 574.676 818.29C575.802 815.591 577.446 811.622 579.519 806.541C583.666 796.381 589.53 781.778 596.397 764.012C610.131 728.477 627.871 680.3 643.904 629.712C659.94 579.113 674.253 526.154 681.15 481.042C684.598 458.485 686.185 437.94 685.223 420.661C684.259 403.348 680.746 389.495 674.158 380.16L676.609 378.43C683.674 388.441 687.242 402.962 688.218 420.494C689.196 438.059 687.581 458.828 684.115 481.495C677.184 526.833 662.818 579.963 646.764 630.618C630.706 681.284 612.942 729.524 599.195 765.093C592.321 782.879 586.45 797.5 582.297 807.675C580.22 812.763 578.573 816.739 577.445 819.444C576.881 820.797 576.447 821.832 576.153 822.529C576.006 822.877 575.895 823.141 575.82 823.318C575.782 823.407 575.754 823.474 575.735 823.519C575.726 823.541 575.718 823.558 575.714 823.569C575.711 823.575 575.709 823.579 575.708 823.582C575.707 823.585 575.706 823.586 574.326 823ZM674.158 380.16C669.502 373.563 662.294 371.433 652.943 372.441C643.536 373.455 632.246 377.634 619.942 383.332C607.655 389.022 594.529 396.141 581.422 402.959C568.348 409.759 555.305 416.253 543.303 420.605C531.341 424.942 520.186 427.241 510.964 425.411C506.319 424.489 502.159 422.519 498.663 419.247C495.174 415.982 492.414 411.485 490.456 405.61C486.556 393.902 485.782 376.535 488.93 351.863C492.082 327.157 499.188 294.974 511.188 253.545L514.069 254.38C502.092 295.732 495.03 327.75 491.905 352.243C488.776 376.77 489.617 393.598 493.302 404.661C495.138 410.171 497.663 414.203 500.713 417.057C503.756 419.904 507.389 421.643 511.548 422.468C519.937 424.133 530.446 422.076 542.281 417.784C554.077 413.507 566.965 407.098 580.037 400.298C593.076 393.516 606.311 386.338 618.682 380.61C631.035 374.889 642.698 370.528 652.621 369.459C662.601 368.383 671.099 370.624 676.609 378.43L674.158 380.16ZM511.188 253.545C516.146 236.425 516.213 223.163 512.677 212.733C509.149 202.329 501.968 194.548 492.04 188.5C482.084 182.436 469.414 178.147 455.032 174.749C440.658 171.353 424.676 168.869 408.125 166.368C375.105 161.378 339.794 156.321 311.256 143.721C282.617 131.076 260.63 110.756 254.522 75.2543L257.478 74.7456C263.37 108.994 284.473 128.616 312.467 140.976C340.561 153.381 375.425 158.392 408.574 163.402C425.108 165.9 441.209 168.4 455.722 171.829C470.228 175.257 483.251 179.634 493.6 185.938C503.976 192.258 511.712 200.546 515.518 211.77C519.315 222.968 519.134 236.894 514.069 254.38L511.188 253.545ZM254.522 75.2543C248.611 40.9011 230.092 21.636 205.633 11.9051C181.052 2.1257 150.359 1.93911 120.207 6.13459C90.0872 10.3255 60.6869 18.8624 38.7987 26.3617C27.8591 30.1098 18.8062 33.5952 12.4908 36.1424C9.33324 37.4159 6.86053 38.4548 5.17903 39.1744C4.33829 39.5342 3.6954 39.8142 3.26364 40.0038C3.04777 40.0986 2.88468 40.1708 2.77604 40.219C2.72173 40.2432 2.68102 40.2614 2.65414 40.2734C2.6407 40.2794 2.63071 40.2839 2.62421 40.2868C2.62096 40.2882 2.6187 40.2892 2.61707 40.29C2.61568 40.2906 2.61516 40.2908 2 38.9228C1.38484 37.5547 1.38608 37.5542 1.38819 37.5532C1.39007 37.5524 1.39306 37.551 1.3968 37.5494C1.40428 37.546 1.41525 37.5411 1.42967 37.5346C1.45853 37.5217 1.50122 37.5027 1.55754 37.4777C1.67019 37.4276 1.83736 37.3536 2.0574 37.2569C2.49747 37.0637 3.14901 36.78 3.9987 36.4163C5.69806 35.6891 8.1902 34.6421 11.3686 33.3602C17.725 30.7964 26.8284 27.2917 37.8263 23.5236C59.8131 15.9906 89.4128 7.39046 119.793 3.16321C150.141 -1.05951 181.448 -0.945553 206.742 9.11762C232.158 19.2293 251.389 39.3488 257.478 74.7456L254.522 75.2543Z" fill="#C44601"/>
</svg>
