<svg width="500" height="128" viewBox="0 0 500 128" fill="none" xmlns="http://www.w3.org/2000/svg">
<path d="M499.293 114.755C499.713 114.041 499.474 113.122 498.76 112.702L487.12 105.864C486.405 105.445 485.486 105.684 485.066 106.398C484.647 107.112 484.886 108.032 485.6 108.451L495.947 114.529L489.869 124.876C489.449 125.59 489.688 126.51 490.402 126.929C491.117 127.349 492.036 127.11 492.456 126.396L499.293 114.755ZM226.5 23.0686L227.28 21.7873L226.5 23.0686ZM377 113.996L376.507 115.412L377 113.996ZM1 26.7214C1.51815 28.129 1.51837 28.1289 1.51914 28.1287C1.52012 28.1283 1.52144 28.1278 1.52341 28.1271C1.52735 28.1256 1.53348 28.1234 1.54179 28.1204C1.5584 28.1143 1.58371 28.105 1.61762 28.0927C1.68545 28.068 1.78768 28.031 1.92352 27.9822C2.19521 27.8846 2.60134 27.7399 3.1356 27.5528C4.20413 27.1787 5.78508 26.6353 7.82787 25.9605C11.9136 24.6109 17.8459 22.7361 25.2203 20.6397C39.9717 16.4461 60.4802 11.3695 83.513 7.83423C129.673 0.749218 185.582 -0.0816386 225.72 24.3499L227.28 21.7873C186.179 -3.23018 129.339 -2.23466 83.0578 4.86896C59.8704 8.42799 39.2363 13.5363 24.4 17.754C16.9805 19.8632 11.0078 21.7507 6.88691 23.1119C4.82639 23.7926 3.22864 24.3417 2.14431 24.7213C1.60213 24.9111 1.18829 25.0586 0.909106 25.1589C0.769515 25.209 0.663588 25.2474 0.592115 25.2734C0.556378 25.2864 0.529255 25.2963 0.510844 25.3031C0.501638 25.3064 0.494611 25.309 0.489774 25.3108C0.487356 25.3117 0.485373 25.3124 0.484163 25.3128C0.48273 25.3134 0.481846 25.3137 1 26.7214ZM225.72 24.3499C229.998 26.954 237.919 32.6587 248.391 40.1411C258.83 47.5993 271.732 56.7712 285.891 66.2402C314.179 85.1585 347.6 105.343 376.507 115.412L377.493 112.579C348.974 102.645 315.824 82.6496 287.559 63.7465C273.441 54.3049 260.57 45.1559 250.135 37.7001C239.734 30.2685 231.681 24.4662 227.28 21.7873L225.72 24.3499ZM376.507 115.412C402.661 124.522 433.166 124.501 457.031 122.243C468.982 121.112 479.308 119.415 486.648 118.001C490.319 117.294 493.245 116.657 495.256 116.196C496.262 115.966 497.039 115.78 497.566 115.65C497.83 115.586 498.031 115.535 498.167 115.501C498.235 115.484 498.287 115.471 498.322 115.462C498.34 115.457 498.353 115.454 498.362 115.451C498.367 115.45 498.37 115.449 498.373 115.449C498.374 115.448 498.375 115.448 498.376 115.448C498.377 115.448 498.377 115.447 498 113.996C497.623 112.544 497.623 112.544 497.622 112.544C497.622 112.544 497.622 112.544 497.621 112.544C497.619 112.545 497.616 112.546 497.612 112.547C497.605 112.548 497.593 112.552 497.577 112.556C497.545 112.564 497.497 112.576 497.432 112.592C497.303 112.625 497.109 112.674 496.852 112.737C496.339 112.862 495.577 113.045 494.586 113.272C492.606 113.726 489.714 114.355 486.081 115.055C478.813 116.455 468.584 118.136 456.748 119.256C433.039 121.5 403.043 121.479 377.493 112.579L376.507 115.412Z" fill="#C44601"/>
</svg>
