<svg width="537" height="253" viewBox="0 0 537 253" fill="none" xmlns="http://www.w3.org/2000/svg">
<path d="M521.919 252.457C521.115 252.654 520.302 252.163 520.105 251.358L516.879 238.249C516.681 237.445 517.173 236.632 517.977 236.434C518.782 236.236 519.594 236.728 519.792 237.533L522.659 249.185L534.312 246.318C535.116 246.12 535.929 246.612 536.127 247.416C536.325 248.221 535.833 249.033 535.029 249.231L521.919 252.457ZM1 15.6452C0.758643 14.1647 0.759957 14.1645 0.76238 14.1641C0.764671 14.1638 0.768205 14.1632 0.772777 14.1624C0.781922 14.161 0.79549 14.1588 0.813445 14.1558C0.849355 14.15 0.902816 14.1414 0.973548 14.13C1.11501 14.1073 1.32557 14.0736 1.60298 14.0296C2.1578 13.9417 2.98007 13.8127 4.05196 13.6481C6.19572 13.3188 9.33804 12.8469 13.3363 12.2759C21.3326 11.1339 32.7535 9.59523 46.4577 8.00741C73.8617 4.8323 110.417 1.45841 146.985 0.671016C183.524 -0.115752 220.198 1.67583 247.783 8.88837C261.572 12.4937 273.218 17.4849 281.442 24.2901C289.715 31.1357 294.534 39.8329 294.534 50.6789H291.534C291.534 40.864 287.227 32.9707 279.53 26.6014C271.783 20.1918 260.614 15.3438 247.024 11.7908C219.854 4.68667 183.519 2.88505 147.049 3.67032C110.609 4.45496 74.1555 7.81833 46.803 10.9875C33.129 12.5718 21.7348 14.1069 13.7604 15.2458C9.77335 15.8152 6.64149 16.2855 4.5074 16.6133C3.44037 16.7772 2.6228 16.9055 2.07251 16.9927C1.79737 17.0363 1.58905 17.0696 1.44978 17.092C1.38015 17.1032 1.32777 17.1116 1.29294 17.1173C1.27553 17.1201 1.2625 17.1222 1.25389 17.1236C1.24958 17.1243 1.24645 17.1248 1.2443 17.1252C1.24227 17.1255 1.24136 17.1257 1 15.6452ZM294.534 50.6789C294.534 60.8353 296.332 68.7549 299.541 74.9866C302.744 81.205 307.397 85.8296 313.253 89.3385C325.052 96.4086 341.673 98.9255 360.985 100.612C380.173 102.288 401.927 103.141 423.466 107.059C445.045 110.985 466.576 118.009 485.455 132.121L483.659 134.524C465.283 120.788 444.247 113.889 422.93 110.011C401.573 106.126 380.103 105.294 360.724 103.601C341.469 101.919 324.18 99.3831 311.711 91.9119C305.433 88.1502 300.362 83.1321 296.874 76.3602C293.393 69.6016 291.534 61.1834 291.534 50.6789H294.534ZM485.455 132.121C523.073 160.241 532.564 190.1 532.5 213.051C532.468 224.485 530.066 234.143 527.672 240.943C526.474 244.345 525.277 247.037 524.375 248.886C523.924 249.81 523.547 250.525 523.279 251.012C523.146 251.255 523.039 251.442 522.965 251.57C522.928 251.635 522.9 251.684 522.879 251.718C522.869 251.736 522.861 251.749 522.855 251.759C522.852 251.764 522.85 251.768 522.848 251.77C522.847 251.772 522.846 251.773 522.846 251.774C522.845 251.775 522.844 251.777 521.561 251C520.278 250.223 520.277 250.224 520.277 250.224C520.277 250.224 520.277 250.224 520.278 250.224C520.278 250.223 520.279 250.221 520.281 250.219C520.284 250.213 520.289 250.204 520.297 250.191C520.312 250.166 520.336 250.125 520.367 250.071C520.431 249.961 520.526 249.793 520.649 249.569C520.895 249.121 521.25 248.449 521.679 247.57C522.537 245.812 523.688 243.226 524.842 239.947C527.152 233.385 529.469 224.066 529.5 213.043C529.561 191.079 520.549 162.099 483.659 134.524L485.455 132.121Z" fill="#C44601"/>
</svg>
