<svg width="278" height="175" viewBox="0 0 278 175" fill="none" xmlns="http://www.w3.org/2000/svg">
<path d="M0.610699 167.433C0.298025 168.201 0.666455 169.076 1.43361 169.389L13.9351 174.484C14.7023 174.797 15.5777 174.428 15.8903 173.661C16.203 172.894 15.8346 172.019 15.0674 171.706L3.95496 167.177L8.48413 156.064C8.7968 155.297 8.42837 154.422 7.66121 154.109C6.89406 153.796 6.01869 154.165 5.70601 154.932L0.610699 167.433ZM275.571 20.6381C276.365 20.8751 277.2 20.4236 277.437 19.6298C277.674 18.836 277.223 18.0004 276.429 17.7635L275.571 20.6381ZM1.99976 168C2.58164 169.382 2.58251 169.382 2.58368 169.381C2.58447 169.381 2.58593 169.38 2.58751 169.38C2.59067 169.378 2.59503 169.377 2.60057 169.374C2.61166 169.369 2.62751 169.363 2.64804 169.354C2.68909 169.336 2.74886 169.311 2.82675 169.276C2.98253 169.208 3.21079 169.107 3.5067 168.973C4.0985 168.705 4.96102 168.303 6.05559 167.765C8.24451 166.69 11.3628 165.071 15.1008 162.884C22.5739 158.513 32.54 151.867 42.5111 142.764C62.4511 124.559 82.4998 96.4368 82.4998 57.0005H79.4998C79.4998 95.3135 60.0484 122.691 40.4884 140.548C30.7095 149.476 20.9256 156.002 13.5862 160.295C9.91793 162.44 6.86438 164.026 4.73298 165.073C3.6674 165.596 2.83266 165.985 2.26723 166.241C1.98453 166.37 1.76918 166.465 1.62601 166.527C1.55442 166.559 1.50088 166.582 1.46599 166.597C1.44855 166.604 1.43576 166.61 1.42772 166.613C1.4237 166.615 1.42086 166.616 1.41921 166.617C1.41839 166.617 1.41806 166.617 1.41764 166.617C1.41761 166.617 1.41787 166.617 1.99976 168ZM82.4998 57.0005C82.4998 45.2667 85.4743 35.9867 90.6064 28.6754C95.7456 21.3541 103.119 15.9066 112.073 11.9671C130.027 4.06701 154.116 2.32703 178.421 3.59844C202.686 4.86771 226.974 9.12577 245.214 13.073C254.329 15.0457 261.925 16.9388 267.239 18.3381C269.896 19.0376 271.982 19.6136 273.403 20.0143C274.113 20.2146 274.657 20.3711 275.022 20.4772C275.205 20.5303 275.343 20.5708 275.435 20.5979C275.481 20.6114 275.515 20.6216 275.538 20.6284C275.549 20.6317 275.558 20.6342 275.563 20.6359C275.566 20.6367 275.568 20.6373 275.569 20.6377C275.57 20.638 275.571 20.6381 276 19.2008C276.429 17.7635 276.428 17.7631 276.426 17.7626C276.424 17.7621 276.422 17.7614 276.419 17.7604C276.412 17.7585 276.403 17.7558 276.391 17.7521C276.366 17.7449 276.33 17.7342 276.282 17.7201C276.187 17.692 276.045 17.6505 275.859 17.5963C275.486 17.4881 274.935 17.3295 274.217 17.1269C272.781 16.7219 270.678 16.1413 268.003 15.4369C262.653 14.0283 255.014 12.1245 245.848 10.1409C227.525 6.1755 203.064 1.88339 178.578 0.602534C154.133 -0.676192 129.472 1.03371 110.864 9.22113C101.537 13.3254 93.6758 19.081 88.1509 26.9519C82.619 34.8328 79.4998 44.7341 79.4998 57.0005H82.4998Z" fill="#C44601"/>
</svg>
