<svg width="266" height="293" viewBox="0 0 266 293" fill="none" xmlns="http://www.w3.org/2000/svg">
<path d="M265.209 12.4317C265.699 13.0996 265.555 14.0383 264.887 14.5284L254.003 22.5142C253.335 23.0043 252.396 22.8601 251.906 22.1921C251.416 21.5242 251.56 20.5855 252.228 20.0954L261.903 12.9969L254.805 3.32161C254.315 2.65367 254.459 1.71494 255.127 1.22489C255.795 0.734835 256.733 0.879041 257.223 1.54698L265.209 12.4317ZM265.029 279.817C265.632 280.385 265.66 281.335 265.091 281.937L255.829 291.759C255.261 292.361 254.311 292.389 253.709 291.821C253.106 291.253 253.078 290.303 253.647 289.7L261.88 280.97L253.149 272.737C252.547 272.169 252.519 271.219 253.087 270.617C253.656 270.014 254.605 269.986 255.208 270.555L265.029 279.817ZM7.88876 184.571L9.34821 184.224L7.88876 184.571ZM264 13.319C263.772 14.8016 263.771 14.8015 263.77 14.8012C263.767 14.8009 263.764 14.8004 263.76 14.7997C263.751 14.7984 263.738 14.7964 263.72 14.7937C263.684 14.7882 263.63 14.7801 263.557 14.7693C263.412 14.7478 263.194 14.7159 262.906 14.6749C262.331 14.5928 261.475 14.4741 260.359 14.3283C258.128 14.0367 254.858 13.6368 250.712 13.2048C242.419 12.3408 230.625 11.3493 216.632 10.8404C188.633 9.82229 151.895 10.7398 116.811 18.4482C81.7017 26.1621 48.4495 40.632 27.1785 66.5572C5.96766 92.4092 -3.54243 129.919 9.34821 184.224L6.42931 184.917C-6.6205 129.941 2.91307 91.4025 24.8592 64.6543C46.7453 37.9795 80.7634 23.2967 116.167 15.5181C151.596 7.73413 188.613 6.81956 216.741 7.84242C230.812 8.3541 242.675 9.35128 251.023 10.221C255.197 10.6558 258.493 11.0589 260.748 11.3536C261.876 11.501 262.743 11.6213 263.33 11.7049C263.623 11.7468 263.846 11.7794 263.997 11.8017C264.072 11.8129 264.129 11.8214 264.168 11.8273C264.187 11.8302 264.202 11.8324 264.212 11.8339C264.217 11.8347 264.221 11.8353 264.223 11.8357C264.226 11.8361 264.228 11.8364 264 13.319ZM9.34821 184.224C15.3333 209.438 34.0019 228.062 58.9572 241.816C83.9137 255.571 114.984 264.353 145.395 269.936C175.789 275.517 205.435 277.886 227.491 278.859C238.516 279.345 247.639 279.483 254.003 279.498C257.185 279.506 259.676 279.484 261.371 279.459C262.218 279.447 262.866 279.434 263.302 279.425C263.519 279.42 263.684 279.416 263.793 279.413C263.848 279.412 263.889 279.411 263.916 279.41C263.93 279.41 263.94 279.409 263.947 279.409C263.95 279.409 263.952 279.409 263.954 279.409C263.956 279.409 263.956 279.409 264 280.908C264.044 282.407 264.043 282.408 264.041 282.408C264.039 282.408 264.036 282.408 264.032 282.408C264.025 282.408 264.014 282.408 263.999 282.409C263.97 282.41 263.927 282.411 263.871 282.412C263.757 282.415 263.589 282.419 263.368 282.424C262.925 282.434 262.27 282.447 261.414 282.459C259.704 282.484 257.195 282.506 253.996 282.498C247.596 282.483 238.432 282.345 227.359 281.856C205.219 280.879 175.427 278.5 144.853 272.887C114.296 267.277 82.8684 258.42 57.5092 244.443C32.1488 230.466 12.6837 211.266 6.42931 184.917L9.34821 184.224Z" fill="#C44601"/>
</svg>
