<svg width="303" height="433" viewBox="0 0 303 433" fill="none" xmlns="http://www.w3.org/2000/svg">
<path d="M0.63381 32.8806C0.291783 33.6351 0.62618 34.5241 1.38071 34.8661L13.6764 40.4398C14.4309 40.7818 15.3199 40.4474 15.6619 39.6929C16.0039 38.9383 15.6695 38.0494 14.915 37.7074L3.98548 32.753L8.93984 21.8235C9.28186 21.069 8.94747 20.18 8.19294 19.838C7.43841 19.496 6.54948 19.8304 6.20746 20.5849L0.63381 32.8806ZM262.5 39.4999L261.311 40.4145L262.5 39.4999ZM0.728246 430.705C0.288965 431.407 0.502241 432.332 1.20461 432.772C1.90698 433.211 2.83247 432.998 3.27175 432.295L0.728246 430.705ZM271 231.5L269.785 230.621L271 231.5ZM121 293.5L121.862 294.728L121 293.5ZM5.2292 33.9217C6.0094 33.6432 6.4161 32.7849 6.13758 32.0047C5.85906 31.2245 5.0008 30.8178 4.22059 31.0964L5.2292 33.9217ZM9.94512 29.1044C9.16081 29.3712 8.74125 30.2232 9.008 31.0075C9.27475 31.7918 10.1268 32.2114 10.9111 31.9447L9.94512 29.1044ZM16.5323 30.0698C17.3197 29.8121 17.749 28.9649 17.4913 28.1776C17.2337 27.3903 16.3865 26.9609 15.5992 27.2186L16.5323 30.0698ZM21.3032 25.3849C20.5132 25.6344 20.075 26.4771 20.3245 27.267C20.574 28.057 21.4166 28.4952 22.2066 28.2457L21.3032 25.3849ZM27.9289 26.4699C28.7213 26.2282 29.1678 25.39 28.9261 24.5976C28.6845 23.8052 27.8462 23.3587 27.0538 23.6003L27.9289 26.4699ZM32.7838 21.8829C31.9892 22.117 31.5347 22.9509 31.7688 23.7456C32.0028 24.5403 32.8368 24.9947 33.6315 24.7607L32.7838 21.8829ZM39.3201 23.114C40.117 22.8874 40.5792 22.0578 40.3526 21.2609C40.126 20.4641 39.2963 20.0019 38.4995 20.2285L39.3201 23.114ZM44.2729 18.6159C43.474 18.835 43.0039 19.6603 43.223 20.4592C43.4421 21.2581 44.2674 21.7282 45.0663 21.5091L44.2729 18.6159ZM50.8719 19.9467C51.6729 19.7353 52.1508 18.9146 51.9394 18.1136C51.7279 17.3126 50.9072 16.8347 50.1062 17.0461L50.8719 19.9467ZM55.8716 15.5535C55.0687 15.7573 54.5829 16.5734 54.7867 17.3764C54.9905 18.1793 55.8066 18.6651 56.6096 18.4613L55.8716 15.5535ZM62.3937 17.0233C63.1986 16.8273 63.6923 16.016 63.4964 15.2111C63.3005 14.4061 62.4891 13.9124 61.6842 14.1084L62.3937 17.0233ZM67.5571 12.71C66.7502 12.8978 66.2484 13.7042 66.4362 14.511C66.624 15.3179 67.4303 15.8197 68.2372 15.6319L67.5571 12.71ZM74.0089 14.3194C74.8176 14.1398 75.3277 13.3386 75.1481 12.5299C74.9686 11.7212 74.1674 11.2111 73.3587 11.3907L74.0089 14.3194ZM79.236 10.1183C78.4254 10.2893 77.9069 11.085 78.0778 11.8956C78.2488 12.7062 79.0445 13.2247 79.8551 13.0538L79.236 10.1183ZM85.6871 11.8569C86.4995 11.6948 87.0267 10.9048 86.8647 10.0924C86.7026 9.27998 85.9126 8.75277 85.1002 8.91485L85.6871 11.8569ZM90.9843 7.77546C90.1701 7.9283 89.6339 8.71225 89.7868 9.52645C89.9396 10.3407 90.7236 10.8768 91.5378 10.724L90.9843 7.77546ZM97.4143 9.65653C98.2302 9.51333 98.7756 8.73579 98.6324 7.91983C98.4892 7.10387 97.7117 6.55849 96.8957 6.70169L97.4143 9.65653ZM102.795 5.70341C101.978 5.83657 101.423 6.60736 101.556 7.42501C101.689 8.24267 102.46 8.79756 103.277 8.66439L102.795 5.70341ZM109.183 7.74135C110.003 7.61875 110.567 6.85519 110.445 6.03588C110.322 5.21658 109.559 4.65178 108.739 4.77438L109.183 7.74135ZM114.661 3.92865C113.84 4.04022 113.265 4.79612 113.376 5.617C113.488 6.43788 114.244 7.01289 115.065 6.90132L114.661 3.92865ZM120.982 6.13948C121.804 6.03956 122.39 5.29189 122.29 4.46951C122.19 3.64714 121.442 3.06146 120.62 3.16138L120.982 6.13948ZM126.575 2.4824C125.751 2.57005 125.155 3.30891 125.242 4.13269C125.33 4.95646 126.069 5.55321 126.893 5.46556L126.575 2.4824ZM132.821 4.88148C133.647 4.80681 134.255 4.07745 134.18 3.25239C134.106 2.42734 133.376 1.81902 132.551 1.89369L132.821 4.88148ZM138.532 1.40216C137.706 1.46307 137.086 2.1822 137.146 3.00838C137.207 3.83457 137.926 4.45495 138.753 4.39404L138.532 1.40216ZM144.693 4.00839C145.52 3.96211 146.153 3.25407 146.107 2.42693C146.061 1.5998 145.353 0.966794 144.526 1.01307L144.693 4.00839ZM150.523 0.733479C149.695 0.764193 149.049 1.4602 149.079 2.28806C149.11 3.11592 149.806 3.76213 150.634 3.73142L150.523 0.733479ZM156.584 3.56984C157.412 3.55576 158.072 2.87287 158.058 2.04456C158.044 1.21625 157.361 0.55619 156.533 0.570271L156.584 3.56984ZM162.534 0.531854C161.706 0.528175 161.032 1.19676 161.028 2.02518C161.024 2.8536 161.693 3.52815 162.521 3.53182L162.534 0.531854ZM168.473 3.62607C169.301 3.64885 169.991 2.996 170.014 2.16788C170.037 1.33977 169.384 0.649986 168.556 0.627206L168.473 3.62607ZM174.547 0.865123C173.72 0.821916 173.014 1.45755 172.971 2.28485C172.928 3.11215 173.564 3.81783 174.391 3.86104L174.547 0.865123ZM180.335 4.25029C181.161 4.31563 181.883 3.69912 181.948 2.87327C182.014 2.04743 181.397 1.32498 180.571 1.25964L180.335 4.25029ZM186.552 1.81841C185.728 1.72933 184.989 2.32479 184.899 3.14842C184.81 3.97204 185.406 4.71193 186.229 4.80102L186.552 1.81841ZM192.126 5.53104C192.946 5.64588 193.704 5.07388 193.819 4.25345C193.934 3.43302 193.362 2.67484 192.542 2.56001L192.126 5.53104ZM198.494 3.49497C197.678 3.35236 196.901 3.8983 196.758 4.71436C196.616 5.53042 197.162 6.30758 197.978 6.45019L198.494 3.49497ZM203.784 7.57417C204.595 7.74679 205.391 7.22991 205.564 6.41967C205.737 5.60942 205.22 4.81265 204.41 4.64002L203.784 7.57417ZM210.3 6.01798C209.497 5.8128 208.68 6.29712 208.475 7.09974C208.27 7.90235 208.754 8.71933 209.557 8.92451L210.3 6.01798ZM215.226 10.5047C216.019 10.7448 216.856 10.2966 217.096 9.50376C217.336 8.71089 216.888 7.87351 216.095 7.63343L215.226 10.5047ZM221.862 9.52993C221.082 9.25201 220.224 9.65936 219.946 10.4398C219.668 11.2202 220.075 12.0782 220.856 12.3561L221.862 9.52993ZM226.353 14.4743C227.117 14.7925 227.995 14.4304 228.314 13.6655C228.632 12.9007 228.27 12.0227 227.505 11.7044L226.353 14.4743ZM233.027 14.1852C232.282 13.8242 231.385 14.136 231.024 14.8816C230.663 15.6273 230.974 16.5244 231.72 16.8854L233.027 14.1852ZM236.942 19.6122C237.664 20.0183 238.579 19.7621 238.985 19.04C239.391 18.318 239.135 17.4034 238.413 16.9973L236.942 19.6122ZM243.598 20.1393C242.904 19.6866 241.974 19.8822 241.522 20.576C241.069 21.2698 241.265 22.1992 241.958 22.6519L243.598 20.1393ZM246.763 26.0292C247.423 26.5293 248.364 26.3994 248.864 25.7389C249.364 25.0785 249.234 24.1377 248.574 23.6376L246.763 26.0292ZM253.282 27.4816C252.66 26.9343 251.713 26.9948 251.165 27.6166C250.618 28.2385 250.678 29.1864 251.3 29.7337L253.282 27.4816ZM255.552 33.7721C256.13 34.3653 257.08 34.3773 257.673 33.799C258.266 33.2207 258.278 32.2711 257.7 31.6779L255.552 33.7721ZM261.771 36.1916C261.241 35.5553 260.295 35.4696 259.659 36.0002C259.022 36.5307 258.937 37.4766 259.467 38.1128L261.771 36.1916ZM263.146 42.8341C263.642 43.4977 264.582 43.6337 265.245 43.1378C265.909 42.6419 266.045 41.7019 265.549 41.0383L263.146 42.8341ZM269.152 46.005C268.675 45.3275 267.739 45.1649 267.062 45.6417C266.384 46.1185 266.222 47.0542 266.699 47.7317L269.152 46.005ZM270.107 52.7279C270.564 53.419 271.495 53.6089 272.186 53.1521C272.877 52.6953 273.067 51.7648 272.61 51.0737L270.107 52.7279ZM275.917 56.2432C275.481 55.5387 274.557 55.3209 273.852 55.7567C273.148 56.1925 272.93 57.117 273.366 57.8215L275.917 56.2432ZM276.467 63.0114C276.881 63.729 277.798 63.9753 278.516 63.5615C279.234 63.1476 279.48 62.2303 279.066 61.5127L276.467 63.0114ZM282.051 66.884C281.66 66.1536 280.751 65.8783 280.021 66.2691C279.291 66.6599 279.015 67.5689 279.406 68.2993L282.051 66.884ZM282.172 73.6772C282.539 74.42 283.438 74.7249 284.181 74.3581C284.924 73.9914 285.229 73.0919 284.862 72.349L282.172 73.6772ZM287.49 77.9047C287.149 77.15 286.26 76.8151 285.505 77.1567C284.751 77.4983 284.416 78.3871 284.757 79.1418L287.49 77.9047ZM287.155 84.6895C287.47 85.4555 288.347 85.8208 289.113 85.5055C289.879 85.1901 290.244 84.3134 289.929 83.5474L287.155 84.6895ZM292.168 89.2727C291.88 88.4959 291.017 88.0998 290.241 88.3878C289.464 88.6759 289.068 89.5391 289.356 90.3158L292.168 89.2727ZM291.353 96.0159C291.613 96.8026 292.461 97.2298 293.248 96.9702C294.034 96.7105 294.462 95.8623 294.202 95.0756L291.353 96.0159ZM296.021 100.95C295.791 100.155 294.959 99.6961 294.163 99.9264C293.368 100.157 292.909 100.988 293.139 101.784L296.021 100.95ZM294.707 107.614C294.906 108.418 295.72 108.908 296.524 108.708C297.328 108.508 297.818 107.695 297.618 106.891L294.707 107.614ZM298.985 112.889C298.817 112.078 298.023 111.557 297.212 111.725C296.401 111.894 295.88 112.688 296.048 113.499L298.985 112.889ZM297.156 119.43C297.292 120.248 298.065 120.8 298.882 120.664C299.699 120.528 300.252 119.755 300.116 118.938L297.156 119.43ZM301.003 125.028C300.9 124.206 300.151 123.623 299.329 123.726C298.507 123.829 297.923 124.579 298.026 125.401L301.003 125.028ZM298.651 131.4C298.72 132.226 299.445 132.839 300.271 132.77C301.097 132.702 301.71 131.976 301.641 131.151L298.651 131.4ZM302.025 137.295C301.991 136.468 301.292 135.825 300.464 135.859C299.636 135.893 298.993 136.592 299.028 137.42L302.025 137.295ZM299.151 143.449C299.15 144.278 299.822 144.95 300.65 144.95C301.478 144.951 302.15 144.28 302.151 143.451L299.151 143.449ZM302.016 149.607C302.052 148.78 301.41 148.08 300.582 148.044C299.755 148.008 299.055 148.65 299.019 149.478L302.016 149.607ZM298.629 155.495C298.558 156.32 299.169 157.047 299.995 157.118C300.82 157.189 301.547 156.578 301.618 155.753L298.629 155.495ZM300.957 161.875C301.064 161.054 300.484 160.301 299.663 160.195C298.841 160.088 298.089 160.668 297.982 161.489L300.957 161.875ZM297.078 167.451C296.936 168.267 297.483 169.044 298.299 169.185C299.115 169.327 299.892 168.78 300.034 167.964L297.078 167.451ZM298.85 174.008C299.027 173.198 298.514 172.399 297.704 172.222C296.895 172.046 296.096 172.559 295.919 173.368L298.85 174.008ZM294.509 179.232C294.298 180.033 294.777 180.853 295.578 181.064C296.379 181.275 297.2 180.796 297.41 179.995L294.509 179.232ZM295.718 185.916C295.963 185.124 295.519 184.284 294.727 184.04C293.936 183.796 293.096 184.239 292.852 185.031L295.718 185.916ZM290.953 190.757C290.676 191.537 291.084 192.395 291.865 192.672C292.646 192.949 293.503 192.541 293.78 191.76L290.953 190.757ZM291.603 197.519C291.911 196.75 291.538 195.877 290.77 195.568C290.001 195.259 289.128 195.632 288.819 196.401L291.603 197.519ZM286.457 201.956C286.117 202.711 286.455 203.599 287.211 203.938C287.966 204.278 288.854 203.94 289.193 203.185L286.457 201.956ZM286.562 208.748C286.931 208.006 286.628 207.106 285.886 206.737C285.145 206.368 284.244 206.671 283.875 207.412L286.562 208.748ZM281.085 212.762C280.688 213.489 280.956 214.401 281.683 214.798C282.41 215.195 283.321 214.927 283.718 214.2L281.085 212.762ZM280.671 219.539C281.095 218.827 280.862 217.907 280.15 217.483C279.438 217.059 278.518 217.292 278.094 218.004L280.671 219.539ZM274.91 223.132C274.46 223.828 274.66 224.757 275.356 225.206C276.052 225.656 276.98 225.456 277.43 224.76L274.91 223.132ZM274.004 229.862C274.478 229.182 274.311 228.247 273.631 227.773C272.952 227.299 272.017 227.466 271.543 228.146L274.004 229.862ZM268.016 232.983C267.509 233.638 267.628 234.58 268.283 235.087C268.938 235.595 269.88 235.475 270.388 234.82L268.016 232.983ZM266.533 239.46C267.084 238.842 267.03 237.893 266.412 237.342C265.793 236.791 264.845 236.845 264.294 237.463L266.533 239.46ZM260.267 241.661C259.672 242.237 259.656 243.187 260.232 243.782C260.809 244.377 261.758 244.393 262.353 243.817L260.267 241.661ZM257.856 247.849C258.493 247.32 258.582 246.374 258.053 245.736C257.524 245.099 256.579 245.01 255.941 245.539L257.856 247.849ZM251.329 249.069C250.653 249.546 250.491 250.482 250.968 251.159C251.446 251.836 252.382 251.998 253.059 251.52L251.329 249.069ZM247.986 254.815C248.697 254.39 248.93 253.469 248.505 252.758C248.081 252.046 247.16 251.814 246.449 252.238L247.986 254.815ZM241.34 255.036C240.6 255.408 240.301 256.309 240.672 257.05C241.044 257.79 241.945 258.089 242.686 257.717L241.34 255.036ZM237.207 260.239C237.97 259.917 238.329 259.038 238.007 258.274C237.686 257.511 236.806 257.152 236.043 257.474L237.207 260.239ZM230.591 259.577C229.81 259.853 229.4 260.71 229.676 261.491C229.952 262.272 230.809 262.682 231.59 262.406L230.591 259.577ZM225.872 264.258C226.667 264.022 227.119 263.187 226.883 262.393C226.648 261.599 225.813 261.146 225.019 261.382L225.872 264.258ZM219.358 262.93C218.555 263.132 218.067 263.947 218.27 264.751C218.472 265.554 219.287 266.041 220.09 265.839L219.358 262.93ZM214.265 267.199C215.074 267.023 215.588 266.225 215.413 265.415C215.238 264.605 214.439 264.091 213.629 264.267L214.265 267.199ZM207.85 265.44C207.037 265.595 206.503 266.381 206.658 267.194C206.813 268.008 207.599 268.542 208.413 268.387L207.85 265.44ZM202.548 269.451C203.364 269.309 203.911 268.533 203.769 267.717C203.628 266.9 202.851 266.353 202.035 266.495L202.548 269.451ZM196.195 267.477C195.377 267.611 194.823 268.382 194.957 269.2C195.091 270.017 195.863 270.571 196.68 270.437L196.195 267.477ZM190.822 271.389C191.64 271.257 192.196 270.486 192.063 269.668C191.93 268.851 191.16 268.295 190.342 268.428L190.822 271.389ZM184.48 269.39C183.663 269.527 183.112 270.3 183.248 271.117C183.385 271.934 184.158 272.486 184.975 272.349L184.48 269.39ZM179.146 273.357C179.961 273.21 180.503 272.431 180.357 271.615C180.211 270.8 179.431 270.258 178.616 270.404L179.146 273.357ZM172.757 271.507C171.945 271.668 171.416 272.458 171.578 273.27C171.739 274.083 172.528 274.611 173.341 274.45L172.757 271.507ZM167.569 275.664C168.377 275.484 168.886 274.682 168.705 273.873C168.524 273.065 167.722 272.556 166.914 272.737L167.569 275.664ZM161.097 274.128C160.295 274.333 159.81 275.15 160.016 275.953C160.221 276.755 161.038 277.24 161.841 277.034L161.097 274.128ZM156.17 278.591C156.965 278.357 157.42 277.523 157.186 276.728C156.952 275.934 156.118 275.479 155.323 275.713L156.17 278.591ZM149.609 277.52C148.825 277.786 148.405 278.638 148.671 279.423C148.938 280.207 149.789 280.627 150.574 280.361L149.609 277.52ZM145.066 282.369C145.837 282.068 146.218 281.198 145.917 280.426C145.615 279.655 144.745 279.274 143.973 279.575L145.066 282.369ZM138.436 281.898C137.68 282.238 137.343 283.125 137.682 283.881C138.021 284.637 138.909 284.974 139.665 284.635L138.436 281.898ZM134.39 287.17C135.127 286.792 135.418 285.888 135.039 285.151C134.661 284.414 133.757 284.123 133.02 284.502L134.39 287.17ZM127.748 287.392C127.033 287.81 126.791 288.729 127.209 289.444C127.627 290.159 128.546 290.4 129.261 289.982L127.748 287.392ZM124.295 293.07C124.986 292.614 125.176 291.683 124.72 290.992C124.263 290.301 123.332 290.111 122.641 290.568L124.295 293.07ZM117.653 294.048C116.983 294.536 116.835 295.474 117.323 296.144C117.81 296.813 118.748 296.961 119.418 296.474L117.653 294.048ZM114.574 300.119C115.228 299.611 115.347 298.668 114.838 298.014C114.33 297.36 113.388 297.242 112.734 297.75L114.574 300.119ZM107.928 301.593C107.288 302.119 107.196 303.064 107.722 303.704C108.248 304.344 109.193 304.436 109.833 303.91L107.928 301.593ZM105.188 307.828C105.814 307.287 105.883 306.34 105.341 305.713C104.8 305.086 103.852 305.017 103.226 305.559L105.188 307.828ZM98.6273 309.625C98.0127 310.18 97.9647 311.128 98.5201 311.743C99.0755 312.358 100.024 312.406 100.639 311.85L98.6273 309.625ZM96.1763 315.966C96.7797 315.398 96.8089 314.449 96.2413 313.845C95.6738 313.242 94.7245 313.213 94.121 313.78L96.1763 315.966ZM89.6926 318.022C89.0995 318.601 89.0876 319.55 89.6659 320.144C90.2443 320.737 91.194 320.749 91.7871 320.17L89.6926 318.022ZM87.4673 324.454C88.0507 323.866 88.0469 322.916 87.4588 322.333C86.8707 321.749 85.9209 321.753 85.3375 322.341L87.4673 324.454ZM81.0521 326.728C80.4776 327.325 80.4959 328.275 81.0928 328.849C81.6898 329.424 82.6394 329.406 83.2138 328.809L81.0521 326.728ZM79.0246 333.225C79.5905 332.62 79.5589 331.67 78.9539 331.104C78.349 330.539 77.3998 330.57 76.8338 331.175L79.0246 333.225ZM72.6792 335.675C72.1212 336.288 72.1652 337.236 72.7775 337.794C73.3898 338.352 74.3385 338.308 74.8965 337.696L72.6792 335.675ZM70.8222 342.222C71.3728 341.603 71.3172 340.655 70.6982 340.105C70.0791 339.554 69.131 339.61 68.5805 340.229L70.8222 342.222ZM64.5363 344.829C63.9929 345.455 64.0593 346.402 64.6846 346.946C65.3099 347.489 66.2573 347.423 66.8007 346.797L64.5363 344.829ZM62.8311 351.415C63.3678 350.784 63.2913 349.837 62.6602 349.301C62.0291 348.764 61.0825 348.841 60.5458 349.472L62.8311 351.415ZM56.6078 354.15C56.0775 354.787 56.1636 355.733 56.8001 356.263C57.4366 356.793 58.3824 356.707 58.9127 356.071L56.6078 354.15ZM55.0317 360.775C55.5559 360.134 55.4607 359.189 54.8191 358.664C54.1776 358.14 53.2326 358.236 52.7085 358.877L55.0317 360.775ZM48.8544 363.639C48.3362 364.285 48.44 365.229 49.0863 365.748C49.7326 366.266 50.6766 366.162 51.1949 365.516L48.8544 363.639ZM47.4016 370.289C47.9142 369.638 47.8022 368.695 47.1514 368.183C46.5006 367.67 45.5574 367.782 45.0448 368.433L47.4016 370.289ZM41.2789 373.256C40.7718 373.911 40.8917 374.853 41.5467 375.36C42.2018 375.867 43.1439 375.747 43.6511 375.092L41.2789 373.256ZM39.9421 379.923C40.444 379.264 40.3165 378.323 39.6574 377.821C38.9983 377.319 38.0571 377.447 37.5553 378.106L39.9421 379.923ZM33.8722 382.983C33.3755 383.646 33.5103 384.586 34.1733 385.083C34.8363 385.579 35.7764 385.445 36.2731 384.782L33.8722 382.983ZM32.642 389.667C33.1337 389 32.9917 388.061 32.325 387.57C31.6583 387.078 30.7192 387.22 30.2275 387.887L32.642 389.667ZM26.6185 392.819C26.1317 393.489 26.2806 394.427 26.951 394.914C27.6213 395.401 28.5593 395.252 29.0461 394.581L26.6185 392.819ZM25.4827 399.527C25.9645 398.853 25.8088 397.916 25.1349 397.434C24.461 396.953 23.5241 397.108 23.0423 397.782L25.4827 399.527ZM19.4967 402.779C19.0197 403.457 19.1822 404.393 19.8596 404.87C20.537 405.346 21.4727 405.184 21.9496 404.507L19.4967 402.779ZM18.4473 409.52C18.9193 408.839 18.75 407.904 18.0691 407.432C17.3883 406.96 16.4538 407.13 15.9818 407.81L18.4473 409.52ZM12.5051 412.866C12.0382 413.55 12.2145 414.483 12.8988 414.95C13.5832 415.417 14.5164 415.241 14.9833 414.556L12.5051 412.866ZM11.5837 419.581C12.0452 418.893 11.8617 417.961 11.1738 417.5C10.4858 417.038 9.55397 417.222 9.09243 417.91L11.5837 419.581ZM5.68452 423.036C5.22896 423.728 5.42057 424.658 6.11249 425.114C6.80441 425.569 7.73463 425.378 8.19019 424.686L5.68452 423.036ZM4.8905 429.753C5.33852 429.056 5.13682 428.128 4.43999 427.68C3.74316 427.232 2.81508 427.434 2.36706 428.131L4.8905 429.753ZM2 33.4999C2.52814 34.9039 2.52812 34.9039 2.5281 34.9039C2.5281 34.9039 2.52809 34.9039 2.52809 34.9039C2.52809 34.9039 2.52811 34.9039 2.52813 34.9039C2.52819 34.9038 2.52831 34.9038 2.52848 34.9037C2.52882 34.9036 2.5294 34.9034 2.5302 34.9031C2.53181 34.9025 2.53434 34.9015 2.53779 34.9002C2.54468 34.8977 2.55523 34.8937 2.56941 34.8884C2.59779 34.8778 2.6407 34.8618 2.69794 34.8405C2.81243 34.798 2.98422 34.7344 3.21161 34.651C3.66638 34.4841 4.34349 34.2379 5.2292 33.9217L4.22059 31.0964C3.32638 31.4156 2.64104 31.6648 2.17835 31.8345C1.947 31.9194 1.7713 31.9844 1.65298 32.0284C1.59382 32.0504 1.54901 32.0671 1.51875 32.0784C1.50362 32.0841 1.49213 32.0884 1.48431 32.0913C1.4804 32.0928 1.4774 32.0939 1.47533 32.0947C1.47429 32.0951 1.47348 32.0954 1.4729 32.0956C1.47262 32.0957 1.47238 32.0958 1.47221 32.0958C1.47212 32.0959 1.47205 32.0959 1.47199 32.0959C1.47197 32.0959 1.47193 32.0959 1.47192 32.0959C1.47189 32.096 1.47186 32.096 2 33.4999ZM10.9111 31.9447C12.566 31.3818 14.4458 30.7527 16.5323 30.0698L15.5992 27.2186C13.5012 27.9053 11.6105 28.538 9.94512 29.1044L10.9111 31.9447ZM22.2066 28.2457C24.0102 27.6761 25.9201 27.0824 27.9289 26.4699L27.0538 23.6003C25.0353 24.2159 23.1159 24.8125 21.3032 25.3849L22.2066 28.2457ZM33.6315 24.7607C35.4643 24.2208 37.362 23.6709 39.3201 23.114L38.4995 20.2285C36.5321 20.788 34.6254 21.3405 32.7838 21.8829L33.6315 24.7607ZM45.0663 21.5091C46.9558 20.9909 48.8921 20.4694 50.8719 19.9467L50.1062 17.0461C48.1169 17.5712 46.1713 18.0953 44.2729 18.6159L45.0663 21.5091ZM56.6096 18.4613C58.5045 17.9804 60.4334 17.5004 62.3937 17.0233L61.6842 14.1084C59.7141 14.5879 57.7757 15.0702 55.8716 15.5535L56.6096 18.4613ZM68.2372 15.6319C70.1363 15.1899 72.061 14.7519 74.0089 14.3194L73.3587 11.3907C71.4005 11.8254 69.4659 12.2657 67.5571 12.71L68.2372 15.6319ZM79.8551 13.0538C81.78 12.6478 83.7247 12.2484 85.6871 11.8569L85.1002 8.91485C83.1268 9.30854 81.1714 9.71016 79.236 10.1183L79.8551 13.0538ZM91.5378 10.724C93.4823 10.3589 95.4417 10.0027 97.4143 9.65653L96.8957 6.70169C94.9112 7.04996 92.9401 7.40831 90.9843 7.77546L91.5378 10.724ZM103.277 8.66439C105.236 8.34545 107.205 8.03738 109.183 7.74135L108.739 4.77438C106.748 5.07237 104.766 5.38245 102.795 5.70341L103.277 8.66439ZM115.065 6.90132C117.03 6.63416 119.003 6.37983 120.982 6.13948L120.62 3.16138C118.627 3.40349 116.64 3.65963 114.661 3.92865L115.065 6.90132ZM126.893 5.46556C128.866 5.25562 130.842 5.06056 132.821 4.88148L132.551 1.89369C130.556 2.07423 128.563 2.27084 126.575 2.4824L126.893 5.46556ZM138.753 4.39404C140.733 4.24807 142.714 4.11915 144.693 4.00839L144.526 1.01307C142.528 1.12485 140.529 1.25492 138.532 1.40216L138.753 4.39404ZM150.634 3.73142C152.621 3.65771 154.604 3.60348 156.584 3.56984L156.533 0.570271C154.533 0.60427 152.529 0.659056 150.523 0.733479L150.634 3.73142ZM162.521 3.53182C164.512 3.54067 166.497 3.5717 168.473 3.62607L168.556 0.627206C166.555 0.57218 164.548 0.540794 162.534 0.531854L162.521 3.53182ZM174.391 3.86104C176.383 3.96508 178.365 4.09443 180.335 4.25029L180.571 1.25964C178.574 1.10159 176.565 0.970507 174.547 0.865123L174.391 3.86104ZM186.229 4.80102C188.21 5.01521 190.176 5.25813 192.126 5.53104L192.542 2.56001C190.56 2.2826 188.562 2.03585 186.552 1.81841L186.229 4.80102ZM197.978 6.45019C199.933 6.79187 201.869 7.16609 203.784 7.57417L204.41 4.64002C202.457 4.22397 200.484 3.84277 198.494 3.49497L197.978 6.45019ZM209.557 8.92451C211.471 9.41395 213.362 9.94021 215.226 10.5047L216.095 7.63343C214.188 7.05581 212.255 6.51785 210.3 6.01798L209.557 8.92451ZM220.856 12.3561C222.719 13.0196 224.552 13.7252 226.353 14.4743L227.505 11.7044C225.655 10.9346 223.773 10.2103 221.862 9.52993L220.856 12.3561ZM231.72 16.8854C233.498 17.7463 235.24 18.6547 236.942 19.6122L238.413 16.9973C236.655 16.0088 234.859 15.072 233.027 14.1852L231.72 16.8854ZM241.958 22.6519C243.603 23.7248 245.205 24.85 246.763 26.0292L248.574 23.6376C246.959 22.415 245.3 21.2495 243.598 20.1393L241.958 22.6519ZM251.3 29.7337C252.766 31.0233 254.184 32.3688 255.552 33.7721L257.7 31.6779C256.277 30.219 254.804 28.8209 253.282 27.4816L251.3 29.7337ZM259.467 38.1128C260.095 38.8653 260.709 39.6325 261.311 40.4145L263.689 38.5853C263.063 37.772 262.424 36.9741 261.771 36.1916L259.467 38.1128ZM261.311 40.4145C261.93 41.2189 262.541 42.0254 263.146 42.8341L265.549 41.0383C264.936 40.2184 264.316 39.4007 263.689 38.5853L261.311 40.4145ZM266.699 47.7317C267.865 49.3889 269.001 51.0545 270.107 52.7279L272.61 51.0737C271.488 49.3756 270.335 47.6859 269.152 46.005L266.699 47.7317ZM273.366 57.8215C274.431 59.5439 275.465 61.2741 276.467 63.0114L279.066 61.5127C278.049 59.7484 276.999 57.9917 275.917 56.2432L273.366 57.8215ZM279.406 68.2993C280.362 70.0852 281.284 71.878 282.172 73.6772L284.862 72.349C283.959 70.5203 283.022 68.6984 282.051 66.884L279.406 68.2993ZM284.757 79.1418C285.592 80.9852 286.391 82.8346 287.155 84.6895L289.929 83.5474C289.152 81.6604 288.339 79.7793 287.49 77.9047L284.757 79.1418ZM289.356 90.3158C290.059 92.211 290.724 94.1113 291.353 96.0159L294.202 95.0756C293.562 93.1361 292.884 91.2016 292.168 89.2727L289.356 90.3158ZM293.139 101.784C293.7 103.724 294.223 105.667 294.707 107.614L297.618 106.891C297.125 104.907 296.593 102.926 296.021 100.95L293.139 101.784ZM296.048 113.499C296.458 115.473 296.827 117.451 297.156 119.43L300.116 118.938C299.78 116.919 299.403 114.903 298.985 112.889L296.048 113.499ZM298.026 125.401C298.276 127.399 298.485 129.399 298.651 131.4L301.641 131.151C301.471 129.109 301.258 127.068 301.003 125.028L298.026 125.401ZM299.028 137.42C299.111 139.43 299.152 141.44 299.151 143.449L302.151 143.451C302.152 141.399 302.11 139.347 302.025 137.295L299.028 137.42ZM299.019 149.478C298.932 151.485 298.802 153.491 298.629 155.495L301.618 155.753C301.795 153.706 301.927 151.657 302.016 149.607L299.019 149.478ZM297.982 161.489C297.724 163.479 297.423 165.466 297.078 167.451L300.034 167.964C300.386 165.937 300.693 163.908 300.957 161.875L297.982 161.489ZM295.919 173.368C295.492 175.326 295.022 177.281 294.509 179.232L297.41 179.995C297.934 178.003 298.414 176.007 298.85 174.008L295.919 173.368ZM292.852 185.031C292.261 186.944 291.628 188.853 290.953 190.757L293.78 191.76C294.47 189.817 295.115 187.869 295.718 185.916L292.852 185.031ZM288.819 196.401C288.073 198.258 287.286 200.11 286.457 201.956L289.193 203.185C290.039 201.302 290.842 199.414 291.603 197.519L288.819 196.401ZM283.875 207.412C282.986 209.202 282.056 210.986 281.085 212.762L283.718 214.2C284.707 212.39 285.655 210.572 286.562 208.748L283.875 207.412ZM278.094 218.004C277.071 219.72 276.01 221.43 274.91 223.132L277.43 224.76C278.549 223.028 279.63 221.287 280.671 219.539L278.094 218.004ZM271.543 228.146C270.966 228.973 270.38 229.798 269.785 230.621L272.215 232.379C272.821 231.542 273.417 230.703 274.004 229.862L271.543 228.146ZM269.785 230.621C269.201 231.428 268.611 232.215 268.016 232.983L270.388 234.82C271.003 234.026 271.612 233.212 272.215 232.379L269.785 230.621ZM264.294 237.463C262.976 238.942 261.633 240.339 260.267 241.661L262.353 243.817C263.773 242.443 265.166 240.993 266.533 239.46L264.294 237.463ZM255.941 245.539C254.429 246.792 252.891 247.967 251.329 249.069L253.059 251.52C254.684 250.374 256.283 249.152 257.856 247.849L255.941 245.539ZM246.449 252.238C244.771 253.239 243.068 254.169 241.34 255.036L242.686 257.717C244.476 256.819 246.243 255.854 247.986 254.815L246.449 252.238ZM236.043 257.474C234.249 258.229 232.431 258.928 230.591 259.577L231.59 262.406C233.481 261.738 235.354 261.018 237.207 260.239L236.043 257.474ZM225.019 261.382C223.151 261.937 221.264 262.45 219.358 262.93L220.09 265.839C222.033 265.35 223.961 264.826 225.872 264.258L225.019 261.382ZM213.629 264.267C211.718 264.681 209.792 265.069 207.85 265.44L208.413 268.387C210.374 268.012 212.326 267.619 214.265 267.199L213.629 264.267ZM202.035 266.495C200.099 266.831 198.152 267.156 196.195 267.477L196.68 270.437C198.643 270.115 200.6 269.789 202.548 269.451L202.035 266.495ZM190.342 268.428C188.396 268.743 186.441 269.062 184.48 269.39L184.975 272.349C186.929 272.022 188.878 271.705 190.822 271.389L190.342 268.428ZM178.616 270.404C176.667 270.753 174.714 271.119 172.757 271.507L173.341 274.45C175.277 274.066 177.212 273.704 179.146 273.357L178.616 270.404ZM166.914 272.737C164.976 273.17 163.037 273.632 161.097 274.128L161.841 277.034C163.748 276.547 165.658 276.092 167.569 275.664L166.914 272.737ZM155.323 275.713C153.417 276.274 151.512 276.874 149.609 277.52L150.574 280.361C152.435 279.729 154.301 279.141 156.17 278.591L155.323 275.713ZM143.973 279.575C142.123 280.299 140.277 281.071 138.436 281.898L139.665 284.635C141.459 283.829 143.26 283.076 145.066 282.369L143.973 279.575ZM133.02 284.502C131.255 285.408 129.498 286.37 127.748 287.392L129.261 289.982C130.963 288.988 132.673 288.052 134.39 287.17L133.02 284.502ZM122.641 290.568C121.805 291.12 120.97 291.688 120.138 292.272L121.862 294.728C122.671 294.16 123.482 293.608 124.295 293.07L122.641 290.568ZM120.138 292.272C119.31 292.853 118.482 293.445 117.653 294.048L119.418 296.474C120.233 295.881 121.048 295.299 121.862 294.728L120.138 292.272ZM112.734 297.75C111.13 298.995 109.528 300.277 107.928 301.593L109.833 303.91C111.413 302.611 112.994 301.346 114.574 300.119L112.734 297.75ZM103.226 305.559C101.69 306.887 100.156 308.243 98.6273 309.625L100.639 311.85C102.152 310.483 103.669 309.141 105.188 307.828L103.226 305.559ZM94.121 313.78C92.6397 315.173 91.1632 316.588 89.6926 318.022L91.7871 320.17C93.2453 318.748 94.7087 317.346 96.1763 315.966L94.121 313.78ZM85.3375 322.341C83.902 323.788 82.4732 325.252 81.0521 326.728L83.2138 328.809C84.6248 327.342 86.0429 325.89 87.4673 324.454L85.3375 322.341ZM76.8338 331.175C75.4401 332.665 74.0549 334.166 72.6792 335.675L74.8965 337.696C76.2638 336.196 77.6401 334.704 79.0246 333.225L76.8338 331.175ZM68.5805 340.229C67.2216 341.757 65.8732 343.291 64.5363 344.829L66.8007 346.797C68.1304 345.267 69.4712 343.741 70.8222 342.222L68.5805 340.229ZM60.5458 349.472C59.2201 351.031 57.9071 352.591 56.6078 354.15L58.9127 356.071C60.2057 354.519 61.5122 352.966 62.8311 351.415L60.5458 349.472ZM52.7085 358.877C51.408 360.469 50.123 362.057 48.8544 363.639L51.1949 365.516C52.4579 363.941 53.7372 362.36 55.0317 360.775L52.7085 358.877ZM45.0448 368.433C43.7703 370.051 42.5146 371.66 41.2789 373.256L43.6511 375.092C44.8818 373.503 46.1324 371.901 47.4016 370.289L45.0448 368.433ZM37.5553 378.106C36.3038 379.75 35.0756 381.376 33.8722 382.983L36.2731 384.782C37.4721 383.181 38.6955 381.561 39.9421 379.923L37.5553 378.106ZM30.2275 387.887C28.9939 389.559 27.7903 391.205 26.6185 392.819L29.0461 394.581C30.2137 392.973 31.4129 391.334 32.642 389.667L30.2275 387.887ZM23.0423 397.782C21.8184 399.494 20.6357 401.162 19.4967 402.779L21.9496 404.507C23.0847 402.895 24.2631 401.233 25.4827 399.527L23.0423 397.782ZM15.9818 407.81C14.7582 409.576 13.598 411.264 12.5051 412.866L14.9833 414.556C16.0721 412.96 17.2281 411.278 18.4473 409.52L15.9818 407.81ZM9.09243 417.91C7.82208 419.803 6.68297 421.519 5.68452 423.036L8.19019 424.686C9.18409 423.176 10.3184 421.467 11.5837 419.581L9.09243 417.91ZM2.36706 428.131C1.83169 428.964 1.42276 429.606 1.14728 430.04C1.00955 430.258 0.905172 430.423 0.83504 430.535C0.799974 430.59 0.773468 430.632 0.755633 430.661C0.746715 430.675 0.739965 430.686 0.735396 430.693C0.733111 430.697 0.731372 430.7 0.73018 430.701C0.729584 430.702 0.729125 430.703 0.728802 430.704C0.728641 430.704 0.728514 430.704 0.728422 430.704C0.728375 430.704 0.728338 430.704 0.728308 430.704C0.728294 430.704 0.728278 430.704 0.728271 430.704C0.728258 430.704 0.728246 430.705 2 431.5C3.27175 432.295 3.27175 432.295 3.27174 432.295C3.27174 432.295 3.27174 432.295 3.27174 432.295C3.27175 432.295 3.27176 432.295 3.27178 432.295C3.27183 432.295 3.27191 432.295 3.27202 432.295C3.27225 432.295 3.27261 432.294 3.27311 432.293C3.27411 432.292 3.27565 432.289 3.27774 432.286C3.28192 432.279 3.28828 432.269 3.2968 432.255C3.31385 432.228 3.33956 432.187 3.37383 432.133C3.44236 432.024 3.5451 431.861 3.68116 431.646C3.9533 431.217 4.35876 430.58 4.8905 429.753L2.36706 428.131Z" fill="#C44601"/>
</svg>
