<svg width="314" height="1886" viewBox="0 0 314 1886" fill="none" xmlns="http://www.w3.org/2000/svg">
<path d="M30.6899 13.7695C30.2865 14.4931 30.546 15.4067 31.2695 15.8101L43.0606 22.3844C43.7841 22.7878 44.6978 22.5283 45.1012 21.8047C45.5046 21.0812 45.2451 20.1676 44.5215 19.7641L34.0406 13.9204L39.8844 3.43941C40.2878 2.71585 40.0283 1.80225 39.3047 1.39882C38.5812 0.995391 37.6676 1.25491 37.2641 1.97847L30.6899 13.7695ZM294.816 138.585L293.319 138.68L294.816 138.585ZM2.49384 1872.57C1.71159 1872.29 0.856361 1872.71 0.583622 1873.49C0.310884 1874.27 0.72392 1875.13 1.50616 1875.4L2.49384 1872.57ZM299.081 990.349L297.586 990.227L299.081 990.349ZM223.823 1265.4L225.303 1265.64L223.823 1265.4ZM234.277 1764.87L232.873 1764.34L234.277 1764.87ZM4.3045 1876.29C5.09718 1876.53 5.93493 1876.09 6.17568 1875.29C6.41643 1874.5 5.96901 1873.66 5.17633 1873.42L4.3045 1876.29ZM10.8907 1875.04C10.0897 1874.83 9.26904 1875.3 9.05779 1876.1C8.84653 1876.91 9.32464 1877.73 10.1257 1877.94L10.8907 1875.04ZM15.9625 1879.38C16.7694 1879.57 17.5757 1879.07 17.7635 1878.26C17.9512 1877.46 17.4494 1876.65 16.6425 1876.46L15.9625 1879.38ZM22.4581 1877.73C21.6465 1877.57 20.8539 1878.09 20.6878 1878.9C20.5216 1879.71 21.0449 1880.51 21.8565 1880.67L22.4581 1877.73ZM27.7601 1881.8C28.5756 1881.95 29.3547 1881.4 29.5001 1880.59C29.6455 1879.77 29.1022 1878.99 28.2866 1878.85L27.7601 1881.8ZM34.1312 1879.82C33.3123 1879.69 32.547 1880.25 32.422 1881.07C32.297 1881.89 32.8596 1882.66 33.6785 1882.78L34.1312 1879.82ZM39.6226 1883.61C40.4444 1883.72 41.1954 1883.14 41.3001 1882.31C41.4047 1881.49 40.8233 1880.74 40.0015 1880.64L39.6226 1883.61ZM45.9036 1881.31C45.0795 1881.23 44.3433 1881.83 44.2593 1882.65C44.1753 1883.48 44.7753 1884.21 45.5995 1884.3L45.9036 1881.31ZM51.6108 1884.83C52.4369 1884.9 53.1575 1884.28 53.2205 1883.45C53.2835 1882.63 52.6649 1881.91 51.8389 1881.84L51.6108 1884.83ZM57.7548 1882.22C56.9274 1882.18 56.2229 1882.81 56.1813 1883.64C56.1396 1884.47 56.7766 1885.17 57.604 1885.21L57.7548 1882.22ZM63.5877 1885.44C64.4159 1885.46 65.1034 1884.8 65.1233 1883.97C65.1431 1883.14 64.4879 1882.46 63.6597 1882.44L63.5877 1885.44ZM69.5987 1882.5C68.7703 1882.5 68.1008 1883.18 68.1033 1884C68.1059 1884.83 68.7795 1885.5 69.6079 1885.5L69.5987 1882.5ZM75.641 1885.4C76.469 1885.37 77.1195 1884.68 77.0938 1883.85C77.0681 1883.02 76.3761 1882.37 75.5481 1882.4L75.641 1885.4ZM81.4416 1882.13C80.6147 1882.18 79.9842 1882.89 80.0333 1883.72C80.0825 1884.55 80.7928 1885.18 81.6198 1885.13L81.4416 1882.13ZM87.6248 1884.68C88.4499 1884.61 89.0592 1883.88 88.9857 1883.05C88.9122 1882.23 88.1836 1881.62 87.3585 1881.69L87.6248 1884.68ZM93.262 1881.08C92.4394 1881.18 91.8525 1881.92 91.9511 1882.74C92.0497 1883.57 92.7964 1884.15 93.6189 1884.06L93.262 1881.08ZM99.5622 1883.25C100.381 1883.13 100.945 1882.36 100.82 1881.54C100.696 1880.72 99.9317 1880.16 99.1126 1880.28L99.5622 1883.25ZM104.967 1879.3C104.152 1879.45 103.614 1880.23 103.764 1881.05C103.915 1881.86 104.697 1882.4 105.512 1882.25L104.967 1879.3ZM111.403 1881.06C112.213 1880.88 112.725 1880.08 112.547 1879.27C112.37 1878.47 111.57 1877.95 110.761 1878.13L111.403 1881.06ZM116.516 1876.77C115.713 1876.97 115.228 1877.79 115.433 1878.59C115.638 1879.39 116.455 1879.88 117.257 1879.67L116.516 1876.77ZM123.083 1878.08C123.878 1877.85 124.333 1877.01 124.101 1876.22C123.868 1875.42 123.035 1874.97 122.24 1875.2L123.083 1878.08ZM127.866 1873.44C127.079 1873.7 126.654 1874.55 126.915 1875.34C127.176 1876.13 128.024 1876.55 128.811 1876.29L127.866 1873.44ZM134.508 1874.28C135.284 1873.99 135.679 1873.13 135.389 1872.35C135.099 1871.58 134.235 1871.18 133.459 1871.47L134.508 1874.28ZM138.945 1869.31C138.18 1869.63 137.818 1870.5 138.137 1871.27C138.455 1872.03 139.333 1872.4 140.098 1872.08L138.945 1869.31ZM145.619 1869.66C146.371 1869.31 146.7 1868.42 146.353 1867.67C146.005 1866.91 145.114 1866.59 144.362 1866.93L145.619 1869.66ZM149.682 1864.35C148.944 1864.73 148.65 1865.63 149.026 1866.37C149.401 1867.11 150.304 1867.4 151.043 1867.03L149.682 1864.35ZM156.351 1864.19C157.074 1863.79 157.332 1862.88 156.928 1862.15C156.524 1861.43 155.61 1861.17 154.887 1861.57L156.351 1864.19ZM160.003 1858.58C159.297 1859.01 159.074 1859.94 159.506 1860.64C159.938 1861.35 160.861 1861.57 161.568 1861.14L160.003 1858.58ZM166.627 1857.91C167.317 1857.45 167.503 1856.52 167.044 1855.83C166.585 1855.14 165.653 1854.96 164.964 1855.42L166.627 1857.91ZM169.842 1852.02C169.171 1852.51 169.021 1853.45 169.507 1854.12C169.993 1854.79 170.931 1854.94 171.602 1854.45L169.842 1852.02ZM176.383 1850.85C177.034 1850.33 177.147 1849.39 176.636 1848.74C176.124 1848.09 175.181 1847.98 174.53 1848.49L176.383 1850.85ZM179.138 1844.72C178.507 1845.26 178.43 1846.2 178.967 1846.83C179.503 1847.47 180.45 1847.54 181.081 1847.01L179.138 1844.72ZM185.561 1843.05C186.171 1842.49 186.212 1841.54 185.652 1840.93C185.092 1840.32 184.143 1840.28 183.533 1840.84L185.561 1843.05ZM187.846 1836.73C187.257 1837.31 187.252 1838.26 187.835 1838.85C188.417 1839.44 189.367 1839.44 189.956 1838.86L187.846 1836.73ZM194.124 1834.59C194.691 1833.98 194.662 1833.03 194.058 1832.47C193.454 1831.9 192.505 1831.93 191.938 1832.53L194.124 1834.59ZM195.937 1828.12C195.392 1828.74 195.455 1829.69 196.079 1830.24C196.702 1830.78 197.65 1830.72 198.195 1830.09L195.937 1828.12ZM202.05 1825.53C202.574 1824.89 202.478 1823.94 201.835 1823.42C201.193 1822.89 200.248 1822.99 199.725 1823.63L202.05 1825.53ZM203.398 1818.96C202.897 1819.62 203.025 1820.57 203.685 1821.07C204.344 1821.57 205.285 1821.44 205.787 1820.78L203.398 1818.96ZM209.339 1815.94C209.818 1815.27 209.659 1814.33 208.984 1813.85C208.308 1813.37 207.372 1813.53 206.892 1814.21L209.339 1815.94ZM210.235 1809.33C209.777 1810.02 209.966 1810.95 210.656 1811.41C211.347 1811.87 212.278 1811.68 212.735 1810.99L210.235 1809.33ZM216.003 1805.89C216.439 1805.19 216.222 1804.26 215.517 1803.83C214.813 1803.39 213.889 1803.61 213.452 1804.31L216.003 1805.89ZM216.467 1799.28C216.051 1800 216.295 1800.92 217.012 1801.33C217.729 1801.75 218.646 1801.5 219.062 1800.79L216.467 1799.28ZM222.037 1795.48C222.432 1794.75 222.161 1793.84 221.433 1793.45C220.705 1793.05 219.794 1793.32 219.4 1794.05L222.037 1795.48ZM222.123 1788.86C221.748 1789.6 222.043 1790.5 222.781 1790.88C223.52 1791.25 224.423 1790.96 224.798 1790.22L222.123 1788.86ZM227.448 1784.83C227.804 1784.08 227.485 1783.18 226.737 1782.83C225.989 1782.47 225.094 1782.79 224.739 1783.54L227.448 1784.83ZM227.239 1778.1C226.902 1778.86 227.243 1779.74 228 1780.08C228.757 1780.42 229.643 1780.08 229.98 1779.32L227.239 1778.1ZM232.321 1773.88C232.639 1773.11 232.277 1772.24 231.512 1771.92C230.748 1771.6 229.87 1771.96 229.551 1772.73L232.321 1773.88ZM231.786 1767.18C231.485 1767.95 231.867 1768.82 232.639 1769.12C233.411 1769.42 234.281 1769.04 234.581 1768.27L231.786 1767.18ZM236.674 1762.64C236.945 1761.86 236.531 1761.01 235.748 1760.74C234.966 1760.46 234.111 1760.88 233.84 1761.66L236.674 1762.64ZM235.648 1756.01C235.414 1756.8 235.868 1757.64 236.662 1757.87C237.457 1758.11 238.291 1757.65 238.526 1756.86L235.648 1756.01ZM240.108 1751.08C240.311 1750.28 239.826 1749.46 239.023 1749.26C238.22 1749.05 237.404 1749.54 237.2 1750.34L240.108 1751.08ZM238.571 1744.53C238.394 1745.34 238.907 1746.14 239.716 1746.31C240.525 1746.49 241.325 1745.98 241.502 1745.17L238.571 1744.53ZM242.695 1739.32C242.849 1738.5 242.315 1737.72 241.501 1737.56C240.687 1737.41 239.902 1737.94 239.747 1738.76L242.695 1739.32ZM240.786 1732.88C240.651 1733.7 241.205 1734.47 242.022 1734.61C242.84 1734.74 243.612 1734.19 243.746 1733.37L240.786 1732.88ZM244.655 1727.44C244.772 1726.62 244.202 1725.86 243.382 1725.74C242.562 1725.62 241.802 1726.19 241.685 1727.01L244.655 1727.44ZM242.465 1721.14C242.364 1721.96 242.948 1722.71 243.77 1722.81C244.593 1722.91 245.341 1722.33 245.443 1721.5L242.465 1721.14ZM246.133 1715.48C246.221 1714.66 245.624 1713.92 244.8 1713.83C243.976 1713.74 243.237 1714.34 243.15 1715.16L246.133 1715.48ZM243.726 1709.31C243.651 1710.14 244.259 1710.87 245.084 1710.94C245.909 1711.02 246.639 1710.41 246.714 1709.58L243.726 1709.31ZM247.222 1703.54C247.285 1702.71 246.668 1701.99 245.842 1701.93C245.016 1701.86 244.294 1702.48 244.231 1703.31L247.222 1703.54ZM244.649 1697.41C244.595 1698.24 245.222 1698.95 246.048 1699.01C246.875 1699.06 247.589 1698.43 247.642 1697.61L244.649 1697.41ZM247.996 1691.63C248.04 1690.8 247.405 1690.1 246.578 1690.05C245.751 1690.01 245.044 1690.64 245 1691.47L247.996 1691.63ZM245.29 1685.45C245.254 1686.28 245.896 1686.98 246.724 1687.01C247.552 1687.05 248.252 1686.41 248.287 1685.58L245.29 1685.45ZM248.514 1679.67C248.542 1678.84 247.893 1678.14 247.065 1678.12C246.237 1678.09 245.544 1678.74 245.516 1679.56L248.514 1679.67ZM245.691 1673.58C245.67 1674.41 246.325 1675.09 247.153 1675.11C247.981 1675.13 248.669 1674.48 248.69 1673.65L245.691 1673.58ZM248.814 1667.65C248.828 1666.82 248.168 1666.14 247.34 1666.12C246.511 1666.11 245.829 1666.77 245.815 1667.6L248.814 1667.65ZM245.891 1661.68C245.884 1662.5 246.549 1663.18 247.377 1663.19C248.206 1663.2 248.884 1662.53 248.891 1661.7L245.891 1661.68ZM248.926 1655.68C248.928 1654.85 248.257 1654.18 247.429 1654.18C246.601 1654.17 245.928 1654.84 245.926 1655.67L248.926 1655.68ZM245.919 1649.71C245.923 1650.54 246.597 1651.21 247.426 1651.21C248.254 1651.2 248.923 1650.53 248.919 1649.7L245.919 1649.71ZM248.875 1643.74C248.867 1642.91 248.188 1642.25 247.36 1642.26C246.531 1642.27 245.867 1642.95 245.876 1643.77L248.875 1643.74ZM245.796 1637.77C245.809 1638.6 246.491 1639.26 247.32 1639.25C248.148 1639.23 248.809 1638.55 248.795 1637.72L245.796 1637.77ZM248.683 1631.75C248.665 1630.92 247.979 1630.26 247.151 1630.28C246.323 1630.3 245.666 1630.99 245.684 1631.81L248.683 1631.75ZM245.541 1625.87C245.563 1626.7 246.252 1627.35 247.08 1627.33C247.908 1627.31 248.562 1626.62 248.54 1625.79L245.541 1625.87ZM248.366 1619.78C248.34 1618.95 247.648 1618.3 246.82 1618.33C245.992 1618.35 245.342 1619.05 245.368 1619.87L248.366 1619.78ZM245.168 1613.91C245.197 1614.74 245.892 1615.39 246.72 1615.36C247.548 1615.33 248.195 1614.63 248.166 1613.81L245.168 1613.91ZM247.94 1607.85C247.907 1607.02 247.21 1606.38 246.382 1606.41C245.554 1606.44 244.91 1607.14 244.943 1607.97L247.94 1607.85ZM244.692 1601.98C244.728 1602.81 245.429 1603.45 246.256 1603.42C247.084 1603.38 247.725 1602.68 247.689 1601.85L244.692 1601.98ZM247.415 1595.87C247.376 1595.04 246.673 1594.41 245.845 1594.44C245.018 1594.48 244.379 1595.19 244.418 1596.01L247.415 1595.87ZM244.124 1590.07C244.167 1590.9 244.872 1591.54 245.699 1591.49C246.527 1591.45 247.163 1590.75 247.121 1589.92L244.124 1590.07ZM246.804 1583.94C246.759 1583.11 246.052 1582.47 245.225 1582.52C244.397 1582.56 243.763 1583.27 243.808 1584.1L246.804 1583.94ZM243.473 1578.12C243.52 1578.95 244.23 1579.58 245.057 1579.53C245.884 1579.49 246.516 1578.78 246.468 1577.95L243.473 1578.12ZM246.115 1572C246.065 1571.17 245.354 1570.54 244.527 1570.59C243.7 1570.64 243.07 1571.35 243.121 1572.18L246.115 1572ZM242.75 1566.22C242.802 1567.05 243.515 1567.67 244.342 1567.62C245.169 1567.57 245.796 1566.86 245.744 1566.03L242.75 1566.22ZM245.355 1560.04C245.3 1559.22 244.586 1558.59 243.759 1558.65C242.932 1558.7 242.307 1559.41 242.361 1560.24L245.355 1560.04ZM241.96 1554.3C242.017 1555.12 242.733 1555.75 243.559 1555.69C244.386 1555.63 245.01 1554.92 244.953 1554.09L241.96 1554.3ZM244.535 1548.13C244.476 1547.3 243.759 1546.68 242.932 1546.74C242.106 1546.8 241.484 1547.52 241.543 1548.34L244.535 1548.13ZM241.111 1542.38C241.172 1543.2 241.891 1543.82 242.717 1543.76C243.543 1543.7 244.164 1542.98 244.103 1542.16L241.111 1542.38ZM243.658 1536.2C243.596 1535.37 242.876 1534.75 242.05 1534.81C241.224 1534.88 240.605 1535.6 240.667 1536.42L243.658 1536.2ZM240.211 1530.47C240.275 1531.3 240.996 1531.91 241.822 1531.85C242.648 1531.79 243.266 1531.06 243.202 1530.24L240.211 1530.47ZM242.733 1524.28C242.667 1523.45 241.945 1522.84 241.119 1522.9C240.293 1522.97 239.677 1523.69 239.743 1524.52L242.733 1524.28ZM239.263 1518.56C239.331 1519.38 240.054 1520 240.88 1519.93C241.706 1519.87 242.321 1519.14 242.254 1518.32L239.263 1518.56ZM241.764 1512.36C241.695 1511.53 240.971 1510.92 240.145 1510.99C239.319 1511.05 238.706 1511.78 238.774 1512.6L241.764 1512.36ZM238.276 1506.66C238.346 1507.48 239.071 1508.09 239.897 1508.02C240.722 1507.95 241.335 1507.23 241.265 1506.4L238.276 1506.66ZM240.758 1500.45C240.687 1499.62 239.96 1499.01 239.135 1499.08C238.309 1499.15 237.698 1499.88 237.769 1500.7L240.758 1500.45ZM237.252 1494.74C237.324 1495.57 238.052 1496.18 238.877 1496.11C239.702 1496.04 240.313 1495.31 240.241 1494.48L237.252 1494.74ZM239.717 1488.53C239.644 1487.71 238.916 1487.1 238.091 1487.17C237.266 1487.24 236.656 1487.97 236.729 1488.8L239.717 1488.53ZM236.2 1482.86C236.274 1483.69 237.003 1484.3 237.828 1484.22C238.653 1484.15 239.262 1483.42 239.188 1482.59L236.2 1482.86ZM238.65 1476.62C238.575 1475.79 237.845 1475.19 237.02 1475.26C236.195 1475.34 235.587 1476.07 235.662 1476.89L238.65 1476.62ZM235.12 1470.94C235.195 1471.77 235.925 1472.37 236.75 1472.3C237.575 1472.22 238.183 1471.49 238.107 1470.67L235.12 1470.94ZM237.562 1464.74C237.486 1463.91 236.755 1463.31 235.93 1463.38C235.105 1463.46 234.498 1464.19 234.575 1465.01L237.562 1464.74ZM234.021 1459.04C234.098 1459.87 234.829 1460.47 235.654 1460.4C236.478 1460.32 237.085 1459.59 237.008 1458.76L234.021 1459.04ZM236.452 1452.81C236.375 1451.98 235.643 1451.38 234.819 1451.45C233.994 1451.53 233.388 1452.26 233.465 1453.09L236.452 1452.81ZM232.909 1447.16C232.987 1447.99 233.718 1448.59 234.543 1448.52C235.368 1448.44 235.973 1447.71 235.896 1446.88L232.909 1447.16ZM235.333 1440.92C235.255 1440.09 234.524 1439.49 233.699 1439.56C232.874 1439.64 232.269 1440.37 232.346 1441.2L235.333 1440.92ZM231.782 1435.23C231.86 1436.06 232.592 1436.66 233.417 1436.59C234.242 1436.51 234.847 1435.78 234.769 1434.95L231.782 1435.23ZM234.208 1429.03C234.13 1428.21 233.398 1427.6 232.573 1427.68C231.748 1427.76 231.143 1428.49 231.221 1429.31L234.208 1429.03ZM230.657 1423.36C230.735 1424.18 231.467 1424.79 232.291 1424.71C233.116 1424.63 233.721 1423.9 233.643 1423.07L230.657 1423.36ZM233.078 1417.1C233 1416.27 232.268 1415.67 231.443 1415.75C230.618 1415.83 230.013 1416.56 230.091 1417.38L233.078 1417.1ZM229.532 1411.46C229.61 1412.29 230.341 1412.89 231.166 1412.82C231.991 1412.74 232.596 1412.01 232.518 1411.18L229.532 1411.46ZM231.958 1405.23C231.881 1404.4 231.149 1403.8 230.325 1403.87C229.5 1403.95 228.894 1404.68 228.971 1405.51L231.958 1405.23ZM228.412 1399.53C228.489 1400.35 229.22 1400.96 230.045 1400.88C230.869 1400.8 231.476 1400.07 231.399 1399.25L228.412 1399.53ZM230.85 1393.34C230.774 1392.51 230.043 1391.91 229.219 1391.98C228.394 1392.06 227.787 1392.79 227.863 1393.61L230.85 1393.34ZM227.314 1387.65C227.39 1388.47 228.12 1389.08 228.945 1389C229.77 1388.93 230.377 1388.2 230.302 1387.37L227.314 1387.65ZM229.759 1381.4C229.684 1380.57 228.955 1379.96 228.13 1380.04C227.305 1380.11 226.696 1380.84 226.771 1381.67L229.759 1381.4ZM226.243 1375.77C226.316 1376.6 227.045 1377.2 227.87 1377.13C228.695 1377.06 229.304 1376.33 229.231 1375.5L226.243 1375.77ZM228.704 1369.51C228.632 1368.68 227.904 1368.07 227.079 1368.14C226.254 1368.22 225.643 1368.94 225.715 1369.77L228.704 1369.51ZM225.201 1363.8C225.271 1364.63 225.997 1365.24 226.823 1365.17C227.648 1365.1 228.26 1364.37 228.19 1363.55L225.201 1363.8ZM227.697 1357.68C227.628 1356.85 226.904 1356.24 226.078 1356.31C225.252 1356.38 224.639 1357.1 224.707 1357.93L227.697 1357.68ZM224.213 1351.87C224.279 1352.7 225.002 1353.31 225.828 1353.25C226.654 1353.18 227.27 1352.46 227.203 1351.63L224.213 1351.87ZM226.737 1345.71C226.674 1344.89 225.952 1344.27 225.126 1344.33C224.3 1344.4 223.682 1345.12 223.746 1345.94L226.737 1345.71ZM223.296 1339.98C223.357 1340.81 224.076 1341.43 224.902 1341.37C225.729 1341.31 226.349 1340.59 226.288 1339.76L223.296 1339.98ZM225.859 1333.77C225.801 1332.94 225.085 1332.32 224.259 1332.38C223.432 1332.43 222.809 1333.15 222.866 1333.98L225.859 1333.77ZM222.472 1328.11C222.526 1328.94 223.239 1329.57 224.066 1329.51C224.893 1329.46 225.519 1328.75 225.466 1327.92L222.472 1328.11ZM225.089 1321.85C225.04 1321.02 224.33 1320.39 223.503 1320.44C222.676 1320.49 222.045 1321.2 222.094 1322.02L225.089 1321.85ZM221.765 1316.13C221.808 1316.96 222.514 1317.59 223.341 1317.55C224.169 1317.51 224.804 1316.8 224.76 1315.97L221.765 1316.13ZM224.466 1309.93C224.429 1309.11 223.728 1308.47 222.9 1308.5C222.073 1308.54 221.432 1309.24 221.469 1310.07L224.466 1309.93ZM221.231 1304.15C221.26 1304.98 221.955 1305.62 222.783 1305.59C223.611 1305.56 224.258 1304.87 224.229 1304.04L221.231 1304.15ZM224.049 1298.02C224.03 1297.19 223.342 1296.53 222.514 1296.55C221.686 1296.57 221.03 1297.26 221.05 1298.09L224.049 1298.02ZM220.95 1292.18C220.958 1293.01 221.636 1293.68 222.464 1293.67C223.293 1293.66 223.958 1292.98 223.95 1292.15L220.95 1292.18ZM223.946 1286.1C223.953 1285.27 223.288 1284.59 222.46 1284.58C221.631 1284.58 220.954 1285.24 220.946 1286.07L223.946 1286.1ZM221.068 1280.16C221.041 1280.98 221.689 1281.68 222.517 1281.71C223.345 1281.73 224.039 1281.08 224.067 1280.26L221.068 1280.16ZM224.363 1274.3C224.42 1273.47 223.796 1272.76 222.969 1272.7C222.143 1272.65 221.427 1273.27 221.37 1274.1L224.363 1274.3ZM221.94 1268C221.839 1268.83 222.423 1269.57 223.245 1269.68C224.068 1269.78 224.816 1269.19 224.917 1268.37L221.94 1268ZM225.807 1262.55C225.942 1261.73 225.389 1260.96 224.572 1260.83C223.754 1260.69 222.982 1261.24 222.847 1262.06L225.807 1262.55ZM223.862 1256.07C223.72 1256.88 224.267 1257.66 225.083 1257.8C225.9 1257.94 226.676 1257.4 226.818 1256.58L223.862 1256.07ZM227.841 1250.82C227.99 1250.01 227.45 1249.23 226.635 1249.08C225.82 1248.93 225.038 1249.47 224.89 1250.29L227.841 1250.82ZM226.029 1244.21C225.872 1245.02 226.404 1245.81 227.218 1245.97C228.031 1246.12 228.818 1245.59 228.974 1244.78L226.029 1244.21ZM230.112 1239.04C230.278 1238.23 229.754 1237.43 228.942 1237.27C228.13 1237.1 227.338 1237.63 227.173 1238.44L230.112 1239.04ZM228.441 1232.41C228.266 1233.22 228.78 1234.01 229.589 1234.19C230.399 1234.37 231.197 1233.85 231.373 1233.04L228.441 1232.41ZM232.652 1227.34C232.838 1226.53 232.336 1225.72 231.528 1225.54C230.721 1225.35 229.916 1225.85 229.729 1226.66L232.652 1227.34ZM231.167 1220.66C230.968 1221.46 231.457 1222.28 232.261 1222.48C233.065 1222.68 233.879 1222.19 234.079 1221.38L231.167 1220.66ZM235.553 1215.67C235.768 1214.87 235.293 1214.05 234.493 1213.83C233.692 1213.62 232.87 1214.09 232.656 1214.89L235.553 1215.67ZM234.288 1209.04C234.057 1209.84 234.514 1210.67 235.31 1210.9C236.105 1211.13 236.937 1210.67 237.169 1209.88L234.288 1209.04ZM238.914 1204.13C239.165 1203.34 238.728 1202.5 237.939 1202.25C237.149 1202 236.306 1202.44 236.055 1203.22L238.914 1204.13ZM237.955 1197.52C237.681 1198.31 238.093 1199.16 238.876 1199.44C239.658 1199.71 240.513 1199.3 240.786 1198.51L237.955 1197.52ZM242.824 1192.98C243.123 1192.2 242.74 1191.34 241.967 1191.04C241.195 1190.74 240.326 1191.12 240.026 1191.89L242.824 1192.98ZM242.338 1186.25C242.008 1187.01 242.358 1187.9 243.118 1188.22C243.878 1188.55 244.761 1188.21 245.09 1187.45L242.338 1186.25ZM247.575 1182.04C247.938 1181.3 247.629 1180.4 246.884 1180.04C246.14 1179.67 245.242 1179.98 244.879 1180.73L247.575 1182.04ZM247.668 1175.34C247.269 1176.07 247.535 1176.98 248.261 1177.38C248.987 1177.78 249.899 1177.51 250.298 1176.79L247.668 1175.34ZM253.291 1171.64C253.724 1170.93 253.503 1170.01 252.797 1169.58C252.091 1169.14 251.168 1169.36 250.734 1170.07L253.291 1171.64ZM254.02 1164.96C253.559 1165.65 253.744 1166.58 254.432 1167.04C255.121 1167.5 256.052 1167.32 256.513 1166.63L254.02 1164.96ZM259.89 1161.7C260.364 1161.02 260.198 1160.09 259.518 1159.62C258.838 1159.14 257.903 1159.31 257.43 1159.99L259.89 1161.7ZM260.848 1155.07C260.38 1155.75 260.554 1156.69 261.237 1157.15C261.92 1157.62 262.854 1157.45 263.323 1156.77L260.848 1155.07ZM266.667 1151.73C267.112 1151.03 266.907 1150.1 266.208 1149.66C265.51 1149.21 264.583 1149.42 264.137 1150.12L266.667 1151.73ZM267.207 1145.04C266.797 1145.76 267.048 1146.67 267.768 1147.08C268.487 1147.49 269.403 1147.24 269.814 1146.52L267.207 1145.04ZM272.692 1141.13C273.062 1140.39 272.761 1139.49 272.02 1139.12C271.279 1138.75 270.378 1139.05 270.008 1139.79L272.692 1141.13ZM272.524 1134.4C272.193 1135.16 272.54 1136.05 273.299 1136.38C274.059 1136.71 274.943 1136.36 275.274 1135.6L272.524 1134.4ZM277.568 1129.98C277.864 1129.21 277.476 1128.34 276.702 1128.05C275.928 1127.75 275.061 1128.14 274.766 1128.91L277.568 1129.98ZM276.766 1123.35C276.501 1124.13 276.922 1124.98 277.707 1125.25C278.492 1125.51 279.343 1125.09 279.608 1124.31L276.766 1123.35ZM281.439 1118.58C281.678 1117.78 281.23 1116.95 280.436 1116.71C279.643 1116.47 278.806 1116.91 278.567 1117.71L281.439 1118.58ZM280.209 1111.97C279.992 1112.77 280.464 1113.6 281.263 1113.81C282.063 1114.03 282.887 1113.56 283.104 1112.76L280.209 1111.97ZM284.642 1106.81C284.84 1106.01 284.349 1105.19 283.544 1104.99C282.74 1104.8 281.927 1105.29 281.729 1106.09L284.642 1106.81ZM283.075 1100.38C282.893 1101.18 283.401 1101.99 284.209 1102.17C285.017 1102.35 285.82 1101.84 286.002 1101.04L283.075 1100.38ZM287.281 1095.11C287.449 1094.3 286.928 1093.51 286.116 1093.34C285.305 1093.17 284.511 1093.69 284.343 1094.5L287.281 1095.11ZM285.515 1088.62C285.359 1089.44 285.892 1090.22 286.706 1090.38C287.519 1090.54 288.305 1090 288.461 1089.19L285.515 1088.62ZM289.551 1083.29C289.696 1082.47 289.153 1081.7 288.337 1081.55C287.522 1081.41 286.743 1081.95 286.598 1082.76L289.551 1083.29ZM287.62 1076.83C287.484 1077.64 288.036 1078.42 288.853 1078.55C289.671 1078.69 290.443 1078.14 290.579 1077.32L287.62 1076.83ZM291.534 1071.39C291.661 1070.57 291.101 1069.81 290.283 1069.68C289.464 1069.55 288.697 1070.11 288.569 1070.93L291.534 1071.39ZM289.464 1065.01C289.344 1065.83 289.911 1066.6 290.73 1066.72C291.55 1066.84 292.312 1066.27 292.432 1065.45L289.464 1065.01ZM293.292 1059.41C293.406 1058.59 292.832 1057.83 292.012 1057.72C291.191 1057.61 290.434 1058.18 290.32 1059L293.292 1059.41ZM291.106 1053.16C290.998 1053.98 291.577 1054.74 292.398 1054.85C293.22 1054.95 293.973 1054.37 294.08 1053.55L291.106 1053.16ZM294.859 1047.44C294.961 1046.62 294.377 1045.87 293.555 1045.77C292.733 1045.67 291.984 1046.25 291.882 1047.07L294.859 1047.44ZM292.59 1041.22C292.493 1042.04 293.082 1042.79 293.904 1042.88C294.727 1042.98 295.473 1042.39 295.57 1041.57L292.59 1041.22ZM296.256 1035.61C296.348 1034.79 295.756 1034.05 294.933 1033.95C294.11 1033.86 293.367 1034.45 293.275 1035.28L296.256 1035.61ZM293.951 1029.11C293.863 1029.94 294.459 1030.68 295.283 1030.77C296.106 1030.85 296.846 1030.26 296.934 1029.43L293.951 1029.11ZM297.541 1023.64C297.626 1022.81 297.026 1022.08 296.202 1021.99C295.378 1021.91 294.641 1022.51 294.557 1023.33L297.541 1023.64ZM295.155 1017.37C295.074 1018.19 295.677 1018.93 296.502 1019.01C297.326 1019.09 298.06 1018.48 298.141 1017.66L295.155 1017.37ZM298.734 1011.49C298.811 1010.66 298.205 1009.93 297.381 1009.85C296.556 1009.78 295.824 1010.38 295.747 1011.21L298.734 1011.49ZM296.283 1005.38C296.209 1006.21 296.817 1006.94 297.642 1007.01C298.467 1007.08 299.197 1006.48 299.271 1005.65L296.283 1005.38ZM299.798 999.707C299.869 998.881 299.258 998.154 298.433 998.083C297.608 998.011 296.88 998.622 296.809 999.447L299.798 999.707ZM297.328 993.343C297.259 994.169 297.873 994.894 298.698 994.963C299.524 995.032 300.249 994.419 300.318 993.593L297.328 993.343ZM300.818 987.492C300.885 986.666 300.27 985.942 299.444 985.876C298.618 985.809 297.895 986.424 297.828 987.25L300.818 987.492ZM298.305 981.284C298.24 982.11 298.856 982.832 299.682 982.897C300.508 982.963 301.23 982.346 301.295 981.52L298.305 981.284ZM301.762 975.534C301.826 974.708 301.208 973.987 300.382 973.923C299.556 973.859 298.835 974.477 298.771 975.303L301.762 975.534ZM299.228 969.308C299.166 970.134 299.785 970.854 300.611 970.916C301.437 970.978 302.157 970.359 302.219 969.533L299.228 969.308ZM302.665 963.532C302.726 962.705 302.105 961.987 301.279 961.926C300.453 961.865 299.734 962.486 299.673 963.312L302.665 963.532ZM300.106 957.345C300.047 958.171 300.669 958.889 301.495 958.948C302.321 959.007 303.039 958.385 303.098 957.559L300.106 957.345ZM303.521 951.573C303.579 950.746 302.956 950.03 302.129 949.972C301.303 949.914 300.586 950.538 300.529 951.364L303.521 951.573ZM300.942 945.37C300.885 946.196 301.51 946.912 302.336 946.968C303.163 947.024 303.878 946.4 303.935 945.573L300.942 945.37ZM304.339 939.56C304.393 938.734 303.768 938.019 302.941 937.964C302.114 937.91 301.4 938.535 301.345 939.362L304.339 939.56ZM301.736 933.392C301.682 934.219 302.309 934.932 303.136 934.986C303.963 935.039 304.676 934.412 304.73 933.585L301.736 933.392ZM305.111 927.6C305.163 926.773 304.535 926.06 303.708 926.008C302.881 925.956 302.169 926.585 302.117 927.411L305.111 927.6ZM302.489 921.418C302.438 922.245 303.068 922.957 303.894 923.007C304.721 923.058 305.433 922.429 305.483 921.602L302.489 921.418ZM305.846 915.592C305.895 914.765 305.265 914.054 304.438 914.005C303.611 913.956 302.901 914.586 302.852 915.413L305.846 915.592ZM303.203 909.427C303.155 910.254 303.787 910.963 304.614 911.011C305.441 911.059 306.15 910.428 306.198 909.601L303.203 909.427ZM306.54 903.616C306.587 902.789 305.954 902.08 305.127 902.034C304.3 901.987 303.592 902.62 303.545 903.447L306.54 903.616ZM303.878 897.455C303.832 898.283 304.466 898.99 305.293 899.035C306.121 899.08 306.828 898.447 306.873 897.619L303.878 897.455ZM307.197 891.612C307.241 890.785 306.606 890.079 305.779 890.035C304.952 889.991 304.246 890.626 304.202 891.453L307.197 891.612ZM304.516 885.452C304.473 886.279 305.109 886.984 305.937 887.027C306.764 887.07 307.469 886.434 307.512 885.607L304.516 885.452ZM307.816 879.622C307.858 878.795 307.221 878.091 306.393 878.049C305.566 878.008 304.862 878.645 304.82 879.472L307.816 879.622ZM305.116 873.482C305.076 874.31 305.714 875.013 306.541 875.053C307.369 875.094 308.072 874.455 308.112 873.628L305.116 873.482ZM308.399 867.623C308.438 866.796 307.799 866.094 306.972 866.055C306.144 866.016 305.442 866.655 305.403 867.482L308.399 867.623ZM305.681 861.473C305.644 862.3 306.284 863.002 307.111 863.039C307.939 863.077 308.64 862.437 308.678 861.609L305.681 861.473ZM308.947 855.621C308.983 854.793 308.342 854.093 307.515 854.056C306.687 854.02 305.986 854.661 305.95 855.489L308.947 855.621ZM306.21 849.5C306.175 850.328 306.817 851.027 307.645 851.063C308.472 851.098 309.172 850.456 309.207 849.628L306.21 849.5ZM309.459 843.626C309.493 842.799 308.85 842.1 308.022 842.066C307.195 842.032 306.496 842.675 306.462 843.503L309.459 843.626ZM306.705 837.496C306.672 838.324 307.317 839.022 308.144 839.055C308.972 839.088 309.67 838.443 309.703 837.616L306.705 837.496ZM309.938 831.613C309.97 830.785 309.325 830.088 308.497 830.057C307.669 830.025 306.972 830.67 306.94 831.498L309.938 831.613ZM307.167 825.511C307.136 826.338 307.782 827.034 308.61 827.065C309.438 827.096 310.134 826.45 310.164 825.622L307.167 825.511ZM310.383 819.622C310.412 818.794 309.765 818.099 308.937 818.07C308.109 818.04 307.414 818.687 307.385 819.515L310.383 819.622ZM307.595 813.512C307.567 814.34 308.215 815.034 309.043 815.062C309.871 815.091 310.565 814.443 310.593 813.615L307.595 813.512ZM310.796 807.6C310.823 806.772 310.174 806.079 309.346 806.051C308.518 806.024 307.825 806.673 307.798 807.501L310.796 807.6ZM307.992 801.514C307.965 802.342 308.615 803.035 309.443 803.061C310.271 803.088 310.964 802.438 310.99 801.61L307.992 801.514ZM311.176 795.612C311.202 794.784 310.551 794.092 309.723 794.067C308.895 794.042 308.203 794.693 308.178 795.521L311.176 795.612ZM308.356 789.52C308.332 790.348 308.984 791.039 309.812 791.063C310.64 791.087 311.331 790.435 311.355 789.607L308.356 789.52ZM311.526 783.596C311.549 782.768 310.897 782.078 310.069 782.055C309.24 782.032 308.55 782.684 308.527 783.512L311.526 783.596ZM308.691 777.513C308.669 778.341 309.322 779.031 310.15 779.053C310.978 779.075 311.667 778.421 311.689 777.593L308.691 777.513ZM311.845 771.597C311.866 770.769 311.212 770.08 310.383 770.059C309.555 770.038 308.867 770.693 308.846 771.521L311.845 771.597ZM308.994 765.522C308.974 766.351 309.629 767.038 310.458 767.058C311.286 767.078 311.973 766.423 311.993 765.595L308.994 765.522ZM312.134 759.586C312.153 758.758 311.497 758.071 310.669 758.052C309.841 758.034 309.154 758.69 309.135 759.518L312.134 759.586ZM309.268 753.508C309.251 754.337 309.907 755.023 310.736 755.041C311.564 755.058 312.25 754.402 312.268 753.573L309.268 753.508ZM312.394 747.578C312.411 746.75 311.753 746.065 310.925 746.048C310.097 746.031 309.411 746.689 309.394 747.517L312.394 747.578ZM309.513 741.52C309.497 742.348 310.156 743.033 310.984 743.049C311.812 743.064 312.497 742.406 312.513 741.578L309.513 741.52ZM312.625 735.572C312.64 734.744 311.98 734.06 311.152 734.045C310.324 734.03 309.64 734.69 309.625 735.518L312.625 735.572ZM309.73 729.511C309.716 730.339 310.376 731.022 311.205 731.036C312.033 731.05 312.716 730.39 312.73 729.561L309.73 729.511ZM312.827 723.557C312.841 722.729 312.18 722.047 311.351 722.034C310.523 722.021 309.841 722.682 309.828 723.51L312.827 723.557ZM309.919 717.514C309.907 718.342 310.568 719.024 311.397 719.036C312.225 719.048 312.906 718.386 312.918 717.558L309.919 717.514ZM313.002 711.554C313.014 710.726 312.351 710.045 311.523 710.034C310.694 710.023 310.014 710.685 310.003 711.514L313.002 711.554ZM310.08 705.509C310.07 706.338 310.733 707.017 311.561 707.028C312.39 707.038 313.07 706.375 313.08 705.546L310.08 705.509ZM313.15 699.534C313.16 698.706 312.496 698.027 311.667 698.018C310.839 698.009 310.16 698.673 310.151 699.501L313.15 699.534ZM310.214 693.505C310.206 694.334 310.871 695.012 311.699 695.02C312.528 695.029 313.206 694.364 313.214 693.536L310.214 693.505ZM313.271 687.533C313.279 686.705 312.613 686.027 311.785 686.02C310.957 686.012 310.279 686.678 310.272 687.506L313.271 687.533ZM310.322 681.504C310.316 682.332 310.982 683.009 311.81 683.016C312.639 683.022 313.316 682.356 313.322 681.528L310.322 681.504ZM313.366 675.519C313.372 674.69 312.705 674.014 311.877 674.009C311.048 674.003 310.372 674.67 310.367 675.498L313.366 675.519ZM310.404 669.496C310.4 670.324 311.067 671 311.896 671.004C312.724 671.009 313.4 670.341 313.404 669.513L310.404 669.496ZM313.436 663.511C313.44 662.683 312.771 662.008 311.943 662.004C311.114 662 310.44 662.669 310.436 663.497L313.436 663.511ZM310.461 657.496C310.458 658.324 311.127 658.998 311.955 659.002C312.784 659.005 313.458 658.335 313.461 657.507L310.461 657.496ZM313.48 651.5C313.482 650.672 312.812 649.999 311.984 649.996C311.155 649.994 310.482 650.664 310.48 651.492L313.48 651.5ZM310.492 645.487C310.491 646.315 311.162 646.988 311.99 646.989C312.819 646.99 313.491 646.32 313.492 645.492L310.492 645.487ZM313.499 639.489C313.499 638.661 312.828 637.989 312 637.988C311.171 637.988 310.499 638.659 310.499 639.487L313.499 639.489ZM310.499 633.487C310.5 634.315 311.172 634.986 312 634.986C312.828 634.986 313.5 634.314 313.499 633.485L310.499 633.487ZM313.494 627.48C313.493 626.652 312.82 625.981 311.992 625.982C311.163 625.983 310.493 626.656 310.494 627.484L313.494 627.48ZM310.482 621.481C310.484 622.309 311.157 622.979 311.986 622.977C312.814 622.975 313.484 622.302 313.482 621.473L310.482 621.481ZM313.465 615.467C313.462 614.639 312.788 613.97 311.959 613.973C311.131 613.975 310.462 614.649 310.465 615.478L313.465 615.467ZM310.441 609.477C310.445 610.305 311.119 610.974 311.948 610.97C312.776 610.967 313.445 610.292 313.441 609.464L310.441 609.477ZM313.412 603.459C313.407 602.631 312.732 601.963 311.904 601.967C311.075 601.972 310.407 602.647 310.412 603.475L313.412 603.459ZM310.377 597.473C310.382 598.301 311.058 598.969 311.886 598.963C312.715 598.958 313.382 598.282 313.377 597.454L310.377 597.473ZM313.336 591.448C313.33 590.62 312.653 589.953 311.825 589.959C310.997 589.965 310.33 590.642 310.336 591.47L313.336 591.448ZM310.289 585.468C310.296 586.296 310.973 586.962 311.802 586.956C312.63 586.949 313.296 586.272 313.289 585.443L310.289 585.468ZM313.237 579.439C313.229 578.61 312.552 577.945 311.723 577.952C310.895 577.96 310.23 578.638 310.237 579.466L313.237 579.439ZM310.179 573.464C310.188 574.293 310.866 574.957 311.694 574.949C312.523 574.941 313.188 574.262 313.179 573.434L310.179 573.464ZM313.116 567.43C313.107 566.601 312.428 565.937 311.599 565.946C310.771 565.955 310.107 566.634 310.116 567.463L313.116 567.43ZM310.047 561.461C310.057 562.289 310.737 562.953 311.565 562.943C312.393 562.933 313.057 562.253 313.047 561.425L310.047 561.461ZM312.972 555.419C312.962 554.591 312.282 553.928 311.453 553.939C310.625 553.949 309.962 554.63 309.973 555.458L312.972 555.419ZM309.893 549.456C309.904 550.284 310.585 550.946 311.413 550.935C312.242 550.924 312.904 550.243 312.893 549.415L309.893 549.456ZM312.807 543.411C312.795 542.582 312.114 541.921 311.285 541.933C310.457 541.945 309.795 542.626 309.808 543.455L312.807 543.411ZM309.717 537.455C309.73 538.283 310.412 538.944 311.24 538.931C312.069 538.919 312.73 538.237 312.717 537.408L309.717 537.455ZM312.621 531.403C312.607 530.575 311.925 529.914 311.096 529.928C310.268 529.941 309.608 530.624 309.621 531.452L312.621 531.403ZM309.52 525.449C309.534 526.277 310.217 526.937 311.046 526.923C311.874 526.908 312.534 526.225 312.519 525.397L309.52 525.449ZM312.413 519.393C312.398 518.565 311.714 517.905 310.886 517.92C310.058 517.935 309.398 518.619 309.413 519.447L312.413 519.393ZM309.302 513.448C309.318 514.276 310.002 514.935 310.83 514.919C311.658 514.903 312.317 514.219 312.301 513.391L309.302 513.448ZM312.185 507.39C312.168 506.562 311.483 505.903 310.655 505.92C309.827 505.936 309.169 506.621 309.185 507.449L312.185 507.39ZM309.063 501.444C309.08 502.273 309.766 502.93 310.594 502.913C311.422 502.896 312.08 502.21 312.062 501.382L309.063 501.444ZM311.935 495.377C311.918 494.549 311.232 493.892 310.403 493.91C309.575 493.927 308.918 494.613 308.936 495.442L311.935 495.377ZM308.804 489.442C308.823 490.27 309.509 490.926 310.337 490.908C311.166 490.889 311.822 490.203 311.803 489.375L308.804 489.442ZM311.666 483.375C311.647 482.547 310.96 481.891 310.132 481.91C309.304 481.93 308.648 482.617 308.667 483.445L311.666 483.375ZM308.525 477.443C308.545 478.271 309.233 478.926 310.061 478.906C310.889 478.886 311.544 478.199 311.524 477.371L308.525 477.443ZM311.377 471.364C311.356 470.536 310.668 469.881 309.84 469.902C309.012 469.922 308.357 470.61 308.378 471.438L311.377 471.364ZM308.226 465.437C308.247 466.265 308.936 466.92 309.764 466.898C310.592 466.877 311.246 466.188 311.225 465.36L308.226 465.437ZM311.068 459.36C311.046 458.532 310.357 457.879 309.529 457.901C308.701 457.923 308.047 458.612 308.069 459.44L311.068 459.36ZM307.908 453.446C307.93 454.274 308.62 454.927 309.448 454.904C310.276 454.882 310.929 454.192 310.907 453.364L307.908 453.446ZM310.74 447.354C310.717 446.526 310.026 445.874 309.198 445.897C308.37 445.92 307.718 446.61 307.741 447.439L310.74 447.354ZM307.57 441.435C307.594 442.264 308.285 442.915 309.113 442.891C309.941 442.868 310.593 442.177 310.569 441.349L307.57 441.435ZM310.393 435.348C310.368 434.52 309.677 433.868 308.849 433.893C308.021 433.918 307.369 434.609 307.394 435.437L310.393 435.348ZM307.213 429.443C307.239 430.271 307.93 430.922 308.758 430.897C309.586 430.871 310.237 430.18 310.212 429.352L307.213 429.443ZM310.027 423.349C310.001 422.521 309.308 421.871 308.48 421.897C307.652 421.923 307.002 422.615 307.028 423.443L310.027 423.349ZM306.838 417.437C306.864 418.265 307.557 418.915 308.385 418.888C309.213 418.862 309.863 418.169 309.836 417.341L306.838 417.437ZM309.641 411.338C309.614 410.51 308.921 409.861 308.093 409.888C307.265 409.915 306.616 410.609 306.643 411.437L309.641 411.338ZM306.444 405.442C306.472 406.27 307.166 406.918 307.993 406.89C308.821 406.863 309.47 406.169 309.442 405.341L306.444 405.442ZM309.239 399.349C309.21 398.521 308.516 397.873 307.688 397.902C306.86 397.93 306.212 398.624 306.24 399.452L309.239 399.349ZM306.032 393.443C306.061 394.271 306.756 394.918 307.583 394.889C308.411 394.86 309.059 394.166 309.03 393.338L306.032 393.443ZM308.817 387.332C308.787 386.504 308.092 385.857 307.264 385.887C306.436 385.917 305.789 386.612 305.819 387.44L308.817 387.332ZM305.601 381.443C305.632 382.271 306.327 382.917 307.155 382.887C307.983 382.857 308.63 382.161 308.599 381.333L305.601 381.443ZM308.378 375.341C308.347 374.513 307.651 373.867 306.823 373.898C305.995 373.929 305.349 374.625 305.38 375.453L308.378 375.341ZM305.154 369.454C305.185 370.281 305.882 370.927 306.71 370.895C307.538 370.864 308.183 370.167 308.152 369.339L305.154 369.454ZM307.92 363.331C307.888 362.503 307.191 361.858 306.363 361.89C305.536 361.922 304.891 362.619 304.923 363.447L307.92 363.331ZM304.688 357.448C304.72 358.275 305.418 358.92 306.246 358.887C307.074 358.854 307.718 358.157 307.685 357.329L304.688 357.448ZM307.446 351.335C307.413 350.507 306.715 349.863 305.887 349.896C305.059 349.93 304.415 350.628 304.449 351.456L307.446 351.335ZM304.205 345.47C304.239 346.297 304.938 346.941 305.766 346.907C306.593 346.873 307.237 346.174 307.203 345.347L304.205 345.47ZM306.954 339.334C306.92 338.506 306.221 337.863 305.393 337.898C304.565 337.932 303.922 338.631 303.957 339.459L306.954 339.334ZM303.704 333.456C303.739 334.284 304.439 334.926 305.267 334.891C306.094 334.856 306.737 334.157 306.702 333.329L303.704 333.456ZM306.445 327.333C306.41 326.505 305.71 325.863 304.882 325.899C304.054 325.934 303.412 326.634 303.448 327.462L306.445 327.333ZM303.188 321.476C303.224 322.304 303.924 322.945 304.752 322.909C305.58 322.873 306.221 322.173 306.185 321.345L303.188 321.476ZM305.92 315.342C305.883 314.515 305.182 313.874 304.355 313.911C303.527 313.947 302.886 314.648 302.923 315.476L305.92 315.342ZM302.653 309.469C302.691 310.297 303.392 310.937 304.219 310.9C305.047 310.863 305.688 310.161 305.65 309.334L302.653 309.469ZM305.377 303.335C305.339 302.507 304.637 301.867 303.81 301.905C302.982 301.943 302.342 302.645 302.38 303.472L305.377 303.335ZM302.103 297.485C302.141 298.312 302.844 298.952 303.671 298.913C304.499 298.875 305.138 298.172 305.1 297.345L302.103 297.485ZM304.819 291.356C304.779 290.529 304.077 289.89 303.249 289.929C302.422 289.968 301.783 290.671 301.822 291.498L304.819 291.356ZM301.536 285.487C301.575 286.315 302.278 286.953 303.106 286.914C303.933 286.874 304.572 286.171 304.532 285.344L301.536 285.487ZM304.242 279.341C304.202 278.514 303.499 277.875 302.671 277.916C301.844 277.956 301.205 278.659 301.246 279.487L304.242 279.341ZM300.952 273.497C300.993 274.324 301.697 274.962 302.524 274.921C303.352 274.88 303.989 274.176 303.949 273.349L300.952 273.497ZM303.652 267.368C303.61 266.54 302.906 265.903 302.079 265.944C301.251 265.986 300.614 266.69 300.655 267.517L303.652 267.368ZM300.353 261.51C300.395 262.338 301.1 262.974 301.927 262.932C302.754 262.89 303.391 262.186 303.349 261.358L300.353 261.51ZM303.043 255.352C303.001 254.525 302.295 253.888 301.468 253.931C300.641 253.973 300.004 254.678 300.047 255.506L303.043 255.352ZM299.737 249.513C299.78 250.34 300.486 250.976 301.313 250.933C302.141 250.89 302.776 250.184 302.733 249.357L299.737 249.513ZM302.42 243.374C302.377 242.547 301.671 241.911 300.844 241.955C300.016 241.999 299.381 242.705 299.425 243.532L302.42 243.374ZM299.107 237.538C299.151 238.365 299.857 239 300.685 238.956C301.512 238.912 302.147 238.206 302.103 237.378L299.107 237.538ZM301.78 231.368C301.736 230.541 301.029 229.906 300.202 229.951C299.375 229.995 298.74 230.702 298.785 231.529L301.78 231.368ZM298.459 225.533C298.505 226.361 299.212 226.995 300.039 226.949C300.866 226.904 301.5 226.197 301.455 225.37L298.459 225.533ZM301.126 219.385C301.081 218.558 300.373 217.924 299.546 217.97C298.719 218.016 298.085 218.723 298.131 219.55L301.126 219.385ZM297.799 213.571C297.845 214.398 298.553 215.031 299.38 214.985C300.207 214.939 300.84 214.231 300.794 213.403L297.799 213.571ZM300.456 207.388C300.409 206.561 299.701 205.929 298.874 205.976C298.047 206.022 297.414 206.731 297.461 207.558L300.456 207.388ZM297.12 201.558C297.167 202.386 297.876 203.018 298.703 202.97C299.53 202.923 300.162 202.214 300.115 201.387L297.12 201.558ZM299.771 195.4C299.723 194.573 299.014 193.941 298.187 193.989C297.36 194.037 296.728 194.746 296.776 195.573L299.771 195.4ZM296.429 189.602C296.477 190.429 297.187 191.06 298.014 191.012C298.841 190.964 299.472 190.254 299.424 189.427L296.429 189.602ZM299.07 183.414C299.022 182.587 298.312 181.956 297.485 182.005C296.658 182.054 296.027 182.764 296.076 183.591L299.07 183.414ZM295.719 177.588C295.769 178.415 296.479 179.045 297.306 178.996C298.133 178.946 298.763 178.236 298.714 177.409L295.719 177.588ZM298.355 171.42C298.305 170.593 297.594 169.963 296.767 170.013C295.94 170.063 295.31 170.773 295.36 171.6L298.355 171.42ZM294.998 165.628C295.048 166.455 295.76 167.085 296.587 167.034C297.413 166.984 298.043 166.273 297.993 165.446L294.998 165.628ZM297.625 159.443C297.574 158.616 296.863 157.987 296.036 158.038C295.209 158.089 294.58 158.801 294.631 159.627L297.625 159.443ZM294.259 153.621C294.311 154.448 295.023 155.077 295.849 155.025C296.676 154.974 297.305 154.262 297.253 153.435L294.259 153.621ZM296.879 147.444C296.827 146.617 296.115 145.989 295.288 146.041C294.461 146.093 293.833 146.805 293.885 147.632L296.879 147.444ZM293.508 141.659C293.561 142.486 294.274 143.114 295.1 143.061C295.927 143.009 296.555 142.296 296.502 141.469L293.508 141.659ZM296.09 135.339C296.026 134.513 295.304 133.895 294.478 133.96C293.652 134.024 293.035 134.746 293.099 135.572L296.09 135.339ZM292.538 129.493C292.626 130.317 293.366 130.913 294.189 130.825C295.013 130.737 295.609 129.998 295.521 129.174L292.538 129.493ZM294.791 123.19C294.678 122.369 293.921 121.795 293.101 121.908C292.28 122.02 291.706 122.777 291.819 123.598L294.791 123.19ZM290.899 117.618C291.038 118.434 291.813 118.983 292.63 118.844C293.447 118.705 293.996 117.93 293.857 117.113L290.899 117.618ZM292.717 111.054C292.55 110.243 291.757 109.72 290.946 109.888C290.134 110.055 289.612 110.848 289.779 111.659L292.717 111.054ZM288.488 105.904C288.684 106.709 289.495 107.203 290.3 107.007C291.105 106.812 291.599 106 291.403 105.195L288.488 105.904ZM289.815 99.1693C289.588 98.3725 288.758 97.9104 287.961 98.1372C287.164 98.364 286.702 99.1937 286.929 99.9905L289.815 99.1693ZM285.176 94.2645C285.434 95.0515 286.282 95.48 287.069 95.2215C287.856 94.963 288.284 94.1154 288.026 93.3283L285.176 94.2645ZM285.999 87.5667C285.708 86.7912 284.843 86.3988 284.068 86.6902C283.292 86.9816 282.9 87.8465 283.191 88.622L285.999 87.5667ZM280.939 83.0087C281.264 83.7704 282.146 84.1238 282.908 83.7981C283.669 83.4724 284.023 82.5909 283.697 81.8292L280.939 83.0087ZM281.192 76.3204C280.832 75.5743 279.936 75.2614 279.19 75.6215C278.444 75.9815 278.131 76.8783 278.491 77.6243L281.192 76.3204ZM275.718 72.2163C276.114 72.944 277.024 73.213 277.752 72.8171C278.48 72.4212 278.749 71.5103 278.353 70.7826L275.718 72.2163ZM275.311 65.5028C274.879 64.7954 273.956 64.5715 273.249 65.0027C272.542 65.4339 272.318 66.3569 272.749 67.0642L275.311 65.5028ZM269.479 61.9956C269.946 62.6801 270.879 62.8565 271.564 62.3897C272.248 61.9229 272.425 60.9897 271.958 60.3053L269.479 61.9956ZM268.377 55.3341C267.875 54.6747 266.934 54.5467 266.275 55.0481C265.615 55.5496 265.487 56.4906 265.989 57.1501L268.377 55.3341ZM262.231 52.4681C262.766 53.1003 263.713 53.1789 264.345 52.6436C264.977 52.1082 265.056 51.1618 264.52 50.5295L262.231 52.4681ZM260.429 45.9471C259.862 45.3438 258.912 45.315 258.309 45.8828C257.706 46.4505 257.677 47.3998 258.245 48.0031L260.429 45.9471ZM254.024 43.7471C254.622 44.3199 255.572 44.299 256.145 43.7006C256.718 43.1021 256.697 42.1526 256.098 41.5798L254.024 43.7471ZM251.548 37.4453C250.921 36.9041 249.974 36.9739 249.433 37.6011C248.892 38.2284 248.961 39.1756 249.589 39.7167L251.548 37.4453ZM244.952 35.9177C245.606 36.4264 246.548 36.3088 247.057 35.655C247.566 35.0011 247.448 34.0587 246.794 33.55L244.952 35.9177ZM241.851 29.8968C241.173 29.421 240.237 29.5849 239.762 30.2631C239.286 30.9412 239.45 31.8767 240.128 32.3525L241.851 29.8968ZM235.136 29.0256C235.836 29.4686 236.763 29.2601 237.206 28.5601C237.649 27.86 237.44 26.9334 236.74 26.4905L235.136 29.0256ZM231.474 23.3272C230.755 22.9169 229.839 23.1677 229.428 23.8874C229.018 24.6071 229.269 25.5232 229.989 25.9334L231.474 23.3272ZM224.707 23.0758C225.444 23.454 226.348 23.163 226.726 22.4259C227.104 21.6889 226.813 20.7848 226.076 20.4066L224.707 23.0758ZM220.557 17.7215C219.805 17.3747 218.914 17.7035 218.567 18.4558C218.22 19.2082 218.549 20.0992 219.301 20.446L220.557 17.7215ZM213.791 18.0399C214.557 18.3563 215.434 17.9921 215.75 17.2264C216.066 16.4608 215.702 15.5836 214.937 15.2673L213.791 18.0399ZM209.225 13.0349C208.448 12.7479 207.586 13.1452 207.299 13.9224C207.012 14.6995 207.409 15.5621 208.186 15.8491L209.225 13.0349ZM202.502 13.8669C203.289 14.1257 204.137 13.6974 204.395 12.9105C204.654 12.1235 204.226 11.2757 203.439 11.017L202.502 13.8669ZM197.587 9.2042C196.792 8.9725 195.959 9.42945 195.727 10.2248C195.496 11.0202 195.953 11.8528 196.748 12.0845L197.587 9.2042ZM190.935 10.4936C191.737 10.6994 192.555 10.2158 192.761 9.41332C192.966 8.61088 192.483 7.7935 191.68 7.58765L190.935 10.4936ZM185.729 6.15856C184.92 5.97737 184.118 6.48581 183.937 7.29418C183.756 8.10255 184.264 8.90474 185.073 9.08593L185.729 6.15856ZM179.167 7.85261C179.98 8.01029 180.767 7.47883 180.925 6.66554C181.082 5.85226 180.551 5.06514 179.738 4.90745L179.167 7.85261ZM173.718 3.82659C172.901 3.69127 172.129 4.24412 171.994 5.06142C171.858 5.87872 172.411 6.65097 173.228 6.78629L173.718 3.82659ZM167.258 5.87808C168.079 5.9921 168.836 5.41935 168.95 4.59881C169.064 3.77826 168.491 3.02065 167.671 2.90663L167.258 5.87808ZM161.608 2.14089C160.785 2.04713 160.042 2.63839 159.948 3.46149C159.854 4.2846 160.446 5.02786 161.269 5.12162L161.608 2.14089ZM155.255 4.50856C156.08 4.583 156.81 3.97449 156.884 3.14942C156.959 2.32434 156.35 1.59514 155.525 1.5207L155.255 4.50856ZM149.438 1.04029C148.611 0.984231 147.896 1.60882 147.84 2.43535C147.784 3.26188 148.408 3.97736 149.235 4.03341L149.438 1.04029ZM143.195 3.68869C144.022 3.72717 144.724 3.08753 144.763 2.25999C144.801 1.43246 144.161 0.730412 143.334 0.691924L143.195 3.68869ZM137.237 0.470619C136.409 0.448877 135.72 1.10259 135.699 1.93074C135.677 2.75888 136.331 3.44784 137.159 3.46959L137.237 0.470619ZM131.102 3.36976C131.931 3.37544 132.607 2.70849 132.613 1.88008C132.618 1.05167 131.951 0.37551 131.123 0.369827L131.102 3.36976ZM125.032 0.384783C124.203 0.394428 123.539 1.07377 123.549 1.90214C123.559 2.73052 124.238 3.39422 125.066 3.38458L125.032 0.384783ZM119 3.50974C119.828 3.48531 120.479 2.79423 120.455 1.96616C120.43 1.13809 119.739 0.486616 118.911 0.511046L119 3.50974ZM112.841 0.742263C112.013 0.780806 111.374 1.4829 111.412 2.31043C111.451 3.13796 112.153 3.77756 112.98 3.73901L112.841 0.742263ZM106.904 4.07296C107.73 4.02067 108.358 3.30805 108.306 2.48128C108.254 1.6545 107.541 1.02665 106.714 1.07894L106.904 4.07296ZM100.681 1.50874C99.8553 1.57412 99.2388 2.2966 99.3042 3.12245C99.3696 3.94829 100.092 4.56477 100.918 4.49939L100.681 1.50874ZM94.8322 5.02937C95.6569 4.95107 96.262 4.21903 96.1837 3.39431C96.1054 2.56959 95.3734 1.9645 94.5487 2.0428L94.8322 5.02937ZM88.5033 2.66288C87.6799 2.75359 87.0859 3.49465 87.1766 4.3181C87.2673 5.14155 88.0084 5.73555 88.8318 5.64485L88.5033 2.66288ZM82.8134 6.35303C83.6355 6.25015 84.2184 5.50038 84.1156 4.67836C84.0127 3.85635 83.2629 3.27337 82.4409 3.37625L82.8134 6.35303ZM76.3662 4.1817C75.5457 4.29656 74.9738 5.05477 75.0886 5.87519C75.2035 6.69562 75.9617 7.26759 76.7821 7.15272L76.3662 4.1817ZM70.8494 8.02652C71.6681 7.89998 72.2292 7.13371 72.1027 6.315C71.9761 5.4963 71.2099 4.93518 70.3911 5.06172L70.8494 8.02652ZM64.3362 6.0423C63.5194 6.18064 62.9694 6.95492 63.1077 7.77172C63.2461 8.58851 64.0203 9.13852 64.8371 9.00018L64.3362 6.0423ZM58.8364 10.0614C59.6511 9.91115 60.1897 9.12894 60.0395 8.31424C59.8893 7.49955 59.1071 6.96088 58.2924 7.11109L58.8364 10.0614ZM52.302 8.26132C51.4897 8.4236 50.9627 9.21372 51.1249 10.0261C51.2872 10.8385 52.0773 11.3655 52.8897 11.2032L52.302 8.26132ZM46.9669 12.4339C47.7766 12.259 48.2912 11.4607 48.1163 10.651C47.9414 9.84125 47.1431 9.32664 46.3334 9.50158L46.9669 12.4339ZM40.3526 10.8469C39.546 11.0359 39.0453 11.8429 39.2343 12.6495C39.4233 13.4561 40.2304 13.9568 41.0369 13.7678L40.3526 10.8469ZM35.2865 15.1764C36.0889 14.9701 36.572 14.1524 36.3657 13.3501C36.1594 12.5478 35.3417 12.0646 34.5394 12.2709L35.2865 15.1764ZM2 1873.98C1.50616 1875.4 1.50622 1875.4 1.50628 1875.4C1.5063 1875.4 1.50637 1875.4 1.50642 1875.4C1.50651 1875.4 1.50663 1875.4 1.50675 1875.4C1.50701 1875.4 1.50732 1875.4 1.50769 1875.4C1.50844 1875.4 1.50941 1875.4 1.51062 1875.4C1.51303 1875.4 1.51638 1875.4 1.52064 1875.4C1.52917 1875.41 1.5414 1875.41 1.5573 1875.42C1.5891 1875.43 1.63557 1875.44 1.69648 1875.46C1.81832 1875.51 1.99795 1875.57 2.23356 1875.64C2.70476 1875.8 3.39993 1876.02 4.3045 1876.29L5.17633 1873.42C4.2927 1873.15 3.61765 1872.94 3.1657 1872.79C2.93973 1872.72 2.76955 1872.66 2.65696 1872.62C2.60067 1872.6 2.55878 1872.59 2.53151 1872.58C2.51788 1872.58 2.50791 1872.57 2.50162 1872.57C2.49847 1872.57 2.49625 1872.57 2.49495 1872.57C2.4943 1872.57 2.49389 1872.57 2.4937 1872.57C2.49361 1872.57 2.49357 1872.57 2.49359 1872.57C2.49361 1872.57 2.49363 1872.57 2.49367 1872.57C2.49369 1872.57 2.49373 1872.57 2.49374 1872.57C2.49379 1872.57 2.49384 1872.57 2 1873.98ZM10.1257 1877.94C11.8436 1878.39 13.796 1878.88 15.9625 1879.38L16.6425 1876.46C14.5058 1875.96 12.5817 1875.48 10.8907 1875.04L10.1257 1877.94ZM21.8565 1880.67C23.7188 1881.05 25.6894 1881.43 27.7601 1881.8L28.2866 1878.85C26.242 1878.48 24.2963 1878.11 22.4581 1877.73L21.8565 1880.67ZM33.6785 1882.78C35.5944 1883.07 37.5775 1883.35 39.6226 1883.61L40.0015 1880.64C37.9818 1880.38 36.0233 1880.1 34.1312 1879.82L33.6785 1882.78ZM45.5995 1884.3C47.5574 1884.5 49.5625 1884.68 51.6108 1884.83L51.8389 1881.84C49.8167 1881.69 47.837 1881.51 45.9036 1881.31L45.5995 1884.3ZM57.604 1885.21C59.5659 1885.31 61.5615 1885.39 63.5877 1885.44L63.6597 1882.44C61.6605 1882.39 59.6912 1882.31 57.7548 1882.22L57.604 1885.21ZM69.6079 1885.5C71.5946 1885.49 73.6065 1885.46 75.641 1885.4L75.5481 1882.4C73.5422 1882.46 71.5582 1882.49 69.5987 1882.5L69.6079 1885.5ZM81.6198 1885.13C83.6039 1885.01 85.6064 1884.86 87.6248 1884.68L87.3585 1881.69C85.3701 1881.87 83.3971 1882.02 81.4416 1882.13L81.6198 1885.13ZM93.6189 1884.06C95.588 1883.82 97.5698 1883.55 99.5622 1883.25L99.1126 1880.28C97.1517 1880.58 95.2008 1880.84 93.262 1881.08L93.6189 1884.06ZM105.512 1882.25C107.468 1881.89 109.433 1881.49 111.403 1881.06L110.761 1878.13C108.823 1878.56 106.891 1878.94 104.967 1879.3L105.512 1882.25ZM117.257 1879.67C119.195 1879.18 121.138 1878.65 123.083 1878.08L122.24 1875.2C120.329 1875.76 118.421 1876.28 116.516 1876.77L117.257 1879.67ZM128.811 1876.29C130.71 1875.66 132.609 1874.99 134.508 1874.28L133.459 1871.47C131.595 1872.17 129.73 1872.82 127.866 1873.44L128.811 1876.29ZM140.098 1872.08C141.941 1871.31 143.782 1870.5 145.619 1869.66L144.362 1866.93C142.56 1867.76 140.754 1868.56 138.945 1869.31L140.098 1872.08ZM151.043 1867.03C152.818 1866.12 154.588 1865.18 156.351 1864.19L154.887 1861.57C153.158 1862.54 151.423 1863.47 149.682 1864.35L151.043 1867.03ZM161.568 1861.14C163.263 1860.11 164.95 1859.03 166.627 1857.91L164.964 1855.42C163.319 1856.51 161.665 1857.57 160.003 1858.58L161.568 1861.14ZM171.602 1854.45C173.205 1853.29 174.799 1852.09 176.383 1850.85L174.53 1848.49C172.977 1849.71 171.414 1850.89 169.842 1852.02L171.602 1854.45ZM181.081 1847.01C182.586 1845.73 184.079 1844.41 185.561 1843.05L183.533 1840.84C182.079 1842.17 180.614 1843.47 179.138 1844.72L181.081 1847.01ZM189.956 1838.86C191.358 1837.48 192.747 1836.05 194.124 1834.59L191.938 1832.53C190.586 1833.97 189.222 1835.37 187.846 1836.73L189.956 1838.86ZM198.195 1830.09C199.494 1828.61 200.779 1827.09 202.05 1825.53L199.725 1823.63C198.475 1825.17 197.212 1826.66 195.937 1828.12L198.195 1830.09ZM205.787 1820.78C206.985 1819.2 208.169 1817.59 209.339 1815.94L206.892 1814.21C205.741 1815.83 204.576 1817.41 203.398 1818.96L205.787 1820.78ZM212.735 1810.99C213.839 1809.33 214.928 1807.63 216.003 1805.89L213.452 1804.31C212.394 1806.02 211.321 1807.69 210.235 1809.33L212.735 1810.99ZM219.062 1800.79C220.068 1799.05 221.06 1797.28 222.037 1795.48L219.4 1794.05C218.436 1795.83 217.458 1797.57 216.467 1799.28L219.062 1800.79ZM224.798 1790.22C225.695 1788.45 226.579 1786.66 227.448 1784.83L224.739 1783.54C223.88 1785.34 223.008 1787.12 222.123 1788.86L224.798 1790.22ZM229.98 1779.32C230.773 1777.53 231.554 1775.72 232.321 1773.88L229.551 1772.73C228.793 1774.55 228.022 1776.34 227.239 1778.1L229.98 1779.32ZM234.581 1768.27C234.951 1767.32 235.318 1766.36 235.681 1765.39L232.873 1764.34C232.514 1765.29 232.151 1766.24 231.786 1767.18L234.581 1768.27ZM235.681 1765.39C236.019 1764.49 236.35 1763.58 236.674 1762.64L233.84 1761.66C233.524 1762.57 233.202 1763.46 232.873 1764.34L235.681 1765.39ZM238.526 1756.86C239.078 1754.99 239.605 1753.06 240.108 1751.08L237.2 1750.34C236.706 1752.29 236.189 1754.18 235.648 1756.01L238.526 1756.86ZM241.502 1745.17C241.919 1743.26 242.317 1741.31 242.695 1739.32L239.747 1738.76C239.374 1740.72 238.982 1742.65 238.571 1744.53L241.502 1745.17ZM243.746 1733.37C244.065 1731.43 244.368 1729.45 244.655 1727.44L241.685 1727.01C241.401 1729.01 241.102 1730.96 240.786 1732.88L243.746 1733.37ZM245.443 1721.5C245.687 1719.53 245.917 1717.52 246.133 1715.48L243.15 1715.16C242.935 1717.18 242.707 1719.18 242.465 1721.14L245.443 1721.5ZM246.714 1709.58C246.895 1707.59 247.064 1705.58 247.222 1703.54L244.231 1703.31C244.074 1705.33 243.906 1707.33 243.726 1709.31L246.714 1709.58ZM247.642 1697.61C247.77 1695.63 247.888 1693.64 247.996 1691.63L245 1691.47C244.893 1693.47 244.776 1695.45 244.649 1697.41L247.642 1697.61ZM248.287 1685.58C248.372 1683.63 248.447 1681.65 248.514 1679.67L245.516 1679.56C245.449 1681.54 245.374 1683.51 245.29 1685.45L248.287 1685.58ZM248.69 1673.65C248.739 1671.67 248.781 1669.66 248.814 1667.65L245.815 1667.6C245.781 1669.61 245.74 1671.6 245.691 1673.58L248.69 1673.65ZM248.891 1661.7C248.91 1659.71 248.921 1657.7 248.926 1655.68L245.926 1655.67C245.921 1657.69 245.91 1659.69 245.891 1661.68L248.891 1661.7ZM248.919 1649.7C248.911 1647.73 248.896 1645.74 248.875 1643.74L245.876 1643.77C245.896 1645.76 245.911 1647.74 245.919 1649.71L248.919 1649.7ZM248.795 1637.72C248.763 1635.74 248.726 1633.75 248.683 1631.75L245.684 1631.81C245.726 1633.81 245.764 1635.79 245.796 1637.77L248.795 1637.72ZM248.54 1625.79C248.487 1623.8 248.429 1621.79 248.366 1619.78L245.368 1619.87C245.43 1621.88 245.488 1623.88 245.541 1625.87L248.54 1625.79ZM248.166 1613.81C248.095 1611.83 248.02 1609.84 247.94 1607.85L244.943 1607.97C245.022 1609.96 245.097 1611.94 245.168 1613.91L248.166 1613.81ZM247.689 1601.85C247.602 1599.86 247.51 1597.87 247.415 1595.87L244.418 1596.01C244.514 1598.01 244.605 1600 244.692 1601.98L247.689 1601.85ZM247.121 1589.92C247.019 1587.93 246.913 1585.93 246.804 1583.94L243.808 1584.1C243.917 1586.09 244.023 1588.09 244.124 1590.07L247.121 1589.92ZM246.468 1577.95C246.353 1575.97 246.236 1573.99 246.115 1572L243.121 1572.18C243.241 1574.17 243.359 1576.15 243.473 1578.12L246.468 1577.95ZM245.744 1566.03C245.617 1564.04 245.487 1562.04 245.355 1560.04L242.361 1560.24C242.494 1562.24 242.623 1564.23 242.75 1566.22L245.744 1566.03ZM244.953 1554.09C244.816 1552.11 244.677 1550.12 244.535 1548.13L241.543 1548.34C241.684 1550.33 241.823 1552.32 241.96 1554.3L244.953 1554.09ZM244.103 1542.16C243.957 1540.17 243.809 1538.18 243.658 1536.2L240.667 1536.42C240.817 1538.41 240.965 1540.39 241.111 1542.38L244.103 1542.16ZM243.202 1530.24C243.047 1528.25 242.891 1526.26 242.733 1524.28L239.743 1524.52C239.9 1526.5 240.057 1528.49 240.211 1530.47L243.202 1530.24ZM242.254 1518.32C242.092 1516.33 241.929 1514.34 241.764 1512.36L238.774 1512.6C238.939 1514.59 239.102 1516.57 239.263 1518.56L242.254 1518.32ZM241.265 1506.4C241.097 1504.42 240.928 1502.43 240.758 1500.45L237.769 1500.7C237.939 1502.69 238.108 1504.67 238.276 1506.66L241.265 1506.4ZM240.241 1494.48C240.067 1492.5 239.893 1490.51 239.717 1488.53L236.729 1488.8C236.904 1490.78 237.079 1492.76 237.252 1494.74L240.241 1494.48ZM239.188 1482.59C239.01 1480.6 238.83 1478.61 238.65 1476.62L235.662 1476.89C235.842 1478.88 236.022 1480.87 236.2 1482.86L239.188 1482.59ZM238.107 1470.67C237.926 1468.69 237.744 1466.71 237.562 1464.74L234.575 1465.01C234.757 1466.99 234.939 1468.96 235.12 1470.94L238.107 1470.67ZM237.008 1458.76C236.823 1456.77 236.637 1454.79 236.452 1452.81L233.465 1453.09C233.65 1455.07 233.836 1457.05 234.021 1459.04L237.008 1458.76ZM235.896 1446.88C235.708 1444.89 235.52 1442.9 235.333 1440.92L232.346 1441.2C232.534 1443.18 232.721 1445.17 232.909 1447.16L235.896 1446.88ZM234.769 1434.95C234.581 1432.97 234.394 1431 234.208 1429.03L231.221 1429.31C231.408 1431.28 231.595 1433.25 231.782 1435.23L234.769 1434.95ZM233.643 1423.07C233.454 1421.07 233.265 1419.08 233.078 1417.1L230.091 1417.38C230.278 1419.36 230.467 1421.36 230.657 1423.36L233.643 1423.07ZM232.518 1411.18C232.33 1409.19 232.143 1407.2 231.958 1405.23L228.971 1405.51C229.157 1407.48 229.344 1409.47 229.532 1411.46L232.518 1411.18ZM231.399 1399.25C231.214 1397.27 231.031 1395.3 230.85 1393.34L227.863 1393.61C228.044 1395.57 228.227 1397.54 228.412 1399.53L231.399 1399.25ZM230.302 1387.37C230.118 1385.37 229.937 1383.37 229.759 1381.4L226.771 1381.67C226.95 1383.65 227.131 1385.64 227.314 1387.65L230.302 1387.37ZM229.231 1375.5C229.052 1373.49 228.876 1371.49 228.704 1369.51L225.715 1369.77C225.888 1371.75 226.064 1373.75 226.243 1375.77L229.231 1375.5ZM228.19 1363.55C228.022 1361.57 227.857 1359.62 227.697 1357.68L224.707 1357.93C224.868 1359.87 225.032 1361.83 225.201 1363.8L228.19 1363.55ZM227.203 1351.63C227.043 1349.64 226.888 1347.67 226.737 1345.71L223.746 1345.94C223.897 1347.9 224.053 1349.88 224.213 1351.87L227.203 1351.63ZM226.288 1339.76C226.139 1337.74 225.996 1335.74 225.859 1333.77L222.866 1333.98C223.003 1335.95 223.147 1337.95 223.296 1339.98L226.288 1339.76ZM225.466 1327.92C225.333 1325.86 225.207 1323.84 225.089 1321.85L222.094 1322.02C222.212 1324.02 222.338 1326.05 222.472 1328.11L225.466 1327.92ZM224.76 1315.97C224.652 1313.92 224.554 1311.91 224.466 1309.93L221.469 1310.07C221.557 1312.05 221.656 1314.07 221.765 1316.13L224.76 1315.97ZM224.229 1304.04C224.156 1301.98 224.096 1299.97 224.049 1298.02L221.05 1298.09C221.097 1300.05 221.157 1302.08 221.231 1304.15L224.229 1304.04ZM223.95 1292.15C223.93 1290.06 223.928 1288.04 223.946 1286.1L220.946 1286.07C220.928 1288.04 220.93 1290.07 220.95 1292.18L223.95 1292.15ZM224.067 1280.26C224.137 1278.16 224.235 1276.17 224.363 1274.3L221.37 1274.1C221.239 1276.01 221.139 1278.03 221.068 1280.16L224.067 1280.26ZM224.917 1268.37C225.035 1267.42 225.164 1266.5 225.303 1265.64L222.342 1265.16C222.195 1266.07 222.062 1267.02 221.94 1268L224.917 1268.37ZM225.303 1265.64C225.471 1264.6 225.639 1263.57 225.807 1262.55L222.847 1262.06C222.678 1263.08 222.51 1264.12 222.342 1265.16L225.303 1265.64ZM226.818 1256.58C227.158 1254.62 227.499 1252.7 227.841 1250.82L224.89 1250.29C224.546 1252.17 224.204 1254.1 223.862 1256.07L226.818 1256.58ZM228.974 1244.78C229.353 1242.81 229.732 1240.9 230.112 1239.04L227.173 1238.44C226.79 1240.31 226.409 1242.24 226.029 1244.21L228.974 1244.78ZM231.373 1233.04C231.799 1231.08 232.225 1229.18 232.652 1227.34L229.729 1226.66C229.299 1228.52 228.87 1230.43 228.441 1232.41L231.373 1233.04ZM234.079 1221.38C234.57 1219.41 235.061 1217.51 235.553 1215.67L232.656 1214.89C232.159 1216.75 231.662 1218.67 231.167 1220.66L234.079 1221.38ZM237.169 1209.88C237.75 1207.88 238.332 1205.97 238.914 1204.13L236.055 1203.22C235.465 1205.08 234.876 1207.02 234.288 1209.04L237.169 1209.88ZM240.786 1198.51C241.465 1196.57 242.144 1194.73 242.824 1192.98L240.026 1191.89C239.335 1193.68 238.644 1195.55 237.955 1197.52L240.786 1198.51ZM245.09 1187.45C245.919 1185.53 246.747 1183.74 247.575 1182.04L244.879 1180.73C244.031 1182.46 243.184 1184.3 242.338 1186.25L245.09 1187.45ZM250.298 1176.79C251.296 1174.97 252.294 1173.26 253.291 1171.64L250.734 1170.07C249.714 1171.73 248.692 1173.48 247.668 1175.34L250.298 1176.79ZM256.513 1166.63C257.64 1164.94 258.765 1163.32 259.89 1161.7L257.43 1159.99C256.301 1161.61 255.163 1163.25 254.02 1164.96L256.513 1166.63ZM263.323 1156.77C264.44 1155.14 265.556 1153.47 266.667 1151.73L264.137 1150.12C263.05 1151.82 261.954 1153.46 260.848 1155.07L263.323 1156.77ZM269.814 1146.52C270.779 1144.83 271.739 1143.04 272.692 1141.13L270.008 1139.79C269.081 1141.65 268.147 1143.39 267.207 1145.04L269.814 1146.52ZM275.274 1135.6C276.044 1133.84 276.809 1131.97 277.568 1129.98L274.766 1128.91C274.023 1130.85 273.276 1132.68 272.524 1134.4L275.274 1135.6ZM279.608 1124.31C280.223 1122.49 280.833 1120.58 281.439 1118.58L278.567 1117.71C277.971 1119.68 277.37 1121.56 276.766 1123.35L279.608 1124.31ZM283.104 1112.76C283.621 1110.86 284.133 1108.88 284.642 1106.81L281.729 1106.09C281.226 1108.14 280.719 1110.1 280.209 1111.97L283.104 1112.76ZM286.002 1101.04C286.431 1099.13 286.857 1097.16 287.281 1095.11L284.343 1094.5C283.923 1096.53 283.5 1098.49 283.075 1100.38L286.002 1101.04ZM288.461 1089.19C288.827 1087.28 289.19 1085.32 289.551 1083.29L286.598 1082.76C286.239 1084.78 285.878 1086.73 285.515 1088.62L288.461 1089.19ZM290.579 1077.32C290.899 1075.39 291.217 1073.42 291.534 1071.39L288.569 1070.93C288.255 1072.95 287.938 1074.91 287.62 1076.83L290.579 1077.32ZM292.432 1065.45C292.721 1063.48 293.007 1061.47 293.292 1059.41L290.32 1059C290.037 1061.05 289.751 1063.06 289.464 1065.01L292.432 1065.45ZM294.08 1053.55C294.342 1051.56 294.601 1049.52 294.859 1047.44L291.882 1047.07C291.625 1049.15 291.366 1051.18 291.106 1053.16L294.08 1053.55ZM295.57 1041.57C295.8 1039.62 296.028 1037.64 296.256 1035.61L293.275 1035.28C293.048 1037.29 292.82 1039.27 292.59 1041.22L295.57 1041.57ZM296.934 1029.43C297.137 1027.53 297.34 1025.6 297.541 1023.64L294.557 1023.33C294.356 1025.29 294.154 1027.22 293.951 1029.11L296.934 1029.43ZM298.141 1017.66C298.34 1015.64 298.537 1013.58 298.734 1011.49L295.747 1011.21C295.551 1013.29 295.354 1015.35 295.155 1017.37L298.141 1017.66ZM299.271 1005.65C299.448 1003.7 299.623 1001.72 299.798 999.707L296.809 999.447C296.635 1001.45 296.46 1003.43 296.283 1005.38L299.271 1005.65ZM300.318 993.593C300.404 992.56 300.49 991.519 300.576 990.472L297.586 990.227C297.5 991.273 297.414 992.312 297.328 993.343L300.318 993.593ZM300.576 990.472C300.657 989.479 300.738 988.486 300.818 987.492L297.828 987.25C297.748 988.243 297.667 989.235 297.586 990.227L300.576 990.472ZM301.295 981.52C301.453 979.527 301.608 977.532 301.762 975.534L298.771 975.303C298.617 977.299 298.462 979.293 298.305 981.284L301.295 981.52ZM302.219 969.533C302.37 967.535 302.518 965.534 302.665 963.532L299.673 963.312C299.526 965.313 299.378 967.312 299.228 969.308L302.219 969.533ZM303.098 957.559C303.241 955.566 303.382 953.57 303.521 951.573L300.529 951.364C300.389 953.36 300.248 955.354 300.106 957.345L303.098 957.559ZM303.935 945.573C304.071 943.571 304.206 941.567 304.339 939.56L301.345 939.362C301.212 941.367 301.078 943.369 300.942 945.37L303.935 945.573ZM304.73 933.585C304.858 931.592 304.985 929.597 305.111 927.6L302.117 927.411C301.991 929.407 301.864 931.401 301.736 933.392L304.73 933.585ZM305.483 921.602C305.606 919.6 305.727 917.597 305.846 915.592L302.852 915.413C302.732 917.417 302.611 919.419 302.489 921.418L305.483 921.602ZM306.198 909.601C306.314 907.608 306.428 905.613 306.54 903.616L303.545 903.447C303.433 905.442 303.319 907.436 303.203 909.427L306.198 909.601ZM306.873 897.619C306.983 895.619 307.091 893.616 307.197 891.612L304.202 891.453C304.095 893.456 303.987 895.456 303.878 897.455L306.873 897.619ZM307.512 885.607C307.615 883.614 307.716 881.619 307.816 879.622L304.82 879.472C304.72 881.467 304.619 883.46 304.516 885.452L307.512 885.607ZM308.112 873.628C308.209 871.628 308.305 869.627 308.399 867.623L305.403 867.482C305.308 869.484 305.213 871.484 305.116 873.482L308.112 873.628ZM308.678 861.609C308.769 859.615 308.859 857.619 308.947 855.621L305.95 855.489C305.862 857.485 305.772 859.48 305.681 861.473L308.678 861.609ZM309.207 849.628C309.293 847.629 309.377 845.628 309.459 843.626L306.462 843.503C306.379 845.503 306.295 847.503 306.21 849.5L309.207 849.628ZM309.703 837.616C309.783 835.616 309.861 833.615 309.938 831.613L306.94 831.498C306.863 833.499 306.785 835.498 306.705 837.496L309.703 837.616ZM310.164 825.622C310.239 823.623 310.311 821.623 310.383 819.622L307.385 819.515C307.313 821.515 307.241 823.513 307.167 825.511L310.164 825.622ZM310.593 813.615C310.662 811.611 310.73 809.606 310.796 807.6L307.798 807.501C307.732 809.506 307.664 811.509 307.595 813.512L310.593 813.615ZM310.99 801.61C311.053 799.612 311.116 797.612 311.176 795.612L308.178 795.521C308.117 797.52 308.055 799.518 307.992 801.514L310.99 801.61ZM311.355 789.607C311.413 787.605 311.47 785.601 311.526 783.596L308.527 783.512C308.472 785.516 308.415 787.519 308.356 789.52L311.355 789.607ZM311.689 777.593C311.743 775.595 311.794 773.597 311.845 771.597L308.846 771.521C308.795 773.519 308.744 775.517 308.691 777.513L311.689 777.593ZM311.993 765.595C312.041 763.593 312.088 761.59 312.134 759.586L309.135 759.518C309.089 761.52 309.042 763.522 308.994 765.522L311.993 765.595ZM312.268 753.573C312.311 751.576 312.353 749.577 312.394 747.578L309.394 747.517C309.354 749.515 309.312 751.512 309.268 753.508L312.268 753.573ZM312.513 741.578C312.551 739.577 312.589 737.575 312.625 735.572L309.625 735.518C309.589 737.519 309.552 739.52 309.513 741.52L312.513 741.578ZM312.73 729.561C312.763 727.561 312.796 725.559 312.827 723.557L309.828 723.51C309.796 725.511 309.764 727.511 309.73 729.511L312.73 729.561ZM312.918 717.558C312.947 715.557 312.976 713.556 313.002 711.554L310.003 711.514C309.976 713.514 309.948 715.515 309.919 717.514L312.918 717.558ZM313.08 705.546C313.104 703.543 313.128 701.539 313.15 699.534L310.151 699.501C310.128 701.504 310.105 703.507 310.08 705.509L313.08 705.546ZM313.214 693.536C313.234 691.535 313.253 689.535 313.271 687.533L310.272 687.506C310.254 689.507 310.235 691.506 310.214 693.505L313.214 693.536ZM313.322 681.528C313.338 679.525 313.353 677.522 313.366 675.519L310.367 675.498C310.353 677.501 310.338 679.503 310.322 681.504L313.322 681.528ZM313.404 669.513C313.416 667.513 313.426 665.512 313.436 663.511L310.436 663.497C310.426 665.497 310.416 667.497 310.404 669.496L313.404 669.513ZM313.461 657.507C313.468 655.505 313.475 653.503 313.48 651.5L310.48 651.492C310.475 653.494 310.468 655.495 310.461 657.496L313.461 657.507ZM313.492 645.492C313.496 643.491 313.498 641.49 313.499 639.489L310.499 639.487C310.498 641.487 310.496 643.487 310.492 645.487L313.492 645.492ZM313.499 633.485C313.499 631.484 313.497 629.482 313.494 627.48L310.494 627.484C310.497 629.485 310.499 631.486 310.499 633.487L313.499 633.485ZM313.482 621.473C313.477 619.472 313.471 617.47 313.465 615.467L310.465 615.478C310.471 617.479 310.477 619.48 310.482 621.481L313.482 621.473ZM313.441 609.464C313.432 607.462 313.423 605.461 313.412 603.459L310.412 603.475C310.423 605.476 310.432 607.476 310.441 609.477L313.441 609.464ZM313.377 597.454C313.364 595.452 313.35 593.45 313.336 591.448L310.336 591.47C310.351 593.471 310.364 595.472 310.377 597.473L313.377 597.454ZM313.289 585.443C313.273 583.442 313.255 581.44 313.237 579.439L310.237 579.466C310.256 581.467 310.273 583.467 310.289 585.468L313.289 585.443ZM313.179 573.434C313.159 571.432 313.138 569.431 313.116 567.43L310.116 567.463C310.138 569.463 310.159 571.464 310.179 573.464L313.179 573.434ZM313.047 561.425C313.023 559.423 312.998 557.421 312.972 555.419L309.973 555.458C309.998 557.459 310.023 559.46 310.047 561.461L313.047 561.425ZM312.893 549.415C312.865 547.413 312.837 545.412 312.807 543.411L309.808 543.455C309.837 545.455 309.865 547.455 309.893 549.456L312.893 549.415ZM312.717 537.408C312.686 535.406 312.654 533.404 312.621 531.403L309.621 531.452C309.654 533.453 309.686 535.454 309.717 537.455L312.717 537.408ZM312.519 525.397C312.485 523.395 312.449 521.394 312.413 519.393L309.413 519.447C309.45 521.448 309.485 523.448 309.52 525.449L312.519 525.397ZM312.301 513.391C312.263 511.39 312.224 509.39 312.185 507.39L309.185 507.449C309.225 509.449 309.264 511.448 309.302 513.448L312.301 513.391ZM312.062 501.382C312.021 499.38 311.979 497.378 311.935 495.377L308.936 495.442C308.979 497.442 309.022 499.443 309.063 501.444L312.062 501.382ZM311.803 489.375C311.758 487.374 311.713 485.374 311.666 483.375L308.667 483.445C308.714 485.443 308.759 487.442 308.804 489.442L311.803 489.375ZM311.524 477.371C311.476 475.368 311.427 473.365 311.377 471.364L308.378 471.438C308.428 473.439 308.477 475.441 308.525 477.443L311.524 477.371ZM311.225 465.36C311.174 463.36 311.121 461.36 311.068 459.36L308.069 459.44C308.122 461.438 308.175 463.438 308.226 465.437L311.225 465.36ZM310.907 453.364C310.852 451.36 310.796 449.357 310.74 447.354L307.741 447.439C307.797 449.44 307.853 451.443 307.908 453.446L310.907 453.364ZM310.569 441.349C310.511 439.348 310.452 437.347 310.393 435.348L307.394 435.437C307.453 437.436 307.512 439.435 307.57 441.435L310.569 441.349ZM310.212 429.352C310.151 427.35 310.089 425.349 310.027 423.349L307.028 423.443C307.091 425.442 307.152 427.442 307.213 429.443L310.212 429.352ZM309.836 417.341C309.772 415.339 309.707 413.338 309.641 411.338L306.643 411.437C306.709 413.436 306.774 415.436 306.838 417.437L309.836 417.341ZM309.442 405.341C309.375 403.343 309.307 401.346 309.239 399.349L306.24 399.452C306.309 401.448 306.377 403.444 306.444 405.442L309.442 405.341ZM309.03 393.338C308.96 391.335 308.889 389.333 308.817 387.332L305.819 387.44C305.89 389.44 305.961 391.441 306.032 393.443L309.03 393.338ZM308.599 381.333C308.526 379.335 308.452 377.337 308.378 375.341L305.38 375.453C305.454 377.448 305.528 379.445 305.601 381.443L308.599 381.333ZM308.152 369.339C308.075 367.335 307.998 365.332 307.92 363.331L304.923 363.447C305 365.448 305.077 367.45 305.154 369.454L308.152 369.339ZM307.685 357.329C307.606 355.33 307.527 353.332 307.446 351.335L304.449 351.456C304.529 353.452 304.609 355.449 304.688 357.448L307.685 357.329ZM307.203 345.347C307.121 343.341 307.038 341.337 306.954 339.334L303.957 339.459C304.04 341.461 304.123 343.465 304.205 345.47L307.203 345.347ZM306.702 333.329C306.617 331.329 306.531 329.33 306.445 327.333L303.448 327.462C303.534 329.459 303.62 331.457 303.704 333.456L306.702 333.329ZM306.185 321.345C306.097 319.343 306.009 317.342 305.92 315.342L302.923 315.476C303.012 317.474 303.1 319.475 303.188 321.476L306.185 321.345ZM305.65 309.334C305.56 307.333 305.468 305.333 305.377 303.335L302.38 303.472C302.472 305.47 302.563 307.469 302.653 309.469L305.65 309.334ZM305.1 297.345C305.007 295.347 304.913 293.351 304.819 291.356L301.822 291.498C301.916 293.492 302.01 295.487 302.103 297.485L305.1 297.345ZM304.532 285.344C304.436 283.341 304.339 281.34 304.242 279.341L301.246 279.487C301.343 281.485 301.44 283.485 301.536 285.487L304.532 285.344ZM303.949 273.349C303.85 271.353 303.751 269.36 303.652 267.368L300.655 267.517C300.755 269.509 300.854 271.502 300.952 273.497L303.949 273.349ZM303.349 261.358C303.248 259.354 303.146 257.352 303.043 255.352L300.047 255.506C300.15 257.505 300.252 259.507 300.353 261.51L303.349 261.358ZM302.733 249.357C302.63 247.361 302.525 245.366 302.42 243.374L299.425 243.532C299.529 245.524 299.634 247.517 299.737 249.513L302.733 249.357ZM302.103 237.378C301.996 235.373 301.888 233.369 301.78 231.368L298.785 231.529C298.893 233.53 299 235.533 299.107 237.538L302.103 237.378ZM301.455 225.37C301.346 223.373 301.236 221.378 301.126 219.385L298.131 219.55C298.241 221.543 298.35 223.537 298.459 225.533L301.455 225.37ZM300.794 213.403C300.682 211.396 300.569 209.391 300.456 207.388L297.461 207.558C297.574 209.56 297.686 211.564 297.799 213.571L300.794 213.403ZM300.115 201.387C300.001 199.389 299.886 197.393 299.771 195.4L296.776 195.573C296.891 197.566 297.005 199.561 297.12 201.558L300.115 201.387ZM299.424 189.427C299.306 187.42 299.189 185.416 299.07 183.414L296.076 183.591C296.194 185.592 296.311 187.596 296.429 189.602L299.424 189.427ZM298.714 177.409C298.595 175.41 298.475 173.414 298.355 171.42L295.36 171.6C295.48 173.594 295.6 175.589 295.719 177.588L298.714 177.409ZM297.993 165.446C297.871 163.442 297.748 161.441 297.625 159.443L294.631 159.627C294.754 161.625 294.876 163.625 294.998 165.628L297.993 165.446ZM297.253 153.435C297.129 151.435 297.004 149.438 296.879 147.444L293.885 147.632C294.01 149.626 294.135 151.622 294.259 153.621L297.253 153.435ZM296.502 141.469C296.439 140.475 296.376 139.482 296.313 138.489L293.319 138.68C293.382 139.672 293.445 140.665 293.508 141.659L296.502 141.469ZM296.313 138.489C296.246 137.432 296.171 136.381 296.09 135.339L293.099 135.572C293.179 136.6 293.253 137.636 293.319 138.68L296.313 138.489ZM295.521 129.174C295.304 127.149 295.061 125.155 294.791 123.19L291.819 123.598C292.085 125.533 292.325 127.498 292.538 129.493L295.521 129.174ZM293.857 117.113C293.507 115.06 293.127 113.04 292.717 111.054L289.779 111.659C290.181 113.611 290.555 115.597 290.899 117.618L293.857 117.113ZM291.403 105.195C290.906 103.149 290.376 101.141 289.815 99.1693L286.929 99.9905C287.48 101.924 287.999 103.895 288.488 105.904L291.403 105.195ZM288.026 93.3283C287.383 91.3694 286.707 89.4491 285.999 87.5667L283.191 88.622C283.883 90.4645 284.545 92.3451 285.176 94.2645L288.026 93.3283ZM283.697 81.8292C282.895 79.9528 282.059 78.1168 281.192 76.3204L278.491 77.6243C279.338 79.3794 280.154 81.1739 280.939 83.0087L283.697 81.8292ZM278.353 70.7826C277.372 68.9799 276.358 67.2203 275.311 65.5028L272.749 67.0642C273.77 68.7396 274.76 70.4567 275.718 72.2163L278.353 70.7826ZM271.958 60.3053C270.797 58.6036 269.603 56.9469 268.377 55.3341L265.989 57.1501C267.184 58.7218 268.348 60.3366 269.479 61.9956L271.958 60.3053ZM264.52 50.5295C263.189 48.9566 261.824 47.4296 260.429 45.9471L258.245 48.0031C259.604 49.4476 260.933 50.9355 262.231 52.4681L264.52 50.5295ZM256.098 41.5798C254.611 40.1565 253.094 38.7787 251.548 37.4453L249.589 39.7167C251.096 41.0169 252.575 42.3599 254.024 43.7471L256.098 41.5798ZM246.794 33.55C245.173 32.2885 243.525 31.0712 241.851 29.8968L240.128 32.3525C241.762 33.4991 243.37 34.6871 244.952 35.9177L246.794 33.55ZM236.74 26.4905C235.008 25.3944 233.252 24.3404 231.474 23.3272L229.989 25.9334C231.727 26.9244 233.443 27.9547 235.136 29.0256L236.74 26.4905ZM226.076 20.4066C224.255 19.4726 222.415 18.578 220.557 17.7215L219.301 20.446C221.122 21.2853 222.924 22.1615 224.707 23.0758L226.076 20.4066ZM214.937 15.2673C213.048 14.487 211.144 13.7433 209.225 13.0349L208.186 15.8491C210.07 16.5447 211.938 17.2745 213.791 18.0399L214.937 15.2673ZM203.439 11.017C201.5 10.3794 199.548 9.77556 197.587 9.2042L196.748 12.0845C198.677 12.6465 200.596 13.2403 202.502 13.8669L203.439 11.017ZM191.68 7.58765C189.704 7.08071 187.72 6.60478 185.729 6.15856L185.073 9.08593C187.034 9.52564 188.989 9.99443 190.935 10.4936L191.68 7.58765ZM179.738 4.90745C177.735 4.51919 175.728 4.15934 173.718 3.82659L173.228 6.78629C175.212 7.11469 177.192 7.46971 179.167 7.85261L179.738 4.90745ZM167.671 2.90663C165.65 2.62585 163.629 2.37104 161.608 2.14089L161.269 5.12162C163.265 5.34905 165.262 5.60078 167.258 5.87808L167.671 2.90663ZM155.525 1.5207C153.492 1.3373 151.463 1.17761 149.438 1.04029L149.235 4.03341C151.238 4.16927 153.246 4.32722 155.255 4.50856L155.525 1.5207ZM143.334 0.691924C141.294 0.597059 139.261 0.523755 137.237 0.470619L137.159 3.46959C139.163 3.52221 141.176 3.59478 143.195 3.68869L143.334 0.691924ZM131.123 0.369827C129.08 0.355815 127.049 0.361291 125.032 0.384783L125.066 3.38458C127.066 3.3613 129.079 3.35587 131.102 3.36976L131.123 0.369827ZM118.911 0.511046C116.871 0.571248 114.846 0.64885 112.841 0.742263L112.98 3.73901C114.969 3.64637 116.977 3.56943 119 3.50974L118.911 0.511046ZM106.714 1.07894C104.68 1.20759 102.668 1.35145 100.681 1.50874L100.918 4.49939C102.889 4.34331 104.885 4.20058 106.904 4.07296L106.714 1.07894ZM94.5487 2.0428C92.5016 2.23715 90.4855 2.44454 88.5033 2.66288L88.8318 5.64485C90.7994 5.42811 92.8005 5.22226 94.8322 5.02937L94.5487 2.0428ZM82.4409 3.37625C80.3711 3.63529 78.3449 3.90466 76.3662 4.1817L76.7821 7.15272C78.7468 6.87765 80.7585 6.6102 82.8134 6.35303L82.4409 3.37625ZM70.3911 5.06172C68.3077 5.38372 66.2877 5.7118 64.3362 6.0423L64.8371 9.00018C66.7748 8.67201 68.7806 8.34625 70.8494 8.02652L70.3911 5.06172ZM58.2924 7.11109C56.1915 7.49845 54.1919 7.88379 52.302 8.26132L52.8897 11.2032C54.7656 10.8285 56.7506 10.4459 58.8364 10.0614L58.2924 7.11109ZM46.3334 9.50158C44.112 9.98149 42.1113 10.4348 40.3526 10.8469L41.0369 13.7678C42.7795 13.3595 44.7632 12.91 46.9669 12.4339L46.3334 9.50158ZM34.5394 12.2709C33.5828 12.5169 32.8483 12.7127 32.3516 12.8473C32.1032 12.9146 31.9142 12.9667 31.7867 13.0021C31.7229 13.0198 31.6744 13.0333 31.6416 13.0426C31.6252 13.0472 31.6127 13.0507 31.6041 13.0531C31.5998 13.0543 31.5965 13.0553 31.5941 13.0559C31.593 13.0563 31.5921 13.0565 31.5914 13.0567C31.5911 13.0568 31.5908 13.0569 31.5906 13.057C31.5905 13.057 31.5904 13.057 31.5903 13.057C31.5903 13.057 31.5902 13.0571 31.5902 13.0571C31.5902 13.0571 31.5901 13.0571 32 14.5C32.4099 15.9429 32.4098 15.9429 32.4098 15.9429C32.4098 15.9429 32.4098 15.9429 32.4098 15.9429C32.4098 15.9429 32.4098 15.9429 32.4098 15.9429C32.4098 15.9429 32.4099 15.9429 32.4101 15.9429C32.4104 15.9428 32.411 15.9426 32.4118 15.9424C32.4134 15.9419 32.416 15.9412 32.4196 15.9402C32.4268 15.9381 32.4379 15.935 32.4529 15.9308C32.4828 15.9224 32.5284 15.9096 32.5892 15.8927C32.711 15.8589 32.894 15.8085 33.1363 15.7428C33.621 15.6115 34.343 15.419 35.2865 15.1764L34.5394 12.2709Z" fill="#C44601"/>
</svg>
